<?xml version="1.0" encoding="utf-8" standalone="no"?>
<!DOCTYPE svg PUBLIC "-//W3C//DTD SVG 1.1//EN"
  "http://www.w3.org/Graphics/SVG/1.1/DTD/svg11.dtd">
<!-- Created with matplotlib (http://matplotlib.org/) -->
<svg height="311pt" version="1.1" viewBox="0 0 430 311" width="430pt" xmlns="http://www.w3.org/2000/svg" xmlns:xlink="http://www.w3.org/1999/xlink">
 <defs>
  <style type="text/css">
*{stroke-linecap:butt;stroke-linejoin:round;}
  </style>
 </defs>
 <g id="figure_1">
  <g id="patch_1">
   <path d="M 0 311.771219 
L 430.05625 311.771219 
L 430.05625 0 
L 0 0 
z
" style="fill:#ffffff;"/>
  </g>
  <g id="axes_1">
   <g id="patch_2">
    <path d="M 48.5575 280.150594 
L 405.6775 280.150594 
L 405.6775 14.038594 
L 48.5575 14.038594 
z
" style="fill:#ffffff;"/>
   </g>
   <g id="matplotlib.axis_1">
    <g id="xtick_1">
     <g id="line2d_1">
      <defs>
       <path d="M 0 0 
L 0 3.5 
" id="mf5c43a54d8" style="stroke:#000000;stroke-width:0.8;"/>
      </defs>
      <g>
       <use style="stroke:#000000;stroke-width:0.8;" x="48.5575" xlink:href="#mf5c43a54d8" y="280.150594"/>
      </g>
     </g>
     <g id="text_1">
      <!-- 0 -->
      <defs>
       <path d="M 31.78125 66.40625 
Q 24.171875 66.40625 20.328125 58.90625 
Q 16.5 51.421875 16.5 36.375 
Q 16.5 21.390625 20.328125 13.890625 
Q 24.171875 6.390625 31.78125 6.390625 
Q 39.453125 6.390625 43.28125 13.890625 
Q 47.125 21.390625 47.125 36.375 
Q 47.125 51.421875 43.28125 58.90625 
Q 39.453125 66.40625 31.78125 66.40625 
z
M 31.78125 74.21875 
Q 44.046875 74.21875 50.515625 64.515625 
Q 56.984375 54.828125 56.984375 36.375 
Q 56.984375 17.96875 50.515625 8.265625 
Q 44.046875 -1.421875 31.78125 -1.421875 
Q 19.53125 -1.421875 13.0625 8.265625 
Q 6.59375 17.96875 6.59375 36.375 
Q 6.59375 54.828125 13.0625 64.515625 
Q 19.53125 74.21875 31.78125 74.21875 
z
" id="DejaVuSans-30"/>
      </defs>
      <g transform="translate(42.83125 300.827781)scale(0.18 -0.18)">
       <use xlink:href="#DejaVuSans-30"/>
      </g>
     </g>
    </g>
    <g id="xtick_2">
     <g id="line2d_2">
      <g>
       <use style="stroke:#000000;stroke-width:0.8;" x="405.6775" xlink:href="#mf5c43a54d8" y="280.150594"/>
      </g>
     </g>
     <g id="text_2">
      <!-- 640 -->
      <defs>
       <path d="M 33.015625 40.375 
Q 26.375 40.375 22.484375 35.828125 
Q 18.609375 31.296875 18.609375 23.390625 
Q 18.609375 15.53125 22.484375 10.953125 
Q 26.375 6.390625 33.015625 6.390625 
Q 39.65625 6.390625 43.53125 10.953125 
Q 47.40625 15.53125 47.40625 23.390625 
Q 47.40625 31.296875 43.53125 35.828125 
Q 39.65625 40.375 33.015625 40.375 
z
M 52.59375 71.296875 
L 52.59375 62.3125 
Q 48.875 64.0625 45.09375 64.984375 
Q 41.3125 65.921875 37.59375 65.921875 
Q 27.828125 65.921875 22.671875 59.328125 
Q 17.53125 52.734375 16.796875 39.40625 
Q 19.671875 43.65625 24.015625 45.921875 
Q 28.375 48.1875 33.59375 48.1875 
Q 44.578125 48.1875 50.953125 41.515625 
Q 57.328125 34.859375 57.328125 23.390625 
Q 57.328125 12.15625 50.6875 5.359375 
Q 44.046875 -1.421875 33.015625 -1.421875 
Q 20.359375 -1.421875 13.671875 8.265625 
Q 6.984375 17.96875 6.984375 36.375 
Q 6.984375 53.65625 15.1875 63.9375 
Q 23.390625 74.21875 37.203125 74.21875 
Q 40.921875 74.21875 44.703125 73.484375 
Q 48.484375 72.75 52.59375 71.296875 
z
" id="DejaVuSans-36"/>
       <path d="M 37.796875 64.3125 
L 12.890625 25.390625 
L 37.796875 25.390625 
z
M 35.203125 72.90625 
L 47.609375 72.90625 
L 47.609375 25.390625 
L 58.015625 25.390625 
L 58.015625 17.1875 
L 47.609375 17.1875 
L 47.609375 0 
L 37.796875 0 
L 37.796875 17.1875 
L 4.890625 17.1875 
L 4.890625 26.703125 
z
" id="DejaVuSans-34"/>
      </defs>
      <g transform="translate(388.49875 300.827781)scale(0.18 -0.18)">
       <use xlink:href="#DejaVuSans-36"/>
       <use x="63.623047" xlink:href="#DejaVuSans-34"/>
       <use x="127.246094" xlink:href="#DejaVuSans-30"/>
      </g>
     </g>
    </g>
   </g>
   <g id="matplotlib.axis_2">
    <g id="ytick_1">
     <g id="line2d_3">
      <defs>
       <path d="M 0 0 
L -3.5 0 
" id="m1a17374727" style="stroke:#000000;stroke-width:0.8;"/>
      </defs>
      <g>
       <use style="stroke:#000000;stroke-width:0.8;" x="48.5575" xlink:href="#m1a17374727" y="14.038594"/>
      </g>
     </g>
     <g id="text_3">
      <!-- 480 -->
      <defs>
       <path d="M 31.78125 34.625 
Q 24.75 34.625 20.71875 30.859375 
Q 16.703125 27.09375 16.703125 20.515625 
Q 16.703125 13.921875 20.71875 10.15625 
Q 24.75 6.390625 31.78125 6.390625 
Q 38.8125 6.390625 42.859375 10.171875 
Q 46.921875 13.96875 46.921875 20.515625 
Q 46.921875 27.09375 42.890625 30.859375 
Q 38.875 34.625 31.78125 34.625 
z
M 21.921875 38.8125 
Q 15.578125 40.375 12.03125 44.71875 
Q 8.5 49.078125 8.5 55.328125 
Q 8.5 64.0625 14.71875 69.140625 
Q 20.953125 74.21875 31.78125 74.21875 
Q 42.671875 74.21875 48.875 69.140625 
Q 55.078125 64.0625 55.078125 55.328125 
Q 55.078125 49.078125 51.53125 44.71875 
Q 48 40.375 41.703125 38.8125 
Q 48.828125 37.15625 52.796875 32.3125 
Q 56.78125 27.484375 56.78125 20.515625 
Q 56.78125 9.90625 50.3125 4.234375 
Q 43.84375 -1.421875 31.78125 -1.421875 
Q 19.734375 -1.421875 13.25 4.234375 
Q 6.78125 9.90625 6.78125 20.515625 
Q 6.78125 27.484375 10.78125 32.3125 
Q 14.796875 37.15625 21.921875 38.8125 
z
M 18.3125 54.390625 
Q 18.3125 48.734375 21.84375 45.5625 
Q 25.390625 42.390625 31.78125 42.390625 
Q 38.140625 42.390625 41.71875 45.5625 
Q 45.3125 48.734375 45.3125 54.390625 
Q 45.3125 60.0625 41.71875 63.234375 
Q 38.140625 66.40625 31.78125 66.40625 
Q 25.390625 66.40625 21.84375 63.234375 
Q 18.3125 60.0625 18.3125 54.390625 
z
" id="DejaVuSans-38"/>
      </defs>
      <g transform="translate(7.2 20.877187)scale(0.18 -0.18)">
       <use xlink:href="#DejaVuSans-34"/>
       <use x="63.623047" xlink:href="#DejaVuSans-38"/>
       <use x="127.246094" xlink:href="#DejaVuSans-30"/>
      </g>
     </g>
    </g>
   </g>
   <g id="line2d_4">
    <path clip-path="url(#pbd79aa55ca)" d="M 224.8855 241.896994 
L 224.6065 241.896994 
L 224.6065 241.813834 
L 224.53675 237.738994 
L 224.3275 234.329434 
L 224.39725 193.082074 
L 224.6065 186.678754 
L 224.67625 180.109114 
L 226.141 149.423074 
L 226.699 143.269234 
L 227.3965 133.955314 
L 228.86125 118.404394 
L 229.21 112.832674 
L 229.69825 107.593594 
L 230.047 102.603994 
L 230.605 96.699634 
L 232.6975 62.936674 
L 232.76725 61.772434 
L 232.9765 59.776594 
L 233.04625 56.283874 
L 233.2555 54.953314 
L 233.32525 51.876394 
L 233.74375 49.880554 
L 234.6505 46.637314 
L 234.6505 46.637314 
" style="fill:none;stroke:#1f77b4;stroke-linecap:square;stroke-width:1.5;"/>
   </g>
   <g id="line2d_5">
    <path clip-path="url(#pbd79aa55ca)" d="M 264.7825 224.267074 
L 264.7825 224.932354 
L 264.7825 224.599714 
L 264.7825 224.599714 
L 264.85225 221.190154 
L 265.0615 218.030074 
L 264.99175 210.462514 
L 263.9455 194.662114 
L 263.59675 190.753594 
L 263.248 185.597674 
L 261.78325 171.793114 
L 261.1555 166.055074 
L 260.5975 153.414754 
L 260.0395 140.774434 
L 259.96975 136.782754 
L 259.7605 131.543674 
L 259.69075 121.231834 
L 259.4815 116.242234 
L 259.41175 111.252634 
L 259.2025 106.512514 
L 259.13275 102.437674 
L 258.9235 98.279674 
L 258.85375 94.620634 
L 258.3655 87.302554 
L 258.29575 83.726674 
L 258.0865 80.400274 
L 258.01675 77.157034 
L 257.8075 74.163274 
L 257.73775 71.252674 
L 257.31925 66.263074 
L 257.2495 64.100914 
L 257.17975 62.437714 
L 256.9705 60.441874 
L 256.9705 58.944994 
L 256.6915 56.949154 
L 256.6915 55.285954 
L 256.4125 52.957474 
L 256.4125 49.631074 
L 256.6915 47.302594 
L 256.6915 46.637314 
L 256.6915 46.637314 
" style="fill:none;stroke:#ff7f0e;stroke-linecap:square;stroke-width:1.5;"/>
   </g>
   <g id="line2d_6">
    <path clip-path="url(#pbd79aa55ca)" d="M 203.1235 244.890754 
L 202.8445 244.890754 
L 202.8445 244.973914 
L 202.8445 245.223394 
L 202.77475 245.223394 
L 202.2865 245.223394 
L 202.2865 245.306554 
L 202.2865 245.556034 
L 202.21675 245.556034 
L 201.93775 245.472874 
L 201.7285 245.057074 
L 201.65875 244.641274 
L 201.24025 242.811754 
L 200.3335 237.572674 
L 199.98475 234.495754 
L 199.7755 230.088274 
L 199.70575 225.514474 
L 199.2175 216.948994 
L 199.14775 209.880394 
L 198.3805 184.433434 
L 198.45025 129.132034 
L 198.6595 123.892954 
L 198.72925 118.238074 
L 199.2175 107.510434 
L 200.194 91.044754 
L 201.37975 80.233954 
L 201.868 74.246434 
L 202.8445 64.599874 
L 202.8445 63.269314 
L 203.1235 59.942914 
L 203.1235 56.949154 
L 203.4025 55.618594 
L 203.4025 49.631074 
L 203.6815 48.300514 
L 203.6815 48.300514 
" style="fill:none;stroke:#2ca02c;stroke-linecap:square;stroke-width:1.5;"/>
   </g>
   <g id="line2d_7">
    <path clip-path="url(#pbd79aa55ca)" d="M 261.4345 251.543554 
L 261.08575 250.462474 
L 260.562625 246.803434 
L 259.7605 236.242114 
L 259.342 230.420914 
L 258.85375 225.680794 
L 258.505 220.524874 
L 257.31925 209.547754 
L 256.552 203.892874 
L 254.38975 181.439674 
L 254.1805 175.368994 
L 254.25025 164.724514 
L 254.878 150.919954 
L 255.22675 143.019754 
L 255.8545 130.462594 
L 255.92425 125.223514 
L 256.1335 120.233914 
L 256.20325 115.327474 
L 256.9705 101.606074 
L 257.04025 96.034354 
L 257.2495 92.707954 
L 257.31925 84.641434 
L 257.5285 80.649754 
L 257.59825 78.238114 
L 258.01675 75.743314 
L 258.0865 74.495914 
L 258.0865 72.250594 
L 258.0865 72.250594 
" style="fill:none;stroke:#d62728;stroke-linecap:square;stroke-width:1.5;"/>
   </g>
   <g id="line2d_8">
    <path clip-path="url(#pbd79aa55ca)" d="M 269.2465 226.262914 
L 269.2465 225.930274 
L 269.17675 225.930274 
L 268.9675 225.930274 
L 268.47925 224.516554 
L 268.1305 223.518634 
L 267.154 220.691194 
L 266.596 218.113234 
L 265.3405 209.963554 
L 264.85225 207.052954 
L 264.085 203.227594 
L 262.89925 194.495794 
L 261.9925 189.007234 
L 261.016 181.273354 
L 260.458 176.283754 
L 260.0395 169.880434 
L 259.96975 165.306634 
L 259.4815 157.073794 
L 259.41175 150.836794 
L 259.2025 145.764034 
L 259.13275 140.441794 
L 258.6445 129.547834 
L 258.57475 117.489634 
L 258.3655 109.672594 
L 258.29575 102.936634 
L 258.0865 97.448074 
L 258.01675 86.470954 
L 257.8075 82.229794 
L 257.87725 61.439794 
L 258.3655 57.281794 
L 258.43525 53.955394 
L 258.6445 52.624834 
L 258.71425 51.044794 
L 259.13275 48.300514 
L 259.2025 47.967874 
L 259.2025 47.967874 
" style="fill:none;stroke:#9467bd;stroke-linecap:square;stroke-width:1.5;"/>
   </g>
   <g id="line2d_9">
    <path clip-path="url(#pbd79aa55ca)" d="M 179.9665 222.936514 
L 180.071125 222.354394 
L 180.31525 221.522794 
L 180.698875 218.612194 
L 181.71025 209.921974 
L 182.7565 200.982274 
L 183.10525 196.990594 
L 183.454 191.668354 
L 184.291 184.682914 
L 185.965 173.373154 
L 188.197 158.487514 
L 191.33575 130.878394 
L 192.382 125.057194 
L 193.84675 117.406474 
L 195.73 104.100874 
L 196.07875 101.522914 
L 198.9385 83.976154 
L 199.98475 78.404434 
L 200.752 74.911714 
L 201.589 69.672634 
L 201.868 67.593634 
L 202.147 65.680954 
L 202.705 62.936674 
L 203.1235 59.277634 
L 203.1235 58.612354 
L 203.9605 55.951234 
L 203.9605 54.953314 
L 204.58825 53.705914 
L 204.7975 52.957474 
L 204.7975 52.957474 
" style="fill:none;stroke:#8c564b;stroke-linecap:square;stroke-width:1.5;"/>
   </g>
   <g id="line2d_10">
    <path clip-path="url(#pbd79aa55ca)" d="M 243.8575 254.204674 
L 243.5785 253.705714 
L 243.50875 253.040434 
L 242.881 249.298234 
L 242.67175 247.801354 
L 242.1835 243.726514 
L 241.83475 240.982234 
L 241.6255 236.990554 
L 241.55575 227.676634 
L 241.3465 222.770194 
L 241.41625 165.472954 
L 241.765 159.069634 
L 242.25325 152.333674 
L 242.602 145.181914 
L 243.718 128.799394 
L 243.997 123.393994 
L 244.48525 116.408554 
L 244.834 109.339954 
L 245.392 100.857634 
L 245.95 91.211074 
L 246.508 85.306714 
L 247.066 76.408594 
L 247.345 72.001114 
L 247.97275 65.514634 
L 248.3215 61.606114 
L 248.94925 58.196554 
L 249.577 52.624834 
L 250.34425 46.387834 
L 250.5535 44.641474 
L 250.5535 44.641474 
" style="fill:none;stroke:#e377c2;stroke-linecap:square;stroke-width:1.5;"/>
   </g>
   <g id="line2d_11">
    <path clip-path="url(#pbd79aa55ca)" d="M 265.0615 251.543554 
L 264.398875 248.341894 
L 263.9455 245.223394 
L 262.969 238.820074 
L 262.48075 234.412594 
L 262.132 229.589314 
L 261.64375 224.267074 
L 261.295 218.861674 
L 260.80675 213.123634 
L 260.5975 207.219274 
L 260.52775 200.649634 
L 260.3185 190.504114 
L 260.24875 185.597674 
L 260.0395 178.612234 
L 260.10925 133.373194 
L 261.853 99.277594 
L 262.34125 94.287994 
L 262.969 84.391954 
L 263.3875 77.905474 
L 263.45725 75.161194 
L 264.5035 46.886794 
L 264.57325 45.140434 
L 265.0615 38.570794 
L 265.13125 35.743354 
L 265.48 32.167474 
L 265.6195 29.340034 
L 265.6195 29.340034 
" style="fill:none;stroke:#7f7f7f;stroke-linecap:square;stroke-width:1.5;"/>
   </g>
   <g id="line2d_12">
    <path clip-path="url(#pbd79aa55ca)" d="M 217.9105 264.183874 
L 217.9105 264.516514 
L 217.9105 264.350194 
L 217.9105 264.350194 
L 217.84075 263.934394 
L 217.6315 263.185954 
L 217.6315 257.531074 
L 218.4685 248.217154 
L 219.445 239.152714 
L 220.07275 233.497834 
L 220.84 227.759794 
L 221.46775 221.689114 
L 223.2115 207.801394 
L 226.07125 176.366914 
L 226.42 173.123674 
L 227.04775 166.803514 
L 227.815 160.566514 
L 229.3495 144.766114 
L 230.326 137.614354 
L 231.721 123.809794 
L 232.20925 118.487554 
L 232.558 113.248474 
L 233.5345 104.849314 
L 234.6505 98.196514 
L 235.4875 90.213154 
L 236.39425 83.643514 
L 237.4405 68.924194 
L 237.51025 67.510474 
L 237.9985 61.439794 
L 238.06825 60.441874 
L 238.8355 54.953314 
L 239.3935 53.290114 
L 239.6725 51.626914 
L 239.6725 51.626914 
" style="fill:none;stroke:#bcbd22;stroke-linecap:square;stroke-width:1.5;"/>
   </g>
   <g id="line2d_13">
    <path clip-path="url(#pbd79aa55ca)" d="M 265.3405 241.896994 
L 265.27075 241.398034 
L 264.677875 239.776414 
L 263.806 235.576834 
L 261.78325 221.855434 
L 261.016 216.034234 
L 260.458 208.466674 
L 260.0395 198.071674 
L 260.10925 178.445914 
L 260.3185 172.042594 
L 260.38825 165.472954 
L 262.2715 121.231834 
L 262.34125 99.693394 
L 262.5505 95.036434 
L 262.62025 90.628954 
L 263.03875 83.892994 
L 263.1085 81.065554 
L 263.17825 78.903394 
L 263.3875 76.325434 
L 263.3875 66.595714 
L 263.3875 66.595714 
" style="fill:none;stroke:#17becf;stroke-linecap:square;stroke-width:1.5;"/>
   </g>
   <g id="line2d_14">
    <path clip-path="url(#pbd79aa55ca)" d="M 231.5815 245.223394 
L 231.3025 245.223394 
L 231.3025 245.140234 
L 231.3025 244.890754 
L 230.326 238.487434 
L 229.9075 235.244194 
L 229.0705 221.938594 
L 227.9545 201.314914 
L 227.6755 197.988514 
L 227.60575 189.755674 
L 227.3965 179.859634 
L 227.46625 171.294154 
L 227.6755 161.065474 
L 227.74525 156.574834 
L 228.7915 132.791074 
L 228.86125 125.971954 
L 229.0705 120.150754 
L 229.0705 116.159074 
L 228.44275 109.589434 
L 227.9545 102.188194 
L 227.536 97.448074 
L 226.35025 87.468874 
L 226.141 85.556194 
L 225.65275 81.647674 
L 225.1645 74.662234 
L 225.09475 71.086354 
L 224.188 59.277634 
L 224.0485 55.951234 
L 224.11825 50.130034 
L 224.53675 46.387834 
L 224.81575 44.391994 
L 225.862 38.820274 
L 226.0015 38.321314 
L 226.0015 38.321314 
" style="fill:none;stroke:#1f77b4;stroke-linecap:square;stroke-width:1.5;"/>
   </g>
   <g id="line2d_15">
    <path clip-path="url(#pbd79aa55ca)" d="M 191.1265 254.537314 
L 190.708 253.872034 
L 190.08025 252.125674 
L 188.197 245.057074 
L 186.9415 239.235874 
L 185.2675 224.599714 
L 184.4305 214.620514 
L 184.08175 210.711994 
L 183.5935 200.982274 
L 183.52375 195.743194 
L 183.3145 190.504114 
L 183.24475 184.017634 
L 182.7565 167.801434 
L 182.82625 155.660074 
L 183.0355 151.169434 
L 183.10525 146.262994 
L 183.3145 141.606034 
L 183.38425 120.400234 
L 183.5935 115.743274 
L 183.66325 104.932474 
L 183.8725 100.774474 
L 183.80275 88.799434 
L 183.5935 85.805674 
L 183.52375 79.901314 
L 183.3145 77.323354 
L 183.24475 74.662234 
L 182.4775 63.269314 
L 182.4775 54.953314 
L 182.4775 54.953314 
" style="fill:none;stroke:#ff7f0e;stroke-linecap:square;stroke-width:1.5;"/>
   </g>
   <g id="line2d_16">
    <path clip-path="url(#pbd79aa55ca)" d="M 278.4535 239.901154 
L 278.1745 239.901154 
L 277.6165 238.237954 
L 276.70975 236.325274 
L 275.3845 233.580994 
L 272.5945 223.269154 
L 271.1995 216.283714 
L 270.502 213.456274 
L 269.665 210.129874 
L 268.828 206.055034 
L 268.27 203.477074 
L 267.712 200.732794 
L 266.7355 194.994754 
L 263.248 176.533234 
L 261.295 167.551954 
L 260.179 161.564434 
L 257.2495 144.433474 
L 254.7385 132.707914 
L 253.55275 125.722474 
L 252.2275 118.737034 
L 250.8325 109.506274 
L 249.4375 99.527074 
L 248.6005 93.539554 
L 247.7635 89.880514 
L 246.0895 78.238114 
L 245.113 70.587394 
L 244.6945 67.593634 
L 244.4155 63.601954 
L 243.8575 60.275554 
L 243.16 52.791154 
L 242.044 44.308834 
L 241.6255 40.982434 
L 241.6255 37.988674 
L 241.3465 36.658114 
L 241.3465 35.660194 
L 241.6255 34.662274 
L 241.6255 34.662274 
" style="fill:none;stroke:#2ca02c;stroke-linecap:square;stroke-width:1.5;"/>
   </g>
   <g id="line2d_17">
    <path clip-path="url(#pbd79aa55ca)" d="M 215.6785 259.526914 
L 215.3995 259.526914 
L 215.3995 259.443754 
L 215.32975 258.944794 
L 215.1205 258.196354 
L 214.702 254.038354 
L 213.4465 246.054994 
L 211.912 233.331514 
L 210.9355 223.934434 
L 210.44725 215.535274 
L 209.74975 206.803474 
L 209.401 200.815954 
L 208.91275 194.662114 
L 208.564 187.842994 
L 207.448 174.620554 
L 206.611 167.219314 
L 205.9135 161.231794 
L 203.9605 141.107074 
L 203.542 131.044714 
L 203.1235 123.560314 
L 203.19325 88.383634 
L 203.4025 83.809834 
L 203.47225 79.568674 
L 203.9605 71.003194 
L 204.03025 67.344154 
L 204.2395 63.768274 
L 204.30925 57.198634 
L 204.5185 53.955394 
L 204.5185 48.965794 
L 204.5185 48.965794 
" style="fill:none;stroke:#d62728;stroke-linecap:square;stroke-width:1.5;"/>
   </g>
   <g id="line2d_18">
    <path clip-path="url(#pbd79aa55ca)" d="M 203.9605 228.258754 
L 203.33275 226.928194 
L 201.868 219.776434 
L 201.031 213.622594 
L 199.7755 204.973954 
L 198.9385 198.986434 
L 197.5435 170.878354 
L 197.2645 167.718274 
L 196.846 156.159034 
L 196.35775 147.011434 
L 195.93925 135.535354 
L 195.8695 132.707914 
L 195.79975 127.053034 
L 195.451 121.398154 
L 194.96275 115.660114 
L 194.614 109.755754 
L 193.6375 100.857634 
L 191.545 83.976154 
L 191.33575 81.065554 
L 190.987 75.244354 
L 190.8475 73.248514 
L 190.77775 70.836874 
L 190.2895 67.260994 
L 190.21975 65.348314 
L 190.0105 64.267234 
L 189.94075 63.768274 
L 189.7315 63.102994 
L 189.7315 59.942914 
L 189.7315 59.942914 
" style="fill:none;stroke:#9467bd;stroke-linecap:square;stroke-width:1.5;"/>
   </g>
   <g id="line2d_19">
    <path clip-path="url(#pbd79aa55ca)" d="M 251.3905 232.915714 
L 251.32075 231.003034 
L 250.90225 226.761874 
L 250.5535 221.938594 
L 250.48375 216.117394 
L 250.2745 212.624674 
L 250.20475 203.393914 
L 249.9955 200.649634 
L 249.577 188.591434 
L 249.08875 181.772314 
L 248.0425 155.576914 
L 248.11225 149.589394 
L 250.2745 105.181954 
L 250.8325 96.865954 
L 250.90225 84.641434 
L 251.1115 81.065554 
L 251.18125 71.252674 
L 251.3905 67.427314 
L 251.46025 64.267234 
L 251.6695 61.689274 
L 251.73925 59.443954 
L 251.9485 57.364954 
L 252.01825 55.285954 
L 252.2275 53.955394 
L 252.2275 50.961634 
L 252.2275 50.961634 
" style="fill:none;stroke:#8c564b;stroke-linecap:square;stroke-width:1.5;"/>
   </g>
   <g id="line2d_20">
    <path clip-path="url(#pbd79aa55ca)" d="M 234.6505 226.928194 
L 234.3715 226.928194 
L 234.3715 226.845034 
L 234.30175 226.013434 
L 231.79075 204.225514 
L 231.37225 201.065434 
L 230.605 195.992674 
L 229.41925 185.265034 
L 226.90825 168.217234 
L 225.583 153.913714 
L 225.1645 146.096674 
L 225.09475 140.774434 
L 224.6065 130.462594 
L 224.53675 123.809794 
L 224.3275 118.487554 
L 224.25775 113.331634 
L 223.7695 103.352434 
L 223.69975 93.539554 
L 223.4905 86.221474 
L 223.42075 74.579074 
L 223.2115 70.753714 
L 223.2115 35.992834 
L 223.2115 35.992834 
" style="fill:none;stroke:#e377c2;stroke-linecap:square;stroke-width:1.5;"/>
   </g>
   <g id="line2d_21">
    <path clip-path="url(#pbd79aa55ca)" d="M 212.8885 226.262914 
L 212.81875 226.678714 
L 212.6095 226.928194 
L 212.6095 226.761874 
L 212.53975 226.512394 
L 212.3305 226.262914 
L 210.86575 222.520714 
L 209.5405 218.944834 
L 205.84375 210.711994 
L 203.9605 205.472914 
L 202.2865 200.649634 
L 200.26375 195.992674 
L 196.288 184.350274 
L 195.5905 182.021794 
L 192.661 174.786874 
L 191.6845 172.042594 
L 189.80125 166.221394 
L 188.6155 161.897074 
L 186.59275 155.493754 
L 185.19775 151.668394 
L 183.175 145.098754 
L 181.15225 138.529114 
L 172.36375 111.003154 
L 168.5275 97.863874 
L 167.1325 92.541634 
L 165.877 86.138314 
L 165.1795 83.144554 
L 165.10975 81.481354 
L 164.9005 79.568674 
L 164.9005 78.903394 
L 164.9005 78.903394 
" style="fill:none;stroke:#7f7f7f;stroke-linecap:square;stroke-width:1.5;"/>
   </g>
   <g id="line2d_22">
    <path clip-path="url(#pbd79aa55ca)" d="M 183.3145 227.260834 
L 182.896 227.593474 
L 182.68675 227.676634 
L 182.4775 227.926114 
L 182.40775 227.842954 
L 182.1985 227.593474 
L 182.1985 227.593474 
L 181.6405 223.601794 
L 181.71025 212.957314 
L 181.9195 209.048794 
L 181.98925 205.223434 
L 182.1985 200.982274 
L 182.26825 196.824274 
L 182.4775 192.084154 
L 182.54725 176.949034 
L 182.7565 169.963594 
L 182.82625 163.643434 
L 183.0355 158.820154 
L 183.10525 148.341994 
L 183.3145 143.934514 
L 183.24475 130.712074 
L 183.0355 126.304594 
L 182.96575 121.730794 
L 182.7565 117.323314 
L 182.82625 99.443914 
L 183.0355 95.202754 
L 183.10525 91.211074 
L 183.3145 87.219394 
L 183.3145 84.225634 
L 183.5935 80.233954 
L 183.5935 76.907554 
L 184.1515 69.090514 
L 184.1515 64.599874 
L 184.4305 61.938754 
L 184.4305 57.281794 
L 184.7095 53.456434 
L 184.7095 51.294274 
L 185.2675 48.466834 
L 185.5465 47.302594 
L 187.2205 37.988674 
L 187.2205 37.988674 
" style="fill:none;stroke:#bcbd22;stroke-linecap:square;stroke-width:1.5;"/>
   </g>
   <g id="line2d_23">
    <path clip-path="url(#pbd79aa55ca)" d="M 190.8475 238.903234 
L 190.429 239.235874 
L 190.2895 239.235874 
L 190.2895 239.235874 
L 189.94075 238.237954 
L 188.0575 228.924034 
L 185.19775 209.630914 
L 184.849 205.639234 
L 184.36075 201.647554 
L 183.5935 192.000994 
L 183.24475 188.425114 
L 182.896 183.518674 
L 182.40775 178.861714 
L 181.43125 161.148634 
L 181.0825 154.745314 
L 179.6875 130.462594 
L 179.61775 124.308754 
L 179.1295 114.495874 
L 179.05975 103.768234 
L 178.711 96.533314 
L 177.7345 81.897154 
L 177.7345 78.570754 
L 176.8975 68.924194 
L 176.8975 66.263074 
L 176.6185 60.608194 
L 176.6185 54.288034 
L 176.3395 51.626914 
L 176.3395 47.635234 
L 176.6185 47.302594 
L 176.6185 47.302594 
" style="fill:none;stroke:#17becf;stroke-linecap:square;stroke-width:1.5;"/>
   </g>
   <g id="line2d_24">
    <path clip-path="url(#pbd79aa55ca)" d="M 217.9105 233.913634 
L 217.84075 233.497834 
L 217.492 232.915714 
L 216.44575 230.171434 
L 215.6785 227.759794 
L 214.0045 221.938594 
L 212.8885 217.614274 
L 211.075 201.647554 
L 210.58675 196.408474 
L 210.238 191.418874 
L 209.74975 186.346114 
L 209.2615 178.030114 
L 208.63375 171.460474 
L 208.006 161.481274 
L 207.51775 156.574834 
L 206.7505 144.932434 
L 205.6345 134.287954 
L 205.216 129.797314 
L 204.5185 124.142434 
L 203.6815 114.495874 
L 202.49575 105.597754 
L 202.2865 102.853474 
L 201.031 95.784874 
L 200.68225 93.872194 
L 199.42675 88.383634 
L 198.31075 83.809834 
L 197.962 80.899234 
L 196.4275 73.082194 
L 196.009 69.755794 
L 195.73 67.593634 
L 195.3115 65.265154 
L 195.24175 64.017754 
L 195.0325 63.019834 
L 195.0325 61.606114 
L 194.7535 61.273474 
L 194.7535 59.277634 
L 194.7535 59.277634 
" style="fill:none;stroke:#1f77b4;stroke-linecap:square;stroke-width:1.5;"/>
   </g>
   <g id="line2d_25">
    <path clip-path="url(#pbd79aa55ca)" d="M 261.4345 239.901154 
L 261.50425 235.410514 
L 262.132 226.928194 
L 262.411 223.269154 
L 263.527 211.876234 
L 264.085 203.809714 
L 264.2245 200.982274 
L 265.0615 194.994754 
L 265.48 186.262954 
L 266.317 177.032194 
L 267.0145 169.547794 
L 267.5725 163.477114 
L 270.0835 141.107074 
L 271.1995 131.460514 
L 272.455 116.824354 
L 273.36175 107.094634 
L 274.129 101.439754 
L 275.1055 92.541634 
L 275.87275 86.803594 
L 276.64 82.479274 
L 278.4535 67.593634 
L 280.05775 53.123794 
L 280.1275 52.957474 
L 280.1275 51.294274 
L 280.1275 51.294274 
" style="fill:none;stroke:#ff7f0e;stroke-linecap:square;stroke-width:1.5;"/>
   </g>
   <g id="line2d_26">
    <path clip-path="url(#pbd79aa55ca)" d="M 185.2675 233.913634 
L 184.50025 234.246274 
L 184.08175 234.163114 
L 183.5935 233.414674 
L 183.3145 232.915714 
L 182.1985 228.591394 
L 181.501 225.431314 
L 179.9665 215.618434 
L 178.5715 205.639234 
L 177.94375 200.732794 
L 177.037 187.510354 
L 176.0605 170.712034 
L 175.99075 161.314954 
L 175.7815 156.574834 
L 175.85125 140.109154 
L 176.0605 135.618514 
L 176.13025 134.121634 
L 176.758 126.387754 
L 177.037 123.892954 
L 177.52525 120.067594 
L 177.874 115.909594 
L 178.711 111.003154 
L 179.4085 106.845154 
L 181.01275 94.786954 
L 181.222 92.957434 
L 181.71025 89.381554 
L 182.4775 81.065554 
L 182.7565 78.570754 
L 182.7565 75.576994 
L 183.0355 72.250594 
L 183.0355 69.256834 
L 183.3145 66.595714 
L 183.3145 59.610274 
L 183.5935 53.955394 
L 183.5935 53.955394 
" style="fill:none;stroke:#2ca02c;stroke-linecap:square;stroke-width:1.5;"/>
   </g>
   <g id="line2d_27">
    <path clip-path="url(#pbd79aa55ca)" d="M 257.2495 227.260834 
L 256.9705 227.759794 
L 256.9705 227.926114 
L 256.90075 227.926114 
L 256.6915 227.926114 
L 256.6915 227.842954 
L 256.62175 226.928194 
L 256.273 224.766034 
L 254.94775 214.371034 
L 253.204 201.980194 
L 252.43675 195.660034 
L 250.972 184.849234 
L 250.414 180.109114 
L 249.7165 172.874194 
L 248.80975 163.809754 
L 248.461 157.572754 
L 247.97275 151.418914 
L 247.624 144.849274 
L 247.066 137.780674 
L 246.6475 129.381514 
L 246.57775 123.643474 
L 245.18275 95.868034 
L 244.9735 91.876354 
L 244.90375 73.165354 
L 244.6945 70.254754 
L 244.62475 56.367034 
L 244.4155 54.121714 
L 244.4155 43.976194 
L 244.4155 43.976194 
" style="fill:none;stroke:#d62728;stroke-linecap:square;stroke-width:1.5;"/>
   </g>
   <g id="line2d_28">
    <path clip-path="url(#pbd79aa55ca)" d="M 250.2745 244.890754 
L 249.92575 244.308634 
L 249.298 242.395954 
L 248.6005 240.150634 
L 247.7635 236.907394 
L 246.99625 231.917794 
L 246.229 227.842954 
L 245.74075 223.601794 
L 245.392 219.443794 
L 244.834 213.955234 
L 244.34575 205.472914 
L 244.1365 199.152754 
L 244.20625 175.951114 
L 244.4155 171.709954 
L 244.48525 167.718274 
L 246.0895 143.934514 
L 246.15925 140.774434 
L 246.3685 134.786914 
L 246.29875 124.059274 
L 245.8105 112.167394 
L 245.74075 109.256794 
L 245.5315 105.680914 
L 245.46175 99.028114 
L 245.2525 95.701714 
L 245.18275 88.716274 
L 244.9735 85.223554 
L 244.90375 81.315034 
L 243.8575 68.924194 
L 243.2995 64.267234 
L 243.2995 60.608194 
L 242.7415 57.281794 
L 242.7415 57.281794 
" style="fill:none;stroke:#9467bd;stroke-linecap:square;stroke-width:1.5;"/>
   </g>
   <g id="line2d_29">
    <path clip-path="url(#pbd79aa55ca)" d="M 220.9795 235.576834 
L 220.7005 235.576834 
L 220.7005 235.493674 
L 220.63075 235.077874 
L 220.003 233.331514 
L 219.8635 232.915714 
L 219.166 226.262914 
L 218.81725 221.106994 
L 218.7475 218.944834 
L 218.81725 194.495794 
L 219.5845 180.441754 
L 219.5845 176.699554 
L 220.21225 170.462554 
L 220.561 165.556114 
L 221.60725 156.075874 
L 222.0955 150.420994 
L 222.514 145.431394 
L 222.793 142.021834 
L 223.28125 137.780674 
L 224.0485 126.470914 
L 224.6065 122.811874 
L 225.4435 113.331634 
L 225.7225 110.005234 
L 225.7225 109.173634 
L 226.699 102.354514 
L 227.3965 95.868034 
L 227.815 92.707954 
L 229.0705 78.570754 
L 229.0705 77.240194 
L 230.047 67.759954 
L 230.1865 66.595714 
L 230.1865 63.934594 
L 230.7445 59.942914 
L 230.7445 50.961634 
L 231.0235 48.799474 
L 231.0235 46.304674 
L 231.3025 45.473074 
L 231.3025 45.306754 
L 231.3025 45.306754 
" style="fill:none;stroke:#8c564b;stroke-linecap:square;stroke-width:1.5;"/>
   </g>
   <g id="line2d_30">
    <path clip-path="url(#pbd79aa55ca)" d="M 211.4935 235.244194 
L 211.2145 235.244194 
L 211.2145 235.161034 
L 211.109875 233.705734 
L 210.9355 231.335674 
L 210.86575 163.144474 
L 210.6565 156.824314 
L 210.72625 149.423074 
L 211.2145 134.786914 
L 212.749 115.410634 
L 213.09775 111.751594 
L 214.35325 102.021874 
L 214.8415 97.863874 
L 216.2365 83.892994 
L 216.655 77.323354 
L 217.213 71.418994 
L 217.492 68.175754 
L 217.9105 64.932514 
L 217.98025 60.026074 
L 218.887 49.464754 
L 219.65425 42.396154 
L 220.1425 37.656034 
L 220.1425 37.656034 
" style="fill:none;stroke:#e377c2;stroke-linecap:square;stroke-width:1.5;"/>
   </g>
   <g id="line2d_31">
    <path clip-path="url(#pbd79aa55ca)" d="M 231.5815 227.926114 
L 231.65125 222.021754 
L 231.8605 220.275394 
L 231.79075 197.240074 
L 231.5815 192.915754 
L 231.51175 188.508274 
L 231.3025 183.934474 
L 231.23275 169.797274 
L 231.0235 164.973994 
L 231.09325 118.238074 
L 231.3025 114.495874 
L 231.3025 89.880514 
L 231.5815 88.217314 
L 231.5815 60.608194 
L 231.8605 57.614434 
L 231.8605 48.965794 
L 231.5815 45.972034 
L 231.5815 43.310914 
L 231.3025 40.649794 
L 231.3025 36.325474 
L 231.0235 33.996994 
L 231.0235 31.335874 
L 230.7445 29.340034 
L 230.7445 24.683074 
L 231.0235 23.685154 
L 231.3025 21.024034 
L 231.3025 20.358754 
L 231.5815 19.693474 
L 231.5815 19.693474 
" style="fill:none;stroke:#7f7f7f;stroke-linecap:square;stroke-width:1.5;"/>
   </g>
   <g id="line2d_32">
    <path clip-path="url(#pbd79aa55ca)" d="M 251.1115 256.533154 
L 251.04175 255.452074 
L 250.8325 255.036274 
L 250.76275 254.703634 
L 250.20475 253.123594 
L 249.78625 251.294074 
L 249.019 248.882434 
L 248.182 244.391794 
L 247.4845 239.901154 
L 246.9265 230.420914 
L 246.99625 219.111154 
L 247.4845 209.131954 
L 247.55425 204.308674 
L 248.53075 183.684994 
L 248.6005 180.524914 
L 248.67025 174.537394 
L 250.972 126.886714 
L 251.3905 122.146594 
L 251.9485 108.508354 
L 252.57625 102.603994 
L 253.483 87.219394 
L 253.6225 86.221474 
L 254.1805 72.915874 
L 254.1805 69.922114 
L 254.4595 66.928354 
L 254.4595 56.949154 
L 254.7385 52.957474 
L 254.7385 46.637314 
L 255.8545 42.645634 
L 255.8545 42.645634 
" style="fill:none;stroke:#bcbd22;stroke-linecap:square;stroke-width:1.5;"/>
   </g>
   <g id="line2d_33">
    <path clip-path="url(#pbd79aa55ca)" d="M 217.3525 235.909474 
L 217.28275 234.745234 
L 216.86425 231.003034 
L 216.5155 226.595554 
L 215.88775 214.537354 
L 215.6785 210.046714 
L 215.60875 186.429274 
L 215.3995 176.865874 
L 215.46925 172.791034 
L 216.2365 160.400194 
L 217.42225 150.670474 
L 217.771 146.346154 
L 219.0265 136.117474 
L 219.5845 131.127874 
L 219.93325 128.050954 
L 220.282 123.892954 
L 220.77025 120.150754 
L 221.8165 103.934554 
L 221.88625 100.192354 
L 222.0955 96.366994 
L 222.16525 86.055154 
L 222.58375 79.818154 
L 222.6535 76.907554 
L 222.6535 75.244354 
L 223.28125 68.674714 
L 223.4905 63.601954 
L 223.56025 61.606114 
L 223.909 58.944994 
L 224.467 55.784914 
L 225.025 51.793234 
L 225.1645 50.296354 
L 225.1645 49.631074 
L 225.1645 49.631074 
" style="fill:none;stroke:#17becf;stroke-linecap:square;stroke-width:1.5;"/>
   </g>
   <g id="line2d_34">
    <path clip-path="url(#pbd79aa55ca)" d="M 195.8695 233.580994 
L 195.79975 232.915714 
L 195.38125 230.420914 
L 195.0325 228.591394 
L 194.12575 222.687034 
L 193.777 219.111154 
L 193.0795 214.620514 
L 192.31225 205.971874 
L 191.19625 188.508274 
L 190.8475 184.516594 
L 190.429 179.360674 
L 190.2895 175.784794 
L 190.21975 170.961514 
L 189.034 151.086274 
L 188.8945 145.597714 
L 188.82475 142.271314 
L 188.3365 132.292114 
L 188.3365 130.129954 
L 186.9415 111.335794 
L 186.6625 109.506274 
L 186.3835 105.847234 
L 185.8255 102.853474 
L 185.5465 99.194434 
L 184.9885 96.200674 
L 184.7095 90.046834 
L 184.7095 88.549954 
L 184.4305 85.888834 
L 184.4305 80.566594 
L 184.1515 78.238114 
L 184.1515 67.926274 
L 183.8725 65.930434 
L 183.8725 49.631074 
L 184.1515 48.300514 
L 184.1515 47.967874 
L 185.5465 45.306754 
L 185.5465 45.306754 
" style="fill:none;stroke:#1f77b4;stroke-linecap:square;stroke-width:1.5;"/>
   </g>
   <g id="line2d_35">
    <path clip-path="url(#pbd79aa55ca)" d="M 170.2015 240.566434 
L 170.27125 233.830474 
L 170.4805 231.585154 
L 170.41075 212.375194 
L 169.3645 192.749434 
L 169.29475 187.759834 
L 168.8065 177.364834 
L 168.73675 173.955274 
L 168.5275 169.547794 
L 168.45775 165.057154 
L 168.2485 160.815994 
L 168.17875 156.075874 
L 167.6905 148.425154 
L 167.76025 95.535394 
L 167.9695 90.961594 
L 168.03925 85.140394 
L 168.2485 80.400274 
L 168.2485 62.604034 
L 167.9695 60.275554 
L 167.9695 52.957474 
L 168.2485 52.292194 
L 168.2485 48.965794 
L 168.5275 47.967874 
L 168.946 45.473074 
L 169.0855 44.974114 
L 169.0855 44.974114 
" style="fill:none;stroke:#ff7f0e;stroke-linecap:square;stroke-width:1.5;"/>
   </g>
   <g id="line2d_36">
    <path clip-path="url(#pbd79aa55ca)" d="M 201.7285 230.587234 
L 201.4495 230.587234 
L 201.4495 230.587234 
L 201.37975 229.506154 
L 199.7755 219.942754 
L 198.799 209.547754 
L 198.03175 196.491634 
L 197.8225 190.753594 
L 197.89225 168.050914 
L 198.9385 149.755714 
L 199.4965 145.431394 
L 200.0545 128.134114 
L 200.12425 121.148674 
L 200.3335 116.658034 
L 200.26375 111.086314 
L 200.0545 106.761994 
L 199.98475 102.354514 
L 199.7755 97.863874 
L 199.70575 93.789034 
L 199.4965 89.547874 
L 199.42675 85.639354 
L 198.9385 77.905474 
L 199.00825 68.591554 
L 199.2175 66.013594 
L 199.28725 59.859754 
L 199.4965 58.196554 
L 199.56625 56.367034 
L 200.0545 51.460594 
L 200.0545 50.296354 
L 200.0545 50.296354 
" style="fill:none;stroke:#2ca02c;stroke-linecap:square;stroke-width:1.5;"/>
   </g>
   <g id="line2d_37">
    <path clip-path="url(#pbd79aa55ca)" d="M 187.4995 243.560194 
L 186.6625 243.560194 
L 186.6625 243.477034 
L 186.6625 243.227554 
L 186.1045 241.231714 
L 184.849 234.578914 
L 184.012 227.842954 
L 183.80275 225.348154 
L 182.54725 201.065434 
L 182.4775 198.237994 
L 182.40775 192.499954 
L 181.71025 175.202674 
L 181.3615 167.385634 
L 181.0825 164.391874 
L 180.8035 152.416834 
L 180.73375 148.009354 
L 180.5245 142.354474 
L 180.59425 125.057194 
L 180.8035 119.485474 
L 180.73375 83.394034 
L 180.5245 81.897154 
L 180.45475 70.587394 
L 180.2455 63.601954 
L 180.31525 51.959554 
L 180.5245 49.381594 
L 180.5245 47.635234 
L 181.222 44.475154 
L 181.3615 43.643554 
L 181.3615 43.643554 
" style="fill:none;stroke:#d62728;stroke-linecap:square;stroke-width:1.5;"/>
   </g>
   <g id="line2d_38">
    <path clip-path="url(#pbd79aa55ca)" d="M 249.4375 229.921954 
L 249.36775 223.185994 
L 248.6005 213.955234 
L 248.182 208.716154 
L 247.69375 204.973954 
L 247.066 196.824274 
L 246.57775 192.084154 
L 245.5315 172.042594 
L 245.46175 166.055074 
L 245.2525 157.572754 
L 245.18275 153.747394 
L 244.9735 148.508314 
L 244.90375 138.113314 
L 244.6945 132.874234 
L 244.62475 118.404394 
L 244.4155 116.159074 
L 244.34575 106.678834 
L 244.1365 101.938714 
L 244.20625 53.123794 
L 244.4155 51.127954 
L 244.4155 49.631074 
L 245.2525 45.140434 
L 245.5315 44.308834 
L 245.5315 44.308834 
" style="fill:none;stroke:#9467bd;stroke-linecap:square;stroke-width:1.5;"/>
   </g>
   <g id="line2d_39">
    <path clip-path="url(#pbd79aa55ca)" d="M 220.4215 256.533154 
L 220.07275 255.951034 
L 219.724 254.370994 
L 219.0265 250.545634 
L 218.1895 247.219234 
L 217.42225 241.813834 
L 215.9575 233.913634 
L 214.5625 221.938594 
L 214.0045 217.614274 
L 213.93475 209.714074 
L 213.7255 199.984354 
L 213.79525 195.410554 
L 215.1205 163.976074 
L 215.19025 148.674634 
L 215.3995 142.936594 
L 215.46925 107.510434 
L 215.6785 102.105034 
L 215.60875 58.861834 
L 215.3995 55.701754 
L 215.46925 50.379514 
L 216.097 45.805714 
L 216.655 43.477234 
L 216.7945 42.645634 
L 216.7945 42.645634 
" style="fill:none;stroke:#8c564b;stroke-linecap:square;stroke-width:1.5;"/>
   </g>
   <g id="line2d_40">
    <path clip-path="url(#pbd79aa55ca)" d="M 272.8735 243.560194 
L 272.80375 239.235874 
L 272.3155 233.580994 
L 271.897 226.761874 
L 271.06 219.027994 
L 270.71125 216.283714 
L 269.5255 209.298274 
L 268.75825 204.807634 
L 267.2935 194.994754 
L 266.1775 188.341954 
L 265.41025 180.441754 
L 264.643 174.204754 
L 264.01525 168.134074 
L 263.1085 161.730754 
L 261.9925 154.495834 
L 260.52775 143.518714 
L 258.6445 130.129954 
L 257.11 114.828514 
L 256.34275 106.928314 
L 256.1335 103.186114 
L 255.22675 97.198594 
L 254.878 93.206914 
L 254.38975 89.298394 
L 254.041 85.556194 
L 253.55275 81.647674 
L 252.5065 68.757874 
L 252.15775 65.597794 
L 251.73925 60.857674 
L 251.6695 59.776594 
L 251.59975 57.697594 
L 251.3905 55.452274 
L 251.46025 49.880554 
L 251.9485 45.639394 
L 251.9485 45.639394 
" style="fill:none;stroke:#e377c2;stroke-linecap:square;stroke-width:1.5;"/>
   </g>
   <g id="line2d_41">
    <path clip-path="url(#pbd79aa55ca)" d="M 160.7155 231.585154 
L 160.36675 231.501994 
L 160.1575 231.252514 
L 159.181 227.427154 
L 158.344 223.435474 
L 157.71625 219.859594 
L 157.0885 215.618434 
L 156.5305 206.304514 
L 156.60025 188.591434 
L 156.8095 182.104954 
L 156.87925 179.859634 
L 157.228 173.872114 
L 157.71625 167.884594 
L 158.065 162.063394 
L 158.55325 156.741154 
L 158.902 151.335754 
L 159.39025 145.597714 
L 160.7155 115.909594 
L 160.78525 110.919994 
L 160.9945 106.096714 
L 161.06425 101.606074 
L 161.2735 96.782794 
L 161.20375 87.635194 
L 160.9945 83.976154 
L 161.06425 73.747474 
L 161.2735 68.757874 
L 161.34325 66.512554 
L 161.5525 63.102994 
L 161.62225 61.356634 
L 162.1105 56.616514 
L 162.18025 53.705914 
L 162.9475 47.967874 
L 163.5055 45.722554 
L 163.5055 44.974114 
L 163.5055 44.974114 
" style="fill:none;stroke:#7f7f7f;stroke-linecap:square;stroke-width:1.5;"/>
   </g>
   <g id="line2d_42">
    <path clip-path="url(#pbd79aa55ca)" d="M 217.3525 248.549794 
L 217.0735 248.549794 
L 217.0735 248.466634 
L 217.0735 248.217154 
L 217.00375 248.217154 
L 216.7945 248.217154 
L 216.72475 247.468714 
L 216.5155 247.052914 
L 216.5155 246.553954 
L 215.88775 244.807594 
L 215.3995 242.395954 
L 214.144 236.741074 
L 213.51625 233.830474 
L 212.749 230.836714 
L 212.0515 226.595554 
L 210.58675 215.618434 
L 210.238 211.543594 
L 209.74975 207.219274 
L 209.401 202.811794 
L 208.843 197.572714 
L 208.1455 189.672514 
L 207.37825 183.851314 
L 206.611 179.194354 
L 204.7975 163.477114 
L 204.7975 161.730754 
L 203.9605 153.414754 
L 203.4025 147.926194 
L 203.1235 145.764034 
L 202.2865 133.123714 
L 201.7285 129.132034 
L 199.2175 95.868034 
L 199.2175 77.572834 
L 198.9385 75.576994 
L 198.9385 71.585314 
L 198.6595 70.254754 
L 198.6595 62.604034 
L 198.6595 62.604034 
" style="fill:none;stroke:#bcbd22;stroke-linecap:square;stroke-width:1.5;"/>
   </g>
   <g id="line2d_43">
    <path clip-path="url(#pbd79aa55ca)" d="M 237.4405 259.526914 
L 237.4405 254.537314 
L 236.185 243.393874 
L 235.7665 240.067474 
L 234.232 230.587234 
L 233.395 225.264994 
L 232.76725 219.859594 
L 232.1395 215.618434 
L 231.721 208.217194 
L 231.23275 202.312834 
L 230.7445 189.506194 
L 230.81425 171.127834 
L 231.3025 157.905394 
L 231.37225 153.497914 
L 232.1395 133.955314 
L 232.20925 105.680914 
L 232.4185 101.107114 
L 232.34875 73.996954 
L 232.1395 68.924194 
L 232.1395 57.614434 
L 231.8605 54.953314 
L 231.8605 48.633154 
L 232.1395 46.304674 
L 232.1395 43.976194 
L 232.4185 41.980354 
L 232.4185 41.980354 
" style="fill:none;stroke:#17becf;stroke-linecap:square;stroke-width:1.5;"/>
   </g>
   <g id="line2d_44">
    <path clip-path="url(#pbd79aa55ca)" d="M 175.7815 230.587234 
L 175.7815 230.254594 
L 174.9445 227.427154 
L 174.1075 223.601794 
L 173.41 215.951074 
L 172.9915 210.296194 
L 172.92175 205.140274 
L 172.294 193.165234 
L 172.1545 187.011394 
L 172.08475 152.998954 
L 171.8755 147.510394 
L 171.94525 137.032234 
L 172.1545 129.797314 
L 172.22425 126.554074 
L 173.131 111.418954 
L 173.5495 105.514594 
L 173.61925 100.857634 
L 174.3865 88.383634 
L 174.45625 86.803594 
L 174.6655 83.726674 
L 174.73525 69.256834 
L 174.9445 67.260994 
L 175.01425 54.537514 
L 175.2235 52.624834 
L 175.2235 47.967874 
L 175.2235 47.967874 
" style="fill:none;stroke:#1f77b4;stroke-linecap:square;stroke-width:1.5;"/>
   </g>
   <g id="line2d_45">
    <path clip-path="url(#pbd79aa55ca)" d="M 165.1795 255.202594 
L 165.24925 251.709874 
L 165.7375 246.886594 
L 166.5745 239.568514 
L 166.8535 233.913634 
L 168.109 222.936514 
L 168.73675 216.200554 
L 170.4805 202.146514 
L 172.4335 188.674594 
L 173.75875 178.944874 
L 175.2235 165.389794 
L 176.8975 150.088354 
L 178.99 135.784834 
L 180.45475 124.974034 
L 182.059 112.998994 
L 183.24475 99.443914 
L 183.454 97.115434 
L 184.4305 89.215234 
L 184.849 83.892994 
L 186.1045 74.246434 
L 186.9415 65.514634 
L 187.01125 63.685114 
L 187.2205 62.687194 
L 187.29025 59.859754 
L 187.4995 59.443954 
L 187.4995 58.279714 
L 187.4995 58.279714 
" style="fill:none;stroke:#ff7f0e;stroke-linecap:square;stroke-width:1.5;"/>
   </g>
   <g id="line2d_46">
    <path clip-path="url(#pbd79aa55ca)" d="M 280.4065 250.878274 
L 279.988 250.212994 
L 279.43 248.632954 
L 278.4535 245.888674 
L 275.803 239.319034 
L 275.03575 237.073714 
L 272.5945 229.256674 
L 268.6885 216.533194 
L 265.0615 202.645474 
L 262.411 192.250474 
L 261.1555 187.177714 
L 258.6445 176.450074 
L 257.45875 170.213074 
L 255.0175 160.067554 
L 252.85525 151.502074 
L 250.8325 141.772354 
L 249.92575 137.448034 
L 248.0425 130.628914 
L 246.85675 126.387754 
L 245.5315 120.649714 
L 244.34575 114.662194 
L 242.4625 106.179874 
L 238.76575 88.050994 
L 238.34725 85.306714 
L 236.67325 72.167434 
L 236.3245 68.591554 
L 235.69675 64.433554 
L 235.069 57.780754 
L 234.6505 54.703834 
L 234.58075 52.375354 
L 234.3715 50.046874 
L 234.3715 44.308834 
L 234.6505 43.643554 
L 234.6505 43.643554 
" style="fill:none;stroke:#2ca02c;stroke-linecap:square;stroke-width:1.5;"/>
   </g>
   <g id="line2d_47">
    <path clip-path="url(#pbd79aa55ca)" d="M 183.0355 256.865794 
L 183.0355 254.204674 
L 182.4775 251.876194 
L 181.3615 242.894914 
L 178.8505 231.418834 
L 176.0605 218.612194 
L 174.9445 211.876234 
L 173.41 204.641314 
L 170.96875 194.578954 
L 169.225 187.842994 
L 168.2485 184.100794 
L 167.06275 179.111194 
L 164.9005 171.709954 
L 163.366 166.470874 
L 159.739 153.165274 
L 156.18175 142.354474 
L 154.0195 133.788994 
L 151.2295 125.472994 
L 149.90425 120.899194 
L 148.9975 117.240154 
L 147.95125 113.497954 
L 145.6495 103.019794 
L 143.6965 93.872194 
L 142.441 84.225634 
L 142.3015 82.146634 
L 142.23175 79.236034 
L 142.0225 76.574914 
L 141.95275 71.668474 
L 141.604 67.926274 
L 141.4645 65.930434 
L 141.4645 65.930434 
" style="fill:none;stroke:#d62728;stroke-linecap:square;stroke-width:1.5;"/>
   </g>
   <g id="line2d_48">
    <path clip-path="url(#pbd79aa55ca)" d="M 210.6565 218.612194 
L 210.0985 218.612194 
L 210.0985 217.946914 
L 209.401 216.034234 
L 208.91275 213.539434 
L 208.4245 207.302434 
L 208.1455 202.229674 
L 208.07575 197.323234 
L 207.8665 190.670434 
L 207.93625 184.100794 
L 208.7035 164.724514 
L 208.77325 161.730754 
L 209.88925 144.267154 
L 210.30775 135.784834 
L 210.517 132.957394 
L 210.796 129.797314 
L 210.9355 126.637234 
L 211.00525 122.063434 
L 211.2145 117.655954 
L 211.28425 113.165314 
L 211.4935 109.090474 
L 211.42375 82.562434 
L 211.00525 76.325434 
L 210.9355 74.495914 
L 210.9355 71.252674 
L 210.3775 67.344154 
L 210.30775 65.098834 
L 210.0985 62.936674 
L 210.16825 60.358714 
L 210.3775 59.610274 
L 210.44725 57.198634 
L 210.6565 54.953314 
L 210.6565 54.953314 
" style="fill:none;stroke:#9467bd;stroke-linecap:square;stroke-width:1.5;"/>
   </g>
   <g id="line2d_49">
    <path clip-path="url(#pbd79aa55ca)" d="M 220.9795 247.219234 
L 220.7005 246.720274 
L 220.63075 245.971834 
L 220.1425 244.225474 
L 219.166 234.079954 
L 218.7475 227.177674 
L 218.67775 222.853354 
L 217.9105 209.630914 
L 217.84075 201.813874 
L 217.6315 192.000994 
L 217.56175 187.094554 
L 216.5155 161.065474 
L 216.44575 151.834714 
L 216.2365 144.017674 
L 216.16675 134.870074 
L 215.9575 122.146594 
L 215.88775 116.325394 
L 215.6785 108.924154 
L 215.74825 101.273434 
L 215.9575 93.789034 
L 216.02725 86.803594 
L 216.5155 73.082194 
L 216.58525 68.924194 
L 217.0735 57.697594 
L 217.14325 48.217354 
L 217.3525 43.310914 
L 217.3525 43.310914 
" style="fill:none;stroke:#8c564b;stroke-linecap:square;stroke-width:1.5;"/>
   </g>
   <g id="line2d_50">
    <path clip-path="url(#pbd79aa55ca)" d="M 203.4025 218.944834 
L 203.33275 219.360634 
L 203.1235 219.610114 
L 203.05375 219.526954 
L 202.705 218.944834 
L 201.868 217.198474 
L 200.12425 213.955234 
L 198.6595 210.961474 
L 196.4275 203.809714 
L 194.7535 198.487474 
L 192.2425 190.005154 
L 189.592 179.194354 
L 188.6155 175.452154 
L 187.081 169.048834 
L 184.7095 159.568594 
L 183.733 154.745314 
L 182.1985 146.761954 
L 178.711 129.630994 
L 177.38575 123.560314 
L 176.82775 119.818114 
L 174.805 107.676754 
L 174.17725 103.102954 
L 173.41 98.778634 
L 172.78225 94.454314 
L 171.736 88.466794 
L 170.41075 79.402354 
L 170.062 75.992794 
L 169.57375 72.416914 
L 168.5275 58.944994 
L 168.45775 55.285954 
L 168.2485 52.624834 
L 168.31825 45.057274 
L 168.667 42.811954 
L 168.8065 42.312994 
L 168.8065 42.312994 
" style="fill:none;stroke:#e377c2;stroke-linecap:square;stroke-width:1.5;"/>
   </g>
   <g id="line2d_51">
    <path clip-path="url(#pbd79aa55ca)" d="M 231.5815 236.242114 
L 231.8605 236.242114 
L 231.8605 236.158954 
L 231.79075 233.082034 
L 231.51175 230.587234 
L 231.163 226.928194 
L 231.0235 226.262914 
L 230.605 221.273314 
L 230.326 219.443794 
L 229.21 211.044634 
L 229.00075 209.464594 
L 228.652 206.221354 
L 228.16375 203.061274 
L 227.6755 197.822194 
L 226.8385 189.672514 
L 226.2805 180.358594 
L 225.4435 168.716194 
L 225.37375 163.310794 
L 225.1645 158.820154 
L 225.09475 153.830554 
L 224.6065 143.601874 
L 224.53675 137.032234 
L 224.3275 128.716234 
L 224.25775 112.832674 
L 224.0485 107.593594 
L 223.97875 97.032274 
L 223.7695 92.125834 
L 223.69975 86.720434 
L 223.4905 82.063474 
L 223.4905 69.589474 
L 223.2115 65.265154 
L 223.2115 38.986594 
L 223.4905 37.323394 
L 223.4905 36.990754 
L 223.4905 36.990754 
" style="fill:none;stroke:#7f7f7f;stroke-linecap:square;stroke-width:1.5;"/>
   </g>
   <g id="line2d_52">
    <path clip-path="url(#pbd79aa55ca)" d="M 218.7475 251.210914 
L 218.1895 251.210914 
L 218.1895 251.127754 
L 218.11975 250.628794 
L 217.771 249.048754 
L 216.7945 242.562274 
L 215.818 229.921954 
L 215.539 226.429234 
L 215.3995 225.597634 
L 215.32975 221.023834 
L 214.981 215.285794 
L 214.8415 210.129874 
L 214.77175 206.969794 
L 214.5625 202.894954 
L 214.49275 193.747354 
L 214.0045 183.352354 
L 213.93475 179.859634 
L 213.586 175.119514 
L 212.8885 167.884594 
L 212.0515 156.075874 
L 211.633 150.670474 
L 211.14475 146.429314 
L 210.796 142.437634 
L 210.30775 138.445954 
L 209.5405 127.801474 
L 209.5405 123.477154 
L 209.2615 116.159074 
L 209.2615 110.504194 
L 208.9825 104.516674 
L 208.9825 102.853474 
L 209.2615 98.861794 
L 209.2615 91.211074 
L 209.5405 87.552034 
L 209.5405 71.585314 
L 209.2615 68.591554 
L 209.2615 59.610274 
L 209.5405 57.780754 
L 209.5405 56.616514 
L 209.959 55.784914 
L 210.0985 55.452274 
L 210.0985 55.285954 
L 210.0985 55.285954 
" style="fill:none;stroke:#bcbd22;stroke-linecap:square;stroke-width:1.5;"/>
   </g>
   <g id="line2d_53">
    <path clip-path="url(#pbd79aa55ca)" d="M 221.2585 237.240034 
L 221.2585 237.572674 
L 221.18875 237.572674 
L 220.90975 237.489514 
L 220.561 236.907394 
L 219.724 234.745234 
L 218.1895 228.924034 
L 217.492 224.433394 
L 216.5155 220.608034 
L 215.9575 216.782674 
L 215.1205 212.624674 
L 211.4935 199.319074 
L 207.0295 180.192274 
L 205.42525 173.539474 
L 204.1 167.468794 
L 203.263 162.562354 
L 199.70575 144.766114 
L 197.8225 135.452194 
L 196.9855 129.464674 
L 193.3585 109.173634 
L 191.9635 102.188194 
L 191.1265 97.531234 
L 189.7315 84.890914 
L 189.4525 81.065554 
L 189.4525 80.233954 
L 188.6155 69.755794 
L 188.6155 68.591554 
L 188.3365 65.930434 
L 188.3365 58.944994 
L 188.6155 58.446034 
L 188.6155 58.279714 
L 188.6155 58.279714 
" style="fill:none;stroke:#17becf;stroke-linecap:square;stroke-width:1.5;"/>
   </g>
   <g id="line2d_54">
    <path clip-path="url(#pbd79aa55ca)" d="M 213.7255 229.921954 
L 213.09775 229.838794 
L 212.749 229.256674 
L 211.70275 226.512394 
L 210.3775 222.603874 
L 207.8665 210.213034 
L 207.37825 207.718234 
L 206.1925 201.148594 
L 205.6345 198.321154 
L 204.7975 191.003074 
L 203.6815 182.354434 
L 202.2865 168.050914 
L 201.868 161.398114 
L 198.52 128.466754 
L 198.241 124.974034 
L 197.75275 120.317074 
L 197.2645 113.664274 
L 196.49725 103.768234 
L 196.1485 98.529154 
L 196.07875 93.872194 
L 195.5905 85.306714 
L 195.52075 83.643514 
L 195.0325 75.909634 
L 194.96275 74.495914 
L 194.7535 71.086354 
L 194.68375 69.423154 
L 194.4745 67.510474 
L 194.40475 63.851434 
L 194.1955 62.105074 
L 194.1955 57.281794 
L 194.1955 57.281794 
" style="fill:none;stroke:#1f77b4;stroke-linecap:square;stroke-width:1.5;"/>
   </g>
   <g id="line2d_55">
    <path clip-path="url(#pbd79aa55ca)" d="M 241.0675 240.899074 
L 240.962875 240.441694 
L 240.649 239.901154 
L 240.43975 239.235874 
L 239.46325 235.077874 
L 237.859 228.258754 
L 235.69675 213.373114 
L 234.85975 208.549834 
L 234.3715 205.140274 
L 232.6975 191.335714 
L 232.34875 187.842994 
L 231.721 179.111194 
L 231.3025 174.870034 
L 230.95375 170.961514 
L 230.605 165.472954 
L 230.11675 160.317034 
L 229.9075 156.075874 
L 229.0705 150.420994 
L 228.7915 145.431394 
L 227.9545 139.443874 
L 227.536 132.957394 
L 227.04775 128.217274 
L 226.2805 116.159074 
L 225.93175 110.753674 
L 225.304 97.531234 
L 225.1645 94.537474 
L 225.09475 90.712114 
L 224.8855 87.385714 
L 224.8855 58.612354 
L 224.8855 58.612354 
" style="fill:none;stroke:#ff7f0e;stroke-linecap:square;stroke-width:1.5;"/>
   </g>
   <g id="line2d_56">
    <path clip-path="url(#pbd79aa55ca)" d="M 252.2275 236.907394 
L 252.15775 236.408434 
L 251.53 234.662074 
L 251.1115 233.082034 
L 250.20475 229.672474 
L 248.8795 225.264994 
L 247.4845 221.605954 
L 245.95 214.786834 
L 245.18275 211.294114 
L 243.439 204.308674 
L 242.323 199.901194 
L 240.71875 194.246314 
L 237.92875 182.520754 
L 236.185 174.703714 
L 233.60425 162.894994 
L 232.1395 156.408514 
L 230.7445 147.094594 
L 229.00075 136.200634 
L 227.3965 128.466754 
L 224.6065 113.165314 
L 223.14175 102.853474 
L 221.5375 93.040594 
L 220.63075 88.799434 
L 219.5845 84.558274 
L 218.329 75.992794 
L 217.213 68.092594 
L 216.934 66.013594 
L 215.539 54.537514 
L 215.3995 52.957474 
L 215.32975 51.710074 
L 215.1205 49.298434 
L 215.05075 46.886794 
L 214.8415 44.974114 
L 214.91125 43.061434 
L 215.1205 42.063514 
L 215.1205 39.984514 
L 215.1205 39.984514 
" style="fill:none;stroke:#2ca02c;stroke-linecap:square;stroke-width:1.5;"/>
   </g>
   <g id="line2d_57">
    <path clip-path="url(#pbd79aa55ca)" d="M 216.7945 244.890754 
L 216.86425 243.061234 
L 217.0735 240.982234 
L 217.00375 225.431314 
L 216.5155 214.953154 
L 215.3995 191.252554 
L 215.32975 185.348194 
L 214.2835 158.570674 
L 214.21375 153.497914 
L 213.7255 137.780674 
L 213.65575 128.965714 
L 213.4465 121.564474 
L 213.37675 106.845154 
L 213.1675 100.109194 
L 213.23725 86.470954 
L 213.93475 71.585314 
L 214.5625 61.273474 
L 215.6785 52.125874 
L 215.9575 50.961634 
L 215.9575 50.961634 
" style="fill:none;stroke:#d62728;stroke-linecap:square;stroke-width:1.5;"/>
   </g>
   <g id="line2d_58">
    <path clip-path="url(#pbd79aa55ca)" d="M 185.8255 222.936514 
L 185.75575 221.855434 
L 185.47675 219.693274 
L 185.2675 216.034234 
L 185.19775 212.125714 
L 184.7095 202.562314 
L 184.7095 198.321154 
L 184.1515 192.666274 
L 184.08175 186.179794 
L 183.5935 173.373154 
L 183.52375 162.229714 
L 183.3145 152.749474 
L 183.38425 142.520794 
L 184.1515 123.809794 
L 184.1515 120.816034 
L 184.7095 115.161154 
L 184.77925 108.175714 
L 185.19775 100.192354 
L 185.5465 94.204834 
L 185.61625 91.710034 
L 185.8255 88.549954 
L 185.89525 83.144554 
L 186.1045 80.233954 
L 186.17425 77.655994 
L 186.3835 75.161194 
L 186.45325 72.333754 
L 186.6625 70.088434 
L 186.73225 63.102994 
L 186.9415 61.606114 
L 186.9415 55.951234 
L 187.2205 54.953314 
L 187.2205 50.628994 
L 187.4995 48.799474 
L 187.4995 46.969954 
L 187.7785 45.140434 
L 187.7785 44.641474 
L 188.3365 41.647714 
L 188.6155 40.982434 
L 188.6155 40.982434 
" style="fill:none;stroke:#9467bd;stroke-linecap:square;stroke-width:1.5;"/>
   </g>
   <g id="line2d_59">
    <path clip-path="url(#pbd79aa55ca)" d="M 257.2495 238.570594 
L 256.9705 238.570594 
L 256.9705 238.653754 
L 256.90075 238.986394 
L 256.552 239.235874 
L 256.06375 239.152714 
L 255.715 238.570594 
L 255.2965 237.572674 
L 254.4595 234.246274 
L 254.1805 229.422994 
L 254.25025 224.766034 
L 255.0175 213.622594 
L 255.36625 209.963554 
L 256.1335 193.664194 
L 256.20325 178.279594 
L 256.4125 172.292074 
L 256.48225 162.479194 
L 257.8075 140.441794 
L 258.43525 135.369034 
L 259.2025 122.146594 
L 259.27225 119.069674 
L 259.4815 114.828514 
L 259.55125 103.186114 
L 259.7605 98.861794 
L 259.83025 93.456394 
L 260.0395 87.552034 
L 260.10925 84.890914 
L 260.5975 76.408594 
L 260.5975 74.579074 
L 261.1555 66.263074 
L 261.4345 63.269314 
L 261.4345 60.608194 
L 262.411 54.288034 
L 262.69 53.456434 
L 262.8295 52.957474 
L 262.8295 50.961634 
L 262.8295 50.961634 
" style="fill:none;stroke:#8c564b;stroke-linecap:square;stroke-width:1.5;"/>
   </g>
   <g id="line2d_60">
    <path clip-path="url(#pbd79aa55ca)" d="M 258.6445 224.267074 
L 258.9235 224.267074 
L 258.9235 224.267074 
L 258.43525 222.853354 
L 253.6225 205.306594 
L 252.7855 201.564394 
L 247.97275 177.531154 
L 246.6475 171.377314 
L 244.6945 160.400194 
L 242.7415 148.840954 
L 241.3465 140.774434 
L 239.46325 129.963634 
L 237.1615 112.832674 
L 236.0455 102.188194 
L 234.0925 88.383634 
L 233.60425 84.558274 
L 232.6975 78.238114 
L 231.79075 70.088434 
L 231.442 65.597794 
L 230.95375 61.689274 
L 230.7445 58.113394 
L 230.67475 54.454354 
L 230.11675 46.637314 
L 229.6285 41.647714 
L 229.55875 37.572874 
L 229.0705 31.169554 
L 229.0705 17.032354 
L 229.0705 17.032354 
" style="fill:none;stroke:#e377c2;stroke-linecap:square;stroke-width:1.5;"/>
   </g>
   <g id="line2d_61">
    <path clip-path="url(#pbd79aa55ca)" d="M 220.1425 242.894914 
L 219.8635 242.562274 
L 218.1895 232.084114 
L 217.84075 228.674554 
L 217.42225 219.693274 
L 216.7945 201.897034 
L 216.72475 196.408474 
L 216.5155 191.335714 
L 216.44575 180.358594 
L 216.2365 175.202674 
L 216.30625 151.585234 
L 216.5155 147.094594 
L 216.58525 142.520794 
L 217.56175 122.479234 
L 217.6315 120.566554 
L 217.70125 116.741194 
L 217.9105 112.583194 
L 217.98025 104.932474 
L 218.1895 101.190274 
L 218.11975 85.971994 
L 217.9105 81.980314 
L 217.98025 72.583234 
L 218.1895 69.922114 
L 218.25925 64.766194 
L 218.4685 62.271394 
L 218.7475 61.606114 
L 218.7475 60.275554 
L 219.166 57.947074 
L 219.3055 56.283874 
L 219.3055 56.283874 
" style="fill:none;stroke:#7f7f7f;stroke-linecap:square;stroke-width:1.5;"/>
   </g>
   <g id="line2d_62">
    <path clip-path="url(#pbd79aa55ca)" d="M 203.6815 254.537314 
L 203.61175 250.462474 
L 203.4025 248.217154 
L 204.2395 231.585154 
L 205.14625 223.352314 
L 205.56475 217.364794 
L 205.9135 214.620514 
L 206.7505 208.632994 
L 207.169 201.813874 
L 208.21525 189.423034 
L 208.843 177.032194 
L 210.796 154.911634 
L 211.354 150.088354 
L 213.4465 134.121634 
L 214.21375 129.048874 
L 215.26 121.148674 
L 216.5155 112.500034 
L 217.28275 105.265114 
L 218.329 98.529154 
L 219.5845 90.213154 
L 221.32825 79.984474 
L 221.677 77.739154 
L 223.4905 61.938754 
L 223.97875 56.782834 
L 224.11825 55.369114 
L 224.6065 50.296354 
L 225.4435 43.809874 
L 225.862 41.647714 
L 226.141 40.150834 
L 227.1175 36.658114 
L 227.1175 36.658114 
" style="fill:none;stroke:#bcbd22;stroke-linecap:square;stroke-width:1.5;"/>
   </g>
   <g id="line2d_63">
    <path clip-path="url(#pbd79aa55ca)" d="M 203.1235 209.963554 
L 202.8445 209.963554 
L 202.8445 209.880394 
L 202.8445 209.630914 
L 202.77475 209.630914 
L 202.5655 209.630914 
L 202.49575 208.466674 
L 202.0075 204.308674 
L 201.7285 199.235914 
L 201.79825 191.917834 
L 202.705 176.366914 
L 202.984 172.458394 
L 203.47225 167.468794 
L 203.821 162.396034 
L 204.30925 157.073794 
L 204.658 151.668394 
L 206.1925 137.115394 
L 208.285 117.489634 
L 209.5405 98.196514 
L 209.61025 92.624794 
L 210.0985 82.229794 
L 210.02875 48.965794 
L 209.8195 44.475154 
L 209.8195 40.317154 
L 209.5405 38.986594 
L 209.5405 28.674754 
L 209.8195 24.683074 
L 209.8195 24.017794 
L 209.8195 24.017794 
" style="fill:none;stroke:#17becf;stroke-linecap:square;stroke-width:1.5;"/>
   </g>
   <g id="patch_3">
    <path d="M 48.5575 280.150594 
L 48.5575 14.038594 
" style="fill:none;stroke:#000000;stroke-linecap:square;stroke-linejoin:miter;stroke-width:0.8;"/>
   </g>
   <g id="patch_4">
    <path d="M 405.6775 280.150594 
L 405.6775 14.038594 
" style="fill:none;stroke:#000000;stroke-linecap:square;stroke-linejoin:miter;stroke-width:0.8;"/>
   </g>
   <g id="patch_5">
    <path d="M 48.5575 280.150594 
L 405.6775 280.150594 
" style="fill:none;stroke:#000000;stroke-linecap:square;stroke-linejoin:miter;stroke-width:0.8;"/>
   </g>
   <g id="patch_6">
    <path d="M 48.5575 14.038594 
L 405.6775 14.038594 
" style="fill:none;stroke:#000000;stroke-linecap:square;stroke-linejoin:miter;stroke-width:0.8;"/>
   </g>
  </g>
 </g>
 <defs>
  <clipPath id="pbd79aa55ca">
   <rect height="266.112" width="357.12" x="48.5575" y="14.038594"/>
  </clipPath>
 </defs>
</svg>
