<?xml version="1.0" encoding="utf-8" standalone="no"?>
<!DOCTYPE svg PUBLIC "-//W3C//DTD SVG 1.1//EN"
  "http://www.w3.org/Graphics/SVG/1.1/DTD/svg11.dtd">
<!-- Created with matplotlib (http://matplotlib.org/) -->
<svg height="311pt" version="1.1" viewBox="0 0 430 311" width="430pt" xmlns="http://www.w3.org/2000/svg" xmlns:xlink="http://www.w3.org/1999/xlink">
 <defs>
  <style type="text/css">
*{stroke-linecap:butt;stroke-linejoin:round;}
  </style>
 </defs>
 <g id="figure_1">
  <g id="patch_1">
   <path d="M 0 311.771219 
L 430.05625 311.771219 
L 430.05625 0 
L 0 0 
z
" style="fill:#ffffff;"/>
  </g>
  <g id="axes_1">
   <g id="patch_2">
    <path d="M 48.5575 280.150594 
L 405.6775 280.150594 
L 405.6775 14.038594 
L 48.5575 14.038594 
z
" style="fill:#ffffff;"/>
   </g>
   <g id="matplotlib.axis_1">
    <g id="xtick_1">
     <g id="line2d_1">
      <defs>
       <path d="M 0 0 
L 0 3.5 
" id="m09f136669c" style="stroke:#000000;stroke-width:0.8;"/>
      </defs>
      <g>
       <use style="stroke:#000000;stroke-width:0.8;" x="48.5575" xlink:href="#m09f136669c" y="280.150594"/>
      </g>
     </g>
     <g id="text_1">
      <!-- 0 -->
      <defs>
       <path d="M 31.78125 66.40625 
Q 24.171875 66.40625 20.328125 58.90625 
Q 16.5 51.421875 16.5 36.375 
Q 16.5 21.390625 20.328125 13.890625 
Q 24.171875 6.390625 31.78125 6.390625 
Q 39.453125 6.390625 43.28125 13.890625 
Q 47.125 21.390625 47.125 36.375 
Q 47.125 51.421875 43.28125 58.90625 
Q 39.453125 66.40625 31.78125 66.40625 
z
M 31.78125 74.21875 
Q 44.046875 74.21875 50.515625 64.515625 
Q 56.984375 54.828125 56.984375 36.375 
Q 56.984375 17.96875 50.515625 8.265625 
Q 44.046875 -1.421875 31.78125 -1.421875 
Q 19.53125 -1.421875 13.0625 8.265625 
Q 6.59375 17.96875 6.59375 36.375 
Q 6.59375 54.828125 13.0625 64.515625 
Q 19.53125 74.21875 31.78125 74.21875 
z
" id="DejaVuSans-30"/>
      </defs>
      <g transform="translate(42.83125 300.827781)scale(0.18 -0.18)">
       <use xlink:href="#DejaVuSans-30"/>
      </g>
     </g>
    </g>
    <g id="xtick_2">
     <g id="line2d_2">
      <g>
       <use style="stroke:#000000;stroke-width:0.8;" x="405.6775" xlink:href="#m09f136669c" y="280.150594"/>
      </g>
     </g>
     <g id="text_2">
      <!-- 640 -->
      <defs>
       <path d="M 33.015625 40.375 
Q 26.375 40.375 22.484375 35.828125 
Q 18.609375 31.296875 18.609375 23.390625 
Q 18.609375 15.53125 22.484375 10.953125 
Q 26.375 6.390625 33.015625 6.390625 
Q 39.65625 6.390625 43.53125 10.953125 
Q 47.40625 15.53125 47.40625 23.390625 
Q 47.40625 31.296875 43.53125 35.828125 
Q 39.65625 40.375 33.015625 40.375 
z
M 52.59375 71.296875 
L 52.59375 62.3125 
Q 48.875 64.0625 45.09375 64.984375 
Q 41.3125 65.921875 37.59375 65.921875 
Q 27.828125 65.921875 22.671875 59.328125 
Q 17.53125 52.734375 16.796875 39.40625 
Q 19.671875 43.65625 24.015625 45.921875 
Q 28.375 48.1875 33.59375 48.1875 
Q 44.578125 48.1875 50.953125 41.515625 
Q 57.328125 34.859375 57.328125 23.390625 
Q 57.328125 12.15625 50.6875 5.359375 
Q 44.046875 -1.421875 33.015625 -1.421875 
Q 20.359375 -1.421875 13.671875 8.265625 
Q 6.984375 17.96875 6.984375 36.375 
Q 6.984375 53.65625 15.1875 63.9375 
Q 23.390625 74.21875 37.203125 74.21875 
Q 40.921875 74.21875 44.703125 73.484375 
Q 48.484375 72.75 52.59375 71.296875 
z
" id="DejaVuSans-36"/>
       <path d="M 37.796875 64.3125 
L 12.890625 25.390625 
L 37.796875 25.390625 
z
M 35.203125 72.90625 
L 47.609375 72.90625 
L 47.609375 25.390625 
L 58.015625 25.390625 
L 58.015625 17.1875 
L 47.609375 17.1875 
L 47.609375 0 
L 37.796875 0 
L 37.796875 17.1875 
L 4.890625 17.1875 
L 4.890625 26.703125 
z
" id="DejaVuSans-34"/>
      </defs>
      <g transform="translate(388.49875 300.827781)scale(0.18 -0.18)">
       <use xlink:href="#DejaVuSans-36"/>
       <use x="63.623047" xlink:href="#DejaVuSans-34"/>
       <use x="127.246094" xlink:href="#DejaVuSans-30"/>
      </g>
     </g>
    </g>
   </g>
   <g id="matplotlib.axis_2">
    <g id="ytick_1">
     <g id="line2d_3">
      <defs>
       <path d="M 0 0 
L -3.5 0 
" id="m54ec009208" style="stroke:#000000;stroke-width:0.8;"/>
      </defs>
      <g>
       <use style="stroke:#000000;stroke-width:0.8;" x="48.5575" xlink:href="#m54ec009208" y="14.038594"/>
      </g>
     </g>
     <g id="text_3">
      <!-- 480 -->
      <defs>
       <path d="M 31.78125 34.625 
Q 24.75 34.625 20.71875 30.859375 
Q 16.703125 27.09375 16.703125 20.515625 
Q 16.703125 13.921875 20.71875 10.15625 
Q 24.75 6.390625 31.78125 6.390625 
Q 38.8125 6.390625 42.859375 10.171875 
Q 46.921875 13.96875 46.921875 20.515625 
Q 46.921875 27.09375 42.890625 30.859375 
Q 38.875 34.625 31.78125 34.625 
z
M 21.921875 38.8125 
Q 15.578125 40.375 12.03125 44.71875 
Q 8.5 49.078125 8.5 55.328125 
Q 8.5 64.0625 14.71875 69.140625 
Q 20.953125 74.21875 31.78125 74.21875 
Q 42.671875 74.21875 48.875 69.140625 
Q 55.078125 64.0625 55.078125 55.328125 
Q 55.078125 49.078125 51.53125 44.71875 
Q 48 40.375 41.703125 38.8125 
Q 48.828125 37.15625 52.796875 32.3125 
Q 56.78125 27.484375 56.78125 20.515625 
Q 56.78125 9.90625 50.3125 4.234375 
Q 43.84375 -1.421875 31.78125 -1.421875 
Q 19.734375 -1.421875 13.25 4.234375 
Q 6.78125 9.90625 6.78125 20.515625 
Q 6.78125 27.484375 10.78125 32.3125 
Q 14.796875 37.15625 21.921875 38.8125 
z
M 18.3125 54.390625 
Q 18.3125 48.734375 21.84375 45.5625 
Q 25.390625 42.390625 31.78125 42.390625 
Q 38.140625 42.390625 41.71875 45.5625 
Q 45.3125 48.734375 45.3125 54.390625 
Q 45.3125 60.0625 41.71875 63.234375 
Q 38.140625 66.40625 31.78125 66.40625 
Q 25.390625 66.40625 21.84375 63.234375 
Q 18.3125 60.0625 18.3125 54.390625 
z
" id="DejaVuSans-38"/>
      </defs>
      <g transform="translate(7.2 20.877187)scale(0.18 -0.18)">
       <use xlink:href="#DejaVuSans-34"/>
       <use x="63.623047" xlink:href="#DejaVuSans-38"/>
       <use x="127.246094" xlink:href="#DejaVuSans-30"/>
      </g>
     </g>
    </g>
   </g>
   <g id="line2d_4">
    <path clip-path="url(#pa5b952e796)" d="M 361.8745 138.113314 
L 361.5955 138.113314 
L 361.3165 138.113314 
L 360.7585 137.780674 
L 360.2005 137.780674 
L 356.8525 137.115394 
L 328.3945 137.115394 
L 325.0465 136.782754 
L 306.3535 136.782754 
L 302.7265 137.115394 
L 294.9145 136.782754 
L 290.4505 136.782754 
L 286.5445 137.115394 
L 280.6855 137.115394 
L 276.5005 136.782754 
L 272.3155 137.115394 
L 257.5285 137.115394 
L 248.6005 137.780674 
L 240.7885 138.445954 
L 236.3245 138.778594 
L 235.2085 138.778594 
L 227.536 139.443874 
L 226.5595 139.443874 
L 216.376 140.109154 
L 214.2835 140.109154 
L 210.3775 140.441794 
L 206.4715 140.441794 
L 202.5655 140.774434 
L 198.9385 140.774434 
L 195.3115 141.107074 
L 191.9635 141.107074 
L 188.0575 141.439714 
L 184.9885 141.439714 
L 178.711 141.772354 
L 148.9975 141.772354 
L 146.4865 142.104994 
L 144.2545 142.104994 
L 141.4645 142.437634 
L 138.9535 142.437634 
L 137.0005 142.770274 
L 135.0475 142.770274 
L 132.8155 143.102914 
L 130.8625 143.102914 
L 127.2355 143.768194 
L 125.2825 143.768194 
L 121.6555 144.433474 
L 120.2605 144.766114 
L 118.5865 144.766114 
L 113.5645 145.764034 
L 111.8905 145.764034 
L 108.8215 146.429314 
L 106.3105 147.094594 
L 104.6365 147.427234 
L 102.9625 147.427234 
L 100.4515 148.092514 
L 99.0565 148.425154 
L 96.5455 148.757794 
L 95.4295 148.757794 
L 91.2445 149.755714 
L 89.8495 149.755714 
L 88.4545 150.088354 
L 84.5485 150.088354 
L 83.4325 150.420994 
L 78.6895 150.420994 
L 78.4105 150.753634 
L 76.4575 150.753634 
L 76.4575 151.086274 
L 76.4575 151.086274 
L 76.1785 151.086274 
L 76.1785 151.086274 
" style="fill:none;stroke:#1f77b4;stroke-linecap:square;stroke-width:1.5;"/>
   </g>
   <g id="line2d_5">
    <path clip-path="url(#pa5b952e796)" d="M 362.7115 111.169474 
L 362.4325 110.504194 
L 362.1535 110.504194 
L 361.5955 109.838914 
L 359.0845 109.173634 
L 358.5265 108.840994 
L 357.4105 108.840994 
L 355.4575 108.508354 
L 352.6675 108.508354 
L 345.6925 109.173634 
L 343.1815 109.173634 
L 321.4195 111.502114 
L 318.0715 112.167394 
L 302.866 113.497954 
L 301.3315 113.497954 
L 297.9835 113.830594 
L 291.5665 113.830594 
L 286.2655 114.163234 
L 285.4285 114.163234 
L 279.8485 114.495874 
L 279.0115 114.495874 
L 273.013 114.828514 
L 272.0365 114.828514 
L 263.6665 115.493794 
L 246.0895 117.156994 
L 222.235 118.986514 
L 212.191 119.651794 
L 210.3775 119.818114 
L 207.0295 119.818114 
L 200.0545 120.483394 
L 196.9855 120.483394 
L 193.6375 120.816034 
L 190.2895 120.816034 
L 186.3835 121.148674 
L 181.3615 121.148674 
L 179.6875 121.481314 
L 174.6655 121.481314 
L 173.2705 121.813954 
L 166.5745 121.813954 
L 162.1105 121.481314 
L 159.0415 121.813954 
L 144.2545 121.813954 
L 142.0225 121.481314 
L 137.0005 121.481314 
L 132.8155 120.816034 
L 128.6305 120.816034 
L 126.3985 120.483394 
L 119.9815 120.483394 
L 114.1225 121.148674 
L 109.24 122.146594 
L 108.2635 122.479234 
L 102.6835 123.477154 
L 100.7305 124.308754 
L 100.1725 124.475074 
L 99.3355 124.475074 
L 98.2195 124.807714 
L 97.3825 124.807714 
L 96.8245 125.140354 
L 95.4295 125.140354 
L 94.8715 125.472994 
L 94.3135 126.138274 
L 94.3135 126.470914 
L 94.3135 126.470914 
" style="fill:none;stroke:#ff7f0e;stroke-linecap:square;stroke-width:1.5;"/>
   </g>
   <g id="line2d_6">
    <path clip-path="url(#pa5b952e796)" d="M 376.3825 177.697474 
L 376.1035 177.697474 
L 375.8245 177.697474 
L 374.9875 177.364834 
L 373.0345 177.032194 
L 372.4765 176.699554 
L 367.4545 176.034274 
L 363.8275 176.034274 
L 354.76 175.368994 
L 353.2255 175.368994 
L 343.1815 174.371074 
L 339.2755 173.705794 
L 331.7425 173.040514 
L 328.1155 172.375234 
L 313.468 171.044674 
L 311.0965 170.712034 
L 303.8425 170.046754 
L 294.9145 169.048834 
L 286.405 168.549874 
L 278.7325 168.050914 
L 276.7795 168.050914 
L 262.8295 167.052994 
L 261.1555 167.052994 
L 256.9705 166.720354 
L 249.4375 166.720354 
L 242.1835 166.387714 
L 236.3245 166.387714 
L 232.9765 166.055074 
L 226.0015 166.055074 
L 222.3745 165.722434 
L 219.3055 165.722434 
L 215.3995 165.389794 
L 202.2865 165.389794 
L 198.6595 165.057154 
L 195.3115 165.057154 
L 192.2425 164.724514 
L 189.1735 164.724514 
L 186.1045 164.391874 
L 183.3145 163.726594 
L 177.7345 163.061314 
L 174.6655 162.396034 
L 169.783 161.730754 
L 163.924 160.899154 
L 159.8785 160.400194 
L 157.3675 159.734914 
L 154.5775 159.734914 
L 150.253 158.903314 
L 145.6495 158.404354 
L 142.8595 158.071714 
L 139.5115 158.071714 
L 136.4425 157.739074 
L 133.0945 157.739074 
L 119.1445 156.741154 
L 104.0785 156.741154 
L 102.1255 157.073794 
L 99.8935 157.073794 
L 91.8025 158.238034 
L 88.7335 158.736994 
L 86.2225 158.736994 
L 85.9435 159.069634 
L 84.5485 159.069634 
L 83.9905 158.736994 
L 82.8745 158.736994 
L 82.8745 158.736994 
" style="fill:none;stroke:#2ca02c;stroke-linecap:square;stroke-width:1.5;"/>
   </g>
   <g id="line2d_7">
    <path clip-path="url(#pa5b952e796)" d="M 355.4575 154.080034 
L 354.41125 153.996874 
L 353.7835 153.747394 
L 351.90025 153.664234 
L 347.43625 152.998954 
L 344.5765 152.583154 
L 344.0185 152.416834 
L 323.512 150.088354 
L 321.6985 149.755714 
L 309.4225 148.425154 
L 303.2845 147.427234 
L 299.518 146.761954 
L 297.4255 146.429314 
L 292.9615 146.429314 
L 279.5695 145.431394 
L 275.6635 145.431394 
L 267.5725 144.766114 
L 263.1085 144.766114 
L 259.2025 144.433474 
L 255.2965 144.433474 
L 247.7635 143.768194 
L 237.9985 143.768194 
L 234.3715 143.435554 
L 211.7725 143.435554 
L 205.9135 143.768194 
L 200.3335 143.768194 
L 193.3585 144.100834 
L 191.6845 144.100834 
L 182.1985 144.766114 
L 177.1765 144.766114 
L 173.5495 145.098754 
L 167.1325 145.098754 
L 162.1105 145.431394 
L 155.6935 145.431394 
L 152.6245 145.764034 
L 147.3235 145.764034 
L 142.3015 146.096674 
L 137.5585 146.096674 
L 134.4895 146.429314 
L 131.9785 146.429314 
L 126.817 146.928274 
L 121.3765 147.759874 
L 116.9125 148.425154 
L 114.9595 148.425154 
L 113.0065 148.757794 
L 110.4955 149.423074 
L 108.8215 149.423074 
L 103.102 150.753634 
L 102.6835 150.753634 
L 99.8935 151.418914 
L 98.7775 151.751554 
L 97.9405 151.751554 
L 95.4295 152.749474 
L 95.4295 152.749474 
" style="fill:none;stroke:#d62728;stroke-linecap:square;stroke-width:1.5;"/>
   </g>
   <g id="line2d_8">
    <path clip-path="url(#pa5b952e796)" d="M 372.1975 155.410594 
L 370.8025 154.662154 
L 368.5705 154.080034 
L 365.71075 153.497914 
L 360.27025 152.666314 
L 356.2945 152.416834 
L 349.80775 152.333674 
L 346.2505 152.084194 
L 342.3445 152.001034 
L 336.4855 151.751554 
L 320.8615 151.751554 
L 316.6765 151.418914 
L 310.2595 151.418914 
L 303.8425 151.086274 
L 297.1465 151.086274 
L 292.6825 150.420994 
L 288.7765 150.420994 
L 279.5695 149.755714 
L 275.3845 149.090434 
L 262.969 148.258834 
L 259.4815 148.092514 
L 247.7635 146.595634 
L 222.0955 144.766114 
L 215.3995 144.433474 
L 191.1265 142.104994 
L 183.3145 141.439714 
L 179.6875 140.774434 
L 175.5025 140.441794 
L 174.6655 140.441794 
L 167.6905 139.942834 
L 166.0165 139.776514 
L 157.9255 139.443874 
L 148.4395 139.443874 
L 143.9755 139.776514 
L 138.6745 140.441794 
L 131.6995 141.772354 
L 128.6305 142.770274 
L 125.0035 143.435554 
L 121.6555 144.766114 
L 118.3075 145.431394 
L 115.2385 146.761954 
L 112.1695 147.759874 
L 109.3795 148.425154 
L 106.5895 149.755714 
L 95.29 154.080034 
L 89.5705 156.741154 
L 81.34 159.734914 
L 79.8055 160.400194 
L 77.434 160.899154 
L 75.8995 161.231794 
L 73.9465 161.730754 
L 71.854 162.063394 
L 71.4355 162.063394 
L 70.0405 162.396034 
L 68.0875 162.396034 
L 68.0875 162.396034 
" style="fill:none;stroke:#9467bd;stroke-linecap:square;stroke-width:1.5;"/>
   </g>
   <g id="line2d_9">
    <path clip-path="url(#pa5b952e796)" d="M 361.3165 92.541634 
L 360.54925 91.959514 
L 360.2005 91.710034 
L 358.2475 90.545794 
L 356.2945 90.213154 
L 350.4355 90.213154 
L 345.62275 90.961594 
L 341.926 91.377394 
L 328.6735 93.539554 
L 325.39525 94.121674 
L 322.2565 94.870114 
L 314.7235 95.868034 
L 311.9335 96.200674 
L 306.9115 97.198594 
L 301.6105 97.863874 
L 296.3095 98.861794 
L 277.0585 101.190274 
L 271.4785 102.188194 
L 266.4565 102.853474 
L 261.1555 103.186114 
L 256.1335 103.851394 
L 246.6475 104.516674 
L 241.6255 104.516674 
L 236.6035 104.849314 
L 232.1395 104.849314 
L 227.6755 105.181954 
L 206.4715 105.181954 
L 202.5655 104.849314 
L 189.4525 104.849314 
L 182.1985 105.348274 
L 174.9445 105.847234 
L 172.7125 106.179874 
L 166.5745 106.512514 
L 143.4175 110.504194 
L 140.0695 111.502114 
L 132.118 113.331634 
L 127.2355 114.828514 
L 123.6085 115.493794 
L 120.2605 116.491714 
L 115.378 118.321234 
L 106.45 121.314994 
L 104.0785 122.146594 
L 99.6145 123.477154 
L 97.6615 123.809794 
L 94.8715 124.807714 
L 88.7335 126.138274 
L 87.8965 126.470914 
L 86.7805 126.470914 
L 84.967 126.803554 
L 84.5485 126.803554 
L 83.1535 127.136194 
L 82.8745 127.136194 
L 81.7585 127.468834 
L 81.2005 127.468834 
L 80.3635 127.801474 
L 79.8055 128.466754 
L 79.8055 128.466754 
" style="fill:none;stroke:#8c564b;stroke-linecap:square;stroke-width:1.5;"/>
   </g>
   <g id="line2d_10">
    <path clip-path="url(#pa5b952e796)" d="M 388.6585 204.973954 
L 388.3795 204.973954 
L 387.2635 205.639234 
L 386.7055 205.639234 
L 385.5895 205.971874 
L 380.5675 206.969794 
L 369.9655 206.969794 
L 362.9905 206.304514 
L 343.7395 204.641314 
L 338.9965 204.641314 
L 334.2535 203.976034 
L 325.0465 203.310754 
L 320.5825 202.645474 
L 316.6765 202.312834 
L 289.8925 198.321154 
L 277.198 197.655874 
L 274.8265 197.655874 
L 269.8045 197.323234 
L 265.0615 197.323234 
L 260.0395 196.990594 
L 250.5535 196.990594 
L 246.3685 196.657954 
L 215.9575 196.657954 
L 208.285 197.323234 
L 202.8445 197.822194 
L 188.0575 198.986434 
L 182.617 199.984354 
L 180.5245 200.316994 
L 176.3395 200.649634 
L 171.8755 201.314914 
L 165.04 202.811794 
L 160.576 203.809714 
L 158.2045 204.308674 
L 148.4395 207.302434 
L 144.2545 208.300354 
L 136.1635 210.961474 
L 131.6995 211.959394 
L 123.8875 214.287874 
L 121.9345 214.953154 
L 117.7495 215.951074 
L 116.0755 216.616354 
L 109.798 218.279554 
L 107.4265 218.944834 
L 100.591 220.275394 
L 96.2665 220.940674 
L 86.7805 220.940674 
L 85.3855 220.608034 
L 83.9905 220.608034 
L 82.8745 220.275394 
L 81.4795 220.275394 
L 80.782 219.942754 
L 80.6425 219.942754 
L 80.224 219.610114 
L 79.8055 219.610114 
L 79.8055 219.610114 
" style="fill:none;stroke:#e377c2;stroke-linecap:square;stroke-width:1.5;"/>
   </g>
   <g id="line2d_11">
    <path clip-path="url(#pa5b952e796)" d="M 364.3855 145.431394 
L 363.967 145.348234 
L 363.2695 145.015594 
L 361.0375 144.433474 
L 354.76 143.019754 
L 351.90025 142.770274 
L 348.7615 142.687114 
L 345.274 142.437634 
L 341.368 142.520794 
L 337.25275 142.770274 
L 332.64925 142.853434 
L 321.9775 143.601874 
L 318.28075 143.934514 
L 313.468 144.516634 
L 309.7015 144.766114 
L 304.6795 145.764034 
L 299.9365 146.096674 
L 292.9615 147.427234 
L 287.6605 148.092514 
L 258.3655 153.414754 
L 256.1335 153.747394 
L 251.9485 154.745314 
L 247.7635 155.410594 
L 237.022 157.739074 
L 234.9295 158.071714 
L 222.3745 160.732834 
L 218.4685 161.730754 
L 214.0045 162.396034 
L 207.5875 163.892914 
L 203.4025 164.890834 
L 201.1705 165.389794 
L 196.9855 166.055074 
L 192.8005 167.052994 
L 173.2705 170.046754 
L 169.0855 171.044674 
L 164.6215 171.377314 
L 160.4365 172.375234 
L 156.2515 173.040514 
L 152.0665 173.373154 
L 147.8815 174.371074 
L 137.2795 176.034274 
L 131.002 176.865874 
L 95.7085 180.025954 
L 89.8495 180.358594 
L 85.9435 180.358594 
L 82.8745 180.025954 
L 77.0155 180.025954 
L 73.9465 180.358594 
L 71.1565 180.358594 
L 68.6455 180.691234 
L 66.4135 180.691234 
L 64.4605 181.023874 
L 59.4385 181.023874 
L 58.0435 180.691234 
L 57.7645 180.691234 
L 57.067 180.358594 
L 56.3695 180.358594 
L 56.3695 180.358594 
" style="fill:none;stroke:#7f7f7f;stroke-linecap:square;stroke-width:1.5;"/>
   </g>
   <g id="line2d_12">
    <path clip-path="url(#pa5b952e796)" d="M 363.5485 130.129954 
L 363.13 129.797314 
L 362.36275 129.714154 
L 360.2005 129.298354 
L 357.271 128.965714 
L 355.4575 128.799394 
L 352.6675 129.132034 
L 348.7615 128.799394 
L 346.59925 128.882554 
L 342.6235 129.132034 
L 338.02 128.799394 
L 331.1845 128.799394 
L 326.7205 128.466754 
L 322.5355 128.466754 
L 313.6075 128.134114 
L 311.3755 128.134114 
L 306.6325 127.801474 
L 302.1685 128.134114 
L 297.7045 128.134114 
L 293.2405 128.466754 
L 289.0555 128.466754 
L 284.8705 128.799394 
L 280.6855 128.799394 
L 276.7795 129.132034 
L 271.7575 128.799394 
L 267.5725 129.132034 
L 263.1085 129.132034 
L 257.8075 128.799394 
L 251.1115 129.464674 
L 247.7635 129.464674 
L 235.7665 130.795234 
L 222.6535 132.791074 
L 217.0735 133.456354 
L 213.1675 134.287954 
L 212.0515 134.454274 
L 205.0765 135.119554 
L 202.2865 135.784834 
L 198.3805 136.450114 
L 186.3835 137.448034 
L 182.1985 138.113314 
L 176.8975 138.113314 
L 175.5025 138.445954 
L 162.1105 138.445954 
L 158.7625 138.778594 
L 155.6935 138.778594 
L 143.6965 139.776514 
L 142.0225 139.776514 
L 135.6055 140.441794 
L 131.9785 141.107074 
L 128.6305 141.439714 
L 125.0035 141.439714 
L 111.0535 142.437634 
L 109.9375 142.437634 
L 107.9845 142.770274 
L 103.2415 142.770274 
L 102.1255 143.102914 
L 99.3355 143.102914 
L 98.638 143.435554 
L 98.4985 143.435554 
L 98.4985 143.435554 
" style="fill:none;stroke:#bcbd22;stroke-linecap:square;stroke-width:1.5;"/>
   </g>
   <g id="line2d_13">
    <path clip-path="url(#pa5b952e796)" d="M 351.8305 150.420994 
L 345.4135 149.423074 
L 332.126125 147.551974 
L 329.057125 147.219334 
L 310.60825 145.514554 
L 287.834875 144.017674 
L 280.89475 143.685034 
L 257.2495 143.102914 
L 247.345 143.019754 
L 223.42075 142.437634 
L 212.47 142.520794 
L 197.125 143.269234 
L 177.1765 144.100834 
L 162.9475 145.265074 
L 152.764 145.971934 
L 136.616875 147.926194 
L 127.30525 149.381494 
L 118.412125 151.044694 
L 116.6335 151.418914 
L 116.6335 151.418914 
" style="fill:none;stroke:#17becf;stroke-linecap:square;stroke-width:1.5;"/>
   </g>
   <g id="line2d_14">
    <path clip-path="url(#pa5b952e796)" d="M 381.4045 143.768194 
L 380.8465 143.269234 
L 380.428 143.102914 
L 380.2885 143.102914 
L 379.312 142.104994 
L 378.8935 141.772354 
L 377.7775 141.439714 
L 375.5455 140.109154 
L 368.5705 137.448034 
L 366.6175 136.782754 
L 364.9435 136.450114 
L 362.9905 135.452194 
L 360.7585 134.786914 
L 358.5265 134.454274 
L 354.3415 133.290034 
L 351.2725 132.458434 
L 345.6925 130.795234 
L 344.2975 130.462594 
L 341.5075 130.129954 
L 338.9965 129.132034 
L 336.2065 128.799394 
L 333.4165 128.134114 
L 330.6265 127.801474 
L 327.5575 127.136194 
L 318.3505 126.138274 
L 315.0025 125.805634 
L 311.6545 125.805634 
L 308.3065 125.472994 
L 299.0995 125.472994 
L 293.7985 125.140354 
L 263.9455 125.140354 
L 260.5975 125.472994 
L 256.6915 125.472994 
L 253.3435 125.805634 
L 249.4375 125.805634 
L 238.2775 126.803554 
L 231.8605 127.801474 
L 225.1645 128.799394 
L 220.9795 129.464674 
L 201.4495 133.788994 
L 197.5435 134.454274 
L 190.987 136.117474 
L 188.6155 136.782754 
L 170.7595 140.774434 
L 159.5995 142.437634 
L 153.4615 143.435554 
L 149.8345 143.768194 
L 143.9755 144.766114 
L 131.9785 145.431394 
L 120.8185 145.431394 
L 117.7495 145.098754 
L 114.9595 145.098754 
L 111.8905 144.766114 
L 109.1005 144.766114 
L 106.5895 144.433474 
L 101.0095 144.433474 
L 97.9405 144.100834 
L 83.1535 144.100834 
L 80.0845 143.768194 
L 78.4105 143.435554 
L 76.4575 143.435554 
L 74.7835 143.102914 
L 66.6925 143.102914 
L 65.8555 143.435554 
L 62.2285 143.435554 
L 61.9495 143.768194 
L 61.6705 143.768194 
L 61.6705 143.768194 
L 61.6705 144.100834 
L 61.6705 144.100834 
" style="fill:none;stroke:#1f77b4;stroke-linecap:square;stroke-width:1.5;"/>
   </g>
   <g id="line2d_15">
    <path clip-path="url(#pa5b952e796)" d="M 341.2285 130.129954 
L 340.3915 130.129954 
L 338.7175 130.462594 
L 337.3225 130.462594 
L 335.3695 130.961554 
L 334.5325 131.127874 
L 332.8585 131.127874 
L 331.1845 131.460514 
L 329.7895 131.460514 
L 328.3945 131.793154 
L 326.4415 131.793154 
L 324.4885 132.125794 
L 320.3035 132.125794 
L 318.0715 132.458434 
L 297.1465 132.458434 
L 294.9145 132.125794 
L 292.4035 132.125794 
L 289.8925 131.793154 
L 287.6605 131.793154 
L 285.1495 131.460514 
L 280.4065 131.460514 
L 277.8955 131.127874 
L 275.6635 131.127874 
L 271.618 130.628914 
L 270.9205 130.462594 
L 268.6885 130.462594 
L 262.2715 129.797314 
L 259.7605 129.797314 
L 256.273 129.464674 
L 248.3215 129.464674 
L 245.8105 129.132034 
L 227.9545 129.132034 
L 221.2585 129.797314 
L 213.865 130.296274 
L 210.0985 130.628914 
L 198.1015 131.626834 
L 179.4085 133.123714 
L 177.7345 133.123714 
L 170.4805 133.788994 
L 163.2265 133.788994 
L 159.5995 134.121634 
L 156.8095 134.121634 
L 153.1825 134.454274 
L 147.6025 134.454274 
L 136.4425 133.456354 
L 134.2105 133.456354 
L 129.7465 132.791074 
L 124.4455 132.791074 
L 121.9345 132.458434 
L 119.4235 132.791074 
L 107.1475 132.791074 
L 106.3105 132.458434 
L 105.4735 132.458434 
L 104.9155 132.125794 
L 103.7995 132.125794 
L 103.2415 131.793154 
L 101.8465 131.793154 
L 101.8465 131.793154 
" style="fill:none;stroke:#ff7f0e;stroke-linecap:square;stroke-width:1.5;"/>
   </g>
   <g id="line2d_16">
    <path clip-path="url(#pa5b952e796)" d="M 364.6645 135.784834 
L 364.6645 135.452194 
L 364.59475 135.452194 
L 364.3855 135.452194 
L 364.3855 135.369034 
L 364.31575 135.036394 
L 363.688 134.454274 
L 363.06025 134.038474 
L 358.5265 132.292114 
L 356.2945 131.959474 
L 354.202 131.626834 
L 351.412 131.044714 
L 346.2505 130.462594 
L 342.0655 130.379434 
L 335.3695 129.797314 
L 332.0215 129.714154 
L 326.7205 129.298354 
L 322.954 129.132034 
L 285.9865 129.132034 
L 279.8485 128.799394 
L 275.3845 128.799394 
L 270.9205 129.132034 
L 261.9925 129.132034 
L 242.7415 130.462594 
L 238.5565 130.462594 
L 214.702 132.458434 
L 209.959 133.123714 
L 207.3085 133.456354 
L 192.8005 134.454274 
L 191.1265 134.454274 
L 180.2455 135.119554 
L 171.5965 135.784834 
L 167.1325 135.784834 
L 153.7405 136.782754 
L 151.7875 136.782754 
L 148.4395 137.115394 
L 143.1385 137.115394 
L 141.4645 137.448034 
L 130.5835 138.113314 
L 128.9095 138.113314 
L 120.4 138.778594 
L 118.8655 138.778594 
L 108.682 139.443874 
L 107.4265 139.443874 
L 102.6835 139.776514 
L 98.7775 139.776514 
L 97.1035 139.443874 
L 93.7555 139.443874 
L 92.9185 139.776514 
L 92.9185 139.776514 
" style="fill:none;stroke:#2ca02c;stroke-linecap:square;stroke-width:1.5;"/>
   </g>
   <g id="line2d_17">
    <path clip-path="url(#pa5b952e796)" d="M 341.7865 118.154914 
L 340.1125 118.487554 
L 335.16025 118.820194 
L 325.67425 118.903354 
L 322.46575 119.152834 
L 318.769 119.235994 
L 309.9805 119.901274 
L 296.0305 120.816034 
L 279.0115 122.146594 
L 269.17675 122.645554 
L 264.7825 123.144514 
L 257.8075 123.227674 
L 230.4655 124.807714 
L 217.70125 124.890874 
L 209.5405 125.140354 
L 193.0795 125.223514 
L 185.965 125.472994 
L 182.7565 125.556154 
L 177.94375 125.805634 
L 175.85125 125.888794 
L 170.55025 126.221434 
L 169.0855 126.470914 
L 160.018 127.053034 
L 158.065 127.136194 
L 154.159 127.219354 
L 144.5335 128.134114 
L 138.3955 128.799394 
L 134.4895 128.882554 
L 129.1885 129.464674 
L 126.1195 130.129954 
L 123.3295 130.462594 
L 120.5395 131.127874 
L 118.0285 131.460514 
L 114.82 132.125794 
L 114.4015 132.125794 
L 109.6585 132.791074 
L 108.8215 133.123714 
L 108.8215 133.123714 
" style="fill:none;stroke:#d62728;stroke-linecap:square;stroke-width:1.5;"/>
   </g>
   <g id="line2d_18">
    <path clip-path="url(#pa5b952e796)" d="M 376.3825 150.753634 
L 375.8245 151.418914 
L 375.2665 151.418914 
L 371.5 153.581074 
L 369.6865 154.412674 
L 365.2225 156.075874 
L 358.5265 158.071714 
L 355.4575 158.404354 
L 352.6675 159.069634 
L 347.0875 159.734914 
L 344.8555 160.067554 
L 341.5075 160.067554 
L 338.4385 160.400194 
L 326.4415 160.400194 
L 320.5825 159.734914 
L 317.7925 159.734914 
L 311.9335 159.069634 
L 309.1435 159.069634 
L 305.7955 158.736994 
L 302.7265 158.071714 
L 269.5255 158.071714 
L 265.8985 158.404354 
L 255.8545 158.404354 
L 252.5065 158.736994 
L 248.8795 158.736994 
L 239.3935 159.402274 
L 221.8165 160.732834 
L 212.6095 162.063394 
L 208.1455 162.396034 
L 188.755 165.223474 
L 186.6625 165.389794 
L 174.6655 167.385634 
L 166.5745 168.050914 
L 162.9475 168.716194 
L 155.4145 169.714114 
L 153.4615 170.046754 
L 150.1135 170.379394 
L 138.256 172.541554 
L 136.7215 172.707874 
L 133.3735 173.373154 
L 127.5145 174.038434 
L 120.4 175.535314 
L 111.8905 176.699554 
L 108.961 177.198514 
L 106.8685 177.364834 
L 100.4515 177.364834 
L 99.8935 177.032194 
L 98.4985 177.032194 
L 97.9405 176.699554 
L 97.3825 176.699554 
L 97.1035 176.366914 
L 95.9875 176.366914 
L 95.9875 176.034274 
L 95.4295 176.034274 
L 95.4295 176.034274 
" style="fill:none;stroke:#9467bd;stroke-linecap:square;stroke-width:1.5;"/>
   </g>
   <g id="line2d_19">
    <path clip-path="url(#pa5b952e796)" d="M 368.2915 178.695394 
L 368.0125 178.695394 
L 368.0125 178.612234 
L 368.0125 178.362754 
L 367.7335 178.362754 
L 367.315 178.030114 
L 367.1755 178.030114 
L 366.6175 177.531154 
L 363.688 175.867954 
L 357.4105 173.373154 
L 355.7365 172.375234 
L 353.5045 171.377314 
L 351.8305 170.379394 
L 348.343 168.882514 
L 339.2755 165.389794 
L 334.8115 164.391874 
L 330.3475 163.061314 
L 321.4195 161.398114 
L 308.8645 160.400194 
L 304.4005 160.400194 
L 299.6575 160.067554 
L 290.7295 160.067554 
L 279.0115 159.402274 
L 276.5005 159.402274 
L 270.9205 159.069634 
L 266.1775 159.069634 
L 261.4345 158.736994 
L 251.3905 158.736994 
L 241.3465 158.404354 
L 234.0925 158.404354 
L 224.6065 157.739074 
L 220.1425 157.739074 
L 211.2145 157.073794 
L 206.7505 157.073794 
L 202.2865 156.741154 
L 198.1015 156.741154 
L 191.266 156.242194 
L 187.36 155.909554 
L 186.3835 155.743234 
L 182.7565 155.743234 
L 177.4555 156.075874 
L 173.5495 155.743234 
L 169.225 156.075874 
L 164.9005 156.075874 
L 158.344 155.743234 
L 150.3925 155.743234 
L 146.4865 156.075874 
L 143.4175 156.075874 
L 133.0945 157.073794 
L 126.259 157.905394 
L 124.4455 158.071714 
L 119.842 159.069634 
L 111.3325 160.732834 
L 102.1255 162.728674 
L 99.3355 163.726594 
L 95.4295 164.558194 
L 89.431 165.556114 
L 87.0595 166.055074 
L 84.5485 166.055074 
L 84.2695 166.387714 
L 83.4325 166.387714 
L 83.1535 166.720354 
L 83.1535 166.720354 
" style="fill:none;stroke:#8c564b;stroke-linecap:square;stroke-width:1.5;"/>
   </g>
   <g id="line2d_20">
    <path clip-path="url(#pa5b952e796)" d="M 371.6395 128.466754 
L 371.6395 128.134114 
L 371.3605 128.134114 
L 371.0815 127.801474 
L 371.0815 127.801474 
L 368.0125 126.637234 
L 366.0595 126.138274 
L 364.9435 125.472994 
L 362.9905 124.807714 
L 362.1535 124.475074 
L 359.224 123.809794 
L 356.992 123.310834 
L 356.0155 123.144514 
L 353.5045 122.479234 
L 347.3665 121.647634 
L 337.0435 120.483394 
L 326.9995 120.483394 
L 323.6515 120.150754 
L 320.3035 120.150754 
L 315.2815 119.818114 
L 310.5385 119.818114 
L 303.5635 119.485474 
L 298.2625 119.485474 
L 294.9145 119.818114 
L 284.3125 119.818114 
L 280.9645 120.150754 
L 277.3375 120.150754 
L 266.7355 121.148674 
L 263.1085 121.148674 
L 260.0395 121.481314 
L 256.4125 121.481314 
L 250.5535 121.980274 
L 248.0425 122.146594 
L 243.2995 122.146594 
L 238.8355 122.479234 
L 227.1175 122.479234 
L 224.0485 122.811874 
L 218.4685 122.811874 
L 213.865 123.144514 
L 206.7505 123.144514 
L 202.8445 122.811874 
L 198.9385 122.811874 
L 196.4275 123.144514 
L 186.1045 123.144514 
L 183.5935 123.477154 
L 172.9915 123.477154 
L 168.8065 123.809794 
L 162.6685 123.809794 
L 160.1575 123.477154 
L 149.8345 123.477154 
L 147.6025 123.144514 
L 140.9065 123.144514 
L 138.3955 123.477154 
L 136.4425 123.477154 
L 134.2105 123.809794 
L 132.2575 123.809794 
L 129.1885 124.142434 
L 127.2355 124.807714 
L 125.0035 125.140354 
L 124.1665 125.472994 
L 116.9125 127.136194 
L 107.4265 130.462594 
L 95.4295 134.786914 
L 93.7555 135.784834 
L 92.3605 136.117474 
L 89.5705 137.448034 
L 85.9435 138.778594 
L 83.4325 139.776514 
L 82.0375 140.109154 
L 80.3635 141.107074 
L 80.3635 141.107074 
" style="fill:none;stroke:#e377c2;stroke-linecap:square;stroke-width:1.5;"/>
   </g>
   <g id="line2d_21">
    <path clip-path="url(#pa5b952e796)" d="M 369.9655 124.807714 
L 368.8495 124.807714 
L 367.4545 125.140354 
L 365.7805 125.140354 
L 358.945 125.971954 
L 354.6205 126.470914 
L 351.5515 126.470914 
L 341.2285 127.468834 
L 337.3225 127.468834 
L 333.1375 127.801474 
L 316.6765 127.801474 
L 309.9805 127.468834 
L 305.2375 127.468834 
L 303.0055 127.136194 
L 298.2625 127.136194 
L 292.9615 126.803554 
L 288.4975 126.803554 
L 283.4755 126.470914 
L 273.7105 126.470914 
L 270.6415 126.138274 
L 260.5975 126.138274 
L 255.2965 125.805634 
L 244.1365 125.805634 
L 236.3245 125.472994 
L 226.0015 125.472994 
L 215.1205 124.807714 
L 210.0985 124.807714 
L 205.6345 124.475074 
L 196.1485 124.475074 
L 184.012 123.643474 
L 175.5025 123.144514 
L 169.3645 122.645554 
L 165.4585 122.312914 
L 164.0635 122.146594 
L 160.9945 122.146594 
L 154.8565 121.481314 
L 146.4865 121.481314 
L 143.9755 121.813954 
L 141.4645 121.813954 
L 135.8845 122.479234 
L 133.0945 123.144514 
L 130.5835 123.477154 
L 118.3075 126.803554 
L 116.0755 127.801474 
L 112.7275 128.466754 
L 103.381 131.793154 
L 96.5455 134.121634 
L 92.0815 135.119554 
L 88.4545 136.117474 
L 87.0595 136.450114 
L 85.9435 136.450114 
L 84.8275 136.782754 
L 78.4105 136.782754 
L 77.8525 136.450114 
L 76.7365 136.450114 
L 76.039 136.117474 
L 75.3415 136.117474 
L 75.3415 136.117474 
" style="fill:none;stroke:#7f7f7f;stroke-linecap:square;stroke-width:1.5;"/>
   </g>
   <g id="line2d_22">
    <path clip-path="url(#pa5b952e796)" d="M 361.5955 140.441794 
L 361.456 140.441794 
L 361.3165 140.441794 
L 360.7585 140.109154 
L 356.8525 140.109154 
L 355.1785 139.776514 
L 346.8085 139.776514 
L 342.763 139.277554 
L 342.0655 139.111234 
L 336.904 138.778594 
L 335.6485 138.778594 
L 330.3475 138.113314 
L 327.2785 138.113314 
L 319.7455 137.115394 
L 317.2345 137.115394 
L 312.7705 136.616434 
L 309.841 136.450114 
L 308.8645 136.450114 
L 302.7265 135.618514 
L 301.6105 135.452194 
L 299.0995 135.452194 
L 296.8675 135.119554 
L 292.1245 135.119554 
L 289.8925 134.786914 
L 284.8705 134.786914 
L 282.3595 134.454274 
L 264.2245 134.454274 
L 261.7135 134.786914 
L 248.8795 134.786914 
L 245.2525 135.119554 
L 241.3465 135.119554 
L 236.6035 135.452194 
L 227.6755 135.452194 
L 225.1645 135.784834 
L 222.0955 135.784834 
L 219.5845 136.117474 
L 213.4465 136.117474 
L 201.868 137.281714 
L 200.0545 137.448034 
L 196.7065 137.448034 
L 183.0355 138.778594 
L 178.0135 138.778594 
L 174.1075 139.443874 
L 170.7595 139.443874 
L 161.2735 140.109154 
L 159.3205 140.109154 
L 152.6245 140.774434 
L 137.5585 140.774434 
L 132.5365 141.107074 
L 131.6995 141.107074 
L 127.7935 141.439714 
L 123.6085 141.439714 
L 119.7025 141.772354 
L 106.8685 141.772354 
L 104.9155 142.104994 
L 100.4515 142.104994 
L 100.1725 141.772354 
L 99.3355 141.772354 
L 99.3355 141.772354 
" style="fill:none;stroke:#bcbd22;stroke-linecap:square;stroke-width:1.5;"/>
   </g>
   <g id="line2d_23">
    <path clip-path="url(#pa5b952e796)" d="M 360.7585 171.709954 
L 359.71225 171.626794 
L 359.0845 171.377314 
L 356.92225 171.294154 
L 353.15575 170.795194 
L 352.03975 170.712034 
L 351.8305 170.712034 
L 348.2035 170.046754 
L 345.06475 169.963594 
L 342.484 169.714114 
L 339.694 169.630954 
L 336.904 169.381474 
L 334.18375 169.298314 
L 331.603 169.048834 
L 328.74325 168.965674 
L 320.8615 168.217234 
L 318.00175 168.050914 
L 310.05025 167.967754 
L 305.098 167.635114 
L 299.6575 167.385634 
L 292.6825 167.718274 
L 285.568 167.219314 
L 277.8955 166.720354 
L 273.4315 166.387714 
L 268.4095 166.387714 
L 263.1085 166.055074 
L 258.0865 165.389794 
L 247.2055 164.724514 
L 227.257 162.562354 
L 224.3275 162.396034 
L 218.4685 161.730754 
L 212.6095 161.398114 
L 203.4025 160.400194 
L 191.9635 159.734914 
L 180.8035 158.404354 
L 176.0605 157.739074 
L 171.3175 156.741154 
L 164.6215 155.743234 
L 160.297 155.077954 
L 157.9255 154.745314 
L 151.2295 153.414754 
L 141.604 151.917874 
L 137.14 151.252594 
L 135.6055 151.086274 
L 128.9095 149.755714 
L 125.5615 149.090434 
L 122.4925 148.757794 
L 116.6335 147.427234 
L 104.6365 146.096674 
L 103.5205 145.764034 
L 101.5675 145.764034 
L 98.917 144.932434 
L 98.2195 144.766114 
L 97.1035 144.766114 
L 95.29 143.934514 
L 95.1505 143.768194 
L 94.5925 143.768194 
L 93.895 143.435554 
L 93.1975 143.435554 
L 93.1975 143.435554 
" style="fill:none;stroke:#17becf;stroke-linecap:square;stroke-width:1.5;"/>
   </g>
   <g id="line2d_24">
    <path clip-path="url(#pa5b952e796)" d="M 369.6865 150.088354 
L 369.1285 149.256754 
L 368.0125 147.427234 
L 366.3385 145.764034 
L 365.2225 145.098754 
L 364.1065 144.100834 
L 360.898 142.603954 
L 358.8055 141.606034 
L 357.6895 141.107074 
L 353.365 140.275474 
L 350.4355 139.776514 
L 346.669 139.111234 
L 342.9025 138.612274 
L 333.4165 137.780674 
L 331.7425 137.780674 
L 328.3945 137.448034 
L 310.8175 137.448034 
L 307.1905 137.780674 
L 300.7735 137.780674 
L 297.1465 138.113314 
L 291.8455 138.113314 
L 288.7765 138.445954 
L 268.1305 138.445954 
L 264.7825 138.778594 
L 261.9925 138.778594 
L 259.2025 138.445954 
L 252.7855 138.445954 
L 248.8795 138.778594 
L 244.9735 138.778594 
L 239.6725 139.111234 
L 221.2585 139.111234 
L 217.6315 139.443874 
L 214.0045 139.111234 
L 202.2865 139.111234 
L 196.9855 138.778594 
L 192.8005 139.111234 
L 188.6155 139.111234 
L 184.7095 139.443874 
L 179.9665 139.443874 
L 171.5965 140.109154 
L 159.3205 140.109154 
L 155.9725 140.441794 
L 138.6745 140.441794 
L 135.8845 140.109154 
L 129.1885 140.109154 
L 126.259 139.776514 
L 123.0505 139.776514 
L 118.5865 139.443874 
L 117.4705 139.443874 
L 115.5175 139.111234 
L 113.5645 139.443874 
L 106.0315 139.443874 
L 104.0785 139.776514 
L 100.1725 139.776514 
L 99.3355 139.443874 
L 97.9405 139.443874 
L 96.2665 139.111234 
L 94.3135 139.111234 
L 93.7555 138.778594 
L 91.8025 138.778594 
L 89.2915 138.113314 
L 88.1755 137.780674 
L 87.3385 137.780674 
L 82.5955 135.784834 
L 82.0375 135.452194 
L 81.2005 134.786914 
L 80.6425 134.786914 
L 80.0845 134.454274 
L 79.5265 133.788994 
L 78.9685 133.788994 
L 78.4105 133.123714 
L 78.1315 133.123714 
L 77.5735 132.791074 
L 77.2945 132.458434 
L 77.2945 132.458434 
L 76.7365 132.458434 
L 76.7365 132.458434 
" style="fill:none;stroke:#1f77b4;stroke-linecap:square;stroke-width:1.5;"/>
   </g>
   <g id="line2d_25">
    <path clip-path="url(#pa5b952e796)" d="M 367.7335 161.730754 
L 363.8275 160.899154 
L 361.8745 160.732834 
L 359.71225 160.649674 
L 358.2475 160.400194 
L 338.78725 160.483354 
L 335.6485 160.732834 
L 285.4285 160.732834 
L 275.9425 161.065474 
L 258.3655 161.065474 
L 253.6225 161.398114 
L 201.4495 161.398114 
L 195.0325 161.065474 
L 189.4525 161.065474 
L 185.8255 160.732834 
L 181.9195 160.732834 
L 174.3865 160.067554 
L 164.0635 160.067554 
L 156.5305 159.734914 
L 152.9035 159.734914 
L 137.0005 158.570674 
L 132.118 158.071714 
L 131.4205 158.071714 
L 127.2355 157.406434 
L 124.7245 156.741154 
L 119.9815 156.075874 
L 116.494 155.244274 
L 115.5175 155.077954 
L 113.5645 154.412674 
L 108.124 153.747394 
L 107.1475 153.747394 
L 103.7995 153.248434 
L 101.707 152.915794 
L 100.591 152.749474 
L 100.1725 152.749474 
L 96.964 152.416834 
L 96.2665 152.416834 
L 94.8715 152.084194 
L 93.7555 152.084194 
L 92.3605 151.751554 
L 91.2445 151.751554 
L 90.4075 151.418914 
L 89.2915 151.418914 
L 88.1755 151.086274 
L 87.8965 151.086274 
L 87.199 150.753634 
L 86.5015 150.753634 
L 86.5015 150.753634 
" style="fill:none;stroke:#ff7f0e;stroke-linecap:square;stroke-width:1.5;"/>
   </g>
   <g id="line2d_26">
    <path clip-path="url(#pa5b952e796)" d="M 358.5265 125.140354 
L 358.387 125.140354 
L 358.2475 125.140354 
L 357.829 124.807714 
L 354.8995 124.807714 
L 354.0625 125.140354 
L 350.1565 125.140354 
L 347.9245 125.472994 
L 335.9275 125.472994 
L 333.9745 125.805634 
L 321.4195 125.805634 
L 318.0715 126.138274 
L 315.2815 126.138274 
L 310.2595 126.470914 
L 301.3315 126.470914 
L 298.2625 126.803554 
L 295.4725 126.803554 
L 289.195 127.136194 
L 287.6605 127.136194 
L 284.0335 127.468834 
L 280.6855 127.468834 
L 277.0585 127.801474 
L 274.2685 127.801474 
L 270.9205 128.134114 
L 263.9455 128.134114 
L 260.8765 128.466754 
L 250.2745 128.466754 
L 246.9265 128.799394 
L 243.0205 128.799394 
L 222.0955 130.795234 
L 209.68 132.292114 
L 206.7505 132.791074 
L 203.1235 133.123714 
L 199.7755 133.788994 
L 188.476 134.786914 
L 186.9415 134.786914 
L 184.4305 135.119554 
L 181.6405 135.119554 
L 175.2235 135.784834 
L 171.8755 135.784834 
L 168.5275 136.117474 
L 166.0165 136.117474 
L 161.8315 136.782754 
L 159.5995 136.782754 
L 157.3675 137.115394 
L 155.1355 137.115394 
L 146.347 138.113314 
L 145.6495 138.113314 
L 141.604 138.778594 
L 137.5585 139.443874 
L 130.3045 140.441794 
L 128.0725 140.441794 
L 125.8405 141.107074 
L 123.8875 141.107074 
L 120.2605 141.772354 
L 116.6335 141.772354 
L 115.2385 142.104994 
L 112.1695 142.104994 
L 111.0535 142.437634 
L 107.9845 142.437634 
L 107.4265 142.770274 
L 106.0315 142.770274 
L 106.0315 142.770274 
" style="fill:none;stroke:#2ca02c;stroke-linecap:square;stroke-width:1.5;"/>
   </g>
   <g id="line2d_27">
    <path clip-path="url(#pa5b952e796)" d="M 368.2915 170.712034 
L 366.8965 170.712034 
L 364.3855 170.213074 
L 361.0375 169.714114 
L 358.8055 169.714114 
L 356.5735 169.381474 
L 353.7835 169.381474 
L 351.5515 169.048834 
L 349.0405 169.048834 
L 346.2505 168.716194 
L 343.4605 168.716194 
L 338.1595 168.050914 
L 334.2535 167.551954 
L 332.5795 167.385634 
L 329.5105 166.720354 
L 325.8835 166.387714 
L 320.443 165.389794 
L 307.33 163.393954 
L 301.8895 162.728674 
L 291.5665 161.398114 
L 281.8015 160.732834 
L 271.1995 159.901234 
L 268.4095 159.734914 
L 262.5505 159.069634 
L 239.254 157.572754 
L 220.1425 156.408514 
L 217.9105 156.408514 
L 215.3995 156.075874 
L 201.7285 156.075874 
L 193.9165 155.743234 
L 180.2455 155.743234 
L 176.6185 156.075874 
L 172.4335 156.075874 
L 168.8065 156.741154 
L 165.1795 157.073794 
L 161.8315 157.073794 
L 154.0195 158.404354 
L 138.9535 161.065474 
L 131.6995 162.728674 
L 128.0725 163.560274 
L 124.4455 164.558194 
L 122.7715 165.057154 
L 116.0755 166.387714 
L 108.682 167.884594 
L 104.6365 168.383554 
L 102.1255 168.383554 
L 97.6615 169.048834 
L 90.9655 169.048834 
L 87.8965 168.383554 
L 87.3385 168.383554 
L 86.362 167.884594 
L 85.3855 167.385634 
L 83.1535 166.055074 
L 82.3165 165.223474 
L 81.898 165.057154 
L 81.7585 165.057154 
L 81.061 164.391874 
L 80.9215 164.391874 
L 80.6425 164.059234 
L 80.3635 164.059234 
L 80.0845 163.726594 
L 79.2475 163.726594 
L 78.9685 163.393954 
L 78.9685 163.393954 
L 78.6895 163.393954 
L 78.6895 163.393954 
" style="fill:none;stroke:#d62728;stroke-linecap:square;stroke-width:1.5;"/>
   </g>
   <g id="line2d_28">
    <path clip-path="url(#pa5b952e796)" d="M 337.6015 182.354434 
L 330.731125 179.194354 
L 328.534 178.362754 
L 323.791 176.533234 
L 315.421 173.289994 
L 311.6545 172.042594 
L 306.00475 169.630954 
L 298.47175 166.886674 
L 290.311 163.892914 
L 281.5225 161.148634 
L 280.1275 160.732834 
L 255.92425 155.576914 
L 250.62325 154.662154 
L 235.2085 152.416834 
L 226.07125 151.502074 
L 218.53825 150.587314 
L 191.1265 148.092514 
L 176.8975 146.096674 
L 161.413 143.685034 
L 151.09 141.772354 
L 145.0915 140.441794 
L 135.39625 138.196474 
L 130.09525 137.115394 
L 123.3295 135.452194 
L 117.1915 134.454274 
L 111.26275 133.206874 
L 100.4515 130.296274 
L 95.1505 129.132034 
L 90.4075 127.801474 
L 88.4545 127.468834 
L 88.4545 127.468834 
" style="fill:none;stroke:#9467bd;stroke-linecap:square;stroke-width:1.5;"/>
   </g>
   <g id="line2d_29">
    <path clip-path="url(#pa5b952e796)" d="M 371.0815 129.464674 
L 369.9655 129.464674 
L 369.1285 129.132034 
L 368.2915 129.132034 
L 367.1755 129.464674 
L 364.3855 129.464674 
L 362.1535 130.129954 
L 359.0845 130.462594 
L 356.8525 131.127874 
L 354.6205 131.460514 
L 352.3885 131.460514 
L 350.4355 131.793154 
L 347.9245 131.793154 
L 345.6925 132.125794 
L 337.6015 132.125794 
L 334.8115 131.793154 
L 324.2095 131.793154 
L 320.8615 131.460514 
L 313.3285 131.460514 
L 309.7015 131.127874 
L 302.4475 131.127874 
L 287.6605 129.797314 
L 283.4755 129.797314 
L 279.5695 129.132034 
L 271.4785 128.633074 
L 269.5255 128.466754 
L 265.3405 127.801474 
L 261.7135 127.801474 
L 227.3965 124.974034 
L 225.7225 124.807714 
L 221.5375 124.807714 
L 213.7255 124.142434 
L 209.5405 124.142434 
L 206.1925 123.809794 
L 192.8005 123.809794 
L 189.1735 124.142434 
L 185.8255 124.142434 
L 178.2925 124.807714 
L 174.6655 124.807714 
L 168.667 125.306674 
L 164.3425 125.639314 
L 162.6685 125.805634 
L 158.7625 126.470914 
L 148.9975 127.468834 
L 145.6495 128.134114 
L 136.7215 129.132034 
L 133.6525 129.132034 
L 128.0725 129.797314 
L 125.2825 129.797314 
L 123.0505 129.464674 
L 120.8185 129.464674 
L 115.099 128.799394 
L 114.1225 128.799394 
L 110.7745 128.134114 
L 109.1005 128.134114 
L 105.4735 127.468834 
L 102.823 126.637234 
L 102.1255 126.470914 
L 100.7305 126.470914 
L 99.3355 125.805634 
L 87.8965 123.477154 
L 81.2005 123.477154 
L 80.0845 123.144514 
L 78.1315 123.144514 
L 77.5735 123.477154 
L 75.8995 123.809794 
L 74.2255 125.140354 
L 74.2255 125.140354 
" style="fill:none;stroke:#8c564b;stroke-linecap:square;stroke-width:1.5;"/>
   </g>
   <g id="line2d_30">
    <path clip-path="url(#pa5b952e796)" d="M 364.9435 158.071714 
L 364.804 158.071714 
L 364.6645 158.071714 
L 364.3855 157.739074 
L 363.8275 157.739074 
L 363.5485 157.406434 
L 362.7115 157.406434 
L 361.8745 157.073794 
L 360.7585 157.073794 
L 358.5265 156.741154 
L 357.1315 156.741154 
L 355.4575 156.408514 
L 353.7835 156.408514 
L 350.7145 155.909554 
L 348.622 155.743234 
L 347.9245 155.743234 
L 345.6925 155.410594 
L 343.4605 155.410594 
L 338.299 155.077954 
L 337.0435 155.077954 
L 334.2535 154.745314 
L 294.3565 154.745314 
L 287.6605 155.410594 
L 281.5225 155.410594 
L 275.803 156.075874 
L 271.7575 156.574834 
L 266.7355 157.073794 
L 263.1085 157.739074 
L 256.9705 158.404354 
L 248.0425 160.067554 
L 233.2555 162.728674 
L 229.6285 163.061314 
L 214.8415 165.722434 
L 211.4935 166.055074 
L 207.5875 166.720354 
L 198.1015 167.718274 
L 195.5905 168.050914 
L 190.8475 168.383554 
L 187.2205 168.383554 
L 183.8725 168.716194 
L 175.5025 168.716194 
L 172.4335 168.383554 
L 169.3645 168.383554 
L 166.2955 168.050914 
L 163.5055 167.385634 
L 160.4365 167.052994 
L 153.88 165.389794 
L 151.2295 164.724514 
L 143.1385 162.396034 
L 138.9535 161.730754 
L 136.1635 161.065474 
L 132.8155 160.067554 
L 130.3045 160.067554 
L 125.5615 159.402274 
L 123.0505 159.402274 
L 120.5395 159.069634 
L 117.7495 159.069634 
L 113.8435 159.402274 
L 109.6585 159.402274 
L 107.1475 159.734914 
L 102.9625 160.067554 
L 100.1725 160.067554 
L 88.7335 161.398114 
L 75.6205 163.061314 
L 72.5515 163.061314 
L 67.2505 163.726594 
L 63.3445 163.726594 
L 63.3445 163.726594 
" style="fill:none;stroke:#e377c2;stroke-linecap:square;stroke-width:1.5;"/>
   </g>
   <g id="line2d_31">
    <path clip-path="url(#pa5b952e796)" d="M 357.4105 133.456354 
L 356.5735 132.624754 
L 355.7365 132.125794 
L 351.2725 130.795234 
L 342.9025 129.963634 
L 340.9495 129.797314 
L 337.6015 129.797314 
L 333.9745 129.464674 
L 297.7045 129.464674 
L 293.7985 129.797314 
L 275.9425 129.797314 
L 273.9895 130.129954 
L 269.8045 130.129954 
L 265.6195 130.462594 
L 261.7135 130.462594 
L 251.6695 131.127874 
L 246.6475 131.460514 
L 245.5315 131.460514 
L 237.4405 132.292114 
L 235.2085 132.458434 
L 230.7445 133.123714 
L 226.5595 133.456354 
L 212.0515 135.452194 
L 200.0545 137.780674 
L 197.8225 138.113314 
L 191.1265 139.443874 
L 181.78 140.940754 
L 178.5715 141.439714 
L 174.3865 141.772354 
L 166.5745 143.102914 
L 162.9475 143.435554 
L 158.4835 144.100834 
L 147.0445 145.098754 
L 143.6965 145.764034 
L 139.5115 145.764034 
L 125.5615 147.094594 
L 118.5865 147.094594 
L 113.8435 147.759874 
L 98.2195 147.759874 
L 96.8245 147.427234 
L 93.4765 147.094594 
L 91.2445 146.429314 
L 89.2915 146.096674 
L 86.92 145.265074 
L 86.2225 145.098754 
L 80.224 142.603954 
L 76.1785 140.441794 
L 74.086 139.111234 
L 71.854 137.281714 
L 71.296 136.782754 
L 71.1565 136.782754 
L 69.2035 135.119554 
L 68.9245 134.786914 
L 68.3665 134.786914 
L 68.3665 134.786914 
" style="fill:none;stroke:#7f7f7f;stroke-linecap:square;stroke-width:1.5;"/>
   </g>
   <g id="line2d_32">
    <path clip-path="url(#pa5b952e796)" d="M 350.7145 132.458434 
L 349.284625 132.125794 
L 345.9715 132.208954 
L 340.74025 132.707914 
L 336.4855 133.206874 
L 332.09125 133.622674 
L 325.186 134.620594 
L 322.04725 134.953234 
L 316.3975 135.452194 
L 309.4225 136.616434 
L 300.7735 137.614354 
L 292.6825 138.279634 
L 276.7795 140.109154 
L 268.828 140.608114 
L 256.62175 141.855514 
L 250.693 142.271314 
L 239.3935 143.435554 
L 231.721 143.934514 
L 224.81575 144.599794 
L 215.32975 145.348234 
L 199.14775 147.011434 
L 192.2425 147.759874 
L 167.6905 148.757794 
L 145.3705 149.922034 
L 138.1165 150.088354 
L 124.4455 150.005194 
L 119.91175 149.755714 
L 115.30825 149.838874 
L 111.26275 150.088354 
L 107.49625 150.171514 
L 104.3575 150.420994 
L 100.7305 151.418914 
L 100.7305 151.418914 
" style="fill:none;stroke:#bcbd22;stroke-linecap:square;stroke-width:1.5;"/>
   </g>
   <g id="line2d_33">
    <path clip-path="url(#pa5b952e796)" d="M 364.9435 164.391874 
L 363.688 163.061314 
L 361.5955 161.398114 
L 358.8055 160.067554 
L 356.434 159.402274 
L 349.5985 157.073794 
L 347.3665 156.741154 
L 338.1595 154.080034 
L 333.6955 153.248434 
L 330.9055 152.416834 
L 325.6045 151.418914 
L 319.1875 149.922034 
L 314.1655 149.090434 
L 312.7705 148.757794 
L 307.7485 148.092514 
L 305.2375 147.427234 
L 300.2155 146.761954 
L 297.4255 146.429314 
L 294.9145 146.429314 
L 290.7295 146.096674 
L 280.6855 146.096674 
L 277.6165 146.429314 
L 273.1525 146.429314 
L 271.4785 146.761954 
L 266.4565 147.427234 
L 261.4345 147.759874 
L 255.8545 148.425154 
L 252.5065 149.090434 
L 248.8795 149.423074 
L 230.7445 152.749474 
L 225.7225 153.082114 
L 220.4215 154.080034 
L 213.586 154.578994 
L 208.4245 155.077954 
L 205.6345 155.077954 
L 199.2175 155.743234 
L 192.8005 155.743234 
L 190.0105 156.075874 
L 186.9415 155.743234 
L 181.0825 155.743234 
L 178.5715 155.410594 
L 176.0605 155.410594 
L 173.2705 155.077954 
L 170.7595 155.077954 
L 167.6905 154.745314 
L 149.2765 154.745314 
L 146.2075 155.077954 
L 140.3485 155.077954 
L 137.5585 155.410594 
L 121.6555 155.410594 
L 119.4235 155.077954 
L 108.5425 155.077954 
L 105.1945 155.410594 
L 103.2415 155.743234 
L 92.9185 157.073794 
L 90.4075 157.073794 
L 88.7335 157.406434 
L 87.3385 157.406434 
L 86.2225 157.739074 
L 80.9215 157.739074 
L 80.3635 158.071714 
L 79.5265 158.071714 
L 79.5265 158.071714 
" style="fill:none;stroke:#17becf;stroke-linecap:square;stroke-width:1.5;"/>
   </g>
   <g id="line2d_34">
    <path clip-path="url(#pa5b952e796)" d="M 364.1065 122.146594 
L 353.5045 122.146594 
L 352.6675 122.479234 
L 347.6455 122.479234 
L 345.6925 122.146594 
L 344.0185 122.146594 
L 342.0655 121.813954 
L 335.3695 121.813954 
L 333.1375 121.481314 
L 318.9085 121.481314 
L 316.9555 121.148674 
L 312.7705 121.148674 
L 308.3065 121.481314 
L 304.6795 121.481314 
L 302.7265 121.813954 
L 299.9365 121.813954 
L 293.2405 122.811874 
L 291.0085 122.811874 
L 288.7765 123.144514 
L 286.5445 123.144514 
L 266.4565 125.805634 
L 263.6665 125.805634 
L 251.9485 127.468834 
L 241.6255 128.799394 
L 220.7005 131.460514 
L 213.4465 132.125794 
L 211.7725 132.125794 
L 207.0295 132.624754 
L 203.4025 133.123714 
L 200.8915 133.123714 
L 198.6595 133.456354 
L 193.9165 133.456354 
L 188.8945 134.121634 
L 185.2675 134.121634 
L 179.9665 134.786914 
L 177.4555 134.786914 
L 174.9445 135.119554 
L 168.2485 135.119554 
L 166.0165 134.786914 
L 160.7155 134.786914 
L 158.2045 134.454274 
L 154.0195 134.454274 
L 151.5085 134.121634 
L 136.4425 134.121634 
L 132.5365 134.454274 
L 131.4205 134.786914 
L 125.2825 135.452194 
L 123.8875 135.784834 
L 120.2605 136.782754 
L 116.6335 137.448034 
L 107.4265 140.109154 
L 103.7995 141.107074 
L 102.1255 141.439714 
L 97.9405 142.770274 
L 95.9875 143.102914 
L 93.4765 143.768194 
L 91.8025 144.433474 
L 90.9655 144.433474 
L 89.2915 144.766114 
L 87.6175 145.431394 
L 86.7805 145.431394 
L 85.9435 145.764034 
L 85.3855 145.764034 
L 85.1065 146.096674 
L 84.5485 146.096674 
L 84.5485 146.096674 
" style="fill:none;stroke:#1f77b4;stroke-linecap:square;stroke-width:1.5;"/>
   </g>
   <g id="line2d_35">
    <path clip-path="url(#pa5b952e796)" d="M 347.3665 121.813954 
L 346.5295 121.398154 
L 345.6925 121.148674 
L 343.1815 121.065514 
L 339.694 120.816034 
L 338.08975 120.899194 
L 335.43925 121.148674 
L 332.44 121.231834 
L 329.5105 121.481314 
L 326.23225 121.564474 
L 320.3035 122.146594 
L 312.2125 122.229754 
L 309.7015 122.479234 
L 297.35575 122.562394 
L 293.58925 122.811874 
L 289.474 122.895034 
L 285.63775 123.144514 
L 281.941 123.227674 
L 279.0115 123.477154 
L 272.734 123.560314 
L 268.89775 123.809794 
L 265.27075 123.892954 
L 258.3655 124.475074 
L 255.0175 124.475074 
L 236.6035 126.138274 
L 231.5815 126.637234 
L 225.7225 127.136194 
L 217.3525 128.466754 
L 213.7255 128.466754 
L 210.0985 129.132034 
L 190.5685 131.127874 
L 178.5715 133.123714 
L 174.6655 133.456354 
L 171.3175 134.121634 
L 161.2735 135.119554 
L 158.4835 135.784834 
L 155.9725 136.117474 
L 153.1825 136.117474 
L 144.952 137.115394 
L 143.9755 137.115394 
L 140.9065 137.448034 
L 137.0005 137.448034 
L 133.3735 138.113314 
L 131.4205 138.113314 
L 130.0255 138.445954 
L 128.6305 138.445954 
L 127.2355 138.778594 
L 124.1665 138.778594 
L 124.1665 138.778594 
" style="fill:none;stroke:#ff7f0e;stroke-linecap:square;stroke-width:1.5;"/>
   </g>
   <g id="line2d_36">
    <path clip-path="url(#pa5b952e796)" d="M 377.7775 184.682914 
L 377.28925 184.599754 
L 375.5455 184.017634 
L 374.4295 183.684994 
L 371.98825 183.601834 
L 370.5235 183.352354 
L 367.10575 183.269194 
L 364.3855 183.019714 
L 332.161 182.936554 
L 324.4885 182.520754 
L 299.0995 181.356514 
L 292.75225 180.857554 
L 288.7765 180.358594 
L 281.8015 180.275434 
L 276.15175 179.859634 
L 270.3625 179.277514 
L 256.4125 178.362754 
L 250.8325 178.030114 
L 249.4375 178.030114 
L 235.627 177.198514 
L 222.3745 176.366914 
L 216.7945 176.034274 
L 203.6815 176.034274 
L 198.3805 175.701634 
L 193.0795 175.701634 
L 185.2675 175.368994 
L 175.2235 175.701634 
L 172.7125 175.701634 
L 167.6905 175.368994 
L 158.4835 175.368994 
L 142.72 176.200594 
L 137.14 176.533234 
L 132.8155 176.865874 
L 129.886 177.198514 
L 128.0725 177.364834 
L 123.8875 178.030114 
L 111.751 179.028034 
L 110.2165 179.028034 
L 107.4265 179.360674 
L 96.5455 179.360674 
L 95.4295 179.028034 
L 93.4765 179.028034 
L 92.9185 178.695394 
L 90.6865 178.695394 
L 90.6865 178.695394 
" style="fill:none;stroke:#2ca02c;stroke-linecap:square;stroke-width:1.5;"/>
   </g>
   <g id="line2d_37">
    <path clip-path="url(#pa5b952e796)" d="M 371.9185 144.766114 
L 371.779 144.766114 
L 371.6395 144.766114 
L 371.3605 144.433474 
L 368.5705 144.433474 
L 365.7805 143.768194 
L 364.6645 143.768194 
L 362.9905 143.435554 
L 356.8525 143.435554 
L 354.3415 143.102914 
L 322.2565 143.102914 
L 319.1875 143.435554 
L 316.3975 143.435554 
L 305.656 144.433474 
L 304.1215 144.433474 
L 291.0085 145.764034 
L 285.4285 146.262994 
L 279.2905 147.427234 
L 275.9425 147.759874 
L 265.3405 149.755714 
L 257.5285 151.086274 
L 254.1805 151.418914 
L 228.5125 155.743234 
L 224.6065 156.075874 
L 220.9795 156.741154 
L 190.2895 159.402274 
L 182.4775 159.402274 
L 178.8505 159.734914 
L 171.3175 159.734914 
L 163.366 160.067554 
L 161.5525 160.067554 
L 157.9255 160.400194 
L 154.2985 160.400194 
L 150.6715 160.067554 
L 143.6965 160.067554 
L 140.3485 159.734914 
L 137.2795 159.734914 
L 112.1695 156.741154 
L 106.8685 155.743234 
L 102.4045 155.077954 
L 98.4985 154.412674 
L 96.5455 154.080034 
L 94.8715 154.080034 
L 91.5235 153.414754 
L 88.4545 153.414754 
L 85.9435 152.749474 
L 84.5485 152.749474 
L 83.7115 152.416834 
L 83.1535 152.416834 
L 82.8745 152.084194 
L 81.4795 152.084194 
L 80.6425 152.416834 
L 80.3635 152.749474 
L 80.3635 152.749474 
" style="fill:none;stroke:#d62728;stroke-linecap:square;stroke-width:1.5;"/>
   </g>
   <g id="line2d_38">
    <path clip-path="url(#pa5b952e796)" d="M 361.8745 162.728674 
L 361.0375 161.730754 
L 360.2005 161.398114 
L 358.8055 160.400194 
L 355.318 158.404354 
L 353.2255 157.406434 
L 350.9935 156.075874 
L 347.3665 154.745314 
L 342.3445 153.082114 
L 340.9495 152.749474 
L 338.4385 152.416834 
L 335.9275 151.751554 
L 330.766 150.919954 
L 330.0685 150.753634 
L 321.1405 149.755714 
L 318.6295 149.423074 
L 298.2625 148.092514 
L 294.6355 148.092514 
L 291.0085 147.759874 
L 287.6605 147.759874 
L 280.6855 147.094594 
L 270.0835 147.094594 
L 263.1085 146.761954 
L 244.4155 146.761954 
L 240.7885 146.429314 
L 236.8825 146.761954 
L 208.1455 146.761954 
L 204.7975 147.094594 
L 200.3335 146.761954 
L 196.9855 146.761954 
L 193.0795 147.094594 
L 185.8255 147.094594 
L 181.6405 147.427234 
L 178.0135 147.427234 
L 158.4835 149.090434 
L 151.7875 149.755714 
L 148.4395 149.755714 
L 144.8125 150.088354 
L 141.7435 150.088354 
L 135.6055 150.587314 
L 133.3735 150.753634 
L 114.9595 150.753634 
L 112.1695 151.086274 
L 109.6585 150.753634 
L 107.4265 151.086274 
L 104.9155 150.753634 
L 101.0095 150.753634 
L 99.3355 150.420994 
L 95.9875 150.420994 
L 94.5925 150.088354 
L 90.1285 150.088354 
L 88.4545 149.755714 
L 86.5015 149.755714 
L 86.2225 149.423074 
L 84.5485 149.423074 
L 84.5485 149.423074 
" style="fill:none;stroke:#9467bd;stroke-linecap:square;stroke-width:1.5;"/>
   </g>
   <g id="line2d_39">
    <path clip-path="url(#pa5b952e796)" d="M 358.8055 121.148674 
L 358.8055 120.816034 
L 358.8055 120.816034 
L 358.2475 120.816034 
L 358.2475 121.148674 
L 356.5735 121.148674 
L 355.4575 121.481314 
L 349.3195 122.479234 
L 343.7395 123.477154 
L 314.305 127.468834 
L 312.7705 127.801474 
L 304.54 128.799394 
L 303.0055 129.132034 
L 298.8205 129.464674 
L 295.7515 130.129954 
L 289.474 131.127874 
L 287.6605 131.460514 
L 283.4755 131.793154 
L 277.6165 132.791074 
L 273.7105 133.123714 
L 265.6195 134.454274 
L 262.2715 134.454274 
L 254.7385 135.119554 
L 250.5535 135.119554 
L 243.5785 135.784834 
L 240.2305 135.784834 
L 235.7665 136.117474 
L 232.1395 136.117474 
L 227.9545 136.450114 
L 224.3275 136.450114 
L 217.6315 136.782754 
L 216.5155 136.782754 
L 212.8885 137.115394 
L 191.4055 137.115394 
L 188.0575 136.782754 
L 178.2925 136.782754 
L 174.6655 136.450114 
L 171.8755 136.450114 
L 166.5745 136.117474 
L 148.7185 136.117474 
L 145.9285 136.450114 
L 138.3955 136.450114 
L 135.8845 136.782754 
L 131.9785 136.782754 
L 127.5145 137.448034 
L 125.2825 137.448034 
L 123.3295 137.780674 
L 120.5395 137.780674 
L 119.4235 138.113314 
L 115.7965 138.113314 
L 115.378 137.780674 
L 114.6805 137.780674 
L 114.4015 138.113314 
L 114.4015 138.113314 
" style="fill:none;stroke:#8c564b;stroke-linecap:square;stroke-width:1.5;"/>
   </g>
   <g id="line2d_40">
    <path clip-path="url(#pa5b952e796)" d="M 358.5265 175.701634 
L 358.387 175.701634 
L 358.2475 175.701634 
L 356.2945 173.373154 
L 354.8995 172.707874 
L 351.2725 169.381474 
L 349.5985 168.050914 
L 346.948 165.556114 
L 345.9715 164.724514 
L 342.0655 162.063394 
L 334.951 158.238034 
L 331.045 156.408514 
L 329.5105 155.743234 
L 323.6515 154.246354 
L 317.2345 152.749474 
L 308.3065 151.751554 
L 305.7955 151.418914 
L 291.427 150.420994 
L 289.0555 150.420994 
L 284.0335 150.088354 
L 279.2905 150.088354 
L 274.8265 149.755714 
L 207.3085 149.755714 
L 202.5655 149.423074 
L 195.5905 149.423074 
L 191.9635 149.090434 
L 183.5935 149.090434 
L 173.8285 148.425154 
L 172.1545 148.425154 
L 168.2485 148.092514 
L 164.9005 147.427234 
L 156.5305 146.429314 
L 151.7875 146.096674 
L 150.9505 146.096674 
L 139.2325 145.431394 
L 130.0255 145.431394 
L 127.2355 145.098754 
L 124.1665 145.098754 
L 117.7495 145.764034 
L 114.9595 145.764034 
L 107.9845 146.761954 
L 105.1945 147.094594 
L 102.6835 147.759874 
L 95.569 148.924114 
L 94.8715 149.090434 
L 93.7555 149.090434 
L 92.9185 149.423074 
L 89.0125 149.423074 
L 88.315 149.090434 
L 87.0595 149.090434 
L 87.0595 149.090434 
" style="fill:none;stroke:#e377c2;stroke-linecap:square;stroke-width:1.5;"/>
   </g>
   <g id="line2d_41">
    <path clip-path="url(#pa5b952e796)" d="M 353.2255 100.524994 
L 350.1565 100.524994 
L 347.3665 100.857634 
L 346.5295 101.190274 
L 342.3445 101.190274 
L 336.4855 101.855554 
L 332.3005 101.855554 
L 326.1625 102.354514 
L 319.7455 103.019794 
L 315.0025 103.518754 
L 311.9335 103.518754 
L 305.2375 104.184034 
L 277.6165 104.184034 
L 270.3625 103.518754 
L 264.7825 102.853474 
L 252.2275 102.853474 
L 248.8795 103.186114 
L 244.9735 103.186114 
L 241.3465 103.518754 
L 237.7195 103.518754 
L 232.1395 103.851394 
L 228.2335 103.851394 
L 226.0015 104.184034 
L 215.3995 104.849314 
L 195.8695 106.512514 
L 193.6375 106.845154 
L 188.8945 107.177794 
L 182.059 108.175714 
L 171.0385 109.506274 
L 166.5745 109.838914 
L 162.3895 110.504194 
L 157.9255 110.836834 
L 153.7405 111.502114 
L 146.7655 112.167394 
L 141.604 112.832674 
L 135.745 113.664274 
L 131.4205 114.163234 
L 127.096 114.662194 
L 117.7495 115.493794 
L 103.7995 115.493794 
L 101.8465 115.161154 
L 100.1725 115.161154 
L 96.5455 114.329554 
L 92.6395 113.165314 
L 91.2445 112.167394 
L 89.989 111.502114 
L 89.2915 111.169474 
L 88.4545 110.504194 
L 87.6175 110.171554 
L 86.7805 110.171554 
L 84.5485 110.504194 
L 84.5485 110.504194 
" style="fill:none;stroke:#7f7f7f;stroke-linecap:square;stroke-width:1.5;"/>
   </g>
   <g id="line2d_42">
    <path clip-path="url(#pa5b952e796)" d="M 367.1755 102.188194 
L 366.6175 101.855554 
L 364.3855 101.855554 
L 361.3165 101.356594 
L 360.7585 101.190274 
L 357.4105 101.190274 
L 354.6205 100.857634 
L 349.3195 100.857634 
L 346.2505 100.524994 
L 340.1125 100.524994 
L 334.2535 99.859714 
L 331.1845 99.859714 
L 325.3255 99.194434 
L 318.3505 98.529154 
L 315.2815 98.196514 
L 311.9335 98.196514 
L 305.5165 97.531234 
L 302.1685 97.198594 
L 294.9145 97.198594 
L 291.0085 96.865954 
L 261.7135 96.865954 
L 258.0865 97.198594 
L 253.3435 97.198594 
L 248.8795 97.531234 
L 248.0425 97.531234 
L 242.4625 97.863874 
L 232.1395 98.861794 
L 226.2805 99.859714 
L 220.9795 100.857634 
L 217.9105 101.190274 
L 214.5625 101.855554 
L 211.2145 102.188194 
L 207.8665 103.186114 
L 203.1235 103.851394 
L 200.0545 104.516674 
L 197.2645 105.514594 
L 193.6375 106.179874 
L 180.664 109.173634 
L 177.874 109.838914 
L 175.084 110.504194 
L 171.5965 111.335794 
L 168.109 112.167394 
L 165.319 112.666354 
L 154.717 114.163234 
L 152.0665 114.662194 
L 148.4395 115.161154 
L 145.6495 115.161154 
L 143.6965 115.493794 
L 138.6745 115.493794 
L 136.4425 115.826434 
L 127.2355 115.826434 
L 124.1665 115.493794 
L 121.6555 115.826434 
L 95.9875 115.826434 
L 93.7555 116.159074 
L 92.3605 116.159074 
L 90.6865 116.491714 
L 89.0125 116.491714 
L 87.8965 116.824354 
L 85.9435 117.156994 
L 84.8275 117.489634 
L 83.7115 117.489634 
L 81.4795 118.154914 
L 79.5265 118.154914 
L 77.5735 118.820194 
L 75.8995 118.820194 
L 75.6205 119.152834 
L 74.7835 119.152834 
L 74.7835 119.485474 
L 74.7835 119.485474 
" style="fill:none;stroke:#bcbd22;stroke-linecap:square;stroke-width:1.5;"/>
   </g>
   <g id="line2d_43">
    <path clip-path="url(#pa5b952e796)" d="M 356.2945 146.761954 
L 353.5045 146.678794 
L 351.34225 146.429314 
L 336.27625 146.512474 
L 328.3945 147.094594 
L 319.1875 147.593554 
L 317.7925 147.759874 
L 303.703 148.258834 
L 278.314 149.589394 
L 273.50125 149.755714 
L 267.0145 149.838874 
L 254.041 150.587314 
L 251.3905 150.753634 
L 238.76575 150.836794 
L 218.7475 151.418914 
L 202.35625 151.335754 
L 195.79975 151.086274 
L 188.197 151.003114 
L 176.68825 150.504154 
L 173.689 150.420994 
L 170.062 150.337834 
L 158.2045 149.755714 
L 151.7875 148.924114 
L 139.5115 147.593554 
L 135.6055 147.094594 
L 127.7935 146.262994 
L 121.795 145.764034 
L 117.7495 145.764034 
L 113.2855 144.932434 
L 112.7275 144.766114 
L 109.3795 144.766114 
L 109.3795 144.766114 
" style="fill:none;stroke:#17becf;stroke-linecap:square;stroke-width:1.5;"/>
   </g>
   <g id="line2d_44">
    <path clip-path="url(#pa5b952e796)" d="M 368.0125 120.483394 
L 361.94425 120.566554 
L 361.3165 120.816034 
L 344.50675 120.899194 
L 340.9495 121.148674 
L 338.4385 121.148674 
L 334.5325 121.481314 
L 330.6265 121.481314 
L 321.4195 122.146594 
L 316.9555 122.146594 
L 312.4915 122.811874 
L 308.0275 122.811874 
L 299.0995 123.477154 
L 295.1935 123.477154 
L 284.8705 124.142434 
L 282.9175 124.142434 
L 255.8545 126.138274 
L 248.6005 126.138274 
L 244.6945 126.470914 
L 241.0675 126.470914 
L 236.6035 126.803554 
L 233.2555 126.803554 
L 226.141 127.468834 
L 219.3055 128.134114 
L 202.2865 129.797314 
L 198.1015 130.129954 
L 193.0795 131.127874 
L 183.8725 132.458434 
L 157.6465 137.448034 
L 150.3925 139.277554 
L 148.1605 139.776514 
L 143.6965 140.441794 
L 137.419 141.772354 
L 118.0285 145.431394 
L 109.9375 147.094594 
L 105.1945 148.425154 
L 100.87 149.256754 
L 98.4985 149.755714 
L 97.9405 149.755714 
L 97.3825 150.088354 
L 96.2665 150.088354 
L 95.9875 150.420994 
L 95.9875 150.420994 
" style="fill:none;stroke:#1f77b4;stroke-linecap:square;stroke-width:1.5;"/>
   </g>
   <g id="line2d_45">
    <path clip-path="url(#pa5b952e796)" d="M 361.8745 163.393954 
L 361.5955 163.393954 
L 361.3165 163.393954 
L 360.7585 163.726594 
L 359.0845 163.726594 
L 357.9685 164.059234 
L 356.2945 164.059234 
L 354.6205 164.391874 
L 348.2035 164.391874 
L 345.6925 164.724514 
L 343.4605 164.391874 
L 340.3915 164.391874 
L 334.8115 163.726594 
L 329.7895 163.393954 
L 328.9525 163.393954 
L 322.5355 162.728674 
L 319.1875 162.728674 
L 312.2125 162.063394 
L 308.8645 161.398114 
L 299.6575 160.400194 
L 297.1465 160.067554 
L 291.5665 159.734914 
L 285.9865 159.069634 
L 282.6385 159.069634 
L 273.1525 158.404354 
L 271.1995 158.404354 
L 267.8515 158.071714 
L 242.4625 158.071714 
L 234.6505 158.736994 
L 230.4655 158.736994 
L 214.2835 160.067554 
L 210.0985 160.067554 
L 203.542 160.566514 
L 198.799 160.899154 
L 196.9855 161.065474 
L 189.1735 161.065474 
L 185.8255 161.398114 
L 163.2265 161.398114 
L 159.3205 161.730754 
L 155.4145 161.730754 
L 151.7875 161.398114 
L 145.0915 161.398114 
L 133.9315 160.400194 
L 132.2575 160.400194 
L 126.6775 159.734914 
L 121.3765 159.734914 
L 118.8655 159.402274 
L 116.3545 159.402274 
L 111.6115 158.903314 
L 110.4955 158.736994 
L 108.8215 158.736994 
L 107.1475 158.404354 
L 105.1945 158.404354 
L 103.7995 158.071714 
L 101.2885 158.071714 
L 100.1725 157.739074 
L 99.0565 157.739074 
L 97.9405 157.406434 
L 94.3135 157.406434 
L 93.7555 157.073794 
L 90.9655 157.073794 
L 90.9655 157.073794 
" style="fill:none;stroke:#ff7f0e;stroke-linecap:square;stroke-width:1.5;"/>
   </g>
   <g id="line2d_46">
    <path clip-path="url(#pa5b952e796)" d="M 362.1535 151.418914 
L 362.014 151.418914 
L 361.8745 151.418914 
L 361.8745 151.086274 
L 361.5955 151.086274 
L 360.7585 150.753634 
L 359.9215 150.088354 
L 355.1785 148.924114 
L 353.5045 148.425154 
L 352.3885 148.425154 
L 349.0405 147.427234 
L 346.5295 147.094594 
L 342.9025 146.096674 
L 336.904 145.098754 
L 329.5105 143.435554 
L 323.3725 142.770274 
L 320.3035 142.104994 
L 317.5135 141.772354 
L 313.0495 140.774434 
L 309.9805 140.275474 
L 303.5635 139.443874 
L 301.8895 139.111234 
L 298.2625 138.778594 
L 294.9145 138.113314 
L 291.0085 137.780674 
L 287.3815 137.780674 
L 281.8015 137.115394 
L 267.712 136.283794 
L 265.8985 136.117474 
L 237.9985 136.117474 
L 226.5595 137.115394 
L 223.4905 137.448034 
L 209.8195 139.776514 
L 207.8665 140.109154 
L 204.5185 140.441794 
L 197.5435 141.772354 
L 193.6375 142.104994 
L 190.5685 142.770274 
L 174.9445 144.433474 
L 166.5745 145.431394 
L 163.7845 145.431394 
L 160.9945 145.764034 
L 158.2045 146.429314 
L 149.8345 147.427234 
L 146.7655 147.427234 
L 141.604 147.926194 
L 140.3485 148.092514 
L 133.3735 148.092514 
L 122.4925 146.429314 
L 121.6555 146.096674 
L 117.4705 145.431394 
L 115.5175 145.431394 
L 112.7275 145.098754 
L 110.4955 145.098754 
L 108.5425 144.766114 
L 94.8715 144.766114 
L 91.5235 145.098754 
L 88.7335 145.098754 
L 87.6175 145.431394 
L 86.2225 145.431394 
L 85.1065 145.764034 
L 82.5955 145.764034 
L 81.4795 146.096674 
L 78.6895 146.096674 
L 78.4105 146.429314 
L 77.0155 146.429314 
L 76.7365 146.761954 
L 76.7365 146.761954 
" style="fill:none;stroke:#2ca02c;stroke-linecap:square;stroke-width:1.5;"/>
   </g>
   <g id="line2d_47">
    <path clip-path="url(#pa5b952e796)" d="M 371.9185 156.741154 
L 371.779 156.741154 
L 371.6395 156.741154 
L 371.6395 156.408514 
L 371.0815 155.743234 
L 369.547 154.745314 
L 368.5705 154.080034 
L 367.594 153.581074 
L 365.2225 152.749474 
L 357.4105 151.418914 
L 354.8995 151.418914 
L 348.4825 150.420994 
L 346.2505 150.420994 
L 341.926 149.589394 
L 340.6705 149.423074 
L 338.4385 149.423074 
L 328.3945 148.425154 
L 312.4915 148.425154 
L 308.8645 148.757794 
L 306.0745 148.757794 
L 292.6825 150.254674 
L 287.6605 150.753634 
L 284.3125 151.418914 
L 277.6165 152.084194 
L 274.5475 152.749474 
L 259.2025 154.745314 
L 250.8325 155.410594 
L 246.3685 155.743234 
L 237.1615 155.743234 
L 234.3715 156.075874 
L 231.3025 155.743234 
L 228.2335 155.743234 
L 225.7225 156.075874 
L 222.3745 155.743234 
L 207.0295 155.743234 
L 203.9605 155.410594 
L 198.1015 155.410594 
L 194.7535 155.077954 
L 191.6845 155.077954 
L 186.523 154.412674 
L 184.4305 154.080034 
L 178.5715 153.581074 
L 174.9445 153.082114 
L 172.7125 152.749474 
L 155.1355 151.418914 
L 152.3455 151.418914 
L 135.6055 149.090434 
L 133.3735 148.757794 
L 130.3045 148.425154 
L 128.0725 148.425154 
L 126.9565 148.092514 
L 123.3295 148.092514 
L 117.7495 148.757794 
L 114.4015 148.757794 
L 111.8905 149.090434 
L 109.9375 149.090434 
L 108.2635 149.423074 
L 106.5895 149.423074 
L 104.3575 149.755714 
L 99.6145 149.755714 
L 97.9405 150.088354 
L 88.1755 150.088354 
L 87.0595 150.420994 
L 83.9905 150.420994 
L 82.8745 150.753634 
L 81.2005 150.753634 
L 80.3635 151.086274 
L 79.8055 151.086274 
L 79.2475 151.418914 
L 78.1315 151.418914 
L 78.1315 151.418914 
" style="fill:none;stroke:#d62728;stroke-linecap:square;stroke-width:1.5;"/>
   </g>
   <g id="line2d_48">
    <path clip-path="url(#pa5b952e796)" d="M 367.7335 159.402274 
L 367.315 159.734914 
L 367.1755 159.734914 
L 366.6175 159.402274 
L 361.0375 159.402274 
L 359.0845 159.069634 
L 337.8805 159.069634 
L 330.0685 158.404354 
L 328.3945 158.404354 
L 325.0465 158.071714 
L 321.4195 158.071714 
L 314.4445 157.406434 
L 311.0965 157.406434 
L 307.4695 157.073794 
L 303.2845 157.073794 
L 291.5665 156.075874 
L 287.6605 156.075874 
L 282.9175 155.743234 
L 278.4535 155.743234 
L 269.944 155.244274 
L 267.8515 155.077954 
L 263.1085 155.077954 
L 258.6445 154.745314 
L 254.4595 154.745314 
L 249.9955 154.412674 
L 245.8105 154.412674 
L 241.3465 154.080034 
L 230.7445 154.080034 
L 226.8385 153.747394 
L 214.5625 153.747394 
L 210.9355 153.414754 
L 203.6815 153.414754 
L 199.7755 153.082114 
L 187.7785 153.082114 
L 179.4085 153.747394 
L 173.131 154.080034 
L 168.5275 154.080034 
L 165.7375 154.412674 
L 162.9475 154.412674 
L 160.1575 154.745314 
L 151.7875 154.745314 
L 149.2765 155.077954 
L 138.3955 155.077954 
L 136.4425 155.410594 
L 134.4895 155.077954 
L 116.3545 155.077954 
L 110.7745 156.075874 
L 109.1005 156.075874 
L 105.7525 156.741154 
L 103.7995 156.741154 
L 101.8465 157.406434 
L 99.8935 157.406434 
L 97.801 157.739074 
L 95.1505 157.739074 
L 95.1505 157.739074 
" style="fill:none;stroke:#9467bd;stroke-linecap:square;stroke-width:1.5;"/>
   </g>
   <g id="line2d_49">
    <path clip-path="url(#pa5b952e796)" d="M 354.3415 137.115394 
L 353.2255 137.115394 
L 352.528 137.448034 
L 350.4355 137.448034 
L 349.3195 137.780674 
L 347.9245 137.780674 
L 346.5295 138.113314 
L 345.1345 138.113314 
L 339.5545 138.778594 
L 337.6015 138.778594 
L 332.8585 139.111234 
L 329.5105 139.111234 
L 328.1155 139.443874 
L 296.3095 139.443874 
L 292.6825 139.111234 
L 277.3375 139.111234 
L 265.8985 138.445954 
L 260.3185 138.445954 
L 248.74 137.448034 
L 247.2055 137.448034 
L 234.3715 136.450114 
L 232.6975 136.450114 
L 228.5125 136.117474 
L 224.6065 136.117474 
L 220.9795 135.784834 
L 210.0985 135.784834 
L 204.5185 136.117474 
L 196.4275 136.117474 
L 192.5215 136.782754 
L 180.2455 137.780674 
L 176.6185 138.445954 
L 172.4335 138.778594 
L 155.9725 141.273394 
L 154.0195 141.439714 
L 146.2075 142.770274 
L 135.8845 143.768194 
L 132.5365 144.433474 
L 123.6085 145.431394 
L 119.842 145.930354 
L 118.3075 146.096674 
L 115.7965 146.761954 
L 108.2635 147.759874 
L 102.4045 148.757794 
L 101.0095 148.757794 
L 99.8935 149.090434 
L 96.5455 149.090434 
L 96.5455 149.090434 
L 96.127 149.423074 
L 95.9875 149.423074 
L 95.9875 149.423074 
" style="fill:none;stroke:#8c564b;stroke-linecap:square;stroke-width:1.5;"/>
   </g>
   <g id="line2d_50">
    <path clip-path="url(#pa5b952e796)" d="M 346.8085 147.759874 
L 344.92525 147.843034 
L 343.4605 148.092514 
L 339.90325 148.175674 
L 336.2065 148.508314 
L 324.69775 149.090434 
L 322.32625 149.173594 
L 308.8645 149.922034 
L 294.28675 150.420994 
L 270.502 150.337834 
L 263.17825 150.088354 
L 255.64525 150.171514 
L 248.11225 150.420994 
L 240.5095 150.504154 
L 232.6975 150.753634 
L 226.8385 150.753634 
L 216.376 151.502074 
L 182.1985 152.749474 
L 176.3395 152.832634 
L 170.4805 153.082114 
L 134.2105 151.418914 
L 128.83975 151.335754 
L 124.1665 151.086274 
L 119.7025 151.003114 
L 115.378 150.753634 
L 108.19375 150.836794 
L 104.70625 151.086274 
L 101.5675 151.169434 
L 94.3135 152.001034 
L 93.26725 152.084194 
L 91.8025 152.084194 
L 91.8025 152.084194 
" style="fill:none;stroke:#e377c2;stroke-linecap:square;stroke-width:1.5;"/>
   </g>
   <g id="line2d_51">
    <path clip-path="url(#pa5b952e796)" d="M 378.8935 97.863874 
L 378.3355 97.198594 
L 375.8245 96.200674 
L 372.4765 95.202754 
L 365.7805 94.537474 
L 352.6675 94.537474 
L 342.484 95.036434 
L 332.3005 95.535394 
L 324.2095 96.200674 
L 319.7455 96.533314 
L 315.5605 96.533314 
L 311.3755 97.198594 
L 289.8925 98.861794 
L 285.7075 99.527074 
L 268.27 101.190274 
L 266.4565 101.522914 
L 258.9235 102.188194 
L 255.2965 102.853474 
L 249.1585 103.518754 
L 214.0045 109.838914 
L 210.3775 110.171554 
L 207.0295 110.836834 
L 203.6815 111.169474 
L 196.7065 112.500034 
L 190.0105 113.497954 
L 186.3835 114.163234 
L 177.7345 114.994834 
L 175.5025 115.161154 
L 152.0665 115.161154 
L 148.7185 115.493794 
L 145.3705 115.493794 
L 142.8595 115.826434 
L 132.5365 115.826434 
L 129.7465 116.159074 
L 123.8875 116.159074 
L 121.0975 116.491714 
L 118.0285 116.491714 
L 115.2385 116.824354 
L 107.7055 116.824354 
L 102.6835 116.491714 
L 101.5675 116.491714 
L 99.0565 116.824354 
L 94.0345 116.824354 
L 84.967 117.822274 
L 83.7115 117.822274 
L 81.2005 118.154914 
L 76.7365 118.154914 
L 74.5045 118.487554 
L 70.3195 118.487554 
L 68.0875 118.820194 
L 66.4135 118.820194 
L 61.6705 119.818114 
L 60.5545 120.150754 
L 59.9965 120.150754 
L 59.9965 120.816034 
L 59.9965 120.816034 
" style="fill:none;stroke:#7f7f7f;stroke-linecap:square;stroke-width:1.5;"/>
   </g>
   <g id="line2d_52">
    <path clip-path="url(#pa5b952e796)" d="M 361.5955 129.132034 
L 353.7835 129.132034 
L 351.2725 129.464674 
L 348.4825 129.464674 
L 340.3915 130.129954 
L 336.7645 130.462594 
L 332.5795 130.462594 
L 328.9525 130.795234 
L 319.1875 130.795234 
L 317.2345 131.127874 
L 312.4915 130.795234 
L 308.0275 131.127874 
L 303.5635 131.127874 
L 298.8205 130.795234 
L 289.0555 130.795234 
L 279.43 130.462594 
L 277.0585 130.462594 
L 258.3655 129.132034 
L 253.9015 129.132034 
L 249.1585 128.799394 
L 244.6945 128.134114 
L 240.2305 128.134114 
L 235.7665 127.801474 
L 227.6755 127.801474 
L 223.2115 127.468834 
L 213.4465 127.468834 
L 209.5405 127.801474 
L 191.9635 127.801474 
L 185.686 128.300434 
L 183.0355 128.466754 
L 181.3615 128.799394 
L 178.2925 128.799394 
L 174.9445 129.132034 
L 171.8755 129.797314 
L 166.8535 130.462594 
L 145.6495 135.119554 
L 141.604 136.117474 
L 138.814 136.782754 
L 132.5365 138.445954 
L 130.0255 138.778594 
L 127.7935 139.443874 
L 118.8655 141.107074 
L 117.7495 141.439714 
L 115.7965 141.772354 
L 113.8435 141.772354 
L 111.6115 142.104994 
L 109.6585 142.104994 
L 107.9845 142.437634 
L 102.4045 142.437634 
L 101.0095 142.104994 
L 96.8245 141.606034 
L 94.0345 140.940754 
L 92.0815 140.441794 
L 89.0125 139.610194 
L 88.4545 139.443874 
L 86.92 138.612274 
L 84.5485 137.780674 
L 83.1535 137.448034 
L 81.4795 136.782754 
L 80.3635 136.782754 
L 78.6895 136.117474 
L 78.1315 136.117474 
L 77.0155 135.452194 
L 76.4575 135.452194 
L 75.6205 135.119554 
L 73.1095 135.119554 
L 72.8305 135.452194 
L 72.8305 135.452194 
" style="fill:none;stroke:#bcbd22;stroke-linecap:square;stroke-width:1.5;"/>
   </g>
   <g id="line2d_53">
    <path clip-path="url(#pa5b952e796)" d="M 359.3635 169.381474 
L 359.224 169.381474 
L 359.0845 169.381474 
L 358.8055 169.048834 
L 358.2475 169.048834 
L 356.8525 168.716194 
L 355.4575 168.716194 
L 352.9465 168.383554 
L 352.3885 168.383554 
L 348.7615 168.050914 
L 332.8585 168.050914 
L 329.5105 167.718274 
L 317.7925 167.718274 
L 313.3285 167.385634 
L 286.5445 167.385634 
L 282.0805 167.718274 
L 277.0585 167.718274 
L 268.27 168.217234 
L 264.5035 168.383554 
L 262.2715 168.716194 
L 257.2495 168.716194 
L 255.0175 169.048834 
L 249.9955 169.048834 
L 227.9545 170.379394 
L 223.2115 171.044674 
L 218.7475 171.377314 
L 214.5625 171.377314 
L 210.0985 172.042594 
L 206.1925 172.042594 
L 199.4965 172.874194 
L 197.5435 173.040514 
L 193.6375 173.040514 
L 186.1045 173.705794 
L 182.1985 173.705794 
L 178.8505 174.038434 
L 175.7815 174.038434 
L 172.7125 174.371074 
L 130.3045 174.371074 
L 127.7935 174.703714 
L 125.5615 174.703714 
L 121.3765 175.368994 
L 119.1445 175.368994 
L 114.1225 176.034274 
L 112.1695 176.034274 
L 110.2165 176.366914 
L 108.8215 176.366914 
L 107.1475 176.699554 
L 99.8935 176.699554 
L 98.2195 177.032194 
L 96.8245 177.032194 
L 95.1505 177.364834 
L 90.1285 177.364834 
L 90.1285 177.364834 
L 89.5705 177.697474 
L 89.0125 177.697474 
L 89.0125 177.697474 
" style="fill:none;stroke:#17becf;stroke-linecap:square;stroke-width:1.5;"/>
   </g>
   <g id="line2d_54">
    <path clip-path="url(#pa5b952e796)" d="M 372.7555 170.046754 
L 371.0815 168.217234 
L 366.68725 165.722434 
L 365.2225 165.057154 
L 363.89725 164.641354 
L 362.4325 164.391874 
L 358.87525 163.310794 
L 356.0155 162.728674 
L 353.5045 162.229714 
L 348.343 161.564434 
L 346.111 161.398114 
L 343.1815 161.314954 
L 337.8805 160.732834 
L 299.9365 160.732834 
L 296.3095 160.400194 
L 288.4975 160.400194 
L 284.0335 160.067554 
L 280.1275 160.400194 
L 257.5285 160.400194 
L 250.5535 160.732834 
L 243.2995 160.732834 
L 238.2775 161.065474 
L 233.5345 161.065474 
L 228.5125 161.398114 
L 203.4025 161.398114 
L 198.6595 161.730754 
L 193.3585 161.730754 
L 184.1515 162.396034 
L 179.1295 162.396034 
L 162.808 163.393954 
L 156.5305 163.393954 
L 152.3455 163.726594 
L 137.0005 163.726594 
L 133.3735 163.393954 
L 128.3515 163.726594 
L 122.7715 163.726594 
L 115.099 164.225554 
L 98.359 165.722434 
L 94.5925 165.722434 
L 92.0815 166.055074 
L 88.315 165.556114 
L 86.083 165.389794 
L 85.3855 165.389794 
L 82.5955 164.724514 
L 80.9215 164.391874 
L 80.3635 164.391874 
L 79.8055 164.059234 
L 78.9685 164.059234 
L 78.9685 164.059234 
" style="fill:none;stroke:#1f77b4;stroke-linecap:square;stroke-width:1.5;"/>
   </g>
   <g id="line2d_55">
    <path clip-path="url(#pa5b952e796)" d="M 368.8495 141.772354 
L 368.71 141.772354 
L 368.5705 141.772354 
L 368.152 141.439714 
L 367.4545 141.439714 
L 366.3385 141.107074 
L 366.0595 141.107074 
L 365.362 140.774434 
L 364.6645 140.774434 
L 363.5485 140.109154 
L 362.7115 140.109154 
L 361.5955 139.776514 
L 359.6425 139.776514 
L 358.8055 139.443874 
L 357.6895 139.443874 
L 355.7365 139.111234 
L 344.2975 139.111234 
L 339.5545 139.776514 
L 337.3225 139.776514 
L 334.8115 140.109154 
L 332.3005 140.109154 
L 322.8145 141.439714 
L 314.7235 142.437634 
L 311.9335 142.437634 
L 306.0745 143.102914 
L 303.2845 143.102914 
L 297.844 143.768194 
L 292.4035 143.768194 
L 289.6135 144.100834 
L 286.5445 144.100834 
L 283.1965 144.433474 
L 276.7795 144.433474 
L 270.0835 145.098754 
L 262.8295 145.098754 
L 259.7605 145.431394 
L 252.7855 145.431394 
L 249.1585 145.764034 
L 245.5315 145.764034 
L 230.1865 146.761954 
L 223.4905 146.761954 
L 220.4215 147.094594 
L 207.0295 147.094594 
L 204.2395 147.427234 
L 201.1705 147.427234 
L 198.6595 147.759874 
L 191.1265 147.759874 
L 188.3365 148.092514 
L 183.8725 148.092514 
L 181.6405 148.425154 
L 174.6655 148.425154 
L 172.4335 148.757794 
L 169.3645 148.757794 
L 167.1325 149.090434 
L 165.1795 149.090434 
L 162.9475 149.423074 
L 160.7155 149.423074 
L 156.5305 150.088354 
L 154.2985 150.088354 
L 147.3235 151.086274 
L 141.4645 151.751554 
L 139.5115 152.084194 
L 137.5585 152.084194 
L 133.9315 152.749474 
L 131.9785 152.749474 
L 126.9565 153.747394 
L 124.1665 154.080034 
L 122.4925 154.080034 
L 118.8655 154.745314 
L 114.9595 155.410594 
L 111.0535 156.075874 
L 103.2415 157.406434 
L 100.7305 158.071714 
L 98.7775 158.404354 
L 96.8245 158.404354 
L 94.0345 159.069634 
L 92.6395 159.402274 
L 87.6175 159.402274 
L 87.6175 159.402274 
" style="fill:none;stroke:#ff7f0e;stroke-linecap:square;stroke-width:1.5;"/>
   </g>
   <g id="line2d_56">
    <path clip-path="url(#pa5b952e796)" d="M 354.8995 180.358594 
L 354.481 180.025954 
L 354.0625 180.025954 
L 351.90025 178.612234 
L 349.0405 176.699554 
L 342.484 173.788954 
L 339.2755 172.707874 
L 334.8115 171.460474 
L 330.69625 170.462554 
L 328.3945 169.714114 
L 323.72125 168.799354 
L 319.1875 167.801434 
L 309.1435 166.055074 
L 291.706 163.560274 
L 289.6135 163.393954 
L 285.4285 162.396034 
L 281.8015 162.063394 
L 277.6165 161.398114 
L 273.9895 161.065474 
L 267.0145 160.067554 
L 264.2245 159.734914 
L 258.9235 158.736994 
L 255.5755 158.404354 
L 250.2745 157.406434 
L 248.6005 157.406434 
L 244.6945 156.741154 
L 232.1395 155.410594 
L 228.2335 154.745314 
L 224.8855 154.745314 
L 213.7255 153.747394 
L 209.8195 153.747394 
L 202.5655 153.082114 
L 195.3115 153.082114 
L 191.9635 152.749474 
L 184.9885 152.749474 
L 178.0135 152.416834 
L 163.2265 152.416834 
L 159.8785 152.749474 
L 153.1825 152.749474 
L 146.7655 153.414754 
L 143.9755 153.414754 
L 139.2325 153.747394 
L 137.8375 154.080034 
L 133.6525 154.080034 
L 130.5835 154.412674 
L 127.7935 155.077954 
L 114.82 156.574834 
L 105.1945 157.739074 
L 101.5675 157.739074 
L 101.5675 157.739074 
" style="fill:none;stroke:#2ca02c;stroke-linecap:square;stroke-width:1.5;"/>
   </g>
   <g id="line2d_57">
    <path clip-path="url(#pa5b952e796)" d="M 350.1565 165.389794 
L 349.38925 165.306634 
L 348.7615 165.057154 
L 346.73875 164.973994 
L 344.36725 164.724514 
L 337.183 164.641354 
L 335.0905 164.391874 
L 329.7895 164.391874 
L 321.9775 163.726594 
L 318.6295 163.726594 
L 315.5605 163.393954 
L 311.9335 163.393954 
L 305.2375 162.728674 
L 301.8895 162.728674 
L 287.1025 161.398114 
L 282.9175 161.398114 
L 270.6415 160.400194 
L 266.7355 160.400194 
L 262.5505 160.067554 
L 258.3655 160.067554 
L 250.2745 159.402274 
L 246.3685 159.402274 
L 224.3275 157.739074 
L 220.7005 157.739074 
L 207.448 156.741154 
L 205.6345 156.741154 
L 198.9385 156.075874 
L 195.3115 156.075874 
L 192.2425 155.410594 
L 184.7095 154.745314 
L 183.3145 154.745314 
L 176.0605 154.080034 
L 151.7875 154.080034 
L 148.4395 154.412674 
L 145.6495 154.412674 
L 144.5335 154.745314 
L 140.9065 154.745314 
L 135.187 155.410594 
L 134.2105 155.410594 
L 128.77 156.075874 
L 125.8405 156.075874 
L 123.8875 156.408514 
L 122.2135 156.408514 
L 120.5395 156.741154 
L 114.1225 156.741154 
L 112.03 157.073794 
L 107.4265 157.073794 
L 107.4265 157.073794 
L 107.008 156.741154 
L 106.8685 156.741154 
L 106.8685 157.073794 
L 106.8685 157.073794 
" style="fill:none;stroke:#d62728;stroke-linecap:square;stroke-width:1.5;"/>
   </g>
   <g id="line2d_58">
    <path clip-path="url(#pa5b952e796)" d="M 360.2005 98.861794 
L 354.3415 98.861794 
L 350.4355 99.527074 
L 333.4165 99.527074 
L 330.6265 99.194434 
L 324.4885 99.194434 
L 319.1875 98.861794 
L 303.2845 98.861794 
L 301.6105 98.529154 
L 278.1745 98.529154 
L 274.8265 98.861794 
L 263.3875 98.861794 
L 260.0395 99.194434 
L 256.1335 99.194434 
L 248.6005 99.859714 
L 244.4155 99.859714 
L 240.7885 100.192354 
L 236.6035 100.192354 
L 233.2555 100.524994 
L 229.3495 100.524994 
L 225.7225 100.857634 
L 220.4215 100.857634 
L 216.5155 101.190274 
L 194.1955 101.190274 
L 191.4055 101.522914 
L 185.2675 101.522914 
L 179.1295 102.188194 
L 176.0605 102.188194 
L 166.714 103.518754 
L 165.1795 103.851394 
L 161.8315 104.184034 
L 157.507 105.181954 
L 154.5775 105.847234 
L 151.5085 106.346194 
L 150.1135 106.512514 
L 143.9755 107.843074 
L 138.1165 109.173634 
L 135.6055 109.838914 
L 131.4205 110.504194 
L 126.3985 111.834754 
L 123.3295 112.333714 
L 122.7715 112.500034 
L 112.4485 114.495874 
L 111.0535 114.495874 
L 108.682 114.828514 
L 106.5895 114.828514 
L 105.4735 115.161154 
L 102.4045 115.161154 
L 101.707 115.493794 
L 101.5675 115.493794 
L 101.5675 115.493794 
" style="fill:none;stroke:#9467bd;stroke-linecap:square;stroke-width:1.5;"/>
   </g>
   <g id="line2d_59">
    <path clip-path="url(#pa5b952e796)" d="M 366.6175 167.052994 
L 366.478 167.052994 
L 366.3385 167.052994 
L 365.641 166.387714 
L 365.5015 166.387714 
L 363.967 165.556114 
L 362.4325 165.057154 
L 360.7585 165.057154 
L 357.6895 164.391874 
L 354.3415 164.059234 
L 353.7835 164.059234 
L 350.296 163.560274 
L 348.2035 163.227634 
L 347.6455 163.061314 
L 343.6 162.562354 
L 342.0655 162.396034 
L 341.5075 162.396034 
L 337.0435 161.730754 
L 334.5325 161.065474 
L 329.5105 160.233874 
L 322.2565 159.402274 
L 318.9085 159.402274 
L 308.3065 158.238034 
L 301.0525 157.572754 
L 293.101 157.073794 
L 291.2875 157.073794 
L 287.9395 156.741154 
L 284.5915 156.741154 
L 281.5225 156.408514 
L 277.8955 156.408514 
L 271.7575 155.743234 
L 268.6885 155.743234 
L 261.7135 155.077954 
L 254.4595 155.077954 
L 250.8325 154.745314 
L 219.8635 154.745314 
L 216.2365 154.412674 
L 209.959 154.745314 
L 208.9825 154.745314 
L 201.589 155.077954 
L 195.8695 155.077954 
L 192.5215 155.410594 
L 188.3365 155.410594 
L 184.7095 156.075874 
L 172.7125 157.073794 
L 161.8315 158.071714 
L 158.4835 158.736994 
L 153.043 159.235954 
L 149.137 159.568594 
L 147.6025 159.734914 
L 144.8125 159.734914 
L 136.4425 160.732834 
L 133.6525 161.065474 
L 130.8625 161.730754 
L 125.5615 162.396034 
L 123.0505 163.061314 
L 118.5865 163.726594 
L 116.6335 164.391874 
L 113.0065 165.057154 
L 111.0535 165.057154 
L 109.6585 165.389794 
L 107.9845 165.389794 
L 107.7055 165.722434 
L 105.4735 165.722434 
L 105.4735 165.722434 
L 105.1945 165.389794 
L 105.1945 165.389794 
" style="fill:none;stroke:#8c564b;stroke-linecap:square;stroke-width:1.5;"/>
   </g>
   <g id="line2d_60">
    <path clip-path="url(#pa5b952e796)" d="M 342.9025 134.454274 
L 339.34525 133.872154 
L 337.11325 133.414774 
L 328.60375 132.791074 
L 323.791 132.707914 
L 318.6295 132.458434 
L 290.38075 132.541594 
L 282.84775 132.791074 
L 280.05775 132.874234 
L 268.549 133.456354 
L 262.166875 133.788994 
L 255.5755 133.788994 
L 246.0895 134.537434 
L 191.4055 136.782754 
L 159.8785 136.782754 
L 142.37125 138.362794 
L 135.8845 139.111234 
L 122.911 141.606034 
L 119.9815 142.104994 
L 119.9815 142.104994 
" style="fill:none;stroke:#e377c2;stroke-linecap:square;stroke-width:1.5;"/>
   </g>
   <g id="line2d_61">
    <path clip-path="url(#pa5b952e796)" d="M 367.7335 165.057154 
L 365.43175 164.973994 
L 364.3855 164.724514 
L 362.7115 165.057154 
L 355.1785 165.057154 
L 352.6675 165.389794 
L 350.1565 165.389794 
L 344.8555 166.055074 
L 341.5075 166.055074 
L 338.4385 166.387714 
L 335.3695 166.387714 
L 332.5795 166.720354 
L 328.6735 166.720354 
L 325.3255 167.052994 
L 321.1405 167.052994 
L 318.3505 167.385634 
L 301.3315 167.385634 
L 298.2625 167.718274 
L 295.4725 167.718274 
L 292.4035 168.050914 
L 288.4975 167.718274 
L 272.5945 167.718274 
L 269.5255 167.385634 
L 235.7665 167.385634 
L 232.4185 167.052994 
L 228.5125 167.052994 
L 224.6065 166.720354 
L 220.4215 166.720354 
L 208.9825 166.055074 
L 200.8915 165.556114 
L 194.7535 165.057154 
L 191.1265 165.057154 
L 187.2205 164.391874 
L 181.0825 163.560274 
L 180.2455 163.393954 
L 176.6185 163.061314 
L 172.7125 162.396034 
L 165.319 162.063394 
L 149.8345 162.063394 
L 145.9285 162.396034 
L 138.6745 162.396034 
L 130.165 162.728674 
L 128.6305 162.728674 
L 125.2825 163.061314 
L 122.2135 163.061314 
L 118.5865 163.726594 
L 115.7965 163.726594 
L 111.3325 164.391874 
L 109.1005 164.391874 
L 106.8685 164.724514 
L 102.265 165.057154 
L 94.8715 165.057154 
L 93.4765 165.389794 
L 92.3605 165.389794 
L 92.0815 165.722434 
L 90.6865 166.221394 
L 90.4075 166.387714 
L 90.4075 166.387714 
" style="fill:none;stroke:#7f7f7f;stroke-linecap:square;stroke-width:1.5;"/>
   </g>
   <g id="line2d_62">
    <path clip-path="url(#pa5b952e796)" d="M 347.0875 122.479234 
L 339.415 121.813954 
L 332.64925 121.897114 
L 322.221625 122.479234 
L 314.51425 122.562394 
L 292.264 123.809794 
L 286.405 124.225594 
L 278.10475 124.641394 
L 269.944 125.223514 
L 253.204 125.971954 
L 233.116 127.468834 
L 226.2805 128.050954 
L 182.82625 132.957394 
L 146.7655 138.113314 
L 136.1635 139.610194 
L 132.2575 140.109154 
L 123.469 140.441794 
L 106.93825 140.524954 
L 99.40525 141.023914 
L 98.4985 141.107074 
L 94.174 142.603954 
L 91.5235 143.768194 
L 91.5235 143.768194 
" style="fill:none;stroke:#bcbd22;stroke-linecap:square;stroke-width:1.5;"/>
   </g>
   <g id="line2d_63">
    <path clip-path="url(#pa5b952e796)" d="M 349.3195 147.094594 
L 347.227 147.011434 
L 345.4135 146.761954 
L 343.7395 146.761954 
L 335.9275 145.764034 
L 329.5105 145.764034 
L 325.6045 145.431394 
L 313.8865 145.431394 
L 309.9805 145.098754 
L 305.7955 145.098754 
L 302.1685 145.431394 
L 297.9835 145.098754 
L 294.6355 145.431394 
L 290.7295 145.098754 
L 253.0645 145.098754 
L 249.4375 145.431394 
L 245.8105 145.431394 
L 233.5345 146.262994 
L 231.8605 146.429314 
L 226.8385 146.429314 
L 212.3305 147.759874 
L 210.6565 147.759874 
L 204.7975 148.425154 
L 191.6845 148.425154 
L 189.4525 148.092514 
L 186.1045 148.092514 
L 185.2675 147.759874 
L 177.7345 147.759874 
L 175.7815 147.427234 
L 165.1795 147.427234 
L 162.3895 147.759874 
L 151.7875 147.759874 
L 149.8345 148.092514 
L 145.3705 148.092514 
L 143.9755 148.425154 
L 138.9535 148.425154 
L 137.2795 148.757794 
L 133.0945 148.757794 
L 131.6995 149.090434 
L 124.1665 149.090434 
L 122.074 149.423074 
L 118.0285 149.423074 
L 117.1915 149.755714 
L 114.6805 149.755714 
L 114.262 149.423074 
L 113.5645 149.423074 
L 113.5645 149.423074 
L 113.0065 149.755714 
L 113.0065 149.755714 
" style="fill:none;stroke:#17becf;stroke-linecap:square;stroke-width:1.5;"/>
   </g>
   <g id="patch_3">
    <path d="M 48.5575 280.150594 
L 48.5575 14.038594 
" style="fill:none;stroke:#000000;stroke-linecap:square;stroke-linejoin:miter;stroke-width:0.8;"/>
   </g>
   <g id="patch_4">
    <path d="M 405.6775 280.150594 
L 405.6775 14.038594 
" style="fill:none;stroke:#000000;stroke-linecap:square;stroke-linejoin:miter;stroke-width:0.8;"/>
   </g>
   <g id="patch_5">
    <path d="M 48.5575 280.150594 
L 405.6775 280.150594 
" style="fill:none;stroke:#000000;stroke-linecap:square;stroke-linejoin:miter;stroke-width:0.8;"/>
   </g>
   <g id="patch_6">
    <path d="M 48.5575 14.038594 
L 405.6775 14.038594 
" style="fill:none;stroke:#000000;stroke-linecap:square;stroke-linejoin:miter;stroke-width:0.8;"/>
   </g>
  </g>
 </g>
 <defs>
  <clipPath id="pa5b952e796">
   <rect height="266.112" width="357.12" x="48.5575" y="14.038594"/>
  </clipPath>
 </defs>
</svg>
