<?xml version="1.0" encoding="utf-8" standalone="no"?>
<!DOCTYPE svg PUBLIC "-//W3C//DTD SVG 1.1//EN"
  "http://www.w3.org/Graphics/SVG/1.1/DTD/svg11.dtd">
<!-- Created with matplotlib (http://matplotlib.org/) -->
<svg height="311pt" version="1.1" viewBox="0 0 430 311" width="430pt" xmlns="http://www.w3.org/2000/svg" xmlns:xlink="http://www.w3.org/1999/xlink">
 <defs>
  <style type="text/css">
*{stroke-linecap:butt;stroke-linejoin:round;}
  </style>
 </defs>
 <g id="figure_1">
  <g id="patch_1">
   <path d="M 0 311.771219 
L 430.05625 311.771219 
L 430.05625 0 
L 0 0 
z
" style="fill:#ffffff;"/>
  </g>
  <g id="axes_1">
   <g id="patch_2">
    <path d="M 48.5575 280.150594 
L 405.6775 280.150594 
L 405.6775 14.038594 
L 48.5575 14.038594 
z
" style="fill:#ffffff;"/>
   </g>
   <g id="matplotlib.axis_1">
    <g id="xtick_1">
     <g id="line2d_1">
      <defs>
       <path d="M 0 0 
L 0 3.5 
" id="m5643964b76" style="stroke:#000000;stroke-width:0.8;"/>
      </defs>
      <g>
       <use style="stroke:#000000;stroke-width:0.8;" x="48.5575" xlink:href="#m5643964b76" y="280.150594"/>
      </g>
     </g>
     <g id="text_1">
      <!-- 0 -->
      <defs>
       <path d="M 31.78125 66.40625 
Q 24.171875 66.40625 20.328125 58.90625 
Q 16.5 51.421875 16.5 36.375 
Q 16.5 21.390625 20.328125 13.890625 
Q 24.171875 6.390625 31.78125 6.390625 
Q 39.453125 6.390625 43.28125 13.890625 
Q 47.125 21.390625 47.125 36.375 
Q 47.125 51.421875 43.28125 58.90625 
Q 39.453125 66.40625 31.78125 66.40625 
z
M 31.78125 74.21875 
Q 44.046875 74.21875 50.515625 64.515625 
Q 56.984375 54.828125 56.984375 36.375 
Q 56.984375 17.96875 50.515625 8.265625 
Q 44.046875 -1.421875 31.78125 -1.421875 
Q 19.53125 -1.421875 13.0625 8.265625 
Q 6.59375 17.96875 6.59375 36.375 
Q 6.59375 54.828125 13.0625 64.515625 
Q 19.53125 74.21875 31.78125 74.21875 
z
" id="DejaVuSans-30"/>
      </defs>
      <g transform="translate(42.83125 300.827781)scale(0.18 -0.18)">
       <use xlink:href="#DejaVuSans-30"/>
      </g>
     </g>
    </g>
    <g id="xtick_2">
     <g id="line2d_2">
      <g>
       <use style="stroke:#000000;stroke-width:0.8;" x="405.6775" xlink:href="#m5643964b76" y="280.150594"/>
      </g>
     </g>
     <g id="text_2">
      <!-- 640 -->
      <defs>
       <path d="M 33.015625 40.375 
Q 26.375 40.375 22.484375 35.828125 
Q 18.609375 31.296875 18.609375 23.390625 
Q 18.609375 15.53125 22.484375 10.953125 
Q 26.375 6.390625 33.015625 6.390625 
Q 39.65625 6.390625 43.53125 10.953125 
Q 47.40625 15.53125 47.40625 23.390625 
Q 47.40625 31.296875 43.53125 35.828125 
Q 39.65625 40.375 33.015625 40.375 
z
M 52.59375 71.296875 
L 52.59375 62.3125 
Q 48.875 64.0625 45.09375 64.984375 
Q 41.3125 65.921875 37.59375 65.921875 
Q 27.828125 65.921875 22.671875 59.328125 
Q 17.53125 52.734375 16.796875 39.40625 
Q 19.671875 43.65625 24.015625 45.921875 
Q 28.375 48.1875 33.59375 48.1875 
Q 44.578125 48.1875 50.953125 41.515625 
Q 57.328125 34.859375 57.328125 23.390625 
Q 57.328125 12.15625 50.6875 5.359375 
Q 44.046875 -1.421875 33.015625 -1.421875 
Q 20.359375 -1.421875 13.671875 8.265625 
Q 6.984375 17.96875 6.984375 36.375 
Q 6.984375 53.65625 15.1875 63.9375 
Q 23.390625 74.21875 37.203125 74.21875 
Q 40.921875 74.21875 44.703125 73.484375 
Q 48.484375 72.75 52.59375 71.296875 
z
" id="DejaVuSans-36"/>
       <path d="M 37.796875 64.3125 
L 12.890625 25.390625 
L 37.796875 25.390625 
z
M 35.203125 72.90625 
L 47.609375 72.90625 
L 47.609375 25.390625 
L 58.015625 25.390625 
L 58.015625 17.1875 
L 47.609375 17.1875 
L 47.609375 0 
L 37.796875 0 
L 37.796875 17.1875 
L 4.890625 17.1875 
L 4.890625 26.703125 
z
" id="DejaVuSans-34"/>
      </defs>
      <g transform="translate(388.49875 300.827781)scale(0.18 -0.18)">
       <use xlink:href="#DejaVuSans-36"/>
       <use x="63.623047" xlink:href="#DejaVuSans-34"/>
       <use x="127.246094" xlink:href="#DejaVuSans-30"/>
      </g>
     </g>
    </g>
   </g>
   <g id="matplotlib.axis_2">
    <g id="ytick_1">
     <g id="line2d_3">
      <defs>
       <path d="M 0 0 
L -3.5 0 
" id="m969b61b14c" style="stroke:#000000;stroke-width:0.8;"/>
      </defs>
      <g>
       <use style="stroke:#000000;stroke-width:0.8;" x="48.5575" xlink:href="#m969b61b14c" y="14.038594"/>
      </g>
     </g>
     <g id="text_3">
      <!-- 480 -->
      <defs>
       <path d="M 31.78125 34.625 
Q 24.75 34.625 20.71875 30.859375 
Q 16.703125 27.09375 16.703125 20.515625 
Q 16.703125 13.921875 20.71875 10.15625 
Q 24.75 6.390625 31.78125 6.390625 
Q 38.8125 6.390625 42.859375 10.171875 
Q 46.921875 13.96875 46.921875 20.515625 
Q 46.921875 27.09375 42.890625 30.859375 
Q 38.875 34.625 31.78125 34.625 
z
M 21.921875 38.8125 
Q 15.578125 40.375 12.03125 44.71875 
Q 8.5 49.078125 8.5 55.328125 
Q 8.5 64.0625 14.71875 69.140625 
Q 20.953125 74.21875 31.78125 74.21875 
Q 42.671875 74.21875 48.875 69.140625 
Q 55.078125 64.0625 55.078125 55.328125 
Q 55.078125 49.078125 51.53125 44.71875 
Q 48 40.375 41.703125 38.8125 
Q 48.828125 37.15625 52.796875 32.3125 
Q 56.78125 27.484375 56.78125 20.515625 
Q 56.78125 9.90625 50.3125 4.234375 
Q 43.84375 -1.421875 31.78125 -1.421875 
Q 19.734375 -1.421875 13.25 4.234375 
Q 6.78125 9.90625 6.78125 20.515625 
Q 6.78125 27.484375 10.78125 32.3125 
Q 14.796875 37.15625 21.921875 38.8125 
z
M 18.3125 54.390625 
Q 18.3125 48.734375 21.84375 45.5625 
Q 25.390625 42.390625 31.78125 42.390625 
Q 38.140625 42.390625 41.71875 45.5625 
Q 45.3125 48.734375 45.3125 54.390625 
Q 45.3125 60.0625 41.71875 63.234375 
Q 38.140625 66.40625 31.78125 66.40625 
Q 25.390625 66.40625 21.84375 63.234375 
Q 18.3125 60.0625 18.3125 54.390625 
z
" id="DejaVuSans-38"/>
      </defs>
      <g transform="translate(7.2 20.877187)scale(0.18 -0.18)">
       <use xlink:href="#DejaVuSans-34"/>
       <use x="63.623047" xlink:href="#DejaVuSans-38"/>
       <use x="127.246094" xlink:href="#DejaVuSans-30"/>
      </g>
     </g>
    </g>
   </g>
   <g id="line2d_4">
    <path clip-path="url(#pf426c8dbf6)" d="M 131.9785 108.508354 
L 131.839 108.508354 
L 131.6995 108.508354 
L 131.9785 109.506274 
L 132.8155 111.169474 
L 134.4895 115.161154 
L 139.7905 124.475074 
L 141.4645 127.136194 
L 142.8595 129.797314 
L 144.5335 132.458434 
L 146.4865 135.119554 
L 150.1135 140.774434 
L 152.3455 143.435554 
L 154.0195 146.096674 
L 155.9725 148.757794 
L 158.2045 151.418914 
L 161.5525 156.408514 
L 170.899 169.880434 
L 180.664 186.346114 
L 180.943 186.845074 
L 181.6405 187.676674 
L 181.6405 187.676674 
L 181.6405 188.009314 
L 182.4775 188.009314 
L 182.4775 188.009314 
L 182.7565 187.676674 
L 183.3145 187.344034 
L 183.5935 186.678754 
L 184.7095 186.013474 
L 186.1045 184.682914 
L 187.2205 183.352354 
L 192.2425 179.028034 
L 193.9165 177.697474 
L 195.8695 176.366914 
L 202.5655 171.377314 
L 205.0765 169.714114 
L 210.0985 166.055074 
L 212.8885 164.059234 
L 220.4215 159.069634 
L 222.0955 157.739074 
L 225.4435 155.743234 
L 234.0925 150.420994 
L 245.8105 143.435554 
L 249.4375 141.439714 
L 253.3435 138.778594 
L 256.9705 136.782754 
L 265.0615 132.458434 
L 268.9675 130.129954 
L 272.5945 128.134114 
L 276.5005 126.138274 
L 280.6855 124.142434 
L 284.5915 122.146594 
L 288.2185 120.150754 
L 297.1465 116.159074 
L 300.7735 114.495874 
L 307.7485 111.834754 
L 311.0965 110.836834 
L 318.0715 108.508354 
L 324.4885 106.512514 
L 330.3475 105.181954 
L 333.1375 104.516674 
L 340.6705 103.518754 
L 343.1815 103.186114 
L 345.1345 103.186114 
L 347.6455 102.853474 
L 349.8775 103.186114 
L 352.6675 103.186114 
L 353.2255 103.518754 
L 354.0625 103.518754 
L 354.6205 103.851394 
L 354.8995 103.851394 
L 355.1785 104.184034 
L 355.4575 104.184034 
L 355.7365 104.516674 
L 356.0155 104.516674 
L 356.2945 104.849314 
L 356.5735 104.849314 
L 356.5735 105.181954 
L 356.8525 105.514594 
L 356.8525 105.847234 
L 357.1315 105.847234 
L 357.1315 106.179874 
L 357.4105 106.179874 
L 357.4105 107.177794 
L 357.4105 107.177794 
L 357.6895 107.177794 
L 357.6895 107.177794 
" style="fill:none;stroke:#1f77b4;stroke-linecap:square;stroke-width:1.5;"/>
   </g>
   <g id="line2d_5">
    <path clip-path="url(#pf426c8dbf6)" d="M 113.5645 85.888834 
L 113.704 85.888834 
L 113.8435 85.888834 
L 114.262 86.720434 
L 114.4015 86.886754 
L 117.331 94.038514 
L 117.7495 95.202754 
L 118.8655 97.531234 
L 120.2605 101.190274 
L 120.8185 102.520834 
L 130.8625 121.813954 
L 133.0945 126.470914 
L 134.7685 129.630994 
L 137.2795 134.121634 
L 138.3955 137.115394 
L 139.7905 139.776514 
L 141.4645 142.437634 
L 142.8595 145.431394 
L 145.3705 149.755714 
L 148.4395 155.743234 
L 148.7185 156.741154 
L 150.3925 159.734914 
L 151.5085 162.728674 
L 152.0665 164.059234 
L 152.6245 166.221394 
L 153.1825 167.718274 
L 154.0195 169.048834 
L 154.5775 171.044674 
L 155.275 172.042594 
L 155.4145 172.541554 
L 155.4145 172.707874 
L 156.391 173.705794 
L 156.5305 173.705794 
L 156.5305 173.705794 
L 156.8095 173.373154 
L 157.3675 173.373154 
L 159.3205 171.543634 
L 169.6435 161.398114 
L 173.41 157.905394 
L 176.6185 154.911634 
L 183.8725 148.425154 
L 188.0575 145.098754 
L 195.5905 139.443874 
L 200.0545 135.784834 
L 205.3555 131.793154 
L 210.6565 128.134114 
L 215.6785 124.142434 
L 221.5375 120.483394 
L 227.1175 116.491714 
L 236.185 111.169474 
L 239.1145 109.506274 
L 245.2525 106.179874 
L 254.7385 100.857634 
L 267.2935 94.870114 
L 273.4315 92.208994 
L 280.1275 89.880514 
L 292.1245 85.223554 
L 303.5635 81.897154 
L 308.8645 80.233954 
L 318.0715 77.905474 
L 322.2565 76.907554 
L 327.2785 75.909634 
L 330.3475 74.911714 
L 334.5325 74.246434 
L 336.2065 73.581154 
L 337.3225 73.581154 
L 338.4385 73.248514 
L 338.9965 73.248514 
L 339.2755 72.915874 
L 339.5545 72.915874 
L 339.5545 72.915874 
L 339.5545 73.248514 
L 339.5545 73.248514 
L 339.5545 73.248514 
L 339.5545 72.583234 
L 339.8335 72.583234 
L 339.8335 72.583234 
L 339.8335 71.917954 
L 339.8335 71.917954 
" style="fill:none;stroke:#ff7f0e;stroke-linecap:square;stroke-width:1.5;"/>
   </g>
   <g id="line2d_6">
    <path clip-path="url(#pf426c8dbf6)" d="M 169.3645 151.751554 
L 169.6435 151.751554 
L 169.6435 151.834714 
L 169.71325 152.167354 
L 170.7595 153.581074 
L 173.20075 158.154874 
L 175.7815 163.061314 
L 179.6875 170.213074 
L 181.9195 175.036354 
L 183.0355 177.032194 
L 183.8725 179.028034 
L 185.5465 181.689154 
L 186.3835 183.518674 
L 187.2205 184.849234 
L 187.4995 185.015554 
L 187.4995 185.348194 
L 188.197 186.013474 
L 188.3365 186.013474 
L 189.1735 185.181874 
L 189.4525 185.015554 
L 190.2895 183.684994 
L 192.103 182.354434 
L 193.0795 181.689154 
L 195.5905 179.693314 
L 202.8445 175.368994 
L 207.3085 173.040514 
L 221.398 167.551954 
L 225.4435 166.055074 
L 233.2555 162.728674 
L 241.6255 159.734914 
L 247.2055 158.071714 
L 253.3435 155.743234 
L 267.0145 151.751554 
L 269.8045 151.086274 
L 280.6855 147.759874 
L 285.1495 146.761954 
L 289.6135 145.431394 
L 295.612 144.100834 
L 300.7735 143.102914 
L 306.6325 141.772354 
L 309.1435 141.273394 
L 312.352 140.275474 
L 312.631 140.109154 
L 313.6075 140.109154 
L 313.6075 140.109154 
L 313.3285 140.441794 
L 313.3285 140.441794 
" style="fill:none;stroke:#2ca02c;stroke-linecap:square;stroke-width:1.5;"/>
   </g>
   <g id="line2d_7">
    <path clip-path="url(#pf426c8dbf6)" d="M 125.0035 92.208994 
L 125.0035 92.375314 
L 125.0035 92.541634 
L 125.5615 94.038514 
L 126.6775 97.198594 
L 127.933 103.186114 
L 128.6305 106.346194 
L 129.1885 109.672594 
L 129.4675 111.502114 
L 131.6995 120.483394 
L 133.0945 127.468834 
L 134.071 131.294194 
L 137.0005 142.770274 
L 138.6745 149.090434 
L 140.0695 155.410594 
L 141.325 162.396034 
L 142.3015 166.554034 
L 144.394 175.036354 
L 145.3705 179.194354 
L 146.347 183.352354 
L 147.0445 187.011394 
L 147.3235 188.674594 
L 148.1605 192.000994 
L 150.1135 197.489554 
L 151.5085 200.815954 
L 152.206 202.479154 
L 152.3455 202.978114 
L 154.0195 205.639234 
L 156.112 207.967714 
L 156.8095 208.632994 
L 159.5995 210.628834 
L 163.2265 211.959394 
L 166.8535 212.624674 
L 171.3175 212.624674 
L 180.8035 211.127794 
L 185.8255 209.963554 
L 191.9635 207.967714 
L 200.8915 203.976034 
L 211.912 198.487474 
L 217.213 195.660034 
L 222.6535 192.998914 
L 226.5595 191.003074 
L 229.0705 189.339874 
L 233.116 187.344034 
L 237.7195 185.015554 
L 241.3465 183.352354 
L 245.2525 180.857554 
L 247.903 179.194354 
L 249.1585 178.362754 
L 253.9015 176.034274 
L 255.8545 175.036354 
L 260.3185 172.042594 
L 264.2245 169.714114 
L 267.5725 168.050914 
L 270.6415 165.722434 
L 273.9895 163.393954 
L 277.0585 161.398114 
L 280.4065 159.734914 
L 283.4755 157.739074 
L 289.8925 153.082114 
L 294.3565 150.753634 
L 302.1685 145.098754 
L 304.4005 143.768194 
L 306.9115 142.437634 
L 309.7015 140.774434 
L 317.7925 135.452194 
L 320.3035 134.121634 
L 323.3725 132.791074 
L 326.1625 131.127874 
L 331.7425 127.468834 
L 334.2535 126.470914 
L 336.7645 125.140354 
L 340.1125 123.144514 
L 342.6235 121.481314 
L 348.7615 117.822274 
L 350.9935 116.824354 
L 352.9465 115.826434 
L 354.8995 114.495874 
L 357.1315 112.832674 
L 359.0845 111.169474 
L 362.9905 108.508354 
L 364.9435 106.845154 
L 370.2445 101.190274 
L 373.0345 97.863874 
L 375.2665 94.870114 
L 378.0565 91.876354 
L 380.2885 89.215234 
L 380.2885 89.215234 
" style="fill:none;stroke:#d62728;stroke-linecap:square;stroke-width:1.5;"/>
   </g>
   <g id="line2d_8">
    <path clip-path="url(#pf426c8dbf6)" d="M 124.4455 83.892994 
L 124.7245 84.724594 
L 124.7245 84.890914 
L 125.8405 87.552034 
L 127.5145 90.545794 
L 129.4675 94.870114 
L 132.955 101.190274 
L 135.745 106.013554 
L 137.698 109.506274 
L 139.651 112.998994 
L 140.6275 114.828514 
L 144.8125 121.647634 
L 146.4865 124.475074 
L 148.7185 127.801474 
L 151.648 133.123714 
L 152.6245 134.786914 
L 154.2985 138.113314 
L 156.8095 142.104994 
L 158.4835 145.431394 
L 159.5995 147.094594 
L 160.4365 148.757794 
L 160.9945 150.420994 
L 161.8315 151.418914 
L 162.1105 152.416834 
L 163.5055 154.745314 
L 163.924 155.576914 
L 165.1795 157.240114 
L 165.1795 157.406434 
L 165.1795 157.406434 
L 165.4585 157.406434 
L 165.4585 157.739074 
L 165.4585 157.739074 
L 165.7375 157.739074 
L 165.7375 157.739074 
L 165.7375 157.406434 
L 166.0165 156.907474 
L 166.0165 156.741154 
L 166.2955 156.741154 
L 166.8535 155.410594 
L 168.2485 153.913714 
L 169.0855 153.082114 
L 172.1545 150.420994 
L 183.8725 141.938674 
L 186.1045 140.441794 
L 190.987 137.780674 
L 198.6595 133.456354 
L 205.3555 129.464674 
L 211.912 125.971954 
L 216.5155 123.477154 
L 229.21 116.824354 
L 233.2555 114.828514 
L 237.022 112.832674 
L 247.7635 106.845154 
L 250.414 105.181954 
L 251.3905 104.516674 
L 255.0175 102.687154 
L 256.9705 101.522914 
L 258.0865 101.190274 
L 258.6445 100.524994 
L 260.0395 99.859714 
L 260.3185 99.527074 
L 260.8765 99.527074 
L 261.295 99.194434 
L 261.4345 99.194434 
L 261.4345 98.861794 
L 261.9925 98.861794 
L 261.9925 98.529154 
L 261.9925 98.529154 
L 262.2715 98.529154 
L 262.132 98.529154 
L 262.132 98.529154 
L 261.9925 98.529154 
L 261.9925 98.861794 
L 261.7135 99.194434 
L 261.7135 99.194434 
" style="fill:none;stroke:#9467bd;stroke-linecap:square;stroke-width:1.5;"/>
   </g>
   <g id="line2d_9">
    <path clip-path="url(#pf426c8dbf6)" d="M 155.9725 133.456354 
L 156.112 133.456354 
L 156.2515 133.456354 
L 156.949 134.953234 
L 158.4835 137.780674 
L 160.1575 140.940754 
L 161.8315 144.433474 
L 162.6685 146.761954 
L 164.0635 149.090434 
L 165.1795 151.751554 
L 166.5745 154.412674 
L 168.2485 158.238034 
L 171.3175 164.391874 
L 172.7125 166.720354 
L 176.3395 174.038434 
L 178.2925 177.364834 
L 179.1295 178.529074 
L 179.1295 178.695394 
L 179.827 179.360674 
L 179.9665 179.360674 
L 179.9665 178.362754 
L 180.2455 177.531154 
L 180.2455 177.364834 
L 180.664 176.200594 
L 180.943 175.535314 
L 181.0825 175.368994 
L 181.6405 174.038434 
L 184.291 171.044674 
L 187.4995 168.050914 
L 191.4055 165.057154 
L 192.5215 164.391874 
L 194.1955 163.061314 
L 197.8225 161.231794 
L 200.194 160.067554 
L 201.4495 159.402274 
L 206.611 157.240114 
L 210.3775 155.576914 
L 214.144 154.080034 
L 215.9575 153.414754 
L 219.5845 151.751554 
L 225.7225 150.088354 
L 230.1865 148.425154 
L 244.276 144.932434 
L 246.3685 144.433474 
L 263.527 141.606034 
L 271.4785 140.774434 
L 274.687 140.441794 
L 275.3845 140.441794 
L 278.4535 140.109154 
L 281.5225 140.109154 
L 292.9615 138.778594 
L 296.3095 138.778594 
L 297.1465 138.445954 
L 300.7735 138.445954 
L 300.7735 138.113314 
L 300.7735 138.113314 
L 300.4945 138.445954 
L 300.4945 138.445954 
" style="fill:none;stroke:#8c564b;stroke-linecap:square;stroke-width:1.5;"/>
   </g>
   <g id="line2d_10">
    <path clip-path="url(#pf426c8dbf6)" d="M 132.8155 97.198594 
L 132.8155 97.032274 
L 132.8155 96.865954 
L 132.8155 96.865954 
L 132.8155 97.198594 
L 133.234 97.863874 
L 133.3735 98.196514 
L 134.2105 99.527074 
L 138.3955 107.177794 
L 140.0695 110.005234 
L 144.5335 117.822274 
L 147.463 122.978194 
L 148.4395 124.807714 
L 151.7875 130.129954 
L 152.9035 131.793154 
L 162.1105 148.425154 
L 162.9475 150.088354 
L 166.435 156.075874 
L 167.83 158.903314 
L 169.6435 162.728674 
L 171.0385 164.724514 
L 172.294 167.551954 
L 175.7815 174.371074 
L 176.0605 174.371074 
L 176.0605 174.371074 
L 176.758 173.373154 
L 177.037 172.874194 
L 177.595 172.042594 
L 178.0135 171.377314 
L 179.4085 169.714114 
L 183.0355 166.387714 
L 184.4305 165.057154 
L 192.2425 158.736994 
L 199.2175 153.747394 
L 201.4495 152.084194 
L 207.8665 147.926194 
L 213.4465 144.267154 
L 216.7945 142.104994 
L 219.5845 140.774434 
L 227.3965 136.117474 
L 239.812 129.464674 
L 244.6945 126.803554 
L 249.577 124.308754 
L 251.9485 123.144514 
L 256.6915 120.483394 
L 261.4345 118.154914 
L 269.107 114.994834 
L 274.5475 112.666354 
L 277.3375 111.502114 
L 282.9175 109.506274 
L 288.2185 107.177794 
L 293.5195 105.514594 
L 298.8205 103.186114 
L 307.609 100.026034 
L 311.515 98.362834 
L 314.305 97.198594 
L 315.2815 96.865954 
L 323.0935 93.539554 
L 325.6045 92.874274 
L 329.2315 91.543714 
L 332.3005 90.545794 
L 336.7645 88.882594 
L 337.0435 88.882594 
L 338.299 88.217314 
L 338.9965 88.217314 
L 338.9965 88.217314 
L 338.9965 87.884674 
L 339.2755 87.884674 
L 339.2755 87.884674 
L 338.4385 88.882594 
L 338.4385 88.882594 
" style="fill:none;stroke:#e377c2;stroke-linecap:square;stroke-width:1.5;"/>
   </g>
   <g id="line2d_11">
    <path clip-path="url(#pf426c8dbf6)" d="M 153.7405 90.878434 
L 153.7405 90.545794 
L 153.67075 90.545794 
L 153.4615 90.545794 
L 153.601 90.545794 
L 153.601 90.545794 
L 153.7405 90.545794 
L 156.8095 95.868034 
L 159.0415 99.527074 
L 163.5055 108.840994 
L 166.92325 118.404394 
L 167.4115 119.818114 
L 169.57375 127.635154 
L 172.9915 138.113314 
L 175.363 149.090434 
L 177.037 156.075874 
L 180.106 169.547794 
L 181.3615 175.535314 
L 181.9195 178.362754 
L 184.9885 189.838834 
L 185.5465 191.668354 
L 187.4995 196.491634 
L 188.0575 197.988514 
L 189.7315 200.815954 
L 190.8475 202.312834 
L 192.103 203.643394 
L 192.8005 204.308674 
L 194.1955 205.306594 
L 196.7065 205.306594 
L 200.6125 203.643394 
L 203.9605 201.647554 
L 207.3085 199.984354 
L 211.2145 196.990594 
L 220.561 191.335714 
L 224.8855 188.674594 
L 227.1175 187.344034 
L 248.0425 176.034274 
L 253.0645 173.373154 
L 257.5285 170.712034 
L 264.364 167.219314 
L 266.7355 166.055074 
L 271.7575 163.061314 
L 276.5005 160.732834 
L 281.8015 158.404354 
L 289.195 154.080034 
L 291.5665 152.749474 
L 297.1465 150.088354 
L 304.6795 146.096674 
L 309.7015 143.768194 
L 316.537 141.107074 
L 321.4195 138.944914 
L 326.302 136.782754 
L 328.6735 135.784834 
L 340.9495 131.793154 
L 348.622 128.965714 
L 356.0155 126.138274 
L 361.3165 124.308754 
L 364.6645 122.978194 
L 366.757 121.980274 
L 368.8495 120.982354 
L 370.942 119.984434 
L 373.3135 118.820194 
L 374.7085 118.321234 
L 375.685 117.822274 
L 376.6615 117.822274 
L 376.6615 117.822274 
" style="fill:none;stroke:#7f7f7f;stroke-linecap:square;stroke-width:1.5;"/>
   </g>
   <g id="line2d_12">
    <path clip-path="url(#pf426c8dbf6)" d="M 120.8185 98.196514 
L 120.8185 98.030194 
L 120.8185 97.863874 
L 120.5395 97.364914 
L 120.5395 97.198594 
L 120.5395 97.198594 
L 120.5395 97.198594 
L 120.5395 97.531234 
L 121.237 98.196514 
L 121.6555 98.529154 
L 122.2135 99.859714 
L 123.8875 102.021874 
L 125.0035 103.851394 
L 126.6775 106.845154 
L 128.3515 109.173634 
L 131.9785 115.161154 
L 134.908 119.319154 
L 138.535 124.807714 
L 139.5115 126.138274 
L 144.115 133.290034 
L 146.2075 136.616434 
L 149.8345 142.437634 
L 155.6935 151.418914 
L 157.0885 154.080034 
L 159.46 157.739074 
L 163.5055 163.393954 
L 165.598 166.055074 
L 169.6435 171.709954 
L 173.41 176.366914 
L 173.5495 176.699554 
L 174.6655 178.196434 
L 174.6655 178.362754 
L 174.9445 178.362754 
L 174.9445 178.695394 
L 174.9445 178.695394 
L 175.2235 178.695394 
L 175.2235 178.695394 
L 175.7815 178.196434 
L 176.2 178.030114 
L 176.3395 178.030114 
L 178.711 176.533234 
L 179.4085 176.034274 
L 182.4775 174.371074 
L 183.5935 173.705794 
L 186.1045 172.707874 
L 197.962 166.387714 
L 205.216 162.894994 
L 208.1455 161.398114 
L 212.3305 159.734914 
L 223.63 154.412674 
L 226.0015 153.414754 
L 234.0925 150.420994 
L 253.6225 142.770274 
L 262.969 139.443874 
L 277.3375 134.454274 
L 282.9175 132.458434 
L 292.9615 129.464674 
L 294.3565 129.132034 
L 303.145 126.470914 
L 316.258 122.645554 
L 317.7925 122.146594 
L 322.5355 120.816034 
L 325.6045 119.818114 
L 326.7205 119.152834 
L 327.2785 119.152834 
L 328.1155 118.820194 
L 328.3945 118.487554 
L 328.3945 118.487554 
L 328.6735 118.487554 
L 328.6735 118.154914 
L 328.6735 118.154914 
" style="fill:none;stroke:#bcbd22;stroke-linecap:square;stroke-width:1.5;"/>
   </g>
   <g id="line2d_13">
    <path clip-path="url(#pf426c8dbf6)" d="M 160.4365 73.581154 
L 160.4365 73.747474 
L 160.4365 73.913794 
L 160.1575 74.246434 
L 160.1575 77.240194 
L 159.8785 79.236034 
L 159.8785 83.892994 
L 159.5995 86.554114 
L 159.5995 93.872194 
L 159.8785 96.200674 
L 159.8785 110.504194 
L 159.5995 112.832674 
L 159.5995 124.475074 
L 159.5995 124.475074 
L 160.1575 123.809794 
L 161.2735 123.477154 
L 164.761 120.982354 
L 167.6905 119.152834 
L 172.7125 116.159074 
L 178.711 112.167394 
L 180.8035 110.836834 
L 185.2675 108.840994 
L 191.266 105.348274 
L 193.3585 104.184034 
L 201.31 100.192354 
L 203.4025 99.194434 
L 207.0295 97.198594 
L 224.8855 90.213154 
L 232.1395 87.552034 
L 234.6505 86.554114 
L 239.9515 84.890914 
L 250.2745 80.899234 
L 257.8075 77.905474 
L 265.3405 75.576994 
L 277.3375 71.252674 
L 284.173 69.256834 
L 290.4505 67.260994 
L 296.3095 65.764114 
L 308.3065 62.271394 
L 310.8175 61.606114 
L 311.6545 61.273474 
L 312.4915 61.273474 
L 313.189 60.940834 
L 313.3285 60.940834 
L 313.747 60.608194 
L 314.4445 60.608194 
L 314.4445 60.608194 
L 314.4445 60.275554 
L 314.4445 60.275554 
L 314.7235 60.275554 
L 314.7235 60.275554 
L 314.7235 60.608194 
L 314.7235 60.608194 
L 314.4445 60.608194 
L 314.4445 60.608194 
" style="fill:none;stroke:#17becf;stroke-linecap:square;stroke-width:1.5;"/>
   </g>
   <g id="line2d_14">
    <path clip-path="url(#pf426c8dbf6)" d="M 131.1415 117.822274 
L 131.1415 118.154914 
L 131.1415 118.154914 
L 131.839 119.152834 
L 132.2575 119.984434 
L 132.8155 121.148674 
L 133.0945 122.146594 
L 133.9315 123.310834 
L 134.2105 123.809794 
L 134.4895 124.807714 
L 135.0475 125.805634 
L 136.1635 127.136194 
L 140.0695 133.788994 
L 140.3485 134.454274 
L 141.1855 135.784834 
L 142.8595 139.776514 
L 143.6965 141.107074 
L 146.2075 146.928274 
L 146.7655 148.092514 
L 147.0445 148.757794 
L 148.4395 151.086274 
L 149.5555 153.581074 
L 150.6715 155.410594 
L 151.5085 156.741154 
L 152.3455 159.069634 
L 152.9035 159.734914 
L 153.1825 160.732834 
L 153.7405 161.398114 
L 154.159 162.562354 
L 154.438 163.061314 
L 155.1355 164.724514 
L 155.4145 165.057154 
L 155.6935 165.722434 
L 156.2515 166.387714 
L 156.2515 166.720354 
L 156.5305 166.720354 
L 156.5305 167.052994 
L 156.5305 167.052994 
L 157.0885 167.052994 
L 157.0885 167.052994 
L 158.4835 165.389794 
L 158.7625 164.724514 
L 159.5995 163.726594 
L 160.1575 162.728674 
L 162.9475 159.402274 
L 163.7845 158.736994 
L 164.6215 157.739074 
L 166.5745 156.075874 
L 167.6905 155.077954 
L 172.7125 151.086274 
L 177.1765 148.425154 
L 181.0825 145.764034 
L 183.3145 144.433474 
L 185.5465 143.435554 
L 187.4995 142.104994 
L 191.4055 140.109154 
L 195.3115 138.113314 
L 196.7065 137.115394 
L 200.6125 135.452194 
L 206.1925 132.791074 
L 221.8165 126.138274 
L 225.1645 124.807714 
L 228.5125 123.809794 
L 238.8355 119.818114 
L 245.8105 117.822274 
L 248.8795 117.156994 
L 252.2275 116.159074 
L 260.8765 114.495874 
L 263.9455 113.497954 
L 270.3625 112.167394 
L 273.7105 111.834754 
L 276.5005 111.169474 
L 284.8705 110.171554 
L 287.3815 110.171554 
L 289.3345 109.838914 
L 298.8205 109.838914 
L 299.3785 110.171554 
L 301.0525 110.171554 
L 301.0525 110.171554 
L 301.3315 110.504194 
L 301.3315 110.504194 
L 301.6105 110.504194 
L 301.6105 110.504194 
" style="fill:none;stroke:#1f77b4;stroke-linecap:square;stroke-width:1.5;"/>
   </g>
   <g id="line2d_15">
    <path clip-path="url(#pf426c8dbf6)" d="M 111.3325 91.876354 
L 111.3325 92.208994 
L 111.6115 92.541634 
L 112.588 95.036434 
L 113.0065 96.200674 
L 115.099 101.023954 
L 115.5175 101.855554 
L 116.6335 105.181954 
L 118.0285 108.508354 
L 119.1445 112.500034 
L 121.3765 118.820194 
L 125.8405 133.788994 
L 127.2355 139.443874 
L 130.0255 147.759874 
L 134.2105 161.398114 
L 137.5585 172.375234 
L 139.2325 177.364834 
L 141.325 185.181874 
L 142.3015 188.674594 
L 143.1385 190.670434 
L 145.3705 198.321154 
L 146.347 201.481234 
L 147.0445 204.308674 
L 147.3235 205.639234 
L 148.1605 207.635074 
L 148.858 210.462514 
L 148.9975 211.294114 
L 150.1135 214.287874 
L 150.3925 214.620514 
L 150.6715 215.618434 
L 150.9505 215.618434 
L 151.369 215.951074 
L 151.7875 215.951074 
L 153.043 214.620514 
L 153.4615 214.287874 
L 154.2985 213.289954 
L 158.7625 209.630914 
L 162.6685 206.304514 
L 167.4115 202.645474 
L 171.5965 199.984354 
L 175.7815 196.990594 
L 180.2455 194.329474 
L 186.3835 190.337794 
L 194.614 185.514514 
L 197.2645 184.017634 
L 207.3085 177.697474 
L 212.8885 174.703714 
L 220.84 169.880434 
L 225.7225 166.886674 
L 228.2335 165.389794 
L 233.2555 162.063394 
L 238.2775 159.069634 
L 243.2995 155.743234 
L 250.972 151.252594 
L 261.9925 145.098754 
L 273.7105 139.443874 
L 281.5225 135.951154 
L 284.0335 134.786914 
L 289.0555 133.123714 
L 295.1935 130.795234 
L 300.4945 129.132034 
L 306.0745 127.136194 
L 317.5135 124.142434 
L 323.3725 122.811874 
L 335.9275 118.820194 
L 336.7645 118.487554 
L 340.1125 117.489634 
L 343.7395 116.159074 
L 349.0405 113.331634 
L 351.5515 112.001074 
L 354.6205 110.171554 
L 357.271 109.173634 
L 358.108 108.840994 
L 360.2005 108.840994 
L 360.2005 108.840994 
" style="fill:none;stroke:#ff7f0e;stroke-linecap:square;stroke-width:1.5;"/>
   </g>
   <g id="line2d_16">
    <path clip-path="url(#pf426c8dbf6)" d="M 142.5805 90.878434 
L 142.5805 92.208994 
L 142.3015 93.539554 
L 142.3015 95.535394 
L 141.7435 99.859714 
L 141.7435 102.853474 
L 141.4645 105.847234 
L 141.4645 112.832674 
L 141.1855 120.649714 
L 141.1855 150.753634 
L 140.9065 154.911634 
L 140.9065 172.042594 
L 140.9065 171.709954 
L 141.7435 170.712034 
L 143.1385 170.046754 
L 143.6965 169.714114 
L 147.6025 168.050914 
L 164.3425 160.067554 
L 169.0855 158.071714 
L 175.921 154.412674 
L 178.2925 153.082114 
L 185.965 149.589394 
L 191.1265 147.260914 
L 196.288 144.766114 
L 198.9385 143.435554 
L 204.7975 141.439714 
L 219.8635 135.119554 
L 228.373 131.959474 
L 240.37 127.302514 
L 246.9265 124.807714 
L 263.1085 118.487554 
L 275.1055 114.495874 
L 286.2655 109.838914 
L 291.0085 108.508354 
L 299.3785 105.514594 
L 310.2595 102.188194 
L 318.3505 99.859714 
L 319.7455 99.194434 
L 321.1405 98.861794 
L 322.5355 98.196514 
L 324.2095 97.863874 
L 326.4415 96.865954 
L 326.9995 96.533314 
L 327.2785 96.533314 
L 327.5575 96.200674 
L 328.1155 96.200674 
L 328.3945 95.868034 
L 328.3945 95.868034 
L 328.6735 95.868034 
L 328.6735 95.868034 
L 328.6735 95.868034 
L 328.3945 95.868034 
L 328.3945 95.868034 
" style="fill:none;stroke:#2ca02c;stroke-linecap:square;stroke-width:1.5;"/>
   </g>
   <g id="line2d_17">
    <path clip-path="url(#pf426c8dbf6)" d="M 138.6745 122.146594 
L 138.6745 121.980274 
L 138.6745 121.813954 
L 138.6745 121.813954 
L 138.6745 122.146594 
L 138.9535 122.146594 
L 139.2325 122.811874 
L 140.0695 123.976114 
L 141.4645 126.637234 
L 141.7435 127.468834 
L 144.5335 132.624754 
L 149.8345 143.768194 
L 151.7875 148.258834 
L 153.1825 151.418914 
L 154.996 156.242194 
L 155.4145 157.073794 
L 156.2515 159.235954 
L 156.8095 160.400194 
L 158.065 163.227634 
L 158.2045 163.560274 
L 158.2045 163.726594 
L 158.4835 164.225554 
L 158.4835 164.391874 
L 158.7625 164.391874 
L 158.7625 164.391874 
L 158.7625 164.724514 
L 158.7625 164.724514 
L 159.3205 164.724514 
L 159.3205 164.724514 
L 159.3205 164.391874 
L 159.5995 164.391874 
L 159.5995 164.059234 
L 160.1575 163.560274 
L 162.808 161.897074 
L 163.5055 161.398114 
L 167.1325 159.402274 
L 169.504 158.071714 
L 177.1765 154.080034 
L 180.5245 152.416834 
L 184.4305 150.753634 
L 188.0575 148.757794 
L 192.2425 146.761954 
L 216.2365 136.782754 
L 233.2555 129.797314 
L 241.9045 126.470914 
L 248.6005 124.475074 
L 255.0175 122.146594 
L 275.1055 116.159074 
L 278.7325 115.493794 
L 289.6135 112.500034 
L 299.518 110.337874 
L 303.0055 109.506274 
L 309.4225 108.508354 
L 316.3975 107.177794 
L 322.2565 105.847234 
L 327.8365 105.181954 
L 333.1375 104.184034 
L 348.2035 102.188194 
L 352.3885 102.188194 
L 366.3385 101.190274 
L 369.9655 101.190274 
L 371.9185 100.857634 
L 374.7085 100.857634 
L 375.5455 101.190274 
L 378.3355 101.190274 
L 378.3355 101.190274 
L 378.3355 101.522914 
L 378.0565 101.522914 
L 378.0565 101.522914 
" style="fill:none;stroke:#d62728;stroke-linecap:square;stroke-width:1.5;"/>
   </g>
   <g id="line2d_18">
    <path clip-path="url(#pf426c8dbf6)" d="M 124.1665 127.801474 
L 124.585 128.466754 
L 124.93375 129.547834 
L 125.2825 130.462594 
L 126.6775 134.038474 
L 127.096 135.369034 
L 127.72375 137.614354 
L 129.7465 142.271314 
L 130.3045 143.435554 
L 131.839 147.427234 
L 134.071 152.915794 
L 135.0475 155.410594 
L 136.024 157.905394 
L 136.4425 159.069634 
L 137.5585 161.398114 
L 138.1165 163.393954 
L 139.2325 166.221394 
L 140.6275 170.712034 
L 141.046 171.876274 
L 141.325 172.375234 
L 141.4645 172.874194 
L 141.4645 173.040514 
L 142.162 173.705794 
L 142.3015 173.705794 
L 142.3015 173.705794 
L 142.72 173.040514 
L 143.1385 172.042594 
L 144.5335 170.046754 
L 146.068 167.219314 
L 146.7655 166.055074 
L 153.1825 157.406434 
L 157.507 152.915794 
L 160.855 149.755714 
L 162.6685 148.092514 
L 172.4335 140.109154 
L 178.8505 136.117474 
L 188.755 130.296274 
L 191.4055 128.799394 
L 206.7505 121.314994 
L 210.796 119.485474 
L 212.8885 118.487554 
L 218.1895 116.658034 
L 221.2585 115.660114 
L 227.3965 113.497954 
L 228.7915 112.500034 
L 229.9075 112.500034 
L 231.3025 112.001074 
L 232.1395 111.502114 
L 232.6975 111.502114 
L 233.116 111.169474 
L 233.5345 111.169474 
L 233.5345 111.169474 
L 233.2555 111.502114 
L 233.2555 111.502114 
" style="fill:none;stroke:#9467bd;stroke-linecap:square;stroke-width:1.5;"/>
   </g>
   <g id="line2d_19">
    <path clip-path="url(#pf426c8dbf6)" d="M 116.3545 84.225634 
L 116.3545 83.892994 
L 116.3545 83.892994 
L 116.3545 83.892994 
L 116.3545 84.558274 
L 118.8655 96.533314 
L 119.9815 103.518754 
L 122.911 116.491714 
L 125.0035 124.807714 
L 126.817 132.957394 
L 127.5145 135.784834 
L 129.1885 141.439714 
L 131.4205 150.088354 
L 133.6525 158.404354 
L 135.0475 164.059234 
L 137.2795 172.042594 
L 138.9535 179.526994 
L 140.6275 186.013474 
L 140.9065 188.341954 
L 143.1385 197.655874 
L 144.8125 203.310754 
L 145.51 206.637154 
L 146.4865 208.799314 
L 147.6025 210.628834 
L 148.9975 211.959394 
L 151.5085 212.957314 
L 153.4615 212.957314 
L 156.5305 212.624674 
L 161.5525 211.460434 
L 163.5055 210.961474 
L 167.6905 209.630914 
L 176.3395 206.304514 
L 180.5245 204.308674 
L 185.2675 202.645474 
L 192.8005 199.651714 
L 198.3805 196.657954 
L 204.658 193.830514 
L 205.9135 193.331554 
L 210.9355 190.670434 
L 220.7005 186.013474 
L 222.9325 185.015554 
L 228.652 181.689154 
L 242.4625 173.705794 
L 247.2055 170.379394 
L 251.6695 167.718274 
L 258.505 163.227634 
L 260.8765 161.730754 
L 265.0615 159.402274 
L 273.4315 154.080034 
L 281.104 150.420994 
L 282.3595 149.755714 
L 294.6355 144.766114 
L 297.9835 143.768194 
L 303.5635 142.770274 
L 307.1905 142.437634 
L 312.073 141.439714 
L 320.5825 139.776514 
L 323.9305 138.778594 
L 326.9995 137.448034 
L 332.8585 135.452194 
L 337.6015 133.456354 
L 343.7395 130.462594 
L 345.1345 129.464674 
L 349.5985 127.635154 
L 352.528 126.470914 
L 355.039 125.306674 
L 356.8525 124.475074 
L 361.5955 122.479234 
L 363.8275 120.816034 
L 363.8275 120.816034 
" style="fill:none;stroke:#8c564b;stroke-linecap:square;stroke-width:1.5;"/>
   </g>
   <g id="line2d_20">
    <path clip-path="url(#pf426c8dbf6)" d="M 146.2075 93.539554 
L 145.85875 93.622714 
L 145.51 94.204834 
L 145.3705 94.703794 
L 145.44025 103.851394 
L 145.6495 106.595674 
L 145.71925 109.672594 
L 145.9285 112.915834 
L 145.9285 118.487554 
L 146.4865 122.479234 
L 146.7655 126.138274 
L 148.4395 136.782754 
L 149.5555 142.104994 
L 149.8345 143.768194 
L 150.1135 147.094594 
L 151.2295 154.080034 
L 152.0665 161.065474 
L 153.322 169.880434 
L 153.601 171.709954 
L 153.7405 172.874194 
L 153.7405 173.705794 
L 154.0195 174.537394 
L 154.0195 175.036354 
L 154.5775 175.036354 
L 156.112 173.373154 
L 158.344 171.377314 
L 161.2735 168.716194 
L 162.6685 167.385634 
L 177.595 157.905394 
L 186.6625 152.749474 
L 206.1925 143.102914 
L 213.4465 139.443874 
L 228.2335 132.458434 
L 235.7665 129.464674 
L 243.2995 126.138274 
L 250.2745 122.811874 
L 276.7795 112.001074 
L 281.5225 110.171554 
L 293.7985 105.847234 
L 306.6325 100.524994 
L 310.2595 99.194434 
L 313.0495 97.863874 
L 316.9555 96.366994 
L 321.9775 94.204834 
L 322.5355 93.539554 
L 323.6515 93.206914 
L 323.9305 93.206914 
L 324.2095 92.874274 
L 324.7675 92.874274 
L 324.7675 92.541634 
L 325.6045 92.541634 
L 325.6045 92.541634 
" style="fill:none;stroke:#e377c2;stroke-linecap:square;stroke-width:1.5;"/>
   </g>
   <g id="line2d_21">
    <path clip-path="url(#pf426c8dbf6)" d="M 166.2955 86.554114 
L 166.22575 86.969914 
L 166.0165 87.385714 
L 165.94675 89.547874 
L 165.7375 92.541634 
L 165.66775 94.121674 
L 165.1795 98.944954 
L 165.10975 104.599834 
L 164.9005 107.593594 
L 164.97025 113.581114 
L 165.1795 116.574874 
L 165.24925 121.813954 
L 166.0165 129.797314 
L 166.0165 130.462594 
L 166.2955 132.292114 
L 166.2955 132.791074 
L 166.5745 133.456354 
L 166.5745 134.786914 
L 166.8535 135.285874 
L 166.8535 135.452194 
L 166.8535 135.452194 
L 167.1325 135.784834 
L 167.4115 135.452194 
L 169.0855 134.786914 
L 174.9445 131.460514 
L 179.548 128.799394 
L 181.9195 127.468834 
L 186.9415 125.140354 
L 200.752 117.822274 
L 206.1925 114.994834 
L 208.9825 113.497954 
L 221.2585 108.508354 
L 228.7915 105.181954 
L 235.4875 102.520834 
L 247.624 98.529154 
L 259.2025 94.870114 
L 272.3155 91.211074 
L 291.5665 86.221474 
L 301.471 84.225634 
L 304.4005 83.560354 
L 312.7705 82.063474 
L 317.5135 81.231874 
L 323.9305 80.233954 
L 328.9525 79.236034 
L 332.5795 78.903394 
L 336.4855 77.905474 
L 337.8805 77.905474 
L 338.299 77.572834 
L 338.9965 77.572834 
L 338.9965 77.572834 
L 339.2755 77.905474 
L 339.2755 77.905474 
" style="fill:none;stroke:#7f7f7f;stroke-linecap:square;stroke-width:1.5;"/>
   </g>
   <g id="line2d_22">
    <path clip-path="url(#pf426c8dbf6)" d="M 133.9315 121.813954 
L 134.2105 121.813954 
L 135.6055 123.310834 
L 137.07025 124.641394 
L 137.2795 124.807714 
L 143.76625 134.204794 
L 146.905 139.443874 
L 149.62525 143.601874 
L 151.369 146.429314 
L 152.3455 148.092514 
L 157.9255 159.069634 
L 159.8785 162.396034 
L 163.5055 169.381474 
L 166.0165 173.705794 
L 166.8535 175.036354 
L 169.0855 179.028034 
L 172.1545 183.352354 
L 173.8285 186.179794 
L 175.921 189.173554 
L 177.595 191.003074 
L 178.5715 191.668354 
L 179.6875 191.668354 
L 181.0825 191.335714 
L 181.6405 190.670434 
L 184.9885 187.676674 
L 188.6155 183.186034 
L 191.4055 179.693314 
L 192.8005 178.030114 
L 195.5905 173.705794 
L 199.7755 168.050914 
L 202.5655 164.225554 
L 203.9605 162.396034 
L 212.6095 152.250514 
L 216.2365 148.425154 
L 218.1895 146.429314 
L 221.8165 143.102914 
L 227.9545 138.113314 
L 229.9075 136.450114 
L 236.0455 131.793154 
L 240.2305 129.132034 
L 244.6945 126.803554 
L 254.4595 122.479234 
L 259.4815 120.483394 
L 264.5035 118.820194 
L 275.3845 116.159074 
L 283.894 114.329554 
L 291.2875 112.832674 
L 299.239 111.335794 
L 303.703 110.836834 
L 320.5825 109.173634 
L 321.6985 109.173634 
L 324.349 108.840994 
L 325.6045 108.840994 
L 326.1625 108.508354 
L 327.5575 108.508354 
L 327.5575 108.508354 
L 327.5575 108.840994 
L 327.5575 108.840994 
" style="fill:none;stroke:#bcbd22;stroke-linecap:square;stroke-width:1.5;"/>
   </g>
   <g id="line2d_23">
    <path clip-path="url(#pf426c8dbf6)" d="M 135.0475 110.504194 
L 135.3265 110.504194 
L 135.3265 110.587354 
L 135.3265 110.836834 
L 136.1635 112.001074 
L 137.34925 114.329554 
L 139.44175 119.568634 
L 142.23175 127.136194 
L 143.76625 132.208954 
L 144.2545 134.454274 
L 144.8125 136.782754 
L 145.0915 138.445954 
L 145.0915 138.778594 
L 145.3705 139.111234 
L 145.3705 140.109154 
L 145.9285 140.109154 
L 145.9285 140.109154 
L 146.4865 139.443874 
L 146.7655 138.113314 
L 147.6025 137.115394 
L 148.7185 134.786914 
L 152.9035 129.132034 
L 153.7405 128.134114 
L 155.9725 126.138274 
L 158.4835 123.477154 
L 161.2735 121.148674 
L 164.0635 119.152834 
L 172.9915 114.163234 
L 178.5715 111.502114 
L 181.9195 110.171554 
L 194.893 106.678834 
L 200.8915 105.181954 
L 205.0765 103.851394 
L 212.8885 101.855554 
L 219.166 100.857634 
L 220.9795 100.524994 
L 225.1645 100.192354 
L 228.7915 99.527074 
L 238.8355 98.861794 
L 240.7885 98.861794 
L 244.6945 98.529154 
L 256.4125 98.529154 
L 262.69 98.861794 
L 264.2245 98.861794 
L 269.5255 99.527074 
L 270.3625 99.527074 
L 271.7575 99.859714 
L 273.1525 99.859714 
L 274.2685 100.192354 
L 276.7795 100.192354 
L 277.198 100.524994 
L 277.6165 100.524994 
L 277.6165 100.524994 
" style="fill:none;stroke:#17becf;stroke-linecap:square;stroke-width:1.5;"/>
   </g>
   <g id="line2d_24">
    <path clip-path="url(#pf426c8dbf6)" d="M 152.3455 97.863874 
L 152.41525 98.944954 
L 152.83375 101.023954 
L 153.81025 104.599834 
L 155.20525 109.173634 
L 158.4835 121.980274 
L 159.739 127.967794 
L 160.7155 133.206874 
L 161.692 139.693354 
L 162.1105 143.435554 
L 163.2265 148.425154 
L 163.645 152.416834 
L 164.6215 157.572754 
L 164.69125 158.154874 
L 164.9005 158.570674 
L 164.9005 159.069634 
L 164.97025 159.069634 
L 165.1795 159.069634 
L 165.94675 157.073794 
L 166.5745 155.077954 
L 169.9225 149.589394 
L 171.3175 147.427234 
L 175.921 142.104994 
L 179.6875 138.113314 
L 189.034 131.294194 
L 192.8005 128.466754 
L 205.14625 120.982354 
L 207.0295 119.818114 
L 218.05 114.163234 
L 223.56025 111.335794 
L 230.39575 108.175714 
L 238.138 104.849314 
L 241.0675 103.518754 
L 252.646 99.859714 
L 255.0175 99.194434 
L 267.8515 96.865954 
L 273.9895 96.865954 
L 273.9895 96.865954 
L 273.9895 97.198594 
L 273.9895 97.198594 
" style="fill:none;stroke:#1f77b4;stroke-linecap:square;stroke-width:1.5;"/>
   </g>
   <g id="line2d_25">
    <path clip-path="url(#pf426c8dbf6)" d="M 124.1665 66.928354 
L 124.1665 67.094674 
L 124.1665 67.260994 
L 124.7245 68.258914 
L 126.6775 72.915874 
L 129.886 81.897154 
L 131.1415 85.223554 
L 133.3735 93.539554 
L 136.1635 104.516674 
L 138.9535 114.329554 
L 142.0225 125.805634 
L 145.9285 139.111234 
L 147.0445 143.102914 
L 149.8345 151.086274 
L 151.7875 155.410594 
L 152.3455 156.741154 
L 154.5775 160.400194 
L 157.0885 163.726594 
L 161.5525 167.718274 
L 165.1795 169.048834 
L 166.2955 169.381474 
L 169.6435 170.046754 
L 172.7125 170.379394 
L 178.0135 170.379394 
L 181.6405 170.046754 
L 199.2175 167.052994 
L 208.9825 165.057154 
L 212.8885 163.726594 
L 220.4215 161.730754 
L 229.9075 158.736994 
L 237.4405 156.741154 
L 240.7885 155.410594 
L 248.8795 152.749474 
L 252.7855 151.418914 
L 263.1085 148.757794 
L 265.3405 148.092514 
L 272.3155 146.429314 
L 273.4315 146.096674 
L 281.5225 144.766114 
L 292.1245 142.770274 
L 308.8645 140.109154 
L 312.7705 139.111234 
L 316.9555 138.445954 
L 320.5825 137.448034 
L 324.4885 136.782754 
L 329.65 135.452194 
L 331.1845 135.119554 
L 333.9745 134.786914 
L 338.7175 133.456354 
L 340.6705 132.791074 
L 343.7395 132.125794 
L 345.4135 131.460514 
L 346.2505 131.460514 
L 348.2035 130.628914 
L 351.8305 129.464674 
L 352.6675 129.132034 
L 353.7835 129.132034 
L 355.318 128.633074 
L 358.8055 127.801474 
L 360.2005 127.801474 
L 362.9905 126.803554 
L 363.2695 126.803554 
L 363.8275 126.470914 
L 365.7805 126.470914 
L 366.8965 126.138274 
L 367.7335 126.138274 
L 367.7335 126.138274 
L 367.7335 126.470914 
L 367.7335 126.470914 
" style="fill:none;stroke:#ff7f0e;stroke-linecap:square;stroke-width:1.5;"/>
   </g>
   <g id="line2d_26">
    <path clip-path="url(#pf426c8dbf6)" d="M 147.6025 117.822274 
L 147.8815 117.822274 
L 147.8815 117.739114 
L 147.8815 117.156994 
L 147.95125 117.240154 
L 148.3 117.822274 
L 148.579 118.653874 
L 148.7185 119.152834 
L 149.5555 120.816034 
L 150.3925 123.144514 
L 151.7875 127.801474 
L 152.3455 129.464674 
L 155.1355 143.102914 
L 155.9725 148.092514 
L 157.9255 156.408514 
L 162.9475 180.358594 
L 164.9005 187.177714 
L 165.4585 189.339874 
L 170.341 203.643394 
L 170.7595 204.641314 
L 171.5965 205.971874 
L 172.1545 207.302434 
L 172.9915 207.967714 
L 173.8285 209.298274 
L 174.3865 209.797234 
L 174.6655 209.963554 
L 175.2235 210.628834 
L 176.0605 210.961474 
L 176.8975 210.961474 
L 178.0135 211.294114 
L 180.5245 210.628834 
L 183.3145 209.963554 
L 186.9415 208.632994 
L 191.6845 206.138194 
L 193.3585 205.306594 
L 196.7065 203.310754 
L 200.0545 201.647554 
L 205.774 198.154834 
L 214.981 192.167314 
L 219.3055 189.173554 
L 220.4215 188.341954 
L 228.5125 182.853394 
L 229.6285 182.021794 
L 236.8825 177.032194 
L 241.9045 174.038434 
L 247.2055 170.379394 
L 256.1335 164.724514 
L 261.574 161.065474 
L 263.9455 159.402274 
L 272.455 154.412674 
L 278.4535 151.086274 
L 288.4975 145.764034 
L 294.0775 142.770274 
L 300.2155 139.776514 
L 309.7015 135.618514 
L 315.421 133.123714 
L 321.1405 130.628914 
L 323.9305 129.464674 
L 328.1155 127.468834 
L 335.509 124.308754 
L 346.5295 119.152834 
L 348.064 118.321234 
L 348.4825 118.154914 
L 349.8775 117.156994 
L 350.1565 117.156994 
L 350.575 116.824354 
L 350.7145 116.824354 
L 350.7145 116.824354 
" style="fill:none;stroke:#2ca02c;stroke-linecap:square;stroke-width:1.5;"/>
   </g>
   <g id="line2d_27">
    <path clip-path="url(#pf426c8dbf6)" d="M 119.4235 87.219394 
L 119.4235 86.886754 
L 119.4235 87.053074 
L 119.4235 87.053074 
L 119.4235 87.219394 
L 119.49325 87.219394 
L 119.7025 87.219394 
L 119.7025 87.552034 
L 119.9815 88.217314 
L 120.8185 90.878434 
L 121.3765 92.375314 
L 123.8875 100.192354 
L 125.2825 104.849314 
L 126.3985 108.175714 
L 127.2355 109.838914 
L 128.9095 114.495874 
L 129.7465 115.826434 
L 130.723 118.487554 
L 131.4205 119.984434 
L 131.6995 120.483394 
L 131.9785 121.813954 
L 132.5365 122.811874 
L 132.955 124.807714 
L 133.234 125.306674 
L 133.3735 125.472994 
L 133.3735 126.470914 
L 133.6525 126.803554 
L 133.6525 127.801474 
L 133.9315 128.300434 
L 133.9315 128.799394 
L 133.9315 128.799394 
L 134.7685 128.799394 
L 146.905 121.481314 
L 147.8815 120.816034 
L 152.3455 118.154914 
L 163.2265 112.500034 
L 166.2955 110.836834 
L 170.7595 108.840994 
L 179.6875 105.181954 
L 185.2675 103.186114 
L 190.8475 100.857634 
L 197.2645 98.861794 
L 203.4025 96.533314 
L 209.5405 94.537474 
L 215.3995 92.874274 
L 221.2585 90.878434 
L 249.1585 83.560354 
L 255.8545 82.229794 
L 274.2685 77.905474 
L 279.5695 77.240194 
L 283.7545 76.242274 
L 291.0085 75.576994 
L 296.3095 74.911714 
L 297.9835 74.579074 
L 302.1685 74.579074 
L 302.587 74.911714 
L 302.7265 74.911714 
L 302.7265 74.911714 
" style="fill:none;stroke:#d62728;stroke-linecap:square;stroke-width:1.5;"/>
   </g>
   <g id="line2d_28">
    <path clip-path="url(#pf426c8dbf6)" d="M 127.2355 108.508354 
L 128.0725 108.840994 
L 129.7465 110.171554 
L 132.2575 114.163234 
L 134.4895 118.321234 
L 136.7215 123.227674 
L 140.0695 131.793154 
L 142.09225 138.279634 
L 143.48725 141.855514 
L 145.3705 147.427234 
L 147.0445 150.753634 
L 147.742 151.418914 
L 147.95125 151.502074 
L 148.1605 151.751554 
L 148.23025 151.668394 
L 148.4395 151.418914 
L 149.48575 148.674634 
L 150.1135 147.427234 
L 152.3455 140.441794 
L 154.5775 135.119554 
L 157.6465 129.132034 
L 161.5525 123.477154 
L 166.0165 118.820194 
L 172.7125 113.165314 
L 185.8255 103.851394 
L 194.68375 98.695474 
L 202.21675 94.121674 
L 216.44575 86.055154 
L 221.2585 83.560354 
L 233.2555 79.568674 
L 245.2525 77.240194 
L 255.5755 76.907554 
L 257.8075 76.907554 
L 265.0615 77.572834 
L 268.9675 78.404434 
L 271.7575 78.903394 
L 274.5475 79.568674 
L 276.5005 80.233954 
L 276.5005 80.233954 
L 276.7795 80.233954 
L 276.7795 80.566594 
L 276.7795 80.566594 
" style="fill:none;stroke:#9467bd;stroke-linecap:square;stroke-width:1.5;"/>
   </g>
   <g id="line2d_29">
    <path clip-path="url(#pf426c8dbf6)" d="M 153.4615 81.564514 
L 153.322 81.564514 
L 153.1825 81.564514 
L 153.1825 82.229794 
L 152.9035 82.895074 
L 151.5085 89.215234 
L 148.4395 101.855554 
L 146.7655 111.169474 
L 145.9285 113.497954 
L 145.3705 116.491714 
L 144.2545 119.485474 
L 143.6965 122.146594 
L 142.8595 124.475074 
L 142.3015 127.468834 
L 141.4645 129.797314 
L 141.1855 131.460514 
L 140.3485 134.121634 
L 139.5115 138.944914 
L 139.2325 139.776514 
L 139.2325 140.774434 
L 138.9535 141.439714 
L 138.9535 143.102914 
L 138.6745 143.601874 
L 138.6745 144.100834 
L 138.6745 144.100834 
L 138.9535 144.100834 
L 139.7905 143.102914 
L 145.6495 137.780674 
L 158.7625 129.132034 
L 162.808 126.470914 
L 167.1325 123.643474 
L 169.3645 122.146594 
L 181.501 114.994834 
L 196.846 106.346194 
L 200.3335 104.516674 
L 210.3775 100.192354 
L 223.072 94.038514 
L 228.5125 91.543714 
L 231.3025 90.213154 
L 237.4405 86.886754 
L 245.113 83.726674 
L 250.2745 81.564514 
L 252.7855 80.566594 
L 260.0395 77.240194 
L 277.0585 71.917954 
L 287.9395 68.591554 
L 290.4505 68.258914 
L 292.6825 67.593634 
L 294.6355 67.260994 
L 296.0305 67.260994 
L 297.4255 66.928354 
L 298.5415 66.928354 
L 298.96 66.595714 
L 299.9365 66.595714 
L 299.9365 66.595714 
" style="fill:none;stroke:#8c564b;stroke-linecap:square;stroke-width:1.5;"/>
   </g>
   <g id="line2d_30">
    <path clip-path="url(#pf426c8dbf6)" d="M 140.3485 89.547874 
L 140.3485 89.880514 
L 140.3485 89.880514 
L 141.325 92.458474 
L 143.06875 97.364914 
L 143.90575 99.610234 
L 145.6495 106.013554 
L 146.347 109.339954 
L 148.1605 117.489634 
L 149.06725 121.897114 
L 152.3455 134.786914 
L 156.2515 147.759874 
L 157.0885 149.423074 
L 157.786 150.919954 
L 157.9255 151.252594 
L 157.9255 151.418914 
L 157.9255 151.418914 
L 158.2045 151.917874 
L 158.2045 152.084194 
L 158.4835 152.084194 
L 158.4835 152.416834 
L 158.4835 152.416834 
L 159.5995 152.416834 
L 160.4365 152.084194 
L 165.1795 152.084194 
L 168.8065 152.416834 
L 193.3585 152.416834 
L 209.8195 151.418914 
L 220.4215 150.420994 
L 227.6755 149.755714 
L 246.0895 146.429314 
L 268.9675 143.102914 
L 273.1525 142.770274 
L 276.5005 142.770274 
L 279.5695 142.437634 
L 291.0085 142.437634 
L 290.7295 142.437634 
" style="fill:none;stroke:#e377c2;stroke-linecap:square;stroke-width:1.5;"/>
   </g>
   <g id="line2d_31">
    <path clip-path="url(#pf426c8dbf6)" d="M 128.6305 91.543714 
L 128.6305 91.710034 
L 128.6305 91.876354 
L 128.9095 92.208994 
L 129.4675 93.872194 
L 130.3045 95.868034 
L 131.4205 97.863874 
L 131.9785 99.859714 
L 134.2105 105.847234 
L 136.1635 111.834754 
L 137.2795 114.495874 
L 139.7905 123.144514 
L 140.9065 126.470914 
L 141.4645 129.132034 
L 142.5805 132.125794 
L 143.1385 135.119554 
L 145.6495 143.435554 
L 145.9285 144.766114 
L 147.0445 147.759874 
L 148.1605 152.416834 
L 149.416 155.576914 
L 150.253 157.739074 
L 152.206 162.562354 
L 155.554 171.709954 
L 156.2515 173.539474 
L 156.5305 174.371074 
L 157.3675 176.034274 
L 158.2045 178.695394 
L 158.623 179.859634 
L 158.7625 180.358594 
L 159.3205 181.689154 
L 159.5995 182.021794 
L 159.5995 182.354434 
L 159.5995 182.354434 
L 159.8785 182.687074 
L 159.8785 183.019714 
L 159.8785 183.019714 
L 160.1575 183.019714 
L 160.1575 182.687074 
L 160.1575 182.687074 
L 160.4365 182.021794 
L 160.9945 181.356514 
L 161.5525 180.025954 
L 162.9475 178.695394 
L 164.3425 177.032194 
L 166.5745 175.036354 
L 169.9225 171.377314 
L 172.1545 169.381474 
L 182.4775 161.730754 
L 185.5465 160.067554 
L 192.2425 155.410594 
L 197.5435 151.751554 
L 201.1705 149.090434 
L 217.9105 138.445954 
L 221.8165 136.117474 
L 226.0015 133.788994 
L 237.1615 127.136194 
L 244.6945 122.811874 
L 249.4375 119.485474 
L 261.1555 112.500034 
L 264.5035 110.171554 
L 268.1305 108.508354 
L 270.9205 106.845154 
L 273.9895 104.849314 
L 276.2215 103.851394 
L 277.8955 102.853474 
L 279.2905 102.188194 
L 281.8015 101.522914 
L 282.6385 101.190274 
L 283.4755 101.190274 
L 284.0335 100.857634 
L 284.3125 100.857634 
L 284.8705 100.524994 
L 284.8705 100.524994 
L 285.1495 100.524994 
L 285.4285 100.192354 
L 285.9865 100.192354 
L 285.9865 99.859714 
L 286.5445 99.859714 
L 286.5445 99.527074 
L 286.5445 99.527074 
L 287.1025 99.527074 
L 287.1025 99.527074 
L 287.3815 99.194434 
L 287.3815 99.194434 
L 287.6605 99.194434 
L 287.6605 99.194434 
L 287.9395 98.861794 
L 288.2185 98.861794 
L 288.7765 98.529154 
L 289.8925 98.529154 
L 291.0085 97.863874 
L 291.2875 97.863874 
L 291.8455 97.531234 
L 292.1245 97.531234 
L 292.6825 97.198594 
L 292.9615 96.865954 
L 293.5195 96.865954 
L 293.7985 96.533314 
L 294.0775 96.533314 
L 294.3565 96.200674 
L 294.6355 96.200674 
L 294.9145 95.868034 
L 296.0305 95.868034 
L 296.0305 95.868034 
L 296.0305 96.200674 
L 295.7515 96.200674 
L 295.7515 96.200674 
" style="fill:none;stroke:#7f7f7f;stroke-linecap:square;stroke-width:1.5;"/>
   </g>
   <g id="line2d_32">
    <path clip-path="url(#pf426c8dbf6)" d="M 157.6465 127.468834 
L 157.6465 127.801474 
L 157.71625 127.801474 
L 157.9255 127.801474 
L 157.9255 128.466754 
L 158.623 129.464674 
L 161.06425 135.535354 
L 162.3895 139.028074 
L 163.43575 141.439714 
L 164.6215 144.932434 
L 165.80725 148.425154 
L 166.2955 149.755714 
L 167.34175 152.499994 
L 168.388 155.909554 
L 169.9225 160.400194 
L 170.41075 161.813914 
L 171.457 164.059234 
L 172.852 167.219314 
L 173.131 167.385634 
L 173.2705 167.385634 
L 173.8285 167.052994 
L 175.7815 164.391874 
L 179.6875 160.400194 
L 183.3145 156.907474 
L 187.36 153.248434 
L 189.4525 151.418914 
L 196.7065 145.431394 
L 208.1455 137.780674 
L 217.492 132.791074 
L 224.0485 129.464674 
L 227.3965 127.801474 
L 246.6475 119.818114 
L 252.5065 118.154914 
L 257.5285 116.491714 
L 270.3625 112.832674 
L 273.7105 112.500034 
L 278.593 111.335794 
L 279.5695 111.169474 
L 281.2435 111.169474 
L 283.057 110.836834 
L 283.4755 110.836834 
L 284.5915 110.504194 
L 285.7075 110.504194 
L 285.7075 110.836834 
L 286.2655 110.836834 
L 286.2655 110.504194 
L 286.2655 110.670514 
L 286.2655 110.670514 
L 286.2655 110.836834 
L 286.2655 110.836834 
" style="fill:none;stroke:#bcbd22;stroke-linecap:square;stroke-width:1.5;"/>
   </g>
   <g id="line2d_33">
    <path clip-path="url(#pf426c8dbf6)" d="M 132.8155 77.572834 
L 132.5365 77.572834 
L 132.5365 77.572834 
L 132.5365 77.905474 
L 132.8155 78.238114 
L 133.3735 79.568674 
L 137.8375 87.053074 
L 138.3955 88.217314 
L 140.488 91.876354 
L 143.1385 96.865954 
L 145.3705 100.524994 
L 146.7655 103.186114 
L 148.1605 105.181954 
L 149.8345 108.508354 
L 151.2295 111.169474 
L 152.485 113.830594 
L 152.9035 114.828514 
L 154.159 116.491714 
L 154.717 117.655954 
L 155.1355 117.988594 
L 155.4145 118.154914 
L 155.4145 118.487554 
L 155.4145 118.487554 
L 155.833 118.820194 
L 157.3675 118.820194 
L 157.9255 118.487554 
L 159.3205 118.154914 
L 160.7155 117.489634 
L 185.5465 110.171554 
L 189.4525 109.173634 
L 197.5435 106.512514 
L 205.9135 104.516674 
L 210.3775 103.186114 
L 219.0265 101.190274 
L 223.7695 100.192354 
L 228.2335 98.861794 
L 246.3685 95.535394 
L 256.6915 93.539554 
L 265.6195 92.208994 
L 273.7105 90.878434 
L 286.5445 89.547874 
L 290.4505 88.716274 
L 295.4725 87.884674 
L 296.5885 87.552034 
L 298.5415 87.552034 
L 299.0995 87.219394 
L 301.3315 87.219394 
L 301.3315 87.219394 
" style="fill:none;stroke:#17becf;stroke-linecap:square;stroke-width:1.5;"/>
   </g>
   <g id="line2d_34">
    <path clip-path="url(#pf426c8dbf6)" d="M 138.9535 96.865954 
L 138.9535 97.863874 
L 139.72075 102.021874 
L 140.0695 103.851394 
L 140.767 106.678834 
L 141.4645 108.840994 
L 142.65025 111.917914 
L 144.5335 117.406474 
L 146.7655 123.144514 
L 147.3235 124.724554 
L 148.7185 128.965714 
L 149.48575 131.211034 
L 151.2295 137.198554 
L 152.69425 141.439714 
L 153.043 142.770274 
L 154.0195 147.094594 
L 156.2515 153.414754 
L 157.0885 154.412674 
L 158.2045 154.745314 
L 158.4835 154.745314 
L 160.297 153.747394 
L 162.9475 152.416834 
L 166.435 150.420994 
L 172.1545 147.427234 
L 177.4555 145.098754 
L 183.3145 142.770274 
L 195.0325 138.944914 
L 200.3335 137.281714 
L 203.1235 136.450114 
L 208.4245 135.452194 
L 217.0735 133.456354 
L 226.5595 131.460514 
L 234.0925 129.464674 
L 241.3465 128.134114 
L 248.6005 126.470914 
L 269.386 122.645554 
L 279.2905 120.816034 
L 293.7985 118.154914 
L 309.9805 115.493794 
L 316.1185 114.828514 
L 321.4195 113.830594 
L 332.8585 112.167394 
L 334.8115 111.834754 
L 338.1595 111.502114 
L 340.9495 111.502114 
L 343.7395 111.169474 
L 345.6925 111.169474 
L 347.0875 110.836834 
L 351.8305 110.836834 
L 351.8305 110.836834 
" style="fill:none;stroke:#1f77b4;stroke-linecap:square;stroke-width:1.5;"/>
   </g>
   <g id="line2d_35">
    <path clip-path="url(#pf426c8dbf6)" d="M 125.2825 99.859714 
L 125.143 99.859714 
L 125.0035 99.859714 
L 125.0035 99.527074 
L 125.0035 99.527074 
L 125.2825 99.527074 
L 127.2355 102.021874 
L 130.3045 106.512514 
L 134.7685 114.662194 
L 135.6055 116.159074 
L 137.0005 119.152834 
L 138.6745 122.146594 
L 140.9065 127.302514 
L 141.7435 129.132034 
L 145.3705 136.117474 
L 147.742 141.938674 
L 148.9975 144.599794 
L 154.0195 155.743234 
L 156.67 161.897074 
L 158.902 166.886674 
L 159.3205 168.050914 
L 160.1575 169.714114 
L 160.9945 171.876274 
L 161.8315 173.206834 
L 162.1105 173.373154 
L 162.1105 174.038434 
L 162.9475 174.038434 
L 162.9475 173.705794 
L 163.5055 173.040514 
L 163.7845 171.709954 
L 164.9005 169.381474 
L 167.4115 163.061314 
L 168.2485 161.065474 
L 170.341 154.911634 
L 173.131 147.759874 
L 174.3865 144.599794 
L 174.9445 143.102914 
L 177.4555 137.780674 
L 179.4085 134.121634 
L 180.5245 132.125794 
L 183.0355 128.466754 
L 185.8255 123.809794 
L 190.2895 118.154914 
L 196.4275 111.169474 
L 201.7285 106.346194 
L 203.6815 104.516674 
L 212.6095 98.529154 
L 219.5845 94.703794 
L 221.8165 93.539554 
L 231.5815 89.547874 
L 236.0455 88.217314 
L 240.7885 86.554114 
L 248.0425 85.223554 
L 253.0645 84.558274 
L 262.5505 83.892994 
L 276.5005 84.890914 
L 289.6135 87.552034 
L 301.0525 90.545794 
L 310.2595 93.206914 
L 316.537 95.036434 
L 318.0715 95.535394 
L 321.1405 96.533314 
L 321.9775 96.865954 
L 322.5355 96.865954 
L 323.0935 97.198594 
L 323.6515 97.198594 
L 323.9305 97.531234 
L 323.9305 97.531234 
L 324.2095 97.531234 
L 324.2095 97.531234 
L 324.2095 97.531234 
L 323.9305 97.531234 
L 323.9305 97.531234 
" style="fill:none;stroke:#ff7f0e;stroke-linecap:square;stroke-width:1.5;"/>
   </g>
   <g id="line2d_36">
    <path clip-path="url(#pf426c8dbf6)" d="M 154.8565 89.547874 
L 154.8565 89.381554 
L 154.8565 89.215234 
L 154.8565 89.215234 
L 154.8565 92.874274 
L 154.5775 97.364914 
L 154.5775 98.529154 
L 154.0195 106.013554 
L 154.0195 107.510434 
L 153.7405 110.836834 
L 153.7405 113.830594 
L 153.1825 121.148674 
L 153.1825 126.138274 
L 152.6245 133.456354 
L 152.6245 137.448034 
L 152.3455 139.443874 
L 152.3455 143.435554 
L 152.0665 147.094594 
L 152.0665 153.747394 
L 152.0665 153.747394 
L 152.9035 152.915794 
L 153.88 152.250514 
L 155.554 150.919954 
L 157.786 148.924114 
L 160.4365 146.595634 
L 161.8315 145.431394 
L 164.9005 143.435554 
L 169.225 139.942834 
L 173.5495 136.782754 
L 180.8035 131.626834 
L 183.3145 129.797314 
L 189.1735 126.470914 
L 192.8005 124.142434 
L 202.8445 118.986514 
L 210.796 115.493794 
L 214.8415 113.497954 
L 216.7945 112.500034 
L 222.793 109.838914 
L 233.8135 104.516674 
L 238.2775 102.188194 
L 247.2055 98.196514 
L 251.9485 95.535394 
L 263.1085 90.545794 
L 266.596 89.048914 
L 270.0835 87.385714 
L 271.7575 86.554114 
L 276.64 84.724594 
L 278.1745 84.225634 
L 282.6385 82.396114 
L 284.0335 81.897154 
L 287.1025 80.233954 
L 290.7295 78.903394 
L 291.8455 78.570754 
L 293.7985 77.572834 
L 297.9835 76.075954 
L 298.681 75.743314 
L 299.3785 75.576994 
L 299.6575 75.576994 
L 300.913 74.911714 
L 301.6105 74.911714 
L 301.6105 74.911714 
L 301.8895 74.579074 
L 301.8895 74.579074 
" style="fill:none;stroke:#2ca02c;stroke-linecap:square;stroke-width:1.5;"/>
   </g>
   <g id="line2d_37">
    <path clip-path="url(#pf426c8dbf6)" d="M 127.7935 76.574914 
L 127.7935 76.408594 
L 127.7935 76.242274 
L 127.5145 76.242274 
L 127.5145 76.574914 
L 127.5145 76.574914 
L 127.2355 76.574914 
L 127.2355 76.574914 
L 127.2355 77.240194 
L 127.5145 77.905474 
L 127.7935 79.236034 
L 129.1885 82.728754 
L 130.3045 85.722514 
L 132.397 91.377394 
L 132.8155 92.541634 
L 136.1635 99.527074 
L 137.5585 101.855554 
L 138.6745 104.184034 
L 140.0695 106.512514 
L 145.9285 114.495874 
L 147.0445 115.992754 
L 148.4395 118.154914 
L 149.2765 118.820194 
L 150.1135 120.150754 
L 151.369 121.481314 
L 151.5085 121.481314 
L 151.5085 121.813954 
L 152.0665 121.813954 
L 152.0665 121.481314 
L 152.3455 120.816034 
L 152.3455 120.150754 
L 153.1825 117.489634 
L 154.0195 115.493794 
L 155.6935 113.165314 
L 158.623 109.838914 
L 160.1575 108.508354 
L 165.1795 104.516674 
L 168.388 102.520834 
L 169.9225 101.522914 
L 173.131 100.026034 
L 174.1075 99.527074 
L 176.8975 98.529154 
L 179.6875 97.198594 
L 183.0355 96.200674 
L 186.3835 94.870114 
L 198.3805 91.876354 
L 203.1235 90.878434 
L 217.3525 88.882594 
L 224.8855 88.549954 
L 226.0015 88.549954 
L 230.7445 88.217314 
L 239.533 88.549954 
L 249.9955 88.549954 
L 255.157 89.215234 
L 261.7135 89.880514 
L 265.3405 89.880514 
L 272.0365 90.545794 
L 275.1055 90.545794 
L 278.1745 91.211074 
L 281.2435 91.543714 
L 289.6135 91.543714 
L 292.1245 91.876354 
L 296.8675 91.876354 
L 297.7045 92.208994 
L 301.8895 92.208994 
L 303.0055 92.541634 
L 304.6795 92.541634 
L 305.2375 92.874274 
L 306.9115 92.874274 
L 306.9115 92.541634 
L 306.9115 92.541634 
" style="fill:none;stroke:#d62728;stroke-linecap:square;stroke-width:1.5;"/>
   </g>
   <g id="line2d_38">
    <path clip-path="url(#pf426c8dbf6)" d="M 95.7085 57.614434 
L 95.569 57.281794 
L 95.4295 56.949154 
L 95.1505 56.949154 
L 95.1505 56.616514 
L 96.2665 57.947074 
L 97.1035 59.942914 
L 99.0565 62.604034 
L 100.87 65.930434 
L 102.544 68.757874 
L 106.5895 75.576994 
L 120.8185 98.529154 
L 124.1665 103.685074 
L 129.4675 112.167394 
L 131.4205 115.161154 
L 133.0945 118.487554 
L 136.024 123.310834 
L 137.0005 124.807714 
L 139.5115 129.132034 
L 141.1855 131.959474 
L 142.8595 134.786914 
L 145.9285 139.776514 
L 147.0445 141.772354 
L 148.4395 143.768194 
L 150.3925 147.094594 
L 153.322 151.585234 
L 154.0195 152.583154 
L 154.0195 152.749474 
L 154.5775 152.749474 
L 154.5775 152.749474 
L 155.275 151.751554 
L 155.4145 151.418914 
L 155.9725 151.086274 
L 157.3675 149.589394 
L 157.9255 149.090434 
L 159.739 147.094594 
L 162.6685 144.433474 
L 166.156 141.772354 
L 167.1325 141.107074 
L 169.0855 140.109154 
L 171.0385 138.778594 
L 180.664 133.788994 
L 182.7565 132.791074 
L 184.1515 132.458434 
L 190.5685 129.797314 
L 195.3115 127.801474 
L 198.9385 126.803554 
L 206.1925 123.809794 
L 210.0985 122.811874 
L 221.119 119.152834 
L 226.2805 117.655954 
L 230.605 116.658034 
L 232.9765 116.159074 
L 246.3685 112.167394 
L 250.2745 111.169474 
L 254.1805 109.838914 
L 258.0865 108.840994 
L 263.9455 106.845154 
L 268.1305 105.847234 
L 274.8265 103.851394 
L 278.7325 102.520834 
L 282.3595 101.522914 
L 283.7545 101.522914 
L 288.4975 100.192354 
L 289.0555 100.192354 
L 289.3345 99.859714 
L 289.3345 99.859714 
L 290.1715 99.859714 
L 290.1715 99.859714 
" style="fill:none;stroke:#9467bd;stroke-linecap:square;stroke-width:1.5;"/>
   </g>
   <g id="line2d_39">
    <path clip-path="url(#pf426c8dbf6)" d="M 115.5175 75.244354 
L 115.5175 74.911714 
L 115.5175 74.911714 
L 115.936 75.576994 
L 116.0755 75.909634 
L 116.3545 77.240194 
L 117.1915 79.901314 
L 117.7495 82.895074 
L 118.168 89.547874 
L 118.5865 99.693394 
L 118.5865 106.845154 
L 119.7025 127.136194 
L 120.2605 132.125794 
L 121.0975 137.448034 
L 122.2135 142.770274 
L 124.1665 150.587314 
L 125.2825 155.244274 
L 127.2355 162.396034 
L 131.002 173.373154 
L 132.2575 177.198514 
L 134.071 181.855474 
L 134.4895 182.687074 
L 136.024 184.849234 
L 138.1165 187.344034 
L 140.3485 188.674594 
L 143.9755 189.339874 
L 150.253 187.676674 
L 152.6245 187.011394 
L 156.2515 185.680834 
L 165.1795 181.689154 
L 169.0855 179.360674 
L 172.9915 177.697474 
L 179.548 174.204754 
L 183.8725 171.876274 
L 188.476 169.547794 
L 194.056 166.886674 
L 197.2645 165.389794 
L 199.2175 164.059234 
L 205.6345 160.732834 
L 206.4715 160.400194 
L 212.749 157.073794 
L 216.7945 154.911634 
L 220.003 153.248434 
L 221.5375 152.416834 
L 225.1645 150.753634 
L 235.2085 145.431394 
L 246.0895 139.942834 
L 250.2745 137.448034 
L 259.2025 133.290034 
L 262.969 131.626834 
L 265.6195 130.462594 
L 268.27 129.298354 
L 276.5005 126.138274 
L 279.0115 125.805634 
L 283.1965 124.807714 
L 286.126 124.308754 
L 287.3815 124.142434 
L 292.6825 122.811874 
L 295.7515 122.479234 
L 297.1465 121.813954 
L 308.0275 119.319154 
L 312.4915 118.321234 
L 315.979 117.489634 
L 319.4665 116.824354 
L 321.4195 116.491714 
L 324.7675 115.493794 
L 333.1375 112.500034 
L 335.0905 111.834754 
L 339.2755 110.171554 
L 345.6925 108.175714 
L 346.8085 107.843074 
L 348.4825 106.845154 
L 348.4825 106.845154 
" style="fill:none;stroke:#8c564b;stroke-linecap:square;stroke-width:1.5;"/>
   </g>
   <g id="line2d_40">
    <path clip-path="url(#pf426c8dbf6)" d="M 160.4365 143.102914 
L 161.5525 144.599794 
L 162.1105 145.431394 
L 164.9005 148.924114 
L 165.7375 150.337834 
L 167.4115 153.581074 
L 169.43425 156.990634 
L 170.4805 158.736994 
L 175.2235 168.716194 
L 176.0605 170.878354 
L 176.3395 171.377314 
L 176.8975 173.040514 
L 177.316 173.872114 
L 178.153 174.703714 
L 178.8505 174.703714 
L 178.8505 174.703714 
L 179.4085 174.204754 
L 180.664 173.539474 
L 182.1985 173.040514 
L 188.8945 171.377314 
L 193.9165 170.379394 
L 205.495 169.714114 
L 226.2805 169.714114 
L 236.6035 170.379394 
L 242.4625 171.044674 
L 267.0145 172.375234 
L 284.3125 173.040514 
L 309.9805 173.040514 
L 312.2125 172.707874 
L 321.1405 172.707874 
L 321.1405 172.707874 
" style="fill:none;stroke:#e377c2;stroke-linecap:square;stroke-width:1.5;"/>
   </g>
   <g id="line2d_41">
    <path clip-path="url(#pf426c8dbf6)" d="M 119.1445 101.522914 
L 120.8185 107.177794 
L 123.0505 114.163234 
L 125.2825 122.479234 
L 126.3985 126.803554 
L 127.2355 131.460514 
L 129.4675 138.778594 
L 130.0255 141.439714 
L 132.2575 149.755714 
L 133.3735 155.077954 
L 137.5585 168.716194 
L 141.4645 183.019714 
L 145.0915 192.998914 
L 147.6025 200.483314 
L 149.695 206.138194 
L 153.1825 214.953154 
L 154.0195 216.283714 
L 154.8565 218.279554 
L 155.554 219.277474 
L 155.6935 219.610114 
L 156.5305 220.275394 
L 157.6465 220.608034 
L 157.9255 220.608034 
L 160.9945 219.277474 
L 162.9475 218.279554 
L 169.3645 213.788914 
L 171.0385 212.624674 
L 174.6655 210.628834 
L 178.8505 207.967714 
L 198.3805 196.990594 
L 211.633 189.007234 
L 214.2835 187.344034 
L 226.42 180.524914 
L 230.1865 178.362754 
L 242.7415 170.712034 
L 257.8075 161.730754 
L 262.5505 159.402274 
L 272.8735 153.747394 
L 291.706 145.930354 
L 298.2625 143.435554 
L 303.5635 141.439714 
L 311.3755 138.778594 
L 320.8615 134.786914 
L 324.7675 133.456354 
L 345.4135 125.140354 
L 349.0405 123.310834 
L 351.412 121.980274 
L 352.9465 121.481314 
L 353.2255 121.481314 
L 353.644 121.148674 
L 353.7835 121.148674 
L 354.0625 121.481314 
L 354.0625 121.481314 
" style="fill:none;stroke:#7f7f7f;stroke-linecap:square;stroke-width:1.5;"/>
   </g>
   <g id="line2d_42">
    <path clip-path="url(#pf426c8dbf6)" d="M 134.2105 87.219394 
L 134.2105 86.886754 
L 134.2105 87.053074 
L 134.2105 87.053074 
L 134.2105 87.219394 
L 135.3265 88.716274 
L 139.7905 95.535394 
L 141.4645 98.362834 
L 142.8595 100.691314 
L 145.6495 105.015634 
L 155.9725 122.146594 
L 160.855 130.961554 
L 170.899 148.092514 
L 172.1545 150.088354 
L 176.3395 157.572754 
L 179.4085 162.728674 
L 181.0825 165.722434 
L 183.0355 168.716194 
L 184.4305 171.377314 
L 185.8255 173.373154 
L 188.3365 177.697474 
L 190.0105 179.526994 
L 190.5685 180.025954 
L 191.4055 180.358594 
L 193.3585 179.693314 
L 195.8695 178.362754 
L 201.1705 174.204754 
L 205.774 170.545714 
L 210.796 166.554034 
L 216.2365 162.229714 
L 228.094 153.082114 
L 231.3025 150.753634 
L 237.1615 146.096674 
L 249.7165 137.115394 
L 263.6665 127.801474 
L 269.8045 123.809794 
L 276.5005 119.818114 
L 283.4755 116.159074 
L 296.3095 110.171554 
L 308.167 105.847234 
L 311.0965 104.849314 
L 321.9775 102.188194 
L 333.1375 100.691314 
L 335.0905 100.524994 
L 342.0655 100.524994 
L 348.7615 101.356594 
L 352.528 102.021874 
L 354.3415 102.520834 
L 355.1785 102.853474 
L 355.7365 103.518754 
L 356.2945 103.518754 
L 356.992 104.017714 
L 357.55 104.516674 
L 357.6895 104.516674 
L 357.6895 104.849314 
L 357.6895 104.849314 
L 357.9685 105.348274 
L 357.9685 105.514594 
L 357.9685 105.514594 
" style="fill:none;stroke:#bcbd22;stroke-linecap:square;stroke-width:1.5;"/>
   </g>
   <g id="line2d_43">
    <path clip-path="url(#pf426c8dbf6)" d="M 137.0005 92.208994 
L 137.0005 92.541634 
L 137.2795 93.206914 
L 138.1165 94.537474 
L 138.6745 95.868034 
L 139.7905 97.863874 
L 141.046 101.522914 
L 144.2545 111.834754 
L 146.4865 120.816034 
L 148.4395 131.127874 
L 150.3925 138.944914 
L 150.811 140.441794 
L 151.369 142.603954 
L 151.648 143.269234 
L 151.927 143.768194 
L 152.0665 144.267154 
L 152.0665 144.433474 
L 152.485 144.766114 
L 152.6245 144.766114 
L 153.4615 143.934514 
L 153.7405 143.768194 
L 154.5775 142.770274 
L 156.2515 141.439714 
L 162.6685 135.119554 
L 166.8535 131.294194 
L 170.341 127.967794 
L 172.9915 125.472994 
L 180.2455 118.154914 
L 190.708 108.840994 
L 199.2175 101.689234 
L 205.6345 96.865954 
L 210.0985 93.539554 
L 218.7475 88.050994 
L 221.5375 86.221474 
L 229.6285 81.897154 
L 239.533 76.075954 
L 242.881 74.246434 
L 246.6475 72.250594 
L 250.8325 70.254754 
L 261.9925 66.595714 
L 263.9455 66.263074 
L 266.596 65.431474 
L 268.9675 64.932514 
L 269.5255 64.932514 
L 270.0835 64.599874 
L 271.7575 64.599874 
L 271.7575 64.267234 
L 272.3155 64.267234 
L 272.3155 64.267234 
L 272.3155 64.599874 
L 272.3155 64.599874 
L 272.0365 64.599874 
L 272.0365 64.599874 
" style="fill:none;stroke:#17becf;stroke-linecap:square;stroke-width:1.5;"/>
   </g>
   <g id="line2d_44">
    <path clip-path="url(#pf426c8dbf6)" d="M 182.4775 74.911714 
L 182.4775 75.244354 
L 182.40775 75.244354 
L 181.9195 75.244354 
L 181.9195 75.327514 
L 181.9195 75.576994 
L 181.84975 75.576994 
L 181.6405 75.576994 
L 180.8035 76.907554 
L 179.269 78.570754 
L 178.153 79.734994 
L 176.8975 81.231874 
L 174.6655 83.227714 
L 167.1325 91.543714 
L 161.2735 97.863874 
L 153.88 106.512514 
L 152.3455 108.175714 
L 149.2765 111.169474 
L 143.278 118.154914 
L 138.1165 123.809794 
L 137.2795 125.140354 
L 135.3265 127.136194 
L 132.2575 131.294194 
L 131.6995 132.125794 
L 129.1885 135.285874 
L 128.6305 136.117474 
L 128.0725 136.949074 
L 128.0725 137.115394 
L 127.7935 137.448034 
L 127.933 137.448034 
L 128.6305 137.448034 
L 132.2575 136.117474 
L 134.908 135.119554 
L 139.2325 133.123714 
L 146.4865 129.797314 
L 154.159 126.637234 
L 159.5995 124.308754 
L 168.5275 120.483394 
L 177.037 116.491714 
L 185.8255 112.500034 
L 192.2425 109.838914 
L 202.147 105.015634 
L 205.3555 103.518754 
L 212.3305 100.857634 
L 232.558 91.876354 
L 234.6505 90.878434 
L 246.9265 86.221474 
L 254.4595 83.394034 
L 258.3655 81.897154 
L 265.3405 78.903394 
L 272.5945 76.574914 
L 282.0805 73.248514 
L 285.1495 72.250594 
L 290.7295 69.922114 
L 298.8205 67.427314 
L 307.051 64.599874 
L 308.8645 63.934594 
L 312.352 62.936674 
L 318.3505 60.940834 
L 318.9085 60.940834 
L 319.327 60.608194 
L 319.4665 60.608194 
L 319.4665 60.608194 
L 319.4665 60.940834 
L 319.4665 60.940834 
L 319.1875 60.940834 
L 319.1875 60.940834 
" style="fill:none;stroke:#1f77b4;stroke-linecap:square;stroke-width:1.5;"/>
   </g>
   <g id="line2d_45">
    <path clip-path="url(#pf426c8dbf6)" d="M 124.7245 130.462594 
L 124.7245 130.795234 
L 124.79425 130.795234 
L 125.0035 130.795234 
L 125.49175 131.793154 
L 126.538 133.622674 
L 128.9095 138.113314 
L 130.3045 140.774434 
L 135.0475 152.749474 
L 137.419 158.154874 
L 139.2325 162.562354 
L 140.6275 165.722434 
L 141.53425 167.635114 
L 142.8595 170.046754 
L 144.2545 172.375234 
L 145.0915 173.206834 
L 145.51 173.373154 
L 146.2075 173.373154 
L 147.3235 172.707874 
L 148.7185 171.210994 
L 151.7875 168.383554 
L 154.438 165.888754 
L 157.9255 163.061314 
L 160.4365 161.398114 
L 165.1795 158.903314 
L 166.8535 158.071714 
L 170.7595 156.741154 
L 174.9445 154.745314 
L 184.1515 151.418914 
L 191.9635 148.757794 
L 197.8225 146.595634 
L 205.495 143.768194 
L 210.0985 142.104994 
L 216.2365 139.443874 
L 228.2335 135.452194 
L 235.2085 133.123714 
L 241.3465 131.460514 
L 254.1805 127.468834 
L 260.5975 126.138274 
L 267.0145 124.142434 
L 272.5945 122.811874 
L 277.8955 121.148674 
L 282.9175 119.818114 
L 294.9145 117.323314 
L 299.239 116.491714 
L 302.029 115.826434 
L 303.2845 115.493794 
L 307.1905 114.828514 
L 308.5855 114.495874 
L 309.7015 114.495874 
L 310.2595 114.163234 
L 310.8175 114.163234 
L 311.236 113.830594 
L 311.9335 113.830594 
L 311.9335 113.830594 
L 311.9335 114.163234 
L 311.9335 114.163234 
L 311.6545 114.163234 
L 311.6545 114.163234 
" style="fill:none;stroke:#ff7f0e;stroke-linecap:square;stroke-width:1.5;"/>
   </g>
   <g id="line2d_46">
    <path clip-path="url(#pf426c8dbf6)" d="M 108.2635 103.186114 
L 108.2635 103.518754 
L 108.33325 103.518754 
L 108.5425 103.518754 
L 108.5425 103.601914 
L 108.5425 103.851394 
L 109.24 105.680914 
L 109.3795 106.179874 
L 110.2165 107.510434 
L 111.0535 109.506274 
L 112.4485 111.502114 
L 113.5645 113.497954 
L 115.7965 116.824354 
L 117.4705 119.319154 
L 123.8875 128.134114 
L 126.3985 132.458434 
L 130.0255 138.279634 
L 132.2575 142.437634 
L 134.35 146.262994 
L 137.419 151.585234 
L 138.9535 154.578994 
L 140.0695 156.741154 
L 145.9285 167.052994 
L 146.905 168.383554 
L 147.0445 168.716194 
L 147.8815 169.880434 
L 148.4395 170.712034 
L 148.4395 170.712034 
L 148.858 171.044674 
L 149.2765 171.044674 
L 149.8345 170.379394 
L 150.6715 170.046754 
L 152.6245 168.383554 
L 157.0885 164.724514 
L 158.2045 163.726594 
L 160.9945 162.063394 
L 176.0605 151.418914 
L 182.4775 147.260914 
L 184.7095 145.764034 
L 192.103 141.772354 
L 194.4745 140.441794 
L 201.4495 136.117474 
L 206.7505 133.123714 
L 221.2585 125.805634 
L 224.0485 124.475074 
L 229.6285 121.481314 
L 242.4625 116.159074 
L 249.7165 112.832674 
L 259.4815 109.173634 
L 265.8985 106.512514 
L 268.9675 105.181954 
L 275.1055 102.853474 
L 282.0805 100.524994 
L 287.9395 98.196514 
L 293.5195 96.533314 
L 299.0995 94.537474 
L 303.8425 93.206914 
L 308.8645 91.543714 
L 317.7925 89.215234 
L 323.9305 87.053074 
L 326.1625 86.554114 
L 327.2785 86.221474 
L 327.5575 86.221474 
L 328.255 85.888834 
L 329.2315 85.888834 
L 329.5105 86.221474 
L 329.5105 86.221474 
" style="fill:none;stroke:#2ca02c;stroke-linecap:square;stroke-width:1.5;"/>
   </g>
   <g id="line2d_47">
    <path clip-path="url(#pf426c8dbf6)" d="M 121.9345 84.890914 
L 122.911 86.221474 
L 123.67825 87.552034 
L 133.6525 106.346194 
L 137.0005 112.167394 
L 138.18625 114.163234 
L 139.2325 116.159074 
L 141.4645 121.647634 
L 144.2545 127.635154 
L 145.44025 130.878394 
L 145.789 131.460514 
L 145.9285 131.959474 
L 145.9285 132.125794 
L 146.347 132.458434 
L 146.4865 132.458434 
L 146.4865 132.458434 
L 146.4865 132.125794 
L 146.7655 131.626834 
L 146.7655 131.460514 
L 147.0445 130.795234 
L 147.8815 129.464674 
L 149.8345 127.302514 
L 151.648 125.639314 
L 152.6245 124.807714 
L 157.3675 122.146594 
L 163.5055 119.152834 
L 172.7125 116.159074 
L 184.9885 112.001074 
L 187.7785 111.169474 
L 193.6375 109.173634 
L 199.4965 107.843074 
L 205.6345 106.179874 
L 211.4935 104.184034 
L 217.3525 102.853474 
L 232.4185 98.861794 
L 236.3245 97.863874 
L 243.718 95.036434 
L 248.182 93.373234 
L 253.9015 91.211074 
L 256.9705 90.213154 
L 261.9925 87.884674 
L 264.643 86.886754 
L 267.2935 85.556194 
L 267.991 85.223554 
L 268.1305 85.223554 
L 268.828 84.890914 
L 269.2465 84.890914 
L 269.2465 84.558274 
L 269.8045 84.558274 
L 269.8045 84.558274 
" style="fill:none;stroke:#d62728;stroke-linecap:square;stroke-width:1.5;"/>
   </g>
   <g id="line2d_48">
    <path clip-path="url(#pf426c8dbf6)" d="M 140.0695 98.196514 
L 140.209 98.196514 
L 140.3485 98.196514 
L 140.3485 98.529154 
L 141.604 101.190274 
L 142.441 103.352434 
L 143.1385 105.015634 
L 143.4175 105.514594 
L 145.9285 110.836834 
L 147.184 113.664274 
L 147.8815 115.161154 
L 151.2295 121.148674 
L 153.4615 125.805634 
L 155.1355 128.965714 
L 158.4835 135.119554 
L 160.7155 139.776514 
L 164.203 147.094594 
L 164.9005 148.425154 
L 166.5745 152.250514 
L 167.1325 153.414754 
L 167.6905 155.410594 
L 169.0855 158.404354 
L 169.783 160.233874 
L 169.9225 160.732834 
L 170.4805 161.730754 
L 170.4805 162.396034 
L 170.7595 162.894994 
L 170.7595 163.393954 
L 171.3175 163.393954 
L 171.3175 163.393954 
L 171.3175 163.061314 
L 171.3175 163.061314 
L 171.5965 163.061314 
L 171.5965 163.061314 
L 172.015 162.728674 
L 172.1545 162.728674 
L 172.7125 162.396034 
L 173.5495 162.396034 
L 174.6655 162.063394 
L 176.8975 161.730754 
L 179.1295 161.065474 
L 185.8255 160.067554 
L 189.7315 159.402274 
L 200.6125 157.739074 
L 210.9355 155.743234 
L 218.887 154.578994 
L 221.8165 154.080034 
L 227.1175 153.414754 
L 232.9765 153.082114 
L 243.8575 151.751554 
L 249.7165 151.751554 
L 258.3655 151.252594 
L 267.0145 150.753634 
L 277.8955 150.088354 
L 279.8485 150.088354 
L 287.3815 149.423074 
L 288.7765 149.423074 
L 292.6825 148.757794 
L 294.0775 148.757794 
L 295.891 148.425154 
L 297.9835 148.425154 
L 298.681 148.092514 
L 299.6575 148.092514 
L 299.6575 148.092514 
" style="fill:none;stroke:#9467bd;stroke-linecap:square;stroke-width:1.5;"/>
   </g>
   <g id="line2d_49">
    <path clip-path="url(#pf426c8dbf6)" d="M 119.9815 97.863874 
L 119.7025 97.863874 
L 119.7025 97.863874 
L 120.05125 98.861794 
L 120.8185 102.520834 
L 123.8875 111.003154 
L 126.817 120.317074 
L 128.56075 124.890874 
L 130.444 129.215194 
L 131.6995 132.458434 
L 133.3735 137.448034 
L 136.303 145.098754 
L 139.2325 153.082114 
L 141.1855 157.739074 
L 143.1385 163.061314 
L 146.068 170.213074 
L 156.5305 196.657954 
L 157.0885 197.822194 
L 158.7625 200.649634 
L 159.181 200.982274 
L 160.1575 200.982274 
L 160.9945 200.316994 
L 162.6685 199.651714 
L 166.156 197.489554 
L 169.0855 195.660034 
L 172.573 193.664194 
L 174.3865 192.666274 
L 179.1295 189.672514 
L 191.1265 183.019714 
L 197.5435 179.693314 
L 213.7255 171.377314 
L 219.5845 168.050914 
L 225.4435 165.057154 
L 259.621 145.764034 
L 266.1775 142.437634 
L 269.5255 140.774434 
L 275.6635 137.448034 
L 287.9395 131.460514 
L 293.7985 128.134114 
L 315.8395 117.489634 
L 318.3505 116.491714 
L 325.8835 112.832674 
L 333.4165 109.506274 
L 336.625 108.342034 
L 338.1595 107.843074 
L 344.0185 104.849314 
L 344.5765 104.849314 
L 344.995 104.516674 
L 345.1345 104.516674 
L 345.1345 104.849314 
L 345.1345 104.849314 
" style="fill:none;stroke:#8c564b;stroke-linecap:square;stroke-width:1.5;"/>
   </g>
   <g id="line2d_50">
    <path clip-path="url(#pf426c8dbf6)" d="M 101.0095 84.558274 
L 101.2885 84.890914 
L 103.66 92.042674 
L 103.7995 92.874274 
L 104.9155 96.200674 
L 107.7055 107.177794 
L 109.1005 111.502114 
L 112.309 124.641394 
L 112.7275 127.136194 
L 114.4015 133.955314 
L 116.494 143.601874 
L 116.9125 146.096674 
L 119.1445 157.073794 
L 120.4 163.726594 
L 120.8185 165.722434 
L 121.9345 169.714114 
L 123.8875 175.036354 
L 125.5615 179.693314 
L 128.3515 186.179794 
L 128.9095 187.344034 
L 132.397 191.335714 
L 133.0945 192.000994 
L 135.6055 193.664194 
L 136.7215 193.996834 
L 138.9535 194.329474 
L 143.6965 193.664194 
L 149.5555 192.000994 
L 163.366 185.181874 
L 166.8535 183.352354 
L 173.5495 179.360674 
L 183.0355 174.703714 
L 187.7785 171.709954 
L 200.0545 166.055074 
L 202.8445 164.391874 
L 212.6095 160.400194 
L 219.166 158.071714 
L 231.0235 154.412674 
L 238.8355 152.084194 
L 244.9735 150.753634 
L 248.8795 149.423074 
L 253.0645 148.425154 
L 260.3185 145.764034 
L 267.5725 143.768194 
L 282.9175 138.445954 
L 288.2185 136.616434 
L 289.8925 136.117474 
L 293.5195 134.786914 
L 296.5885 134.121634 
L 301.6105 132.791074 
L 312.7705 128.799394 
L 315.979 127.635154 
L 320.5825 126.138274 
L 330.3475 122.146594 
L 337.741 118.820194 
L 338.9965 118.154914 
L 342.9025 116.824354 
L 345.4135 115.493794 
L 347.9245 114.828514 
L 354.3415 112.167394 
L 355.4575 111.834754 
L 361.8745 109.173634 
L 361.8745 109.173634 
" style="fill:none;stroke:#e377c2;stroke-linecap:square;stroke-width:1.5;"/>
   </g>
   <g id="line2d_51">
    <path clip-path="url(#pf426c8dbf6)" d="M 139.7905 108.840994 
L 139.7905 109.007314 
L 139.7905 109.173634 
L 140.6275 111.003154 
L 141.7435 113.165314 
L 143.278 116.658034 
L 143.6965 117.489634 
L 144.2545 119.485474 
L 145.0915 121.148674 
L 147.3235 128.134114 
L 147.6025 129.132034 
L 148.7185 131.959474 
L 148.9975 132.791074 
L 150.3925 135.784834 
L 152.9035 142.437634 
L 153.7405 143.768194 
L 154.0195 145.431394 
L 155.9725 149.922034 
L 156.2515 150.420994 
L 156.5305 151.751554 
L 157.6465 153.747394 
L 158.2045 155.410594 
L 159.0415 156.741154 
L 159.46 157.073794 
L 159.5995 157.073794 
L 159.5995 157.073794 
L 159.5995 157.406434 
L 159.8785 157.406434 
L 160.1575 156.741154 
L 160.7155 156.408514 
L 163.5055 153.248434 
L 165.04 151.585234 
L 166.5745 149.922034 
L 168.109 148.258834 
L 169.783 146.429314 
L 171.457 144.599794 
L 172.1545 143.768194 
L 179.1295 137.780674 
L 183.5935 134.786914 
L 189.1735 130.628914 
L 196.4275 125.472994 
L 201.589 122.312914 
L 205.0765 119.984434 
L 206.7505 118.820194 
L 211.912 115.826434 
L 215.6785 113.664274 
L 217.6315 112.500034 
L 221.5375 110.504194 
L 226.0015 108.508354 
L 231.8605 105.514594 
L 237.9985 102.853474 
L 242.1835 100.857634 
L 250.972 97.697554 
L 258.3655 94.870114 
L 259.4815 94.537474 
L 271.7575 91.543714 
L 278.872 90.379474 
L 288.079 89.547874 
L 289.3345 89.547874 
L 291.5665 89.215234 
L 295.1935 89.215234 
L 297.286 89.547874 
L 298.8205 89.547874 
L 298.8205 89.880514 
L 298.8205 89.880514 
" style="fill:none;stroke:#7f7f7f;stroke-linecap:square;stroke-width:1.5;"/>
   </g>
   <g id="line2d_52">
    <path clip-path="url(#pf426c8dbf6)" d="M 146.2075 100.192354 
L 145.9285 100.192354 
L 145.9285 100.192354 
L 145.6495 101.439754 
L 145.57975 102.687154 
L 145.3705 104.766154 
L 145.30075 107.344114 
L 144.8125 114.329554 
L 144.88225 128.134114 
L 145.0915 132.125794 
L 145.16125 136.200634 
L 145.6495 143.768194 
L 145.6495 147.427234 
L 146.2075 156.741154 
L 146.2075 172.707874 
L 146.4865 174.870034 
L 146.4865 176.366914 
L 146.7655 177.032194 
L 146.7655 178.030114 
L 147.184 178.362754 
L 147.3235 178.362754 
L 148.1605 178.030114 
L 149.8345 177.032194 
L 161.5525 171.876274 
L 176.3395 165.722434 
L 182.1985 163.726594 
L 191.1265 161.065474 
L 194.1955 159.734914 
L 208.9825 155.244274 
L 212.6095 154.080034 
L 224.3275 151.086274 
L 244.6945 145.431394 
L 269.5255 139.443874 
L 282.0805 136.117474 
L 285.9865 135.452194 
L 296.8675 132.791074 
L 303.5635 131.460514 
L 310.2595 129.464674 
L 318.0715 127.801474 
L 325.186 126.304594 
L 329.092 125.472994 
L 332.5795 124.641394 
L 334.8115 124.142434 
L 340.9495 123.144514 
L 344.5765 122.146594 
L 347.6455 121.813954 
L 351.133 120.982354 
L 354.481 120.317074 
L 355.597 120.150754 
L 356.0155 120.150754 
L 356.5735 119.818114 
L 358.5265 119.818114 
L 358.5265 119.818114 
" style="fill:none;stroke:#bcbd22;stroke-linecap:square;stroke-width:1.5;"/>
   </g>
   <g id="line2d_53">
    <path clip-path="url(#pf426c8dbf6)" d="M 134.4895 122.811874 
L 134.83825 122.895034 
L 135.6055 123.643474 
L 136.303 124.142434 
L 136.7215 124.475074 
L 138.1165 126.803554 
L 143.6965 135.784834 
L 145.6495 139.111234 
L 147.0445 141.439714 
L 149.2765 145.265074 
L 150.3925 147.094594 
L 151.7875 149.755714 
L 155.4145 156.741154 
L 155.833 157.406434 
L 156.391 158.570674 
L 156.949 159.402274 
L 157.0885 159.734914 
L 157.0885 159.734914 
L 157.9255 159.734914 
L 157.9255 159.734914 
L 158.902 159.235954 
L 159.46 158.404354 
L 159.8785 157.739074 
L 161.5525 156.075874 
L 164.761 153.414754 
L 166.2955 152.084194 
L 169.3645 150.088354 
L 170.4805 149.423074 
L 173.968 146.928274 
L 176.6185 145.265074 
L 181.78 142.271314 
L 184.7095 140.608114 
L 187.639 138.944914 
L 189.1735 138.113314 
L 192.2425 136.117474 
L 195.5905 134.786914 
L 198.9385 132.791074 
L 205.6345 129.464674 
L 208.4245 128.134114 
L 214.5625 125.805634 
L 218.7475 124.308754 
L 223.4905 122.645554 
L 228.2335 121.148674 
L 235.2085 119.152834 
L 245.5315 116.491714 
L 249.9955 115.493794 
L 254.7385 114.828514 
L 259.4815 113.830594 
L 274.5475 111.668434 
L 284.731 110.836834 
L 286.2655 110.836834 
L 289.8925 110.504194 
L 291.8455 110.836834 
L 297.1465 110.836834 
L 297.1465 110.836834 
L 297.1465 111.169474 
L 297.1465 111.169474 
" style="fill:none;stroke:#17becf;stroke-linecap:square;stroke-width:1.5;"/>
   </g>
   <g id="line2d_54">
    <path clip-path="url(#pf426c8dbf6)" d="M 123.3295 91.543714 
L 123.39925 92.125834 
L 123.6085 93.206914 
L 124.37575 96.034354 
L 125.2825 98.445994 
L 125.701 99.776554 
L 126.46825 102.603994 
L 130.444 115.161154 
L 133.9315 129.464674 
L 134.35 133.123714 
L 135.3265 138.113314 
L 135.8845 143.685034 
L 135.8845 144.433474 
L 137.2795 150.088354 
L 137.698 150.420994 
L 137.8375 150.420994 
L 138.1165 150.753634 
L 139.372 150.088354 
L 146.626 146.595634 
L 148.1605 145.764034 
L 153.7405 143.102914 
L 155.6935 142.104994 
L 164.9005 138.445954 
L 169.9225 136.117474 
L 176.0605 133.788994 
L 181.6405 131.127874 
L 187.7785 129.132034 
L 201.4495 123.809794 
L 213.865 119.152834 
L 215.3995 118.487554 
L 229.768 113.331634 
L 235.069 111.502114 
L 242.602 108.674674 
L 248.3215 106.512514 
L 255.2965 104.184034 
L 266.038 100.358674 
L 276.7795 96.865954 
L 296.5885 90.878434 
L 302.4475 88.882594 
L 308.0275 87.552034 
L 325.0465 82.396114 
L 326.4415 81.897154 
L 328.3945 81.564514 
L 330.3475 80.899234 
L 332.3005 80.400274 
L 332.5795 80.233954 
L 333.4165 80.233954 
L 334.114 79.901314 
L 335.0905 79.901314 
L 335.0905 79.901314 
" style="fill:none;stroke:#1f77b4;stroke-linecap:square;stroke-width:1.5;"/>
   </g>
   <g id="line2d_55">
    <path clip-path="url(#pf426c8dbf6)" d="M 110.4955 85.223554 
L 110.56525 85.722514 
L 110.84425 86.554114 
L 112.588 94.537474 
L 116.6335 110.171554 
L 118.0285 114.495874 
L 119.1445 119.485474 
L 122.911 132.292114 
L 125.0035 139.776514 
L 128.212 153.248434 
L 128.9095 155.743234 
L 132.2575 166.387714 
L 134.2105 173.373154 
L 135.8845 177.697474 
L 136.4425 179.028034 
L 138.3955 181.689154 
L 139.651 183.019714 
L 140.3485 183.684994 
L 142.0225 184.682914 
L 145.9285 185.348194 
L 148.9975 184.682914 
L 153.4615 183.352354 
L 166.0165 176.366914 
L 169.504 174.371074 
L 172.9915 172.375234 
L 176.479 170.379394 
L 178.2925 169.381474 
L 186.1045 166.387714 
L 190.2895 165.057154 
L 198.3805 163.061314 
L 205.6345 161.730754 
L 212.6095 161.065474 
L 220.1425 161.065474 
L 226.8385 160.732834 
L 228.5125 160.732834 
L 232.1395 161.065474 
L 239.6725 160.400194 
L 243.0205 160.400194 
L 252.925 159.402274 
L 255.8545 159.069634 
L 261.4345 158.071714 
L 265.3405 157.739074 
L 269.2465 156.741154 
L 273.4315 156.075874 
L 277.3375 154.745314 
L 281.5225 154.080034 
L 289.0555 152.084194 
L 296.3095 150.753634 
L 302.7265 148.757794 
L 312.2125 145.764034 
L 313.6075 145.431394 
L 317.932 143.934514 
L 319.1875 143.435554 
L 324.4885 142.104994 
L 326.7205 141.439714 
L 329.5105 140.109154 
L 331.1845 139.776514 
L 335.23 137.448034 
L 338.1595 136.117474 
L 345.6925 133.788994 
L 345.6925 133.788994 
" style="fill:none;stroke:#ff7f0e;stroke-linecap:square;stroke-width:1.5;"/>
   </g>
   <g id="line2d_56">
    <path clip-path="url(#pf426c8dbf6)" d="M 106.5895 86.554114 
L 106.5895 86.221474 
L 106.5895 86.387794 
L 106.5895 86.387794 
L 106.65925 86.637274 
L 107.1475 87.385714 
L 108.2635 89.547874 
L 109.6585 92.541634 
L 111.26275 96.616474 
L 116.84275 111.502114 
L 118.5865 116.491714 
L 120.19075 122.811874 
L 122.353 129.797314 
L 123.0505 131.793154 
L 127.5145 150.088354 
L 129.607 155.743234 
L 131.9785 161.398114 
L 133.6525 164.724514 
L 137.5585 170.712034 
L 140.6275 174.371074 
L 145.3705 178.030114 
L 148.4395 179.693314 
L 151.5085 180.691234 
L 155.4145 181.356514 
L 160.4365 181.356514 
L 164.0635 181.023874 
L 170.2015 180.025954 
L 174.6655 178.695394 
L 181.6405 177.032194 
L 186.1045 175.701634 
L 190.8475 174.703714 
L 205.6345 170.712034 
L 228.7915 166.221394 
L 232.9765 165.223474 
L 237.1615 164.059234 
L 243.8575 162.063394 
L 248.3215 161.065474 
L 255.157 159.235954 
L 257.2495 158.736994 
L 265.6195 156.408514 
L 267.0145 156.075874 
L 275.3845 153.581074 
L 279.5695 152.583154 
L 281.8015 152.084194 
L 291.0085 149.755714 
L 296.17 148.425154 
L 312.7705 143.768194 
L 317.7925 142.936594 
L 328.1155 140.774434 
L 328.9525 140.441794 
L 333.556 139.443874 
L 334.8115 138.944914 
L 335.0905 138.778594 
L 335.6485 138.778594 
L 336.346 138.445954 
L 336.7645 138.445954 
L 337.6015 138.113314 
L 337.6015 138.113314 
" style="fill:none;stroke:#2ca02c;stroke-linecap:square;stroke-width:1.5;"/>
   </g>
   <g id="line2d_57">
    <path clip-path="url(#pf426c8dbf6)" d="M 135.3265 83.227714 
L 135.6055 83.227714 
L 135.6055 83.310874 
L 135.67525 83.643514 
L 136.024 84.225634 
L 136.4425 85.057234 
L 137.8375 87.385714 
L 138.9535 89.215234 
L 139.5115 90.213154 
L 140.9065 93.206914 
L 144.2545 98.529154 
L 145.9285 101.855554 
L 149.8345 108.508354 
L 152.6245 113.830594 
L 154.5775 116.824354 
L 156.2515 120.150754 
L 157.9255 122.811874 
L 160.297 128.300434 
L 161.2735 130.462594 
L 161.5525 131.460514 
L 162.1105 132.125794 
L 162.1105 132.791074 
L 162.3895 133.456354 
L 162.6685 133.456354 
L 162.6685 133.788994 
L 162.6685 133.788994 
L 163.087 134.121634 
L 163.2265 134.121634 
L 163.2265 134.121634 
L 163.2265 133.456354 
L 163.5055 133.456354 
L 163.5055 133.123714 
L 163.5055 133.123714 
L 164.6215 131.793154 
L 165.4585 131.460514 
L 167.6905 129.963634 
L 168.5275 129.464674 
L 172.573 127.967794 
L 173.2705 127.801474 
L 191.1265 121.481314 
L 196.1485 119.818114 
L 205.495 116.325394 
L 217.0735 112.167394 
L 221.8165 110.171554 
L 226.2805 108.840994 
L 240.5095 103.518754 
L 252.5065 99.859714 
L 257.2495 98.529154 
L 267.0145 95.202754 
L 281.8015 90.545794 
L 285.7075 89.547874 
L 292.4035 87.552034 
L 293.2405 87.552034 
L 294.3565 87.219394 
L 294.9145 87.219394 
L 295.333 86.886754 
L 295.7515 86.886754 
L 295.7515 86.886754 
L 295.7515 87.219394 
L 296.0305 87.219394 
L 296.0305 87.219394 
L 296.0305 87.552034 
L 296.0305 87.552034 
" style="fill:none;stroke:#d62728;stroke-linecap:square;stroke-width:1.5;"/>
   </g>
   <g id="line2d_58">
    <path clip-path="url(#pf426c8dbf6)" d="M 130.5835 90.878434 
L 130.5835 91.211074 
L 131.35075 92.292154 
L 132.5365 94.870114 
L 133.0945 96.200674 
L 134.7685 99.194434 
L 142.8595 110.171554 
L 148.1605 117.988594 
L 149.2765 119.485474 
L 154.8565 130.795234 
L 155.9725 133.456354 
L 158.065 137.281714 
L 159.181 139.277554 
L 159.5995 140.109154 
L 162.3895 144.433474 
L 162.6685 145.098754 
L 163.5055 146.262994 
L 163.5055 146.429314 
L 164.203 147.094594 
L 164.6215 147.094594 
L 166.435 145.098754 
L 167.6905 143.768194 
L 169.3645 141.772354 
L 171.0385 140.441794 
L 172.4335 138.445954 
L 176.6185 134.786914 
L 179.1295 132.458434 
L 181.6405 129.797314 
L 184.7095 127.136194 
L 192.8005 119.319154 
L 194.4745 117.822274 
L 198.3805 114.828514 
L 204.2395 109.838914 
L 215.9575 101.190274 
L 229.0705 92.541634 
L 237.9985 87.552034 
L 243.16 84.724594 
L 248.0425 82.063474 
L 252.646 79.734994 
L 255.0175 78.570754 
L 262.8295 75.244354 
L 270.6415 72.915874 
L 276.5005 71.585314 
L 282.6385 70.587394 
L 292.4035 69.589474 
L 300.7735 69.589474 
L 305.7955 69.922114 
L 310.5385 70.587394 
L 315.5605 71.585314 
L 322.8145 74.246434 
L 325.6045 75.576994 
L 328.1155 77.240194 
L 332.3005 80.899234 
L 334.672 83.892994 
L 334.951 84.391954 
L 335.0905 84.724594 
L 335.0905 85.223554 
L 335.3695 85.223554 
L 335.3695 85.223554 
" style="fill:none;stroke:#9467bd;stroke-linecap:square;stroke-width:1.5;"/>
   </g>
   <g id="line2d_59">
    <path clip-path="url(#pf426c8dbf6)" d="M 101.2885 71.252674 
L 101.35825 76.990714 
L 101.8465 81.231874 
L 102.6835 87.219394 
L 104.0785 93.539554 
L 105.7525 100.857634 
L 106.8685 106.179874 
L 109.24 114.994834 
L 111.8905 125.805634 
L 112.4485 128.466754 
L 114.1225 133.788994 
L 118.0285 148.092514 
L 119.4235 153.913714 
L 119.9815 156.075874 
L 121.6555 164.391874 
L 122.7715 167.718274 
L 123.6085 171.044674 
L 124.7245 174.371074 
L 125.0035 175.368994 
L 126.1195 178.196434 
L 126.3985 179.028034 
L 128.3515 181.356514 
L 130.165 182.354434 
L 130.8625 182.687074 
L 133.0945 183.019714 
L 136.1635 182.687074 
L 141.604 181.522834 
L 143.6965 181.023874 
L 157.9255 176.034274 
L 162.9475 173.705794 
L 170.7595 170.712034 
L 182.1985 166.554034 
L 208.4245 156.574834 
L 221.8165 151.086274 
L 230.7445 147.593554 
L 255.0175 137.448034 
L 264.5035 133.123714 
L 273.7105 129.132034 
L 278.1745 126.803554 
L 291.0085 121.314994 
L 296.5885 118.820194 
L 303.8425 116.491714 
L 310.2595 114.163234 
L 314.7235 112.832674 
L 318.3505 112.167394 
L 323.791 110.836834 
L 328.6735 109.838914 
L 331.7425 109.506274 
L 335.0905 108.508354 
L 338.4385 107.843074 
L 345.4135 105.847234 
L 350.4355 104.184034 
L 354.6205 102.188194 
L 357.4105 101.190274 
L 361.3165 99.194434 
L 361.5955 99.194434 
L 362.9905 98.196514 
L 364.6645 97.198594 
L 365.7805 96.865954 
L 368.5705 96.533314 
L 373.3135 96.200674 
L 376.9405 96.533314 
L 376.9405 96.533314 
" style="fill:none;stroke:#8c564b;stroke-linecap:square;stroke-width:1.5;"/>
   </g>
   <g id="line2d_60">
    <path clip-path="url(#pf426c8dbf6)" d="M 141.7435 118.154914 
L 141.7435 117.822274 
L 141.81325 117.822274 
L 142.0225 117.822274 
L 142.0225 118.154914 
L 142.3015 118.154914 
L 143.4175 119.651794 
L 143.9755 120.483394 
L 146.068 123.144514 
L 146.7655 124.142434 
L 151.648 133.622674 
L 165.4585 163.061314 
L 166.2955 164.391874 
L 166.8535 165.722434 
L 167.551 166.720354 
L 168.109 167.884594 
L 168.388 168.050914 
L 168.5275 168.050914 
L 168.8065 168.383554 
L 169.225 168.050914 
L 169.3645 168.050914 
L 169.9225 167.551954 
L 170.7595 167.052994 
L 172.573 164.724514 
L 172.9915 164.059234 
L 176.8975 160.400194 
L 179.6875 158.071714 
L 184.1515 154.412674 
L 187.639 151.917874 
L 188.8945 151.086274 
L 191.9635 149.423074 
L 194.7535 147.427234 
L 205.216 141.772354 
L 207.0295 140.774434 
L 211.2145 138.778594 
L 215.3995 136.450114 
L 234.6505 128.466754 
L 243.16 124.974034 
L 245.8105 123.809794 
L 256.1335 119.818114 
L 264.364 117.156994 
L 267.2935 116.159074 
L 274.687 113.331634 
L 277.0585 112.500034 
L 286.2655 109.838914 
L 295.891 106.845154 
L 297.4255 106.512514 
L 300.4945 105.514594 
L 304.4005 104.516674 
L 307.4695 103.518754 
L 310.678 103.019794 
L 313.189 102.520834 
L 313.3285 102.520834 
L 314.026 102.188194 
L 314.4445 102.188194 
L 314.4445 102.188194 
L 314.4445 102.853474 
L 314.1655 103.186114 
L 314.1655 103.186114 
" style="fill:none;stroke:#e377c2;stroke-linecap:square;stroke-width:1.5;"/>
   </g>
   <g id="line2d_61">
    <path clip-path="url(#pf426c8dbf6)" d="M 155.1355 79.568674 
L 155.554 80.233954 
L 156.87925 83.643514 
L 158.2045 87.136234 
L 159.0415 88.882594 
L 160.7155 93.872194 
L 161.5525 96.200674 
L 164.0635 102.354514 
L 166.156 108.175714 
L 167.1325 111.003154 
L 168.2485 114.163234 
L 170.4805 121.148674 
L 171.178 123.310834 
L 171.3175 123.477154 
L 171.3175 124.142434 
L 171.736 124.475074 
L 171.8755 124.475074 
L 171.8755 124.807714 
L 173.2705 124.807714 
L 175.2235 124.142434 
L 177.1765 123.809794 
L 181.9195 122.479234 
L 190.2895 120.483394 
L 195.172 118.986514 
L 196.9855 118.487554 
L 205.3555 116.824354 
L 229.0705 112.167394 
L 242.4625 110.504194 
L 250.8325 109.838914 
L 280.9645 107.843074 
L 292.4035 106.845154 
L 295.7515 106.845154 
L 298.8205 106.512514 
L 309.7015 106.512514 
L 310.8175 106.179874 
L 315.0025 106.179874 
L 314.7235 106.179874 
" style="fill:none;stroke:#7f7f7f;stroke-linecap:square;stroke-width:1.5;"/>
   </g>
   <g id="line2d_62">
    <path clip-path="url(#pf426c8dbf6)" d="M 146.4865 133.456354 
L 146.55625 135.535354 
L 147.6025 141.107074 
L 148.4395 143.435554 
L 149.20675 147.094594 
L 150.6715 152.084194 
L 151.7875 155.743234 
L 152.69425 158.820154 
L 153.11275 160.732834 
L 157.0885 173.040514 
L 158.344 175.784794 
L 158.83225 176.450074 
L 159.181 176.699554 
L 159.46 176.782714 
L 159.8785 177.032194 
L 160.7155 176.616394 
L 162.6685 176.034274 
L 164.6215 175.036354 
L 166.5745 173.705794 
L 170.4805 171.709954 
L 175.2235 169.381474 
L 180.2455 166.720354 
L 184.4305 165.057154 
L 190.8475 162.063394 
L 208.4245 155.909554 
L 212.8885 154.412674 
L 226.2805 150.420994 
L 229.3495 149.423074 
L 250.2745 143.435554 
L 261.1555 140.940754 
L 264.5035 140.109154 
L 274.2685 137.448034 
L 286.5445 134.786914 
L 298.8205 131.626834 
L 302.866 130.795234 
L 304.6795 130.462594 
L 313.468 128.466754 
L 315.0025 128.134114 
L 319.7455 127.468834 
L 321.6985 127.136194 
L 323.0935 127.136194 
L 324.4885 126.803554 
L 325.6045 127.136194 
L 326.9995 127.136194 
L 326.9995 127.136194 
" style="fill:none;stroke:#bcbd22;stroke-linecap:square;stroke-width:1.5;"/>
   </g>
   <g id="line2d_63">
    <path clip-path="url(#pf426c8dbf6)" d="M 156.8095 92.874274 
L 156.8095 92.707954 
L 156.8095 92.541634 
L 157.0885 92.042674 
L 157.0885 91.876354 
L 157.0885 91.876354 
L 157.3675 91.543714 
L 157.3675 91.710034 
L 157.3675 91.876354 
L 157.6465 92.208994 
L 157.9255 93.206914 
L 159.0415 95.535394 
L 160.018 98.695474 
L 160.576 100.524994 
L 160.7155 101.190274 
L 162.529 106.179874 
L 162.9475 107.510434 
L 164.6215 111.668434 
L 165.877 114.828514 
L 166.5745 116.491714 
L 168.2485 121.148674 
L 168.8065 122.479234 
L 169.6435 125.472994 
L 171.5965 129.797314 
L 172.573 132.292114 
L 175.7815 141.439714 
L 176.0605 142.770274 
L 176.8975 144.932434 
L 177.874 147.593554 
L 178.0135 147.759874 
L 178.0135 147.593554 
L 178.0135 147.427234 
L 178.0135 147.427234 
L 178.2925 146.928274 
L 178.2925 146.429314 
L 179.269 145.098754 
L 179.4085 144.766114 
L 180.943 143.601874 
L 183.733 142.603954 
L 189.7315 141.273394 
L 190.987 141.107074 
L 191.4055 141.107074 
L 199.4965 140.109154 
L 201.1705 140.109154 
L 202.5655 139.776514 
L 207.5875 139.776514 
L 208.7035 139.443874 
L 211.2145 139.443874 
L 212.3305 139.111234 
L 217.9105 139.111234 
L 219.5845 138.778594 
L 220.9795 138.778594 
L 221.8165 138.445954 
L 222.9325 138.445954 
L 223.7695 138.113314 
L 226.5595 138.113314 
L 227.6755 137.780674 
L 229.0705 137.780674 
L 230.4655 137.448034 
L 231.8605 137.448034 
L 233.2555 137.115394 
L 235.4875 136.782754 
L 237.7195 136.782754 
L 239.6725 136.450114 
L 241.3465 136.450114 
L 245.8105 135.784834 
L 247.4845 135.452194 
L 249.1585 135.452194 
L 253.0645 134.786914 
L 255.2965 134.786914 
L 257.2495 134.454274 
L 261.7135 134.454274 
L 266.4565 133.788994 
L 268.4095 133.788994 
L 275.9425 132.791074 
L 279.8485 132.458434 
L 290.7295 131.127874 
L 296.5885 130.462594 
L 299.3785 130.462594 
L 304.1215 129.797314 
L 306.3535 129.797314 
L 310.5385 129.132034 
L 312.2125 129.132034 
L 313.8865 128.799394 
L 315.2815 128.799394 
L 316.3975 128.466754 
L 318.0715 128.466754 
L 318.6295 128.134114 
L 320.0245 128.134114 
L 320.0245 128.134114 
" style="fill:none;stroke:#17becf;stroke-linecap:square;stroke-width:1.5;"/>
   </g>
   <g id="patch_3">
    <path d="M 48.5575 280.150594 
L 48.5575 14.038594 
" style="fill:none;stroke:#000000;stroke-linecap:square;stroke-linejoin:miter;stroke-width:0.8;"/>
   </g>
   <g id="patch_4">
    <path d="M 405.6775 280.150594 
L 405.6775 14.038594 
" style="fill:none;stroke:#000000;stroke-linecap:square;stroke-linejoin:miter;stroke-width:0.8;"/>
   </g>
   <g id="patch_5">
    <path d="M 48.5575 280.150594 
L 405.6775 280.150594 
" style="fill:none;stroke:#000000;stroke-linecap:square;stroke-linejoin:miter;stroke-width:0.8;"/>
   </g>
   <g id="patch_6">
    <path d="M 48.5575 14.038594 
L 405.6775 14.038594 
" style="fill:none;stroke:#000000;stroke-linecap:square;stroke-linejoin:miter;stroke-width:0.8;"/>
   </g>
  </g>
 </g>
 <defs>
  <clipPath id="pf426c8dbf6">
   <rect height="266.112" width="357.12" x="48.5575" y="14.038594"/>
  </clipPath>
 </defs>
</svg>
