<?xml version="1.0" encoding="utf-8" standalone="no"?>
<!DOCTYPE svg PUBLIC "-//W3C//DTD SVG 1.1//EN"
  "http://www.w3.org/Graphics/SVG/1.1/DTD/svg11.dtd">
<!-- Created with matplotlib (http://matplotlib.org/) -->
<svg height="311pt" version="1.1" viewBox="0 0 430 311" width="430pt" xmlns="http://www.w3.org/2000/svg" xmlns:xlink="http://www.w3.org/1999/xlink">
 <defs>
  <style type="text/css">
*{stroke-linecap:butt;stroke-linejoin:round;}
  </style>
 </defs>
 <g id="figure_1">
  <g id="patch_1">
   
  </g>
  <g id="axes_1">
   <g id="patch_2">
    <path d="M 48.5575 280.150594 
L 405.6775 280.150594 
L 405.6775 14.038594 
L 48.5575 14.038594 
z
" style="fill:#ffffff;"/>
   </g>
   <g id="matplotlib.axis_1">
    <g id="xtick_1">
     <g id="line2d_1">
      <defs>
      
      </defs>
      <g>
       <use style="stroke:#000000;stroke-width:0.8;" x="48.5575" xlink:href="#m9e17e1c1ae" y="280.150594"/>
      </g>
     </g>
     <g id="text_1">
      <!-- 0 -->
      <defs>
       
      </defs>
      <g transform="translate(42.83125 300.827781)scale(0.18 -0.18)">
       <use xlink:href="#DejaVuSans-30"/>
      </g>
     </g>
    </g>
    <g id="xtick_2">
     <g id="line2d_2">
      <g>
       <use style="stroke:#000000;stroke-width:0.8;" x="405.6775" xlink:href="#m9e17e1c1ae" y="280.150594"/>
      </g>
     </g>
     <g id="text_2">
      <!-- 640 -->
      <defs>
       
      </defs>
      <g transform="translate(388.49875 300.827781)scale(0.18 -0.18)">
       <use xlink:href="#DejaVuSans-36"/>
       <use x="63.623047" xlink:href="#DejaVuSans-34"/>
       <use x="127.246094" xlink:href="#DejaVuSans-30"/>
      </g>
     </g>
    </g>
   </g>
   <g id="matplotlib.axis_2">
    <g id="ytick_1">
     <g id="line2d_3">
      <defs>
       
      </defs>
      <g>
       <use style="stroke:#000000;stroke-width:0.8;" x="48.5575" xlink:href="#m3f46137d9a" y="14.038594"/>
      </g>
     </g>
     <g id="text_3">
      <!-- 480 -->
      <defs>
      
      </defs>
      <g transform="translate(7.2 20.877187)scale(0.18 -0.18)">
       <use xlink:href="#DejaVuSans-34"/>
       <use x="63.623047" xlink:href="#DejaVuSans-38"/>
       <use x="127.246094" xlink:href="#DejaVuSans-30"/>
      </g>
     </g>
    </g>
   </g>
   <g id="line2d_4">
    <path clip-path="url(#pd73f30a244)" d="M 115.5175 147.094594 
L 115.737717 140.132381 
L 116.397499 133.197645 
L 117.494243 126.317754 
L 119.023619 119.519859 
L 120.979593 112.830789 
L 123.354444 106.276943 
L 126.138801 99.884186 
L 129.321675 93.677746 
L 132.890504 87.682119 
L 136.831203 81.920965 
L 141.128222 76.417022 
L 145.764601 71.192011 
L 150.722043 66.266552 
L 155.980983 61.660085 
L 161.520666 57.390789 
L 167.31923 53.475513 
L 173.35379 49.929709 
L 179.600531 46.76737 
L 186.0348 44.000977 
L 192.631203 41.641447 
L 199.363709 39.698093 
L 206.205745 38.178583 
L 213.130311 37.088916 
L 220.110078 36.43339 
L 227.1175 36.214594 
L 234.124922 36.43339 
L 241.104689 37.088916 
L 248.029255 38.178583 
L 254.871291 39.698093 
L 261.603797 41.641447 
L 268.2002 44.000977 
L 274.634469 46.76737 
L 280.88121 49.929709 
L 286.91577 53.475513 
L 292.714334 57.390789 
L 298.254017 61.660085 
L 303.512957 66.266552 
L 308.470399 71.192011 
L 313.106778 76.417022 
L 317.403797 81.920965 
L 321.344496 87.682119 
L 324.913325 93.677746 
L 328.096199 99.884186 
L 330.880556 106.276943 
L 333.255407 112.830789 
L 335.211381 119.519859 
L 336.740757 126.317754 
L 337.837501 133.197645 
L 338.497283 140.132381 
L 338.7175 147.094594 
L 338.497283 154.056807 
L 337.837501 160.991543 
L 336.740757 167.871434 
L 335.211381 174.669328 
L 333.255407 181.358398 
L 330.880556 187.912244 
L 328.096199 194.305002 
L 324.913325 200.511441 
L 321.344496 206.507069 
L 317.403797 212.268223 
L 313.106778 217.772166 
L 308.470399 222.997177 
L 303.512957 227.922635 
L 298.254017 232.529102 
L 292.714334 236.798398 
L 286.91577 240.713674 
L 280.88121 244.259478 
L 274.634469 247.421817 
L 268.2002 250.188211 
L 261.603797 252.54774 
L 254.871291 254.491095 
L 248.029255 256.010604 
L 241.104689 257.100272 
L 234.124922 257.755797 
L 227.1175 257.974594 
L 220.110078 257.755797 
L 213.130311 257.100272 
L 206.205745 256.010604 
L 199.363709 254.491095 
L 192.631203 252.54774 
L 186.0348 250.188211 
L 179.600531 247.421817 
L 173.35379 244.259478 
L 167.31923 240.713674 
L 161.520666 236.798398 
L 155.980983 232.529102 
L 150.722043 227.922635 
L 145.764601 222.997177 
L 141.128222 217.772166 
L 136.831203 212.268223 
L 132.890504 206.507069 
L 129.321675 200.511441 
L 126.138801 194.305002 
L 123.354444 187.912244 
L 120.979593 181.358398 
L 119.023619 174.669328 
L 117.494243 167.871434 
L 116.397499 160.991543 
L 115.737717 154.056807 
L 115.5175 147.094594 
" style="fill:none;stroke:#1f77b4;stroke-linecap:square;stroke-width:4;"/>
   </g>
   <g id="patch_3">
     </g>
   <g id="patch_4">
    </g>
   <g id="patch_5">
    </g>
   <g id="patch_6">
    </g>
  </g>
 </g>
 <defs>
  <clipPath id="pd73f30a244">
   <rect height="266.112" width="357.12" x="48.5575" y="14.038594"/>
  </clipPath>
 </defs>
</svg>
