<?xml version="1.0" encoding="utf-8" standalone="no"?>
<!DOCTYPE svg PUBLIC "-//W3C//DTD SVG 1.1//EN"
  "http://www.w3.org/Graphics/SVG/1.1/DTD/svg11.dtd">
<!-- Created with matplotlib (http://matplotlib.org/) -->
<svg height="311pt" version="1.1" viewBox="0 0 430 311" width="430pt" xmlns="http://www.w3.org/2000/svg" xmlns:xlink="http://www.w3.org/1999/xlink">
 <defs>
  <style type="text/css">
*{stroke-linecap:butt;stroke-linejoin:round;}
  </style>
 </defs>
 <g id="figure_1">
  <g id="patch_1">
   <path d="M 0 311.771219 
L 430.05625 311.771219 
L 430.05625 0 
L 0 0 
z
" style="fill:#ffffff;"/>
  </g>
  <g id="axes_1">
   <g id="patch_2">
    <path d="M 48.5575 280.150594 
L 405.6775 280.150594 
L 405.6775 14.038594 
L 48.5575 14.038594 
z
" style="fill:#ffffff;"/>
   </g>
   <g id="matplotlib.axis_1">
    <g id="xtick_1">
     <g id="line2d_1">
      <defs>
       <path d="M 0 0 
L 0 3.5 
" id="m4ce717244e" style="stroke:#000000;stroke-width:0.8;"/>
      </defs>
      <g>
       <use style="stroke:#000000;stroke-width:0.8;" x="48.5575" xlink:href="#m4ce717244e" y="280.150594"/>
      </g>
     </g>
     <g id="text_1">
      <!-- 0 -->
      <defs>
       <path d="M 31.78125 66.40625 
Q 24.171875 66.40625 20.328125 58.90625 
Q 16.5 51.421875 16.5 36.375 
Q 16.5 21.390625 20.328125 13.890625 
Q 24.171875 6.390625 31.78125 6.390625 
Q 39.453125 6.390625 43.28125 13.890625 
Q 47.125 21.390625 47.125 36.375 
Q 47.125 51.421875 43.28125 58.90625 
Q 39.453125 66.40625 31.78125 66.40625 
z
M 31.78125 74.21875 
Q 44.046875 74.21875 50.515625 64.515625 
Q 56.984375 54.828125 56.984375 36.375 
Q 56.984375 17.96875 50.515625 8.265625 
Q 44.046875 -1.421875 31.78125 -1.421875 
Q 19.53125 -1.421875 13.0625 8.265625 
Q 6.59375 17.96875 6.59375 36.375 
Q 6.59375 54.828125 13.0625 64.515625 
Q 19.53125 74.21875 31.78125 74.21875 
z
" id="DejaVuSans-30"/>
      </defs>
      <g transform="translate(42.83125 300.827781)scale(0.18 -0.18)">
       <use xlink:href="#DejaVuSans-30"/>
      </g>
     </g>
    </g>
    <g id="xtick_2">
     <g id="line2d_2">
      <g>
       <use style="stroke:#000000;stroke-width:0.8;" x="405.6775" xlink:href="#m4ce717244e" y="280.150594"/>
      </g>
     </g>
     <g id="text_2">
      <!-- 640 -->
      <defs>
       <path d="M 33.015625 40.375 
Q 26.375 40.375 22.484375 35.828125 
Q 18.609375 31.296875 18.609375 23.390625 
Q 18.609375 15.53125 22.484375 10.953125 
Q 26.375 6.390625 33.015625 6.390625 
Q 39.65625 6.390625 43.53125 10.953125 
Q 47.40625 15.53125 47.40625 23.390625 
Q 47.40625 31.296875 43.53125 35.828125 
Q 39.65625 40.375 33.015625 40.375 
z
M 52.59375 71.296875 
L 52.59375 62.3125 
Q 48.875 64.0625 45.09375 64.984375 
Q 41.3125 65.921875 37.59375 65.921875 
Q 27.828125 65.921875 22.671875 59.328125 
Q 17.53125 52.734375 16.796875 39.40625 
Q 19.671875 43.65625 24.015625 45.921875 
Q 28.375 48.1875 33.59375 48.1875 
Q 44.578125 48.1875 50.953125 41.515625 
Q 57.328125 34.859375 57.328125 23.390625 
Q 57.328125 12.15625 50.6875 5.359375 
Q 44.046875 -1.421875 33.015625 -1.421875 
Q 20.359375 -1.421875 13.671875 8.265625 
Q 6.984375 17.96875 6.984375 36.375 
Q 6.984375 53.65625 15.1875 63.9375 
Q 23.390625 74.21875 37.203125 74.21875 
Q 40.921875 74.21875 44.703125 73.484375 
Q 48.484375 72.75 52.59375 71.296875 
z
" id="DejaVuSans-36"/>
       <path d="M 37.796875 64.3125 
L 12.890625 25.390625 
L 37.796875 25.390625 
z
M 35.203125 72.90625 
L 47.609375 72.90625 
L 47.609375 25.390625 
L 58.015625 25.390625 
L 58.015625 17.1875 
L 47.609375 17.1875 
L 47.609375 0 
L 37.796875 0 
L 37.796875 17.1875 
L 4.890625 17.1875 
L 4.890625 26.703125 
z
" id="DejaVuSans-34"/>
      </defs>
      <g transform="translate(388.49875 300.827781)scale(0.18 -0.18)">
       <use xlink:href="#DejaVuSans-36"/>
       <use x="63.623047" xlink:href="#DejaVuSans-34"/>
       <use x="127.246094" xlink:href="#DejaVuSans-30"/>
      </g>
     </g>
    </g>
   </g>
   <g id="matplotlib.axis_2">
    <g id="ytick_1">
     <g id="line2d_3">
      <defs>
       <path d="M 0 0 
L -3.5 0 
" id="m7da65d9e2a" style="stroke:#000000;stroke-width:0.8;"/>
      </defs>
      <g>
       <use style="stroke:#000000;stroke-width:0.8;" x="48.5575" xlink:href="#m7da65d9e2a" y="14.038594"/>
      </g>
     </g>
     <g id="text_3">
      <!-- 480 -->
      <defs>
       <path d="M 31.78125 34.625 
Q 24.75 34.625 20.71875 30.859375 
Q 16.703125 27.09375 16.703125 20.515625 
Q 16.703125 13.921875 20.71875 10.15625 
Q 24.75 6.390625 31.78125 6.390625 
Q 38.8125 6.390625 42.859375 10.171875 
Q 46.921875 13.96875 46.921875 20.515625 
Q 46.921875 27.09375 42.890625 30.859375 
Q 38.875 34.625 31.78125 34.625 
z
M 21.921875 38.8125 
Q 15.578125 40.375 12.03125 44.71875 
Q 8.5 49.078125 8.5 55.328125 
Q 8.5 64.0625 14.71875 69.140625 
Q 20.953125 74.21875 31.78125 74.21875 
Q 42.671875 74.21875 48.875 69.140625 
Q 55.078125 64.0625 55.078125 55.328125 
Q 55.078125 49.078125 51.53125 44.71875 
Q 48 40.375 41.703125 38.8125 
Q 48.828125 37.15625 52.796875 32.3125 
Q 56.78125 27.484375 56.78125 20.515625 
Q 56.78125 9.90625 50.3125 4.234375 
Q 43.84375 -1.421875 31.78125 -1.421875 
Q 19.734375 -1.421875 13.25 4.234375 
Q 6.78125 9.90625 6.78125 20.515625 
Q 6.78125 27.484375 10.78125 32.3125 
Q 14.796875 37.15625 21.921875 38.8125 
z
M 18.3125 54.390625 
Q 18.3125 48.734375 21.84375 45.5625 
Q 25.390625 42.390625 31.78125 42.390625 
Q 38.140625 42.390625 41.71875 45.5625 
Q 45.3125 48.734375 45.3125 54.390625 
Q 45.3125 60.0625 41.71875 63.234375 
Q 38.140625 66.40625 31.78125 66.40625 
Q 25.390625 66.40625 21.84375 63.234375 
Q 18.3125 60.0625 18.3125 54.390625 
z
" id="DejaVuSans-38"/>
      </defs>
      <g transform="translate(7.2 20.877187)scale(0.18 -0.18)">
       <use xlink:href="#DejaVuSans-34"/>
       <use x="63.623047" xlink:href="#DejaVuSans-38"/>
       <use x="127.246094" xlink:href="#DejaVuSans-30"/>
      </g>
     </g>
    </g>
   </g>
   <g id="line2d_4">
    <path clip-path="url(#pc4462244d6)" d="M 181.6405 54.620674 
L 181.71025 56.367034 
L 183.3145 65.265154 
L 184.291 69.922114 
L 184.9885 72.416914 
L 186.03475 75.743314 
L 187.4995 81.231874 
L 188.82475 85.888834 
L 191.1265 97.198594 
L 193.219 110.753674 
L 193.84675 115.743274 
L 194.7535 121.647634 
L 195.5905 128.799394 
L 197.2645 144.433474 
L 198.1015 149.090434 
L 198.3805 154.080034 
L 199.357 160.067554 
L 200.473 169.714114 
L 201.51925 177.946954 
L 201.868 181.689154 
L 202.426 186.346114 
L 202.984 192.167314 
L 203.542 196.158994 
L 204.2395 202.479154 
L 204.658 206.304514 
L 204.7975 207.967714 
L 205.3555 210.628834 
L 205.774 214.786834 
L 206.1925 216.616354 
L 206.611 218.445874 
L 207.5875 223.601794 
L 207.8665 224.267074 
L 208.7035 229.589314 
L 208.7035 230.254594 
L 209.2615 233.082034 
L 209.2615 234.578914 
L 209.5405 235.909474 
L 209.5405 236.907394 
L 209.8195 237.572674 
L 209.8195 237.572674 
" style="fill:none;stroke:#1f77b4;stroke-linecap:square;stroke-width:1.5;"/>
   </g>
   <g id="line2d_5">
    <path clip-path="url(#pc4462244d6)" d="M 205.0765 44.974114 
L 204.5185 44.974114 
L 204.58825 45.888874 
L 204.86725 47.136274 
L 205.0765 49.381594 
L 205.14625 52.292194 
L 205.3555 55.202794 
L 205.28575 71.335834 
L 204.7975 80.899234 
L 203.33275 110.919994 
L 202.147 132.791074 
L 202.0075 135.951154 
L 201.93775 140.774434 
L 201.4495 151.252594 
L 201.37975 154.329514 
L 201.1705 157.988554 
L 201.1705 164.059234 
L 200.8915 166.720354 
L 200.8915 169.714114 
L 200.6125 174.038434 
L 200.6125 195.992674 
L 200.3335 198.321154 
L 200.3335 212.624674 
L 200.0545 216.782674 
L 200.0545 217.946914 
L 199.7755 221.605954 
L 199.7755 224.267074 
L 199.4965 226.262914 
L 199.4965 229.921954 
L 199.2175 231.252514 
L 199.2175 234.911554 
L 199.4965 236.242114 
L 199.4965 237.905314 
L 199.4965 237.905314 
" style="fill:none;stroke:#ff7f0e;stroke-linecap:square;stroke-width:1.5;"/>
   </g>
   <g id="line2d_6">
    <path clip-path="url(#pc4462244d6)" d="M 209.8195 69.922114 
L 209.74975 70.421074 
L 209.47075 71.252674 
L 208.9825 73.913794 
L 208.4245 78.903394 
L 208.49425 92.042674 
L 208.7035 95.369074 
L 208.77325 98.861794 
L 208.9825 102.687154 
L 209.05225 106.096714 
L 209.2615 109.672594 
L 209.19175 131.127874 
L 208.77325 138.362794 
L 208.7035 141.772354 
L 208.63375 145.098754 
L 207.727 160.566514 
L 206.4715 176.366914 
L 206.053 180.025954 
L 205.3555 188.341954 
L 205.3555 191.003074 
L 204.5185 201.980194 
L 204.5185 202.645474 
L 204.2395 207.801394 
L 204.2395 211.294114 
L 203.9605 213.622594 
L 203.9605 234.911554 
L 203.6815 239.734834 
L 203.6815 245.223394 
L 203.4025 247.551874 
L 203.4025 248.217154 
L 203.1235 250.046674 
L 203.1235 251.210914 
L 202.8445 251.543554 
L 202.8445 252.208834 
L 202.5655 253.539394 
L 202.5655 253.539394 
" style="fill:none;stroke:#2ca02c;stroke-linecap:square;stroke-width:1.5;"/>
   </g>
   <g id="line2d_7">
    <path clip-path="url(#pc4462244d6)" d="M 237.7195 40.317154 
L 237.23125 41.730874 
L 235.4875 47.635234 
L 234.511 50.961634 
L 233.46475 55.452274 
L 233.116 57.115474 
L 231.5815 65.597794 
L 230.81425 69.672634 
L 229.9075 75.327514 
L 228.44275 82.312954 
L 226.978 89.048914 
L 226.2805 92.208994 
L 225.4435 95.202754 
L 224.3275 100.857634 
L 222.3745 108.175714 
L 221.04925 113.581114 
L 220.1425 117.739114 
L 218.95675 121.897114 
L 217.771 127.053034 
L 217.14325 130.795234 
L 215.26 139.277554 
L 214.0045 145.098754 
L 213.028 150.919954 
L 212.3305 154.911634 
L 210.6565 165.722434 
L 210.0985 172.375234 
L 208.9825 184.017634 
L 207.8665 197.655874 
L 205.9135 215.784754 
L 205.6345 216.948994 
L 204.5185 226.928194 
L 204.2395 227.926114 
L 202.8445 238.237954 
L 202.8445 238.903234 
L 202.2865 240.233794 
L 202.2865 241.231714 
L 202.0075 241.896994 
L 202.0075 242.562274 
L 201.7285 243.227554 
L 200.8915 248.882434 
L 200.8915 248.882434 
" style="fill:none;stroke:#d62728;stroke-linecap:square;stroke-width:1.5;"/>
   </g>
   <g id="line2d_8">
    <path clip-path="url(#pc4462244d6)" d="M 203.9605 57.614434 
L 204.2395 58.279714 
L 204.2395 58.279714 
L 204.16975 78.986554 
L 203.9605 83.227714 
L 203.89075 100.940794 
L 203.6815 105.265114 
L 203.61175 109.589434 
L 203.4025 112.832674 
L 203.33275 126.637234 
L 203.1235 131.294194 
L 203.05375 136.034314 
L 202.8445 140.940754 
L 202.77475 145.431394 
L 202.5655 149.423074 
L 202.49575 153.331594 
L 202.147 158.903314 
L 202.0075 163.560274 
L 202.0075 209.630914 
L 201.7285 211.626754 
L 201.7285 226.595554 
L 201.4495 228.591394 
L 201.4495 228.591394 
" style="fill:none;stroke:#9467bd;stroke-linecap:square;stroke-width:1.5;"/>
   </g>
   <g id="line2d_9">
    <path clip-path="url(#pc4462244d6)" d="M 226.0015 45.639394 
L 225.93175 46.055194 
L 225.7225 46.304674 
L 225.7225 47.302594 
L 224.746 52.458514 
L 224.188 55.285954 
L 223.63 58.279714 
L 222.9325 62.853514 
L 221.677 70.587394 
L 220.49125 78.653914 
L 219.65425 83.477194 
L 218.608 90.545794 
L 217.9105 95.036434 
L 217.213 99.859714 
L 216.5155 104.849314 
L 216.02725 108.425194 
L 214.144 120.317074 
L 213.586 124.142434 
L 213.028 128.050954 
L 212.40025 133.040554 
L 211.4935 139.111234 
L 211.14475 142.687114 
L 210.796 147.759874 
L 210.0985 155.410594 
L 208.564 176.533234 
L 207.8665 188.674594 
L 207.0295 202.645474 
L 207.0295 206.637154 
L 206.1925 220.275394 
L 206.1925 225.264994 
L 205.9135 229.921954 
L 205.9135 236.907394 
L 205.6345 240.233794 
L 205.6345 247.551874 
L 205.3555 248.217154 
L 205.3555 249.880354 
L 205.0765 249.880354 
L 205.0765 250.545634 
L 205.0765 250.545634 
" style="fill:none;stroke:#8c564b;stroke-linecap:square;stroke-width:1.5;"/>
   </g>
   <g id="line2d_10">
    <path clip-path="url(#pc4462244d6)" d="M 170.7595 60.275554 
L 170.41075 61.772434 
L 170.2015 63.269314 
L 170.13175 67.843114 
L 169.9225 71.668474 
L 169.85275 75.909634 
L 169.6435 79.984474 
L 169.57375 87.801514 
L 169.3645 91.543714 
L 169.29475 95.535394 
L 169.0855 99.527074 
L 169.01575 103.435594 
L 168.8065 107.260954 
L 168.73675 112.084234 
L 168.2485 124.391914 
L 168.17875 130.129954 
L 167.89975 135.202714 
L 167.6905 144.183994 
L 167.62075 165.971914 
L 167.4115 169.630954 
L 167.4115 197.988514 
L 167.6905 201.314914 
L 167.6905 209.630914 
L 167.9695 212.624674 
L 167.9695 215.285794 
L 168.2485 218.279554 
L 168.2485 221.273314 
L 168.5275 223.601794 
L 168.5275 227.593474 
L 169.0855 232.250434 
L 169.0855 236.907394 
L 169.3645 240.067474 
L 169.3645 240.899074 
L 169.6435 243.560194 
L 169.6435 246.553954 
L 169.3645 247.884514 
L 169.3645 251.210914 
L 169.3645 251.210914 
" style="fill:none;stroke:#e377c2;stroke-linecap:square;stroke-width:1.5;"/>
   </g>
   <g id="line2d_11">
    <path clip-path="url(#pc4462244d6)" d="M 229.9075 62.271394 
L 229.83775 63.352474 
L 229.21 66.429394 
L 229.0705 66.928354 
L 228.44275 72.500074 
L 228.094 74.911714 
L 227.60575 77.572834 
L 226.8385 83.892994 
L 226.42 86.886754 
L 225.583 94.204834 
L 225.09475 96.865954 
L 224.3275 103.685074 
L 223.4905 108.508354 
L 223.00225 113.082154 
L 221.04925 124.225594 
L 220.282 127.219354 
L 219.724 130.795234 
L 219.5845 132.125794 
L 218.7475 134.786914 
L 218.4685 136.782754 
L 217.9105 139.111234 
L 217.6315 141.439714 
L 216.934 145.265074 
L 216.5155 148.757794 
L 215.818 152.583154 
L 214.8415 159.901234 
L 214.2835 164.059234 
L 214.0045 166.720354 
L 213.307 170.545714 
L 211.2145 188.674594 
L 211.2145 189.672514 
L 210.0985 198.321154 
L 210.0985 199.984354 
L 209.5405 202.978114 
L 209.5405 205.639234 
L 209.2615 206.969794 
L 209.2615 208.632994 
L 208.9825 209.963554 
L 208.9825 215.618434 
L 208.9825 215.618434 
" style="fill:none;stroke:#7f7f7f;stroke-linecap:square;stroke-width:1.5;"/>
   </g>
   <g id="line2d_12">
    <path clip-path="url(#pc4462244d6)" d="M 219.3055 59.277634 
L 218.4685 62.271394 
L 217.3525 68.924194 
L 216.376 74.662234 
L 213.4465 93.206914 
L 212.6095 96.865954 
L 211.7725 104.849314 
L 210.796 112.416874 
L 210.30775 117.323314 
L 209.959 122.146594 
L 207.3085 146.429314 
L 206.611 153.082114 
L 206.332 156.159034 
L 205.0765 166.720354 
L 204.5185 171.543634 
L 204.16975 174.287914 
L 203.821 177.780634 
L 203.33275 180.857554 
L 202.705 187.344034 
L 202.2865 189.339874 
L 201.4495 196.325314 
L 201.031 198.820114 
L 200.8915 199.984354 
L 200.0545 204.474994 
L 199.4965 207.635074 
L 198.52 212.624674 
L 198.3805 213.622594 
L 197.8225 215.618434 
L 197.2645 219.610114 
L 196.7065 221.605954 
L 196.288 225.264994 
L 195.5905 234.745234 
L 195.5905 237.905314 
L 195.3115 240.566434 
L 195.3115 242.894914 
L 195.0325 243.892834 
L 195.0325 244.890754 
L 194.7535 246.221314 
L 194.7535 250.878274 
L 194.7535 250.878274 
" style="fill:none;stroke:#bcbd22;stroke-linecap:square;stroke-width:1.5;"/>
   </g>
   <g id="line2d_13">
    <path clip-path="url(#pc4462244d6)" d="M 203.9605 53.622754 
L 203.89075 54.038554 
L 203.6815 54.454354 
L 203.75125 62.105074 
L 204.2395 68.591554 
L 204.86725 80.483434 
L 205.3555 90.462634 
L 205.42525 126.221434 
L 205.6345 131.959474 
L 205.70425 137.863834 
L 206.053 143.435554 
L 206.54125 148.840954 
L 206.95975 159.069634 
L 207.169 162.312874 
L 207.65725 167.468794 
L 208.49425 182.188114 
L 209.5405 197.822194 
L 210.0985 203.144434 
L 210.44725 206.387674 
L 210.86575 211.377274 
L 211.2145 215.119474 
L 211.7725 220.275394 
L 212.749 227.759794 
L 213.028 230.504074 
L 214.144 238.404274 
L 214.2835 239.901154 
L 215.9575 249.215074 
L 217.3525 257.697394 
L 217.6315 258.528994 
L 218.05 260.524834 
L 218.1895 260.857474 
L 218.1895 260.857474 
" style="fill:none;stroke:#17becf;stroke-linecap:square;stroke-width:1.5;"/>
   </g>
   <g id="line2d_14">
    <path clip-path="url(#pc4462244d6)" d="M 193.0795 58.612354 
L 193.42825 60.192394 
L 193.9165 63.601954 
L 194.26525 66.263074 
L 194.614 72.583234 
L 195.0325 83.976154 
L 194.96275 86.470954 
L 194.1955 101.689234 
L 194.12575 105.098794 
L 193.14925 120.816034 
L 192.103 135.285874 
L 191.61475 138.695434 
L 191.4055 142.271314 
L 191.33575 145.597714 
L 191.1265 148.924114 
L 191.19625 168.882514 
L 191.4055 172.125754 
L 191.4055 202.645474 
L 191.1265 208.965634 
L 191.1265 219.277474 
L 191.4055 223.435474 
L 191.4055 227.260834 
L 191.6845 230.919874 
L 191.6845 231.917794 
L 191.9635 234.246274 
L 191.9635 236.242114 
L 192.5215 243.061234 
L 192.5215 246.886594 
L 192.8005 248.716114 
L 192.8005 249.215074 
L 193.6375 253.539394 
L 193.6375 253.539394 
" style="fill:none;stroke:#1f77b4;stroke-linecap:square;stroke-width:1.5;"/>
   </g>
   <g id="line2d_15">
    <path clip-path="url(#pc4462244d6)" d="M 223.4905 49.963714 
L 223.56025 52.707994 
L 223.7695 56.865994 
L 223.69975 75.826474 
L 223.4905 79.651834 
L 223.42075 83.976154 
L 222.9325 92.957434 
L 222.9325 96.200674 
L 222.30475 102.770314 
L 221.74675 114.163234 
L 220.9795 138.445954 
L 220.90975 144.100834 
L 220.7005 148.258834 
L 220.63075 152.666314 
L 219.8635 164.059234 
L 219.3055 173.705794 
L 218.53825 179.942794 
L 217.0735 196.574794 
L 217.00375 198.903274 
L 216.7945 201.231754 
L 216.72475 203.560234 
L 216.5155 206.138194 
L 216.5155 208.965634 
L 215.9575 214.953154 
L 215.9575 217.946914 
L 215.6785 219.942754 
L 215.6785 224.599714 
L 215.3995 225.930274 
L 215.3995 228.258754 
L 215.1205 233.580994 
L 215.1205 233.580994 
" style="fill:none;stroke:#ff7f0e;stroke-linecap:square;stroke-width:1.5;"/>
   </g>
   <g id="line2d_16">
    <path clip-path="url(#pc4462244d6)" d="M 214.8415 47.967874 
L 214.77175 50.462674 
L 214.5625 52.541674 
L 214.49275 54.870154 
L 214.0045 59.610274 
L 213.93475 62.936674 
L 212.8885 73.913794 
L 212.3305 79.568674 
L 211.2145 89.714194 
L 210.44725 98.612314 
L 209.959 103.601914 
L 209.47075 106.678834 
L 208.843 113.165314 
L 208.4245 117.156994 
L 208.4245 119.818114 
L 207.8665 124.475074 
L 207.8665 127.136194 
L 207.5875 129.464674 
L 207.5875 131.793154 
L 207.3085 134.454274 
L 207.3085 158.736994 
L 207.5875 162.063394 
L 207.5875 172.042594 
L 207.8665 175.036354 
L 207.8665 183.684994 
L 208.4245 194.662114 
L 208.4245 196.325314 
L 209.5405 207.967714 
L 209.5405 211.294114 
L 209.8195 213.955234 
L 209.8195 216.283714 
L 210.0985 218.279554 
L 210.0985 220.608034 
L 210.6565 225.264994 
L 210.9355 228.258754 
L 210.9355 230.919874 
L 211.4935 234.079954 
L 211.4935 235.576834 
L 211.7725 237.406354 
L 211.7725 239.901154 
L 211.4935 241.231714 
L 211.4935 241.231714 
" style="fill:none;stroke:#2ca02c;stroke-linecap:square;stroke-width:1.5;"/>
   </g>
   <g id="line2d_17">
    <path clip-path="url(#pc4462244d6)" d="M 247.7635 50.628994 
L 247.4845 51.294274 
L 247.066 54.703834 
L 246.229 59.693434 
L 244.34575 71.585314 
L 243.997 73.664314 
L 242.7415 82.562434 
L 240.5095 98.196514 
L 239.533 106.678834 
L 238.696 116.408554 
L 237.09175 133.373194 
L 236.67325 140.524954 
L 235.41775 155.660074 
L 235.069 161.980234 
L 234.58075 168.300394 
L 233.5345 189.672514 
L 232.6975 202.312834 
L 232.1395 205.639234 
L 232.06975 209.464594 
L 231.442 215.784754 
L 231.0235 219.610114 
L 230.95375 223.435474 
L 230.7445 225.431314 
L 230.7445 235.576834 
L 230.7445 235.576834 
" style="fill:none;stroke:#d62728;stroke-linecap:square;stroke-width:1.5;"/>
   </g>
   <g id="line2d_18">
    <path clip-path="url(#pc4462244d6)" d="M 189.4525 58.944994 
L 189.38275 60.441874 
L 188.8945 64.267234 
L 188.82475 67.926274 
L 188.6155 70.670554 
L 188.54575 73.830634 
L 188.3365 77.905474 
L 188.26675 82.978234 
L 188.0575 85.888834 
L 187.98775 88.716274 
L 187.7785 92.042674 
L 187.70875 98.944954 
L 187.4995 104.350354 
L 187.42975 109.506274 
L 186.9415 123.061354 
L 186.87175 127.967794 
L 186.6625 132.707914 
L 186.59275 137.448034 
L 186.3835 141.606034 
L 186.31375 146.179834 
L 186.1045 150.670474 
L 186.17425 160.317034 
L 187.98775 190.836754 
L 188.3365 196.075834 
L 188.40625 199.069594 
L 188.6155 201.980194 
L 188.54575 213.373114 
L 188.3365 215.036314 
L 188.3365 219.277474 
L 188.0575 220.940674 
L 188.0575 222.603874 
L 187.7785 224.599714 
L 187.7785 226.595554 
L 187.4995 228.425074 
L 187.4995 228.924034 
L 187.2205 231.585154 
L 187.2205 232.250434 
L 187.2205 232.250434 
" style="fill:none;stroke:#9467bd;stroke-linecap:square;stroke-width:1.5;"/>
   </g>
   <g id="line2d_19">
    <path clip-path="url(#pc4462244d6)" d="M 218.1895 45.306754 
L 218.11975 46.055194 
L 217.9105 46.470994 
L 217.84075 47.385754 
L 217.213 50.462674 
L 216.7945 52.624834 
L 216.72475 54.620674 
L 216.2365 60.275554 
L 215.9575 63.768274 
L 215.88775 70.421074 
L 215.19025 79.901314 
L 214.144 93.373234 
L 213.865 96.533314 
L 213.586 99.527074 
L 212.53975 107.676754 
L 211.84225 117.572794 
L 211.4935 121.148674 
L 211.2145 124.807714 
L 211.14475 127.219354 
L 210.796 132.458434 
L 210.6565 133.456354 
L 210.0985 142.770274 
L 209.5405 146.096674 
L 209.5405 149.755714 
L 207.8665 172.042594 
L 207.8665 175.701634 
L 207.3085 183.019714 
L 207.3085 187.011394 
L 207.0295 193.830514 
L 207.0295 208.632994 
L 206.7505 211.959394 
L 206.7505 220.275394 
L 206.4715 222.936514 
L 206.4715 231.585154 
L 206.1925 233.580994 
L 206.1925 242.894914 
L 205.9135 243.393874 
L 205.9135 243.560194 
L 205.9135 243.560194 
" style="fill:none;stroke:#8c564b;stroke-linecap:square;stroke-width:1.5;"/>
   </g>
   <g id="line2d_20">
    <path clip-path="url(#pc4462244d6)" d="M 252.2275 47.967874 
L 251.809 49.215274 
L 251.32075 51.710074 
L 250.8325 55.951234 
L 250.414 59.610274 
L 249.7165 68.924194 
L 249.64675 74.662234 
L 249.1585 83.892994 
L 249.08875 88.050994 
L 248.8795 92.791114 
L 248.80975 97.863874 
L 248.461 106.512514 
L 248.3215 114.163234 
L 248.25175 118.487554 
L 248.0425 123.976114 
L 247.97275 130.046794 
L 247.7635 136.283794 
L 247.83325 148.674634 
L 249.7165 193.331554 
L 249.78625 203.144434 
L 249.9955 208.300354 
L 250.06525 231.169354 
L 250.2745 233.497834 
L 250.34425 239.568514 
L 250.5535 240.899074 
L 250.62325 242.395954 
L 250.8325 244.558114 
L 250.8325 246.553954 
L 251.1115 248.882434 
L 251.1115 252.208834 
L 251.53 256.200514 
L 251.6695 257.863714 
L 252.5065 263.185954 
L 252.5065 263.185954 
" style="fill:none;stroke:#e377c2;stroke-linecap:square;stroke-width:1.5;"/>
   </g>
   <g id="line2d_21">
    <path clip-path="url(#pc4462244d6)" d="M 207.5875 55.618594 
L 207.169 56.782834 
L 206.611 59.111314 
L 205.6345 65.597794 
L 205.0765 71.585314 
L 204.72775 74.994874 
L 204.5185 79.402354 
L 204.5185 82.895074 
L 203.821 92.208994 
L 202.8445 112.832674 
L 202.8445 115.161154 
L 202.21675 122.146594 
L 200.6125 154.828474 
L 200.54275 159.319114 
L 200.0545 169.215154 
L 199.98475 178.695394 
L 199.7755 182.853394 
L 199.70575 196.657954 
L 199.4965 200.649634 
L 199.42675 204.558154 
L 199.2175 208.300354 
L 199.14775 212.624674 
L 198.799 217.863754 
L 198.3805 221.605954 
L 198.31075 229.256674 
L 198.1015 232.250434 
L 198.1015 242.894914 
L 197.8225 245.057074 
L 197.8225 245.556034 
L 197.5435 246.886594 
L 197.5435 247.219234 
L 197.2645 247.718194 
L 197.2645 247.884514 
L 197.2645 247.884514 
" style="fill:none;stroke:#7f7f7f;stroke-linecap:square;stroke-width:1.5;"/>
   </g>
   <g id="line2d_22">
    <path clip-path="url(#pc4462244d6)" d="M 180.5245 68.591554 
L 180.59425 69.090514 
L 180.8035 69.589474 
L 182.7565 77.073874 
L 184.91875 83.809834 
L 185.8255 87.302554 
L 186.6625 89.547874 
L 187.918 94.703794 
L 189.1735 99.527074 
L 191.1265 107.177794 
L 191.824 110.005234 
L 191.9635 110.836834 
L 194.7535 121.481314 
L 196.009 128.134114 
L 196.846 132.458434 
L 197.2645 134.786914 
L 198.3805 139.111234 
L 200.0545 149.090434 
L 201.7285 158.071714 
L 202.984 165.556114 
L 203.542 169.714114 
L 204.7975 178.362754 
L 207.8665 195.992674 
L 208.4245 199.984354 
L 209.122 203.310754 
L 209.5405 205.971874 
L 210.0985 207.967714 
L 210.3775 209.963554 
L 211.075 213.289954 
L 211.4935 215.951074 
L 214.5625 226.595554 
L 214.8415 227.260834 
L 215.818 231.585154 
L 216.097 232.416754 
L 216.5155 234.246274 
L 216.5155 235.244194 
L 216.7945 236.075794 
L 216.7945 236.242114 
L 217.0735 236.907394 
L 217.0735 238.237954 
L 217.3525 238.570594 
L 217.3525 239.235874 
L 217.6315 239.734834 
L 217.6315 240.899074 
L 217.9105 241.398034 
L 217.9105 242.562274 
L 217.9105 242.562274 
L 218.329 243.726514 
L 218.4685 244.225474 
L 218.4685 244.225474 
" style="fill:none;stroke:#bcbd22;stroke-linecap:square;stroke-width:1.5;"/>
   </g>
   <g id="line2d_23">
    <path clip-path="url(#pc4462244d6)" d="M 232.6975 37.988674 
L 232.76725 41.897194 
L 232.9765 44.308834 
L 233.04625 47.136274 
L 233.2555 50.462674 
L 233.18575 80.982394 
L 232.9765 85.140394 
L 232.90675 88.882594 
L 232.6975 92.874274 
L 232.62775 96.949114 
L 232.4185 101.107114 
L 232.34875 104.932474 
L 232.1395 109.090474 
L 232.1395 119.485474 
L 231.8605 122.811874 
L 231.8605 156.741154 
L 231.5815 159.069634 
L 231.5815 171.709954 
L 232.1395 181.356514 
L 232.1395 183.019714 
L 232.9765 193.331554 
L 233.5345 202.312834 
L 234.0925 207.302434 
L 234.0925 210.628834 
L 234.6505 220.940674 
L 234.6505 223.601794 
L 235.2085 229.256674 
L 235.2085 231.585154 
L 235.4875 233.913634 
L 235.4875 236.242114 
L 236.0455 241.065394 
L 236.0455 241.896994 
L 236.3245 243.560194 
L 236.3245 245.556034 
L 236.8825 251.543554 
L 236.8825 251.543554 
" style="fill:none;stroke:#17becf;stroke-linecap:square;stroke-width:1.5;"/>
   </g>
   <g id="line2d_24">
    <path clip-path="url(#pc4462244d6)" d="M 241.9045 58.612354 
L 241.3465 58.944994 
L 239.60275 62.520874 
L 238.34725 66.013594 
L 237.4405 69.007354 
L 236.6035 71.252674 
L 232.6975 87.884674 
L 231.93025 90.878434 
L 231.0235 94.870114 
L 229.97725 98.861794 
L 229.3495 101.855554 
L 227.6755 107.260954 
L 223.2115 124.142434 
L 219.3055 138.445954 
L 216.7945 147.510394 
L 214.981 153.747394 
L 214.2835 156.242194 
L 213.23725 159.568594 
L 210.796 169.630954 
L 209.122 181.273354 
L 208.4245 187.011394 
L 207.93625 193.248394 
L 207.23875 200.566474 
L 206.89 206.387674 
L 206.332 211.460434 
L 206.053 214.121554 
L 205.56475 217.447954 
L 204.937 223.934434 
L 204.5185 227.926114 
L 203.9605 230.254594 
L 203.9605 232.250434 
L 203.542 236.075794 
L 203.4025 237.572674 
L 203.4025 238.237954 
L 203.1235 240.067474 
L 203.1235 240.566434 
L 202.8445 241.564354 
L 202.8445 244.225474 
L 202.5655 244.558114 
L 202.5655 245.556034 
L 202.5655 245.556034 
" style="fill:none;stroke:#1f77b4;stroke-linecap:square;stroke-width:1.5;"/>
   </g>
   <g id="line2d_25">
    <path clip-path="url(#pc4462244d6)" d="M 179.4085 65.597794 
L 179.9665 70.753714 
L 180.5245 74.911714 
L 181.78 81.231874 
L 182.40775 85.140394 
L 183.454 90.046834 
L 184.1515 93.206914 
L 185.5465 98.529154 
L 189.66175 116.075914 
L 190.5685 120.982354 
L 192.5215 129.464674 
L 193.84675 136.117474 
L 194.7535 141.439714 
L 195.79975 146.761954 
L 196.7065 153.082114 
L 197.19475 156.657994 
L 199.4965 169.714114 
L 200.473 174.371074 
L 201.31 179.610154 
L 202.147 184.682914 
L 202.5655 187.676674 
L 203.542 192.832594 
L 203.6815 193.331554 
L 204.1 196.990594 
L 205.3555 202.479154 
L 207.448 211.626754 
L 209.05225 218.778514 
L 209.2615 219.610114 
L 209.5405 222.603874 
L 210.0985 225.264994 
L 210.3775 227.926114 
L 210.9355 230.587234 
L 210.9355 232.915714 
L 212.0515 242.894914 
L 212.0515 244.225474 
L 212.3305 244.890754 
L 212.3305 246.221314 
L 212.6095 247.219234 
L 212.6095 247.219234 
" style="fill:none;stroke:#ff7f0e;stroke-linecap:square;stroke-width:1.5;"/>
   </g>
   <g id="line2d_26">
    <path clip-path="url(#pc4462244d6)" d="M 235.4875 59.942914 
L 235.55725 61.689274 
L 236.11525 65.680954 
L 236.464 68.674714 
L 239.9515 86.803594 
L 242.602 100.691314 
L 243.2995 104.516674 
L 245.113 120.150754 
L 245.671 124.308754 
L 247.2055 139.776514 
L 249.298 154.578994 
L 250.414 163.061314 
L 250.972 166.637194 
L 252.7855 182.021794 
L 254.041 189.090394 
L 254.94775 194.412634 
L 255.5755 196.657954 
L 255.8545 199.651714 
L 256.9705 203.976034 
L 257.947 209.131954 
L 259.4815 217.614274 
L 263.6665 237.905314 
L 263.9455 240.233794 
L 263.9455 242.229634 
L 265.3405 250.212994 
L 265.3405 252.541474 
L 265.3405 252.541474 
" style="fill:none;stroke:#2ca02c;stroke-linecap:square;stroke-width:1.5;"/>
   </g>
   <g id="line2d_27">
    <path clip-path="url(#pc4462244d6)" d="M 252.5065 37.988674 
L 252.7855 37.988674 
L 252.7855 38.071834 
L 252.85525 38.487634 
L 253.483 39.735034 
L 253.6225 39.984514 
L 254.4595 42.645634 
L 255.157 48.300514 
L 255.36625 50.296354 
L 255.5755 54.371194 
L 255.50575 62.936674 
L 255.2965 67.094674 
L 255.22675 71.834794 
L 254.80825 80.816074 
L 254.4595 92.208994 
L 254.38975 98.113354 
L 253.9015 107.759914 
L 253.83175 115.576954 
L 253.6225 123.144514 
L 253.55275 130.878394 
L 253.3435 135.285874 
L 253.27375 139.942834 
L 252.7855 148.924114 
L 252.7855 152.416834 
L 251.9485 164.724514 
L 251.9485 169.048834 
L 251.6695 174.371074 
L 251.6695 180.025954 
L 251.3905 186.179794 
L 251.3905 190.005154 
L 251.1115 192.666274 
L 251.1115 197.655874 
L 250.8325 199.984354 
L 250.8325 207.302434 
L 251.1115 212.957314 
L 251.1115 214.287874 
L 251.3905 216.616354 
L 251.3905 219.942754 
L 252.7855 233.747314 
L 252.7855 237.572674 
L 253.0645 239.901154 
L 253.0645 250.545634 
L 253.3435 253.206754 
L 253.3435 255.867874 
L 254.041 259.360594 
L 254.1805 260.192194 
L 254.1805 260.524834 
L 254.1805 260.524834 
" style="fill:none;stroke:#d62728;stroke-linecap:square;stroke-width:1.5;"/>
   </g>
   <g id="line2d_28">
    <path clip-path="url(#pc4462244d6)" d="M 223.4905 42.978274 
L 223.56025 43.893034 
L 223.7695 44.890954 
L 223.69975 49.880554 
L 223.4905 52.292194 
L 223.42075 55.119634 
L 222.02575 72.915874 
L 221.5375 80.233954 
L 220.282 96.865954 
L 219.79375 100.774474 
L 219.445 104.516674 
L 218.329 113.165314 
L 217.3525 123.809794 
L 216.655 129.464674 
L 214.702 151.585234 
L 214.5625 154.246354 
L 214.5625 155.410594 
L 214.0045 161.065474 
L 214.0045 163.393954 
L 213.4465 169.714114 
L 213.1675 172.042594 
L 213.1675 174.038434 
L 212.8885 176.366914 
L 212.8885 180.691234 
L 212.6095 182.687074 
L 212.6095 193.331554 
L 212.8885 195.327394 
L 212.8885 199.319074 
L 213.1675 201.314914 
L 213.1675 203.643394 
L 213.7255 207.635074 
L 213.7255 209.630914 
L 214.0045 211.959394 
L 214.0045 215.951074 
L 214.2835 217.614274 
L 214.2835 222.603874 
L 214.5625 224.267074 
L 214.5625 229.589314 
L 214.8415 230.919874 
L 214.8415 233.248354 
L 215.1205 234.246274 
L 215.1205 237.572674 
L 215.1205 237.572674 
" style="fill:none;stroke:#9467bd;stroke-linecap:square;stroke-width:1.5;"/>
   </g>
   <g id="line2d_29">
    <path clip-path="url(#pc4462244d6)" d="M 250.2745 51.959554 
L 249.9955 52.458514 
L 249.9955 52.624834 
L 248.94925 56.200714 
L 248.182 59.859754 
L 246.508 71.418994 
L 246.229 73.497994 
L 245.671 76.242274 
L 244.9735 80.732914 
L 244.48525 83.144554 
L 243.22975 91.294234 
L 242.881 94.204834 
L 242.39275 96.865954 
L 240.649 114.163234 
L 240.16075 120.649714 
L 238.20775 142.770274 
L 237.4405 149.755714 
L 236.743 153.913714 
L 236.0455 159.069634 
L 235.627 161.564434 
L 235.2085 165.057154 
L 234.511 168.882514 
L 234.3715 170.046754 
L 233.8135 172.042594 
L 232.6975 179.360674 
L 232.1395 181.356514 
L 232.1395 182.354434 
L 231.721 186.346114 
L 231.442 189.007234 
L 230.4655 196.657954 
L 230.4655 198.321154 
L 229.9075 201.980194 
L 229.9075 204.308674 
L 229.0705 208.632994 
L 229.0705 208.632994 
" style="fill:none;stroke:#8c564b;stroke-linecap:square;stroke-width:1.5;"/>
   </g>
   <g id="line2d_30">
    <path clip-path="url(#pc4462244d6)" d="M 246.9265 66.928354 
L 244.90375 77.905474 
L 243.8575 83.227714 
L 243.09025 88.217314 
L 241.207 97.697554 
L 239.9515 104.184034 
L 239.18425 110.587354 
L 238.5565 113.830594 
L 237.78925 122.146594 
L 237.51025 124.807714 
L 235.627 140.275474 
L 235.348 143.435554 
L 233.60425 156.491674 
L 232.837 165.306634 
L 232.34875 168.882514 
L 232.1395 172.292074 
L 232.1395 175.036354 
L 231.51175 179.443834 
L 230.95375 186.678754 
L 230.1865 194.994754 
L 230.11675 197.572714 
L 229.3495 204.807634 
L 229.27975 206.886634 
L 229.0705 209.215114 
L 229.00075 218.695354 
L 228.7915 220.358554 
L 228.7915 221.605954 
L 228.5125 224.599714 
L 228.5125 229.256674 
L 228.2335 231.252514 
L 228.2335 234.578914 
L 227.9545 238.237954 
L 227.9545 238.903234 
L 227.9545 238.903234 
" style="fill:none;stroke:#e377c2;stroke-linecap:square;stroke-width:1.5;"/>
   </g>
   <g id="line2d_31">
    <path clip-path="url(#pc4462244d6)" d="M 185.8255 51.959554 
L 185.75575 52.541674 
L 185.407 53.456434 
L 185.2675 53.622754 
L 184.7095 61.439794 
L 184.63975 66.179914 
L 184.4305 71.751634 
L 184.36075 74.495914 
L 184.1515 78.238114 
L 184.08175 99.610234 
L 183.8725 104.100874 
L 183.80275 108.924154 
L 183.3145 117.489634 
L 183.24475 121.481314 
L 182.338 133.290034 
L 182.1985 135.784834 
L 182.12875 138.362794 
L 181.6405 151.418914 
L 181.6405 204.308674 
L 181.3615 205.639234 
L 181.3615 207.967714 
L 181.0825 209.298274 
L 181.0825 210.961474 
L 180.8035 212.292034 
L 180.8035 214.620514 
L 180.5245 215.618434 
L 180.5245 219.277474 
L 180.2455 220.608034 
L 180.2455 223.269154 
L 180.2455 223.269154 
" style="fill:none;stroke:#7f7f7f;stroke-linecap:square;stroke-width:1.5;"/>
   </g>
   <g id="line2d_32">
    <path clip-path="url(#pc4462244d6)" d="M 186.9415 72.250594 
L 187.2205 76.075954 
L 187.2205 76.907554 
L 188.3365 84.225634 
L 191.75425 104.184034 
L 193.3585 110.670514 
L 195.3115 118.903354 
L 196.7065 124.641394 
L 197.61325 128.383594 
L 200.0545 137.448034 
L 202.2865 146.845114 
L 203.4025 152.333674 
L 205.9135 164.724514 
L 207.3085 170.379394 
L 211.7725 195.327394 
L 212.749 201.647554 
L 213.79525 206.969794 
L 214.8415 212.458354 
L 215.9575 217.946914 
L 216.2365 219.277474 
L 217.213 227.011354 
L 218.11975 233.497834 
L 218.887 240.649594 
L 219.445 244.225474 
L 220.1425 250.212994 
L 220.90975 254.370994 
L 221.677 259.194274 
L 221.8165 259.776394 
L 221.88625 260.774314 
L 222.0955 261.522754 
L 222.0955 261.522754 
" style="fill:none;stroke:#bcbd22;stroke-linecap:square;stroke-width:1.5;"/>
   </g>
   <g id="line2d_33">
    <path clip-path="url(#pc4462244d6)" d="M 181.3615 67.593634 
L 181.43125 68.508394 
L 181.6405 69.256834 
L 181.71025 71.834794 
L 181.9195 72.583234 
L 182.4775 82.229794 
L 182.54725 85.057234 
L 183.0355 91.543714 
L 183.454 99.360754 
L 183.733 102.520834 
L 184.291 109.838914 
L 184.77925 114.080074 
L 185.2675 121.813954 
L 185.89525 127.219354 
L 186.244 131.543674 
L 187.36 140.940754 
L 187.7785 146.761954 
L 188.40625 151.668394 
L 189.034 158.903314 
L 189.592 162.728674 
L 190.2895 168.383554 
L 191.1265 173.705794 
L 191.4055 177.697474 
L 193.777 192.666274 
L 194.1955 196.990594 
L 194.7535 199.319074 
L 196.7065 216.948994 
L 197.2645 222.104914 
L 197.2645 226.262914 
L 197.5435 227.926114 
L 197.5435 229.589314 
L 197.8225 232.084114 
L 197.8225 233.248354 
L 198.1015 234.911554 
L 198.1015 235.244194 
L 198.3805 236.075794 
L 198.3805 238.237954 
L 198.3805 238.237954 
" style="fill:none;stroke:#17becf;stroke-linecap:square;stroke-width:1.5;"/>
   </g>
   <g id="line2d_34">
    <path clip-path="url(#pc4462244d6)" d="M 227.9545 59.610274 
L 227.849875 60.067654 
L 227.6755 60.275554 
L 226.8385 62.936674 
L 225.1645 71.917954 
L 224.0485 79.568674 
L 222.3745 96.782794 
L 221.2585 105.098794 
L 220.21225 111.502114 
L 219.3055 118.238074 
L 218.4685 123.477154 
L 217.70125 131.793154 
L 216.934 138.445954 
L 216.30625 145.015594 
L 214.21375 159.984394 
L 213.7255 163.892914 
L 213.23725 167.551954 
L 212.47 172.208914 
L 210.30775 189.506194 
L 210.02875 192.000994 
L 208.77325 208.466674 
L 208.4245 213.456274 
L 208.4245 215.951074 
L 207.8665 221.273314 
L 207.79675 222.603874 
L 207.0295 230.753554 
L 207.09925 237.406354 
L 207.8665 243.560194 
L 207.8665 243.560194 
" style="fill:none;stroke:#1f77b4;stroke-linecap:square;stroke-width:1.5;"/>
   </g>
   <g id="line2d_35">
    <path clip-path="url(#pc4462244d6)" d="M 232.4185 57.614434 
L 232.1395 57.614434 
L 232.1395 57.697594 
L 232.1395 58.612354 
L 230.7445 63.934594 
L 229.55875 69.173674 
L 227.9545 74.579074 
L 226.141 80.317114 
L 225.583 82.229794 
L 223.14175 89.631034 
L 222.72325 90.961594 
L 217.9105 108.508354 
L 215.19025 121.647634 
L 214.0045 129.797314 
L 213.1675 133.788994 
L 211.633 144.100834 
L 211.2145 146.096674 
L 210.9355 150.420994 
L 207.3085 175.701634 
L 207.0295 177.364834 
L 205.6345 183.518674 
L 203.9605 192.000994 
L 203.263 195.327394 
L 203.1235 196.325314 
L 202.5655 197.988514 
L 202.0075 200.649634 
L 201.7285 201.647554 
L 201.1705 205.140274 
L 200.0545 211.460434 
L 199.4965 215.618434 
L 198.1015 226.928194 
L 197.404 230.254594 
L 196.4275 236.574754 
L 195.8695 240.566434 
L 194.7535 249.215074 
L 194.7535 249.215074 
" style="fill:none;stroke:#ff7f0e;stroke-linecap:square;stroke-width:1.5;"/>
   </g>
   <g id="line2d_36">
    <path clip-path="url(#pc4462244d6)" d="M 188.8945 74.911714 
L 191.4055 86.554114 
L 194.056 97.531234 
L 195.0325 101.689234 
L 196.9855 110.171554 
L 197.8225 115.161154 
L 201.1705 127.468834 
L 203.33275 136.200634 
L 204.379 140.275474 
L 206.89 150.171514 
L 208.4245 155.743234 
L 213.37675 179.859634 
L 214.2835 184.516594 
L 215.32975 189.256714 
L 216.2365 195.161074 
L 216.5155 197.323234 
L 217.771 203.310754 
L 218.39875 207.385594 
L 219.8635 214.620514 
L 220.9795 218.612194 
L 221.74675 223.435474 
L 222.6535 227.427154 
L 224.467 236.741074 
L 224.95525 238.736914 
L 225.4435 241.564354 
L 225.93175 244.391794 
L 226.141 245.389714 
L 226.699 247.718194 
L 226.8385 248.965594 
L 226.90825 250.545634 
L 227.1175 252.042514 
L 227.1175 252.208834 
L 227.1175 252.208834 
" style="fill:none;stroke:#2ca02c;stroke-linecap:square;stroke-width:1.5;"/>
   </g>
   <g id="line2d_37">
    <path clip-path="url(#pc4462244d6)" d="M 252.5065 38.321314 
L 252.57625 39.485554 
L 253.483 46.637314 
L 253.762 48.716314 
L 254.32 52.125874 
L 254.4595 53.955394 
L 254.52925 56.699674 
L 255.0175 62.687194 
L 255.08725 65.764114 
L 255.2965 69.007354 
L 255.36625 72.583234 
L 255.78475 78.820234 
L 255.8545 80.566594 
L 255.92425 84.475114 
L 256.4125 92.208994 
L 256.48225 96.200674 
L 256.6915 100.192354 
L 256.76125 104.184034 
L 256.9705 108.258874 
L 256.9705 119.485474 
L 257.2495 122.811874 
L 257.2495 132.791074 
L 257.5285 136.117474 
L 257.5285 150.420994 
L 257.8075 154.080034 
L 257.8075 171.377314 
L 258.0865 174.703714 
L 258.0865 214.287874 
L 257.8075 220.608034 
L 257.8075 231.252514 
L 258.0865 233.248354 
L 258.0865 243.560194 
L 257.8075 246.553954 
L 257.2495 248.882434 
L 257.2495 248.882434 
" style="fill:none;stroke:#d62728;stroke-linecap:square;stroke-width:1.5;"/>
   </g>
   <g id="line2d_38">
    <path clip-path="url(#pc4462244d6)" d="M 222.3745 67.260994 
L 222.30475 70.920034 
L 221.8165 76.907554 
L 221.18875 81.647674 
L 220.84 85.805674 
L 220.35175 89.547874 
L 220.003 93.539554 
L 219.51475 97.697554 
L 219.166 102.271354 
L 218.67775 106.761994 
L 218.329 111.668434 
L 217.84075 116.408554 
L 217.213 126.387754 
L 216.72475 131.460514 
L 215.9575 144.267154 
L 215.3995 150.753634 
L 215.05075 154.745314 
L 214.423 164.724514 
L 213.865 171.044674 
L 213.586 174.620554 
L 212.6095 183.352354 
L 212.191 191.169394 
L 211.633 196.657954 
L 210.796 207.551914 
L 210.30775 211.127794 
L 209.68 217.447954 
L 209.2615 220.608034 
L 208.564 225.680794 
L 208.35475 227.510314 
L 207.8665 232.583074 
L 207.3085 236.907394 
L 207.23875 239.319034 
L 207.0295 240.982234 
L 207.0295 253.872034 
L 207.0295 253.872034 
" style="fill:none;stroke:#9467bd;stroke-linecap:square;stroke-width:1.5;"/>
   </g>
   <g id="line2d_39">
    <path clip-path="url(#pc4462244d6)" d="M 245.2525 48.965794 
L 245.18275 49.547914 
L 244.9735 50.296354 
L 244.90375 58.944994 
L 244.6945 61.606114 
L 244.6945 94.870114 
L 244.4155 100.192354 
L 244.4155 101.522914 
L 244.1365 104.184034 
L 244.1365 106.845154 
L 243.8575 109.838914 
L 243.8575 118.487554 
L 243.5785 121.481314 
L 243.5785 138.445954 
L 243.2995 142.104994 
L 243.2995 155.410594 
L 243.0205 159.402274 
L 243.0205 166.055074 
L 242.7415 169.714114 
L 242.7415 176.366914 
L 242.4625 180.857554 
L 242.4625 233.913634 
L 242.7415 235.244194 
L 242.7415 238.570594 
L 243.0205 241.231714 
L 243.0205 242.894914 
L 243.2995 244.724434 
L 243.2995 247.219234 
L 243.0205 247.551874 
L 243.0205 248.882434 
L 243.0205 248.882434 
" style="fill:none;stroke:#8c564b;stroke-linecap:square;stroke-width:1.5;"/>
   </g>
   <g id="line2d_40">
    <path clip-path="url(#pc4462244d6)" d="M 232.1395 45.972034 
L 232.06975 46.554154 
L 231.79075 47.801554 
L 231.5815 49.714234 
L 231.51175 51.460594 
L 230.95375 56.034394 
L 230.7445 59.028154 
L 230.67475 62.105074 
L 230.4655 65.431474 
L 230.39575 71.834794 
L 230.1865 75.826474 
L 230.11675 86.387794 
L 229.9075 93.040594 
L 229.83775 96.200674 
L 229.6285 100.275514 
L 229.55875 104.682994 
L 229.0705 114.329554 
L 229.00075 118.903354 
L 228.094 134.620594 
L 227.6755 141.439714 
L 226.76875 155.493754 
L 226.42 163.144474 
L 225.862 169.880434 
L 225.583 173.788954 
L 225.1645 178.030114 
L 225.1645 183.019714 
L 224.53675 189.589354 
L 224.188 194.495794 
L 223.7695 197.988514 
L 223.2115 206.304514 
L 220.9795 222.770194 
L 219.8635 229.256674 
L 219.5845 231.252514 
L 219.0265 233.248354 
L 218.4685 237.572674 
L 217.9105 239.568514 
L 217.9105 241.231714 
L 217.3525 242.562274 
L 216.5155 246.720274 
L 216.5155 247.219234 
L 215.9575 248.050834 
L 215.9575 248.217154 
L 215.6785 248.217154 
L 215.6785 248.217154 
" style="fill:none;stroke:#e377c2;stroke-linecap:square;stroke-width:1.5;"/>
   </g>
   <g id="line2d_41">
    <path clip-path="url(#pc4462244d6)" d="M 207.5875 65.265154 
L 207.169 65.930434 
L 206.95975 66.678874 
L 205.9135 73.581154 
L 205.6345 77.739154 
L 205.56475 81.315034 
L 205.3555 85.473034 
L 205.42525 119.485474 
L 205.6345 123.560314 
L 205.70425 137.448034 
L 205.9135 141.522874 
L 205.84375 161.647594 
L 205.6345 165.472954 
L 205.56475 169.630954 
L 205.3555 173.373154 
L 205.28575 185.348194 
L 205.0765 189.838834 
L 205.0765 194.329474 
L 205.3555 202.479154 
L 205.3555 207.302434 
L 205.6345 210.628834 
L 205.6345 213.622594 
L 206.4715 221.938594 
L 206.4715 224.267074 
L 206.7505 226.262914 
L 206.7505 231.917794 
L 206.4715 233.580994 
L 206.4715 236.907394 
L 206.1925 239.901154 
L 206.1925 244.890754 
L 205.9135 246.221314 
L 205.9135 247.884514 
L 205.6345 248.549794 
L 205.6345 248.549794 
" style="fill:none;stroke:#7f7f7f;stroke-linecap:square;stroke-width:1.5;"/>
   </g>
   <g id="line2d_42">
    <path clip-path="url(#pc4462244d6)" d="M 189.4525 47.967874 
L 189.52225 48.716314 
L 190.0105 51.127954 
L 191.4055 57.364954 
L 191.9635 59.527114 
L 192.8005 62.271394 
L 194.4745 70.587394 
L 196.009 76.907554 
L 196.846 81.398194 
L 197.5435 85.057234 
L 198.9385 91.211074 
L 200.12425 97.364914 
L 200.8915 101.190274 
L 202.5655 109.506274 
L 204.2395 121.398154 
L 205.3555 129.132034 
L 207.79675 142.687114 
L 209.68 156.075874 
L 211.075 165.389794 
L 211.70275 170.712034 
L 213.7255 184.183954 
L 214.5625 190.670434 
L 216.44575 207.302434 
L 217.70125 223.684954 
L 217.9105 226.678714 
L 217.98025 229.672474 
L 218.329 232.666234 
L 218.81725 235.659994 
L 219.5845 243.227554 
L 222.0955 257.531074 
L 222.793 262.520674 
L 223.2115 265.181794 
L 223.2115 265.181794 
" style="fill:none;stroke:#bcbd22;stroke-linecap:square;stroke-width:1.5;"/>
   </g>
   <g id="line2d_43">
    <path clip-path="url(#pc4462244d6)" d="M 231.8605 47.635234 
L 231.5815 49.464754 
L 231.5815 49.963714 
L 230.1865 58.612354 
L 228.094 70.254754 
L 227.46625 74.329594 
L 226.5595 79.568674 
L 225.025 89.797354 
L 223.83925 96.865954 
L 222.9325 102.520834 
L 220.90975 111.169474 
L 216.86425 130.961554 
L 214.77175 142.021834 
L 212.3305 154.911634 
L 210.238 169.048834 
L 209.959 171.460474 
L 209.47075 174.454234 
L 208.843 180.524914 
L 208.35475 183.851314 
L 207.727 190.171474 
L 207.23875 193.497874 
L 206.89 198.487474 
L 206.7505 200.982274 
L 206.1925 204.641314 
L 205.9135 207.967714 
L 205.9135 211.626754 
L 205.3555 218.612194 
L 205.3555 224.267074 
L 205.0765 226.928194 
L 205.0765 229.256674 
L 204.7975 231.585154 
L 204.7975 233.913634 
L 204.5185 236.242114 
L 204.5185 238.237954 
L 204.2395 240.233794 
L 204.2395 242.229634 
L 203.9605 244.558114 
L 203.9605 245.888674 
L 203.6815 246.553954 
L 203.4025 248.217154 
L 203.4025 248.217154 
" style="fill:none;stroke:#17becf;stroke-linecap:square;stroke-width:1.5;"/>
   </g>
   <g id="line2d_44">
    <path clip-path="url(#pc4462244d6)" d="M 257.8075 61.273474 
L 257.73775 62.105074 
L 257.45875 62.936674 
L 257.2495 63.934594 
L 257.31925 72.416914 
L 257.5285 75.660154 
L 257.59825 79.152874 
L 257.8075 84.391954 
L 257.73775 97.032274 
L 256.552 120.150754 
L 255.8545 130.795234 
L 255.78475 136.117474 
L 253.9015 164.558194 
L 253.83175 166.221394 
L 253.0645 176.034274 
L 253.0645 179.028034 
L 252.7855 181.356514 
L 252.7855 184.682914 
L 252.5065 187.344034 
L 252.5065 190.005154 
L 252.2275 192.998914 
L 252.2275 205.971874 
L 252.5065 206.969794 
L 252.5065 212.624674 
L 252.7855 214.620514 
L 252.7855 216.616354 
L 253.0645 218.612194 
L 253.0645 222.603874 
L 253.3435 224.599714 
L 253.3435 236.574754 
L 253.0645 238.903234 
L 253.0645 240.233794 
L 252.7855 240.899074 
L 252.7855 242.562274 
L 252.7855 242.562274 
" style="fill:none;stroke:#1f77b4;stroke-linecap:square;stroke-width:1.5;"/>
   </g>
   <g id="line2d_45">
    <path clip-path="url(#pc4462244d6)" d="M 246.6475 52.957474 
L 246.57775 54.703834 
L 245.8105 58.612354 
L 244.6945 64.932514 
L 243.8575 71.418994 
L 243.0205 76.242274 
L 242.602 80.067634 
L 240.99775 89.880514 
L 240.649 93.789034 
L 239.9515 98.861794 
L 239.533 102.936634 
L 238.8355 110.670514 
L 236.3245 132.125794 
L 235.55725 137.032234 
L 234.79 140.774434 
L 234.16225 144.766114 
L 233.395 148.757794 
L 232.1395 157.073794 
L 228.5125 178.196434 
L 228.094 180.358594 
L 227.1175 186.845074 
L 226.8385 187.676674 
L 226.5595 190.337794 
L 226.5595 192.998914 
L 226.2805 194.994754 
L 226.2805 196.990594 
L 226.0015 198.653794 
L 226.0015 202.645474 
L 225.7225 204.641314 
L 225.7225 209.630914 
L 225.4435 212.292034 
L 225.4435 215.951074 
L 225.1645 216.283714 
L 225.1645 217.946914 
L 224.8855 219.610114 
L 224.8855 219.610114 
" style="fill:none;stroke:#ff7f0e;stroke-linecap:square;stroke-width:1.5;"/>
   </g>
   <g id="line2d_46">
    <path clip-path="url(#pc4462244d6)" d="M 237.4405 62.271394 
L 236.8825 63.934594 
L 236.464 66.928354 
L 235.069 73.082194 
L 234.511 75.327514 
L 233.116 82.229794 
L 231.442 89.714194 
L 230.884 92.042674 
L 230.4655 94.537474 
L 229.3495 97.531234 
L 227.6755 104.516674 
L 225.4435 112.500034 
L 224.188 118.986514 
L 221.8165 129.132034 
L 218.1895 143.269234 
L 217.9105 144.766114 
L 217.0735 147.427234 
L 216.097 151.585234 
L 214.8415 155.743234 
L 211.4935 166.387714 
L 210.9355 169.048834 
L 210.0985 171.377314 
L 209.122 175.036354 
L 208.4245 177.531154 
L 208.1455 178.695394 
L 207.0295 182.021794 
L 205.0765 189.339874 
L 203.9605 193.664194 
L 203.1235 197.655874 
L 202.8445 200.649634 
L 202.2865 203.643394 
L 201.7285 208.300354 
L 198.9385 222.437554 
L 198.6595 223.269154 
L 197.5435 229.256674 
L 197.2645 231.086194 
L 197.2645 231.585154 
L 196.846 233.082034 
L 196.7065 233.248354 
L 196.7065 234.246274 
L 196.4275 234.911554 
L 196.1485 236.574754 
L 196.1485 236.907394 
L 195.8695 238.237954 
L 195.8695 239.235874 
L 195.5905 239.901154 
L 195.5905 241.231714 
L 195.3115 242.229634 
L 195.3115 243.560194 
L 195.0325 244.890754 
L 195.0325 246.553954 
L 194.7535 247.884514 
L 193.3585 251.876194 
L 193.3585 251.876194 
" style="fill:none;stroke:#2ca02c;stroke-linecap:square;stroke-width:1.5;"/>
   </g>
   <g id="line2d_47">
    <path clip-path="url(#pc4462244d6)" d="M 175.2235 66.595714 
L 175.5025 66.928354 
L 175.5025 68.258914 
L 176.0605 69.922114 
L 176.54875 73.082194 
L 178.0135 78.570754 
L 180.2455 86.221474 
L 183.8725 100.192354 
L 186.1045 108.508354 
L 187.15075 112.915834 
L 188.0575 117.240154 
L 189.10375 121.564474 
L 191.1265 131.460514 
L 191.89375 134.953234 
L 193.0795 140.940754 
L 193.84675 144.682954 
L 195.0325 151.086274 
L 196.77625 159.901234 
L 198.241 167.136154 
L 206.4715 201.065434 
L 207.727 206.304514 
L 210.0985 217.946914 
L 210.9355 223.269154 
L 212.0515 228.591394 
L 213.865 240.067474 
L 214.2835 245.556034 
L 214.5625 250.212994 
L 214.5625 255.202594 
L 214.2835 255.701554 
L 214.2835 255.867874 
L 214.2835 255.867874 
L 214.0045 255.368914 
L 214.0045 255.202594 
L 214.0045 255.202594 
" style="fill:none;stroke:#d62728;stroke-linecap:square;stroke-width:1.5;"/>
   </g>
   <g id="line2d_48">
    <path clip-path="url(#pc4462244d6)" d="M 181.3615 73.581154 
L 181.6405 74.246434 
L 182.059 77.489674 
L 182.7565 80.067634 
L 183.0355 80.899234 
L 183.5935 84.225634 
L 185.5465 90.878434 
L 186.3835 93.705874 
L 187.918 99.693394 
L 190.2895 108.508354 
L 192.17275 116.408554 
L 193.0795 120.067594 
L 194.12575 123.726634 
L 195.0325 127.385674 
L 195.8695 130.129954 
L 197.33425 137.198554 
L 202.0075 157.905394 
L 202.984 162.894994 
L 203.542 165.722434 
L 204.16975 169.714114 
L 205.9135 177.531154 
L 207.09925 181.356514 
L 212.0515 199.984354 
L 213.028 203.144434 
L 215.3995 211.959394 
L 216.5155 217.780594 
L 217.9105 225.597634 
L 218.4685 230.254594 
L 219.3055 235.576834 
L 219.3055 236.907394 
L 219.5845 238.736914 
L 219.5845 239.235874 
L 219.8635 240.566434 
L 219.8635 240.899074 
L 220.282 242.063314 
L 220.4215 242.229634 
L 220.4215 243.560194 
L 220.7005 244.059154 
L 220.7005 244.890754 
L 220.9795 245.223394 
L 221.2585 246.221314 
L 221.2585 246.221314 
" style="fill:none;stroke:#9467bd;stroke-linecap:square;stroke-width:1.5;"/>
   </g>
   <g id="line2d_49">
    <path clip-path="url(#pc4462244d6)" d="M 251.1115 57.947074 
L 250.5535 59.277634 
L 249.9955 62.604034 
L 248.67025 67.260994 
L 247.066 75.244354 
L 246.229 80.566594 
L 245.8105 82.895074 
L 245.392 88.383634 
L 244.90375 92.957434 
L 244.4155 98.861794 
L 243.997 103.601914 
L 243.439 111.086314 
L 241.9045 125.805634 
L 241.6255 131.127874 
L 240.5095 140.275474 
L 239.3935 152.583154 
L 238.8355 159.568594 
L 237.859 168.466714 
L 236.81275 177.364834 
L 236.464 181.439674 
L 235.906 186.512434 
L 235.348 192.915754 
L 234.79 197.156914 
L 233.8135 208.300354 
L 233.74375 210.961474 
L 233.2555 216.616354 
L 233.18575 229.173514 
L 232.9765 231.501994 
L 232.9765 235.244194 
L 232.6975 237.240034 
L 232.6975 241.564354 
L 232.4185 244.225474 
L 232.4185 245.556034 
L 232.1395 246.886594 
L 232.1395 249.547714 
L 232.1395 249.547714 
" style="fill:none;stroke:#8c564b;stroke-linecap:square;stroke-width:1.5;"/>
   </g>
   <g id="line2d_50">
    <path clip-path="url(#pc4462244d6)" d="M 220.4215 59.942914 
L 219.93325 61.772434 
L 219.8635 61.938754 
L 218.7475 76.242274 
L 218.67775 82.562434 
L 218.4685 86.470954 
L 218.39875 94.537474 
L 218.1895 98.695474 
L 218.11975 103.269274 
L 217.9105 107.759914 
L 217.84075 112.915834 
L 217.3525 121.148674 
L 217.0735 126.304594 
L 217.0735 127.468834 
L 216.5155 136.283794 
L 216.44575 139.527034 
L 216.02725 149.256754 
L 215.9575 151.585234 
L 215.88775 156.242194 
L 213.865 188.175634 
L 213.7255 190.919914 
L 213.65575 194.495794 
L 212.8885 204.391834 
L 212.8885 207.635074 
L 212.3305 216.948994 
L 212.3305 218.944834 
L 212.0515 220.608034 
L 212.0515 222.271234 
L 211.7725 223.601794 
L 211.7725 228.258754 
L 211.4935 229.589314 
L 211.4935 230.919874 
L 211.2145 233.248354 
L 211.2145 237.572674 
L 210.9355 239.235874 
L 210.9355 244.890754 
L 210.6565 247.219234 
L 210.6565 249.215074 
L 210.0985 253.206754 
L 210.0985 253.206754 
" style="fill:none;stroke:#e377c2;stroke-linecap:square;stroke-width:1.5;"/>
   </g>
   <g id="line2d_51">
    <path clip-path="url(#pc4462244d6)" d="M 186.3835 57.281794 
L 186.3835 57.614434 
L 186.31375 57.614434 
L 186.1045 57.614434 
L 186.1045 57.697594 
L 186.03475 59.776594 
L 185.8255 61.938754 
L 185.89525 74.745394 
L 186.1045 78.071794 
L 186.17425 91.377394 
L 186.3835 94.786954 
L 186.31375 134.204794 
L 186.1045 138.695434 
L 186.03475 143.518714 
L 185.8255 147.926194 
L 185.75575 152.333674 
L 185.2675 159.984394 
L 185.19775 163.643434 
L 184.849 169.215154 
L 184.7095 173.872114 
L 184.63975 180.109114 
L 184.4305 183.186034 
L 184.4305 191.003074 
L 184.7095 195.161074 
L 184.7095 202.312834 
L 184.9885 205.971874 
L 184.9885 209.630914 
L 185.2675 212.292034 
L 185.2675 216.616354 
L 185.5465 218.612194 
L 185.5465 220.608034 
L 185.8255 222.936514 
L 185.8255 226.595554 
L 186.1045 227.926114 
L 186.1045 230.587234 
L 186.3835 233.248354 
L 186.3835 233.248354 
" style="fill:none;stroke:#7f7f7f;stroke-linecap:square;stroke-width:1.5;"/>
   </g>
   <g id="line2d_52">
    <path clip-path="url(#pc4462244d6)" d="M 180.8035 57.281794 
L 180.385 57.947074 
L 179.269 60.857674 
L 178.2925 63.934594 
L 177.4555 69.256834 
L 177.10675 70.836874 
L 176.3395 78.071794 
L 176.26975 79.818154 
L 176.0605 80.566594 
L 175.7815 85.389874 
L 175.71175 87.219394 
L 175.5025 90.046834 
L 175.43275 93.373234 
L 174.9445 99.527074 
L 174.87475 104.599834 
L 174.6655 109.007314 
L 174.59575 124.142434 
L 174.3865 129.298354 
L 174.31675 139.693354 
L 174.1075 147.759874 
L 174.03775 163.809754 
L 173.8285 167.967754 
L 173.8285 192.000994 
L 174.1075 195.327394 
L 174.1075 198.653794 
L 174.6655 207.136114 
L 174.6655 208.632994 
L 175.2235 215.951074 
L 175.2235 221.605954 
L 175.5025 224.267074 
L 175.5025 232.583074 
L 176.0605 239.235874 
L 176.0605 243.227554 
L 176.8975 252.874114 
L 176.8975 252.874114 
" style="fill:none;stroke:#bcbd22;stroke-linecap:square;stroke-width:1.5;"/>
   </g>
   <g id="line2d_53">
    <path clip-path="url(#pc4462244d6)" d="M 206.1925 46.304674 
L 205.774 46.969954 
L 205.6345 47.302594 
L 205.0765 55.285954 
L 205.00675 75.410674 
L 204.7975 78.820234 
L 204.72775 82.479274 
L 204.5185 86.055154 
L 204.44875 89.547874 
L 204.2395 93.456394 
L 204.16975 97.281754 
L 203.1235 115.161154 
L 203.1235 117.156994 
L 202.35625 127.302514 
L 201.1705 148.425154 
L 201.10075 151.834714 
L 200.6125 163.061314 
L 200.68225 175.618474 
L 200.8915 179.194354 
L 200.96125 182.520754 
L 201.4495 189.506194 
L 201.4495 194.329474 
L 202.0075 200.649634 
L 202.0075 207.635074 
L 202.2865 210.961474 
L 202.2865 234.911554 
L 202.5655 239.235874 
L 202.5655 239.235874 
" style="fill:none;stroke:#17becf;stroke-linecap:square;stroke-width:1.5;"/>
   </g>
   <g id="line2d_54">
    <path clip-path="url(#pc4462244d6)" d="M 195.5905 67.926274 
L 195.66025 74.579074 
L 196.4275 80.899234 
L 196.846 84.059314 
L 197.404 89.298394 
L 199.915 103.352434 
L 204.5185 130.129954 
L 205.6345 135.951154 
L 206.12275 138.612274 
L 206.7505 141.107074 
L 208.7035 152.915794 
L 210.9355 165.389794 
L 212.0515 172.042594 
L 212.6095 175.368994 
L 213.7255 180.192274 
L 214.981 187.510354 
L 215.3995 191.003074 
L 215.9575 193.331554 
L 216.5155 196.990594 
L 217.0735 202.978114 
L 217.6315 204.973954 
L 218.4685 211.626754 
L 219.0265 213.622594 
L 219.5845 217.614274 
L 220.1425 219.942754 
L 220.7005 223.768114 
L 221.5375 228.591394 
L 221.956 232.416754 
L 222.0955 233.248354 
L 222.0955 234.911554 
L 222.3745 236.574754 
L 222.3745 238.237954 
L 222.6535 240.067474 
L 222.6535 241.896994 
L 222.9325 243.726514 
L 222.9325 246.553954 
L 222.9325 246.553954 
" style="fill:none;stroke:#1f77b4;stroke-linecap:square;stroke-width:1.5;"/>
   </g>
   <g id="line2d_55">
    <path clip-path="url(#pc4462244d6)" d="M 241.3465 68.258914 
L 240.2305 71.252674 
L 238.76575 78.321274 
L 237.9985 81.231874 
L 237.23125 84.225634 
L 235.2085 93.373234 
L 234.0925 98.279674 
L 231.5815 110.504194 
L 231.0235 112.832674 
L 228.931 124.475074 
L 228.2335 128.466754 
L 224.746 145.597714 
L 221.8165 162.396034 
L 220.9795 165.389794 
L 219.166 175.701634 
L 218.4685 179.526994 
L 216.5155 191.668354 
L 215.539 197.988514 
L 215.26 200.067514 
L 212.749 213.123634 
L 212.6095 213.622594 
L 212.53975 215.784754 
L 211.7725 221.772274 
L 211.7725 222.603874 
L 211.4935 223.934434 
L 211.4935 225.597634 
L 211.2145 228.425074 
L 211.2145 228.924034 
L 210.9355 232.084114 
L 210.9355 234.246274 
L 210.6565 236.574754 
L 210.6565 237.240034 
L 210.3775 239.402194 
L 210.3775 241.231714 
L 210.0985 243.393874 
L 210.0985 243.892834 
L 209.401 247.551874 
L 208.9825 248.383474 
L 208.7035 248.882434 
L 208.7035 248.882434 
" style="fill:none;stroke:#ff7f0e;stroke-linecap:square;stroke-width:1.5;"/>
   </g>
   <g id="line2d_56">
    <path clip-path="url(#pc4462244d6)" d="M 232.6975 48.300514 
L 232.279 48.965794 
L 231.721 50.545834 
L 231.37225 51.793234 
L 229.55875 58.612354 
L 229.21 59.942914 
L 227.60575 67.177834 
L 226.5595 71.252674 
L 225.304 77.739154 
L 224.746 80.566594 
L 223.4905 87.053074 
L 222.9325 90.545794 
L 215.6785 134.454274 
L 215.1205 138.778594 
L 214.0045 143.768194 
L 213.4465 148.425154 
L 210.6565 164.391874 
L 209.68 170.213074 
L 209.2615 173.040514 
L 207.5875 181.522834 
L 205.774 191.502034 
L 205.0765 197.988514 
L 204.5185 203.477074 
L 204.5185 204.641314 
L 204.1 209.963554 
L 203.9605 213.289954 
L 203.9605 218.279554 
L 203.6815 221.439634 
L 203.6815 222.271234 
L 203.4025 223.601794 
L 203.4025 225.264994 
L 202.5655 230.919874 
L 202.5655 235.244194 
L 202.2865 236.574754 
L 202.2865 237.572674 
L 202.0075 238.237954 
L 202.0075 238.903234 
L 201.7285 239.734834 
L 201.7285 239.901154 
L 201.7285 239.901154 
L 201.4495 239.402194 
L 201.4495 239.235874 
L 201.4495 239.235874 
" style="fill:none;stroke:#2ca02c;stroke-linecap:square;stroke-width:1.5;"/>
   </g>
   <g id="line2d_57">
    <path clip-path="url(#pc4462244d6)" d="M 176.3395 72.915874 
L 176.40925 74.080114 
L 176.82775 76.574914 
L 177.874 82.063474 
L 178.22275 83.726674 
L 178.99 87.053074 
L 179.827 91.377394 
L 180.31525 93.955354 
L 180.664 96.949114 
L 181.6405 102.188194 
L 182.059 107.260954 
L 182.7565 113.497954 
L 183.175 118.820194 
L 183.454 122.229754 
L 183.94225 126.637234 
L 184.4305 133.123714 
L 185.8255 151.003114 
L 185.89525 152.499994 
L 186.6625 159.734914 
L 187.2205 165.057154 
L 187.918 174.371074 
L 188.0575 175.701634 
L 188.755 179.859634 
L 189.7315 187.177714 
L 190.15 189.339874 
L 190.8475 193.830514 
L 191.266 195.992674 
L 191.4055 196.990594 
L 192.8005 202.645474 
L 193.0795 204.973954 
L 193.6375 207.302434 
L 193.9165 209.963554 
L 194.7535 214.287874 
L 195.172 217.281634 
L 195.8695 224.100754 
L 195.8695 225.264994 
L 196.1485 227.260834 
L 196.1485 229.256674 
L 196.4275 231.917794 
L 196.4275 245.556034 
L 196.4275 245.556034 
" style="fill:none;stroke:#d62728;stroke-linecap:square;stroke-width:1.5;"/>
   </g>
   <g id="line2d_58">
    <path clip-path="url(#pc4462244d6)" d="M 237.7195 47.302594 
L 237.78925 50.712154 
L 237.9985 52.458514 
L 238.06825 56.865994 
L 238.2775 59.194474 
L 238.20775 70.254754 
L 237.9985 74.080114 
L 237.92875 80.067634 
L 237.7195 83.394034 
L 237.64975 90.213154 
L 237.4405 94.038514 
L 237.4405 96.533314 
L 236.3245 111.834754 
L 235.7665 115.493794 
L 235.2085 122.811874 
L 234.6505 126.803554 
L 234.3715 130.462594 
L 233.674 136.616434 
L 233.395 141.439714 
L 232.9765 148.092514 
L 232.1395 161.398114 
L 232.1395 173.373154 
L 231.8605 176.699554 
L 231.8605 200.982274 
L 231.5815 203.976034 
L 231.5815 229.256674 
L 231.3025 231.917794 
L 231.3025 245.223394 
L 231.5815 246.886594 
L 231.5815 251.210914 
L 231.5815 251.210914 
" style="fill:none;stroke:#9467bd;stroke-linecap:square;stroke-width:1.5;"/>
   </g>
   <g id="line2d_59">
    <path clip-path="url(#pc4462244d6)" d="M 221.8165 44.308834 
L 221.74675 46.720474 
L 220.561 58.695514 
L 220.07275 61.689274 
L 219.166 70.587394 
L 218.7475 73.913794 
L 218.67775 78.487594 
L 218.4685 82.146634 
L 218.39875 93.456394 
L 218.1895 97.115434 
L 218.11975 118.570714 
L 217.9105 122.978194 
L 217.98025 146.595634 
L 218.1895 150.005194 
L 218.25925 156.574834 
L 218.7475 163.227634 
L 218.81725 166.720354 
L 219.3055 172.541554 
L 219.5845 176.366914 
L 219.5845 177.364834 
L 220.4215 185.348194 
L 220.84 189.007234 
L 221.8165 199.651714 
L 222.3745 204.973954 
L 222.9325 207.302434 
L 223.7695 214.620514 
L 225.1645 223.601794 
L 225.1645 226.262914 
L 225.7225 232.084114 
L 225.7225 235.576834 
L 226.2805 240.899074 
L 226.2805 244.225474 
L 227.1175 249.547714 
L 228.5125 255.535234 
L 228.5125 255.535234 
" style="fill:none;stroke:#8c564b;stroke-linecap:square;stroke-width:1.5;"/>
   </g>
   <g id="line2d_60">
    <path clip-path="url(#pc4462244d6)" d="M 230.7445 54.620674 
L 230.4655 55.119634 
L 230.4655 55.285954 
L 229.69825 57.863914 
L 228.652 62.770354 
L 227.3965 69.589474 
L 226.90825 73.830634 
L 226.21075 78.487594 
L 225.862 82.229794 
L 225.37375 86.138314 
L 224.95525 90.545794 
L 224.188 96.117514 
L 223.7695 97.863874 
L 222.0955 113.165314 
L 220.84 119.984434 
L 219.79375 127.967794 
L 217.70125 142.271314 
L 216.934 146.928274 
L 216.2365 152.001034 
L 213.307 168.217234 
L 212.6095 171.709954 
L 212.3305 173.373154 
L 211.2145 177.697474 
L 208.1455 192.333634 
L 207.8665 194.994754 
L 207.169 199.319074 
L 206.4715 205.140274 
L 206.053 207.967714 
L 205.0765 216.782674 
L 204.7975 218.279554 
L 204.5185 222.603874 
L 203.9605 226.595554 
L 203.542 231.585154 
L 202.147 240.899074 
L 202.0075 241.231714 
L 201.1705 247.551874 
L 200.8915 248.383474 
L 200.8915 248.882434 
L 200.6125 249.381394 
L 200.6125 249.547714 
L 200.6125 249.547714 
L 200.3335 249.547714 
L 200.3335 249.547714 
" style="fill:none;stroke:#e377c2;stroke-linecap:square;stroke-width:1.5;"/>
   </g>
   <g id="line2d_61">
    <path clip-path="url(#pc4462244d6)" d="M 215.1205 49.298434 
L 215.015875 55.784914 
L 214.8415 59.776594 
L 214.736875 64.017754 
L 213.307 89.547874 
L 213.028 94.620634 
L 212.53975 101.689234 
L 211.4935 131.793154 
L 211.56325 160.067554 
L 211.98175 174.786874 
L 212.0515 181.190194 
L 212.12125 192.832594 
L 212.3305 198.653794 
L 212.40025 203.892874 
L 212.6095 208.882474 
L 212.67925 213.872074 
L 212.8885 218.695354 
L 212.95825 223.019674 
L 213.307 227.177674 
L 213.79525 230.753554 
L 214.0045 233.913634 
L 214.07425 236.325274 
L 214.2835 238.071634 
L 214.2835 239.568514 
L 214.2835 239.568514 
" style="fill:none;stroke:#7f7f7f;stroke-linecap:square;stroke-width:1.5;"/>
   </g>
   <g id="line2d_62">
    <path clip-path="url(#pc4462244d6)" d="M 184.4305 67.926274 
L 184.50025 68.425234 
L 184.7095 68.924194 
L 185.19775 72.250594 
L 187.918 84.724594 
L 188.476 87.552034 
L 189.4525 94.204834 
L 190.2895 97.863874 
L 191.4055 104.932474 
L 192.87025 112.915834 
L 193.498 115.992754 
L 194.1955 119.485474 
L 196.1485 131.793154 
L 196.567 136.699594 
L 201.4495 169.381474 
L 203.1235 182.021794 
L 203.6815 186.346114 
L 203.9605 188.009314 
L 204.2395 191.335714 
L 204.937 195.992674 
L 205.0765 197.323234 
L 205.6345 199.651714 
L 206.1925 204.308674 
L 206.89 207.635074 
L 207.169 210.296194 
L 207.3085 211.959394 
L 207.8665 213.955234 
L 209.5405 226.595554 
L 210.0985 231.585154 
L 210.0985 232.250434 
L 210.3775 233.913634 
L 210.3775 235.576834 
L 210.6565 237.240034 
L 210.6565 239.235874 
L 210.9355 240.233794 
L 210.9355 241.564354 
L 211.2145 242.894914 
L 211.2145 243.227554 
L 211.7725 246.221314 
L 212.0515 248.549794 
L 212.0515 248.549794 
" style="fill:none;stroke:#bcbd22;stroke-linecap:square;stroke-width:1.5;"/>
   </g>
   <g id="line2d_63">
    <path clip-path="url(#pc4462244d6)" d="M 196.7065 56.283874 
L 196.9855 56.782834 
L 197.05525 57.032314 
L 197.2645 57.281794 
L 197.8225 59.443954 
L 198.1015 60.275554 
L 198.3805 62.604034 
L 199.2175 65.265154 
L 202.0075 82.562434 
L 204.2395 99.194434 
L 205.56475 109.672594 
L 206.82025 117.156994 
L 207.169 119.734954 
L 208.1455 127.468834 
L 209.122 135.202714 
L 209.88925 142.603954 
L 210.238 147.427234 
L 210.86575 154.412674 
L 213.4465 190.337794 
L 214.8415 204.308674 
L 215.26 207.468754 
L 215.3995 208.965634 
L 216.097 213.289954 
L 216.2365 214.620514 
L 216.7945 217.281634 
L 217.0735 220.275394 
L 217.771 223.934434 
L 218.1895 227.593474 
L 218.4685 229.921954 
L 219.0265 231.917794 
L 219.8635 242.894914 
L 219.8635 246.886594 
L 219.8635 246.886594 
L 219.5845 246.886594 
L 219.5845 246.886594 
" style="fill:none;stroke:#17becf;stroke-linecap:square;stroke-width:1.5;"/>
   </g>
   <g id="patch_3">
    <path d="M 48.5575 280.150594 
L 48.5575 14.038594 
" style="fill:none;stroke:#000000;stroke-linecap:square;stroke-linejoin:miter;stroke-width:0.8;"/>
   </g>
   <g id="patch_4">
    <path d="M 405.6775 280.150594 
L 405.6775 14.038594 
" style="fill:none;stroke:#000000;stroke-linecap:square;stroke-linejoin:miter;stroke-width:0.8;"/>
   </g>
   <g id="patch_5">
    <path d="M 48.5575 280.150594 
L 405.6775 280.150594 
" style="fill:none;stroke:#000000;stroke-linecap:square;stroke-linejoin:miter;stroke-width:0.8;"/>
   </g>
   <g id="patch_6">
    <path d="M 48.5575 14.038594 
L 405.6775 14.038594 
" style="fill:none;stroke:#000000;stroke-linecap:square;stroke-linejoin:miter;stroke-width:0.8;"/>
   </g>
  </g>
 </g>
 <defs>
  <clipPath id="pc4462244d6">
   <rect height="266.112" width="357.12" x="48.5575" y="14.038594"/>
  </clipPath>
 </defs>
</svg>
