<?xml version="1.0" encoding="utf-8" standalone="no"?>
<!DOCTYPE svg PUBLIC "-//W3C//DTD SVG 1.1//EN"
  "http://www.w3.org/Graphics/SVG/1.1/DTD/svg11.dtd">
<!-- Created with matplotlib (http://matplotlib.org/) -->
<svg height="311pt" version="1.1" viewBox="0 0 430 311" width="430pt" xmlns="http://www.w3.org/2000/svg" xmlns:xlink="http://www.w3.org/1999/xlink">
 <defs>
  <style type="text/css">
*{stroke-linecap:butt;stroke-linejoin:round;}
  </style>
 </defs>
 <g id="figure_1">
  <g id="patch_1">
   
  </g>
  <g id="axes_1">
   <g id="patch_2">

   </g>
   <g id="matplotlib.axis_1">
    <g id="xtick_1">
     <g id="line2d_1">
      <defs>
       
      </defs>
      <g>
       <use style="stroke:#000000;stroke-width:0.8;" x="48.5575" xlink:href="#mbc858b0a97" y="280.150594"/>
      </g>
     </g>
     <g id="text_1">
      <!-- 0 -->
      <defs>
      
      </defs>
      <g transform="translate(42.83125 300.827781)scale(0.18 -0.18)">
       <use xlink:href="#DejaVuSans-30"/>
      </g>
     </g>
    </g>
    <g id="xtick_2">
     <g id="line2d_2">
      <g>
       <use style="stroke:#000000;stroke-width:0.8;" x="405.6775" xlink:href="#mbc858b0a97" y="280.150594"/>
      </g>
     </g>
     <g id="text_2">
      <!-- 640 -->
      <defs>
      
      </defs>
      <g transform="translate(388.49875 300.827781)scale(0.18 -0.18)">
       <use xlink:href="#DejaVuSans-36"/>
       <use x="63.623047" xlink:href="#DejaVuSans-34"/>
       <use x="127.246094" xlink:href="#DejaVuSans-30"/>
      </g>
     </g>
    </g>
   </g>
   <g id="matplotlib.axis_2">
    <g id="ytick_1">
     <g id="line2d_3">
      <defs>
      
      </defs>
      <g>
       <use style="stroke:#000000;stroke-width:0.8;" x="48.5575" xlink:href="#m9194ae6d90" y="14.038594"/>
      </g>
     </g>
     <g id="text_3">
      <!-- 480 -->
      <defs>
      
      </defs>
      <g transform="translate(7.2 20.877187)scale(0.18 -0.18)">
       <use xlink:href="#DejaVuSans-34"/>
       <use x="63.623047" xlink:href="#DejaVuSans-38"/>
       <use x="127.246094" xlink:href="#DejaVuSans-30"/>
      </g>
     </g>
    </g>
   </g>
   <g id="line2d_4">
    <path clip-path="url(#pe5d9980527)" d="M 115.5175 144.100834 
L 115.2385 144.100834 
L 115.378 144.100834 
L 115.378 144.100834 
L 118.5865 144.017674 
L 120.2605 143.768194 
L 127.30525 143.685034 
L 130.8625 143.269234 
L 131.6995 143.102914 
L 136.65175 143.019754 
L 138.1165 142.770274 
L 159.8785 142.770274 
L 169.57375 143.685034 
L 172.08475 143.934514 
L 178.92025 144.599794 
L 187.2205 145.764034 
L 213.1675 147.926194 
L 222.3745 148.757794 
L 229.6285 148.757794 
L 233.2555 149.090434 
L 240.2305 149.090434 
L 247.066 149.423074 
L 251.9485 149.423074 
L 255.715 149.090434 
L 256.4125 149.090434 
L 262.8295 148.425154 
L 268.6885 147.260914 
L 273.4315 146.096674 
L 280.6855 144.100834 
L 290.1715 141.107074 
L 296.3095 138.445954 
L 298.8205 137.115394 
L 303.145 135.119554 
L 305.7955 133.788994 
L 307.1905 133.123714 
L 311.0965 131.793154 
L 313.6075 131.127874 
L 318.769 129.963634 
L 321.9775 129.630994 
L 323.9305 129.464674 
L 326.1625 129.797314 
L 331.4635 130.296274 
L 332.5795 130.462594 
L 338.4385 130.462594 
L 339.8335 130.129954 
L 341.2285 129.464674 
L 342.0655 128.300434 
L 342.0655 128.134114 
L 342.0655 128.134114 
" style="fill:none;stroke:#1f77b4;stroke-linecap:square;stroke-width:1.5;"/>
   </g>
   <g id="line2d_5">
    <path clip-path="url(#pe5d9980527)" d="M 130.8625 139.776514 
L 131.9785 139.443874 
L 142.72 139.360714 
L 145.6495 138.944914 
L 148.92775 138.362794 
L 152.0665 137.946994 
L 155.4145 137.364874 
L 163.7845 136.450114 
L 166.8535 136.034314 
L 175.57225 135.452194 
L 180.31525 135.369034 
L 187.4995 134.953234 
L 194.4745 134.537434 
L 195.5905 134.454274 
L 204.44875 134.786914 
L 205.0765 134.786914 
L 215.1205 136.200634 
L 219.445 136.616434 
L 223.42075 137.198554 
L 235.27825 138.030154 
L 240.02125 138.362794 
L 241.0675 138.445954 
L 247.83325 139.527034 
L 251.53 139.942834 
L 259.27225 141.190234 
L 263.17825 141.522874 
L 264.2245 141.772354 
L 268.33975 141.855514 
L 271.4785 142.104994 
L 274.75675 142.188154 
L 277.0585 142.437634 
L 287.59075 142.354474 
L 293.5195 141.772354 
L 296.3095 141.107074 
L 302.4475 140.441794 
L 313.6075 140.441794 
L 318.6295 140.940754 
L 322.2565 141.439714 
L 322.8145 141.439714 
L 324.4885 141.772354 
L 325.8835 142.437634 
L 325.8835 142.437634 
" style="fill:none;stroke:#ff7f0e;stroke-linecap:square;stroke-width:1.5;"/>
   </g>
   <g id="line2d_6">
    <path clip-path="url(#pe5d9980527)" d="M 104.3575 133.788994 
L 104.776 134.121634 
L 105.4735 134.204794 
L 107.1475 134.620594 
L 108.47275 134.786914 
L 109.9375 134.786914 
L 111.8905 135.119554 
L 114.4015 135.119554 
L 116.6335 135.452194 
L 128.0725 135.452194 
L 130.5835 135.119554 
L 134.2105 135.119554 
L 136.4425 134.786914 
L 141.4645 134.786914 
L 144.2545 135.119554 
L 155.9725 135.119554 
L 157.9255 135.452194 
L 160.1575 135.452194 
L 162.3895 136.117474 
L 166.5745 136.782754 
L 172.4335 138.445954 
L 176.0605 139.443874 
L 178.5715 140.109154 
L 182.1985 141.107074 
L 186.1045 142.104994 
L 189.7315 143.102914 
L 192.8005 143.601874 
L 195.8695 144.433474 
L 198.3805 145.098754 
L 205.216 146.096674 
L 207.5875 146.429314 
L 208.1455 146.429314 
L 210.9355 146.761954 
L 217.3525 146.761954 
L 227.9545 145.431394 
L 232.4185 145.431394 
L 236.8825 145.098754 
L 240.2305 145.098754 
L 241.6255 145.431394 
L 244.6945 145.431394 
L 247.7635 146.096674 
L 251.1115 146.429314 
L 254.4595 147.094594 
L 260.3185 147.593554 
L 261.1555 147.759874 
L 270.9205 147.759874 
L 277.6165 147.094594 
L 287.1025 145.098754 
L 290.1715 144.433474 
L 292.9615 143.435554 
L 296.0305 142.770274 
L 298.2625 141.772354 
L 301.3315 140.774434 
L 308.3065 138.113314 
L 313.3285 136.450114 
L 315.2815 136.117474 
L 316.9555 136.117474 
L 318.6295 135.784834 
L 320.0245 136.117474 
L 321.4195 136.117474 
L 323.0935 136.450114 
L 324.4885 136.450114 
L 325.6045 136.782754 
L 326.4415 136.782754 
L 327.2785 137.115394 
L 328.9525 137.115394 
L 328.9525 137.115394 
" style="fill:none;stroke:#2ca02c;stroke-linecap:square;stroke-width:1.5;"/>
   </g>
   <g id="line2d_7">
    <path clip-path="url(#pe5d9980527)" d="M 122.2135 112.500034 
L 122.2135 112.832674 
L 123.19 113.830594 
L 124.1665 114.495874 
L 125.0035 114.911674 
L 127.2355 115.493794 
L 132.397 116.159074 
L 141.95275 116.075914 
L 146.83525 115.826434 
L 157.71625 115.743274 
L 161.48275 115.493794 
L 179.1295 115.493794 
L 185.2675 116.159074 
L 190.5685 116.491714 
L 205.6345 116.491714 
L 209.5405 116.824354 
L 215.6785 117.822274 
L 217.9105 118.487554 
L 222.0955 119.485474 
L 228.094 121.481314 
L 229.9075 122.146594 
L 237.4405 124.142434 
L 241.6255 125.472994 
L 245.2525 126.138274 
L 248.8795 127.136194 
L 252.7855 127.801474 
L 258.6445 129.298354 
L 264.2245 130.462594 
L 267.8515 131.127874 
L 275.9425 131.127874 
L 280.4065 130.462594 
L 283.1965 130.462594 
L 285.9865 129.797314 
L 291.2875 129.132034 
L 298.5415 127.801474 
L 303.703 126.304594 
L 305.2375 125.805634 
L 307.1905 124.807714 
L 309.7015 124.142434 
L 311.6545 123.144514 
L 318.0715 120.483394 
L 318.6295 120.150754 
L 327.2785 117.489634 
L 329.2315 116.824354 
L 330.9055 116.491714 
L 332.5795 115.826434 
L 335.3695 115.161154 
L 335.6485 115.161154 
L 339.2755 114.495874 
L 339.8335 114.495874 
L 340.9495 114.163234 
L 342.6235 114.495874 
L 342.6235 114.495874 
" style="fill:none;stroke:#d62728;stroke-linecap:square;stroke-width:1.5;"/>
   </g>
   <g id="line2d_8">
    <path clip-path="url(#pe5d9980527)" d="M 118.5865 174.703714 
L 118.65625 175.119514 
L 119.1445 175.535314 
L 120.46975 176.200594 
L 121.237 176.450074 
L 122.98075 176.699554 
L 124.93375 176.616394 
L 126.74725 176.366914 
L 127.7935 176.366914 
L 130.65325 175.618474 
L 133.234 175.202674 
L 136.024 174.454234 
L 138.1165 173.705794 
L 142.3015 172.791034 
L 146.7655 171.543634 
L 148.7185 171.044674 
L 159.3205 169.963594 
L 160.9945 169.714114 
L 167.4115 169.714114 
L 176.6185 170.712034 
L 180.385 171.294154 
L 188.6155 173.040514 
L 198.58975 175.202674 
L 206.89 176.450074 
L 213.7255 177.032194 
L 217.3525 177.032194 
L 220.9795 176.699554 
L 224.8855 176.699554 
L 231.8605 176.034274 
L 234.9295 175.368994 
L 238.8355 175.036354 
L 241.9045 175.036354 
L 245.5315 174.703714 
L 248.8795 174.703714 
L 252.2275 174.371074 
L 255.5755 174.703714 
L 260.8765 174.703714 
L 263.6665 175.036354 
L 271.7575 175.036354 
L 282.0805 174.204754 
L 289.0555 173.373154 
L 294.0775 172.042594 
L 298.8205 171.377314 
L 301.0525 170.712034 
L 309.9805 169.381474 
L 313.468 168.549874 
L 316.3975 168.050914 
L 318.0715 168.050914 
L 320.3035 167.385634 
L 321.1405 167.385634 
L 323.6515 166.886674 
L 324.4885 166.554034 
L 324.907 166.387714 
L 325.0465 166.387714 
L 325.0465 166.387714 
" style="fill:none;stroke:#9467bd;stroke-linecap:square;stroke-width:1.5;"/>
   </g>
   <g id="line2d_9">
    <path clip-path="url(#pe5d9980527)" d="M 132.8155 137.780674 
L 132.88525 138.196474 
L 133.0945 138.445954 
L 134.2105 138.778594 
L 137.8375 139.111234 
L 142.72 138.612274 
L 148.4395 138.113314 
L 159.5995 135.784834 
L 170.82925 133.788994 
L 171.8755 133.788994 
L 180.2455 132.791074 
L 184.9885 132.707914 
L 188.40625 132.458434 
L 194.4745 132.458434 
L 201.868 132.957394 
L 208.1455 133.456354 
L 208.9825 133.456354 
L 212.6095 133.788994 
L 217.9105 133.788994 
L 223.909 133.456354 
L 224.8855 133.456354 
L 253.204 130.961554 
L 264.2245 130.129954 
L 269.8045 130.462594 
L 273.7105 130.462594 
L 277.0585 130.795234 
L 286.8235 130.795234 
L 289.6135 130.462594 
L 295.1935 130.462594 
L 297.7045 130.129954 
L 299.9365 130.129954 
L 302.4475 130.462594 
L 310.8175 130.462594 
L 312.7705 130.129954 
L 314.7235 130.129954 
L 318.6295 129.464674 
L 319.1875 129.464674 
L 321.559 128.799394 
L 321.9775 128.799394 
L 323.0935 128.466754 
L 323.9305 128.466754 
L 323.9305 128.466754 
L 324.2095 128.134114 
L 324.2095 128.134114 
L 324.4885 128.466754 
L 324.4885 128.466754 
" style="fill:none;stroke:#8c564b;stroke-linecap:square;stroke-width:1.5;"/>
   </g>
   <g id="line2d_10">
    <path clip-path="url(#pe5d9980527)" d="M 125.2825 109.838914 
L 124.4455 109.838914 
L 125.0035 109.838914 
L 125.0035 109.838914 
L 126.18925 109.755754 
L 127.2355 109.506274 
L 130.0255 109.423114 
L 135.187 108.757834 
L 140.6275 108.175714 
L 161.06425 108.258874 
L 173.131 109.007314 
L 177.7345 109.506274 
L 182.4775 109.589434 
L 184.1515 109.838914 
L 192.94 109.922074 
L 198.799 110.337874 
L 203.6815 110.504194 
L 235.2085 110.504194 
L 238.5565 110.171554 
L 244.9735 110.171554 
L 248.0425 109.838914 
L 254.4595 109.838914 
L 264.2245 109.173634 
L 265.8985 108.840994 
L 269.2465 108.508354 
L 272.3155 107.843074 
L 278.4535 106.845154 
L 286.2655 105.181954 
L 292.1245 104.017714 
L 293.5195 103.851394 
L 296.5885 103.186114 
L 299.3785 102.853474 
L 303.5635 102.853474 
L 307.1905 102.520834 
L 312.2125 102.853474 
L 313.3285 102.853474 
L 318.3505 103.518754 
L 323.9305 103.518754 
L 324.349 103.186114 
L 324.4885 103.186114 
L 324.7675 102.853474 
L 324.7675 102.853474 
" style="fill:none;stroke:#e377c2;stroke-linecap:square;stroke-width:1.5;"/>
   </g>
   <g id="line2d_11">
    <path clip-path="url(#pe5d9980527)" d="M 125.0035 111.169474 
L 125.0035 111.502114 
L 127.86325 111.585274 
L 130.37425 111.834754 
L 133.513 111.917914 
L 143.6965 112.500034 
L 166.22575 112.416874 
L 176.758 111.668434 
L 191.4055 110.254714 
L 211.7725 107.676754 
L 223.2115 106.845154 
L 227.3965 106.179874 
L 245.8105 101.855554 
L 247.7635 101.522914 
L 251.3905 100.524994 
L 262.5505 98.529154 
L 266.1775 98.529154 
L 267.8515 98.196514 
L 284.8705 99.859714 
L 288.2185 100.524994 
L 292.9615 100.857634 
L 297.4255 101.522914 
L 302.1685 101.522914 
L 304.6795 101.855554 
L 308.0275 101.855554 
L 310.8175 101.522914 
L 313.3285 101.522914 
L 316.3975 101.190274 
L 318.9085 101.190274 
L 323.0935 100.524994 
L 326.7205 100.192354 
L 329.5105 100.192354 
L 330.9055 99.859714 
L 335.3695 99.859714 
L 342.763 98.861794 
L 348.7615 98.861794 
L 348.7615 98.529154 
L 348.7615 98.529154 
" style="fill:none;stroke:#7f7f7f;stroke-linecap:square;stroke-width:1.5;"/>
   </g>
   <g id="line2d_12">
    <path clip-path="url(#pe5d9980527)" d="M 112.1695 101.855554 
L 111.8905 101.855554 
L 112.03 101.855554 
L 112.03 101.855554 
L 117.1915 101.855554 
L 119.1445 102.188194 
L 129.4675 102.188194 
L 137.8375 101.190274 
L 150.9505 99.859714 
L 161.2735 99.859714 
L 167.6905 100.524994 
L 171.0385 101.190274 
L 174.1075 101.522914 
L 180.106 102.520834 
L 188.8945 103.851394 
L 190.5685 104.184034 
L 193.6375 104.184034 
L 199.7755 104.849314 
L 202.2865 104.849314 
L 208.1455 105.514594 
L 216.655 106.678834 
L 218.887 107.011474 
L 224.0485 108.175714 
L 227.1175 108.508354 
L 229.9075 109.506274 
L 231.5815 109.838914 
L 237.7195 111.834754 
L 240.7885 113.165314 
L 245.95 114.994834 
L 246.6475 115.161154 
L 249.4375 116.159074 
L 254.1805 116.990674 
L 255.5755 117.156994 
L 258.3655 117.156994 
L 261.4345 117.489634 
L 264.2245 117.489634 
L 270.0835 117.156994 
L 271.4785 117.156994 
L 276.7795 116.491714 
L 287.1025 114.828514 
L 289.6135 114.329554 
L 293.5195 113.830594 
L 296.3095 113.497954 
L 298.5415 113.497954 
L 301.3315 113.165314 
L 313.8865 113.165314 
L 316.3975 112.832674 
L 318.9085 112.832674 
L 321.6985 113.165314 
L 324.4885 113.165314 
L 330.0685 113.497954 
L 335.0905 113.497954 
L 337.6015 113.830594 
L 339.5545 113.497954 
L 341.2285 113.497954 
L 343.1815 113.830594 
L 346.2505 113.830594 
L 348.064 114.163234 
L 349.5985 114.163234 
L 349.5985 114.163234 
" style="fill:none;stroke:#bcbd22;stroke-linecap:square;stroke-width:1.5;"/>
   </g>
   <g id="line2d_13">
    <path clip-path="url(#pe5d9980527)" d="M 121.3765 153.414754 
L 121.3765 154.080034 
L 125.49175 155.161114 
L 126.3985 155.410594 
L 129.7465 155.743234 
L 134.55925 155.244274 
L 144.115 153.830554 
L 149.06725 152.915794 
L 157.9255 151.751554 
L 165.7375 151.252594 
L 185.8255 148.757794 
L 194.893 147.676714 
L 199.84525 147.260914 
L 211.4935 145.680874 
L 215.88775 145.265074 
L 220.561 144.599794 
L 230.605 143.435554 
L 235.348 142.770274 
L 238.8355 142.271314 
L 239.6725 142.104994 
L 243.5785 141.606034 
L 244.4155 141.439714 
L 255.715 140.275474 
L 265.0615 139.443874 
L 282.3595 137.448034 
L 283.7545 137.448034 
L 288.2185 136.782754 
L 291.0085 136.782754 
L 295.054 136.450114 
L 295.7515 136.450114 
L 300.355 136.117474 
L 308.3065 136.117474 
L 311.3755 136.450114 
L 322.5355 138.778594 
L 325.0465 139.443874 
L 329.5105 140.441794 
L 334.5325 140.441794 
L 335.0905 140.109154 
L 335.0905 140.109154 
" style="fill:none;stroke:#17becf;stroke-linecap:square;stroke-width:1.5;"/>
   </g>
   <g id="line2d_14">
    <path clip-path="url(#pe5d9980527)" d="M 114.9595 156.408514 
L 115.378 156.741154 
L 115.5175 156.741154 
L 116.773 157.655914 
L 120.2605 159.734914 
L 123.0505 160.732834 
L 128.3515 161.813914 
L 135.11725 162.396034 
L 145.0915 162.312874 
L 153.53125 161.730754 
L 158.2045 161.647594 
L 167.48125 161.065474 
L 190.49875 161.148634 
L 198.6595 161.897074 
L 204.7975 162.396034 
L 213.4465 163.061314 
L 218.67775 163.144474 
L 231.442 164.059234 
L 238.90525 163.976074 
L 258.9235 162.063394 
L 260.8765 161.730754 
L 269.944 160.732834 
L 282.22 158.404354 
L 285.4285 157.739074 
L 294.0775 156.741154 
L 295.4725 156.741154 
L 301.3315 156.242194 
L 310.5385 155.077954 
L 313.0495 154.412674 
L 315.8395 154.080034 
L 320.0245 152.749474 
L 322.5355 152.416834 
L 325.8835 151.086274 
L 326.7205 151.086274 
L 328.534 150.088354 
L 329.371 149.755714 
L 329.5105 149.755714 
L 329.5105 149.755714 
" style="fill:none;stroke:#1f77b4;stroke-linecap:square;stroke-width:1.5;"/>
   </g>
   <g id="line2d_15">
    <path clip-path="url(#pe5d9980527)" d="M 126.1195 109.506274 
L 123.81775 111.003154 
L 122.911 111.585274 
L 122.28325 112.084234 
L 122.28325 112.250554 
L 122.911 112.832674 
L 124.7245 114.163234 
L 127.2355 115.161154 
L 136.1635 116.159074 
L 140.55775 115.743274 
L 151.2295 115.161154 
L 153.043 115.077994 
L 156.87925 114.828514 
L 159.5995 114.828514 
L 161.5525 114.495874 
L 165.4585 114.495874 
L 169.9225 114.163234 
L 178.2925 114.163234 
L 182.4775 113.830594 
L 186.3835 113.830594 
L 191.4055 113.497954 
L 204.5185 113.497954 
L 208.4245 113.830594 
L 216.2365 114.329554 
L 217.3525 114.495874 
L 221.2585 114.828514 
L 225.7225 115.493794 
L 229.3495 116.491714 
L 236.0455 117.822274 
L 241.6255 118.820194 
L 245.5315 119.152834 
L 248.8795 119.818114 
L 253.0645 120.150754 
L 270.6415 120.150754 
L 277.198 120.483394 
L 278.7325 120.483394 
L 282.0805 120.150754 
L 285.1495 120.150754 
L 297.9835 118.653874 
L 301.3315 118.154914 
L 303.2845 117.822274 
L 305.5165 117.822274 
L 308.0275 117.156994 
L 312.7705 116.491714 
L 315.0025 115.826434 
L 318.769 115.161154 
L 321.4195 114.662194 
L 325.3255 114.163234 
L 325.8835 114.163234 
L 327.2785 113.830594 
L 328.9525 113.830594 
L 331.7425 113.165314 
L 332.8585 113.165314 
L 334.8115 112.500034 
L 335.9275 111.502114 
L 336.2065 111.169474 
L 336.2065 111.169474 
" style="fill:none;stroke:#ff7f0e;stroke-linecap:square;stroke-width:1.5;"/>
   </g>
   <g id="line2d_16">
    <path clip-path="url(#pe5d9980527)" d="M 109.6585 172.042594 
L 109.72825 172.458394 
L 110.356 173.040514 
L 111.12325 173.539474 
L 115.378 175.535314 
L 119.1445 177.032194 
L 128.3515 179.028034 
L 138.3955 180.025954 
L 149.695 181.023874 
L 152.9035 181.356514 
L 155.4145 181.356514 
L 163.5055 182.021794 
L 167.4115 182.021794 
L 175.7815 182.687074 
L 179.6875 182.687074 
L 186.523 183.186034 
L 187.4995 183.352354 
L 191.6845 183.684994 
L 197.8225 184.682914 
L 203.6815 185.348194 
L 207.0295 186.346114 
L 214.2835 187.676674 
L 219.724 189.173554 
L 221.2585 189.672514 
L 229.0705 191.169394 
L 230.7445 191.335714 
L 233.8135 192.000994 
L 235.2085 192.000994 
L 238.8355 192.333634 
L 241.6255 192.333634 
L 245.2525 192.666274 
L 254.1805 192.666274 
L 262.132 191.502034 
L 277.756 187.842994 
L 279.0115 187.676674 
L 282.9175 186.678754 
L 286.5445 185.680834 
L 290.032 184.849234 
L 291.0085 184.682914 
L 295.4725 183.352354 
L 297.4255 183.019714 
L 299.0995 182.354434 
L 302.4475 181.689154 
L 304.9585 181.689154 
L 307.4695 181.356514 
L 308.0275 181.356514 
L 313.3285 180.358594 
L 314.1655 180.025954 
L 318.6295 179.028034 
L 319.7455 178.695394 
L 320.8615 178.695394 
L 322.2565 178.362754 
L 324.628 177.531154 
L 325.744 177.364834 
L 326.1625 177.364834 
L 327.2785 176.699554 
L 328.1155 176.699554 
L 328.3945 176.366914 
L 328.9525 176.366914 
L 329.371 176.034274 
L 329.5105 176.034274 
L 329.5105 175.701634 
L 329.7895 175.368994 
L 330.3475 173.705794 
L 330.3475 173.705794 
" style="fill:none;stroke:#2ca02c;stroke-linecap:square;stroke-width:1.5;"/>
   </g>
   <g id="line2d_17">
    <path clip-path="url(#pe5d9980527)" d="M 83.7115 196.657954 
L 86.01325 196.574794 
L 88.7335 195.992674 
L 91.663 195.909514 
L 97.73125 195.244234 
L 114.1225 193.996834 
L 122.7715 193.248394 
L 131.4205 192.666274 
L 135.6055 192.250474 
L 142.51075 191.751514 
L 144.2545 191.668354 
L 151.7875 191.585194 
L 155.06575 191.335714 
L 158.623 191.252554 
L 164.0635 191.003074 
L 184.4305 191.003074 
L 185.8255 190.670434 
L 188.8945 190.670434 
L 189.4525 190.337794 
L 191.1265 190.337794 
L 191.6845 190.005154 
L 193.6375 190.005154 
L 194.056 189.672514 
L 199.2175 189.672514 
L 199.2175 189.672514 
" style="fill:none;stroke:#d62728;stroke-linecap:square;stroke-width:1.5;"/>
   </g>
   <g id="line2d_18">
    <path clip-path="url(#pe5d9980527)" d="M 244.9735 95.535394 
L 246.01975 95.618554 
L 247.903 96.034354 
L 248.3215 96.200674 
L 255.715 97.032274 
L 257.73775 97.198594 
L 260.80675 97.281754 
L 277.12825 98.944954 
L 282.499 99.527074 
L 292.264 100.857634 
L 316.6765 105.265114 
L 320.164 105.680914 
L 323.0935 106.179874 
L 327.697 106.263034 
L 331.53325 106.512514 
L 338.9965 106.429354 
L 344.0185 105.847234 
L 346.5295 105.514594 
L 348.4825 105.514594 
L 355.7365 104.849314 
L 358.8055 104.184034 
L 367.7335 103.186114 
L 375.2665 103.186114 
L 377.4985 103.518754 
L 379.4515 103.518754 
L 381.4045 103.851394 
L 383.497 103.518754 
L 384.4735 103.518754 
L 386.7055 102.520834 
L 387.403 101.522914 
L 387.961 100.026034 
L 388.1005 99.194434 
L 388.1005 98.861794 
L 388.3795 98.030194 
L 388.3795 97.863874 
L 388.6585 97.198594 
L 388.6585 97.198594 
" style="fill:none;stroke:#9467bd;stroke-linecap:square;stroke-width:1.5;"/>
   </g>
   <g id="line2d_19">
    <path clip-path="url(#pe5d9980527)" d="M 113.2855 163.393954 
L 113.704 164.059234 
L 113.8435 164.391874 
L 115.378 165.639274 
L 117.12175 166.803514 
L 119.1445 168.383554 
L 121.795 169.880434 
L 124.7245 171.377314 
L 132.397 174.121594 
L 144.2545 176.366914 
L 150.9505 177.032194 
L 155.6935 177.697474 
L 157.6465 178.030114 
L 162.808 178.529074 
L 163.7845 178.695394 
L 167.6905 179.028034 
L 171.8755 179.693314 
L 179.4085 180.358594 
L 185.5465 181.190194 
L 198.3805 182.354434 
L 205.6345 182.687074 
L 207.3085 182.687074 
L 210.9355 183.019714 
L 214.2835 183.019714 
L 218.1895 183.352354 
L 225.1645 183.352354 
L 238.8355 182.354434 
L 241.6255 182.021794 
L 246.6475 181.689154 
L 254.4595 180.691234 
L 266.1775 179.360674 
L 270.0835 179.028034 
L 273.1525 179.028034 
L 274.5475 178.695394 
L 289.3345 176.699554 
L 290.7295 176.366914 
L 293.5195 176.034274 
L 304.4005 173.373154 
L 307.1905 172.375234 
L 309.9805 171.709954 
L 312.2125 170.712034 
L 316.1185 169.880434 
L 317.2345 169.714114 
L 321.9775 168.383554 
L 325.465 167.884594 
L 330.9055 167.385634 
L 338.9965 167.385634 
L 339.2755 167.052994 
L 339.2755 167.052994 
" style="fill:none;stroke:#8c564b;stroke-linecap:square;stroke-width:1.5;"/>
   </g>
   <g id="line2d_20">
    <path clip-path="url(#pe5d9980527)" d="M 125.8405 151.418914 
L 127.02625 152.250514 
L 127.72375 152.666314 
L 129.7465 153.581074 
L 133.9315 154.745314 
L 137.419 155.493754 
L 140.3485 155.743234 
L 145.51 155.660074 
L 149.2765 155.410594 
L 152.3455 154.745314 
L 172.573 152.915794 
L 178.0135 152.416834 
L 180.5245 152.416834 
L 188.197 151.585234 
L 191.1265 151.418914 
L 198.241 151.335754 
L 201.24025 151.086274 
L 207.0295 151.086274 
L 210.9355 150.753634 
L 214.0045 150.753634 
L 219.8635 151.252594 
L 222.3745 151.418914 
L 226.0015 151.418914 
L 241.6255 153.082114 
L 247.903 154.578994 
L 250.2745 155.077954 
L 255.0175 156.408514 
L 259.4815 157.406434 
L 265.0615 158.071714 
L 267.8515 158.071714 
L 272.0365 158.736994 
L 273.7105 158.736994 
L 276.5005 159.069634 
L 282.0805 159.069634 
L 287.9395 158.404354 
L 291.0085 158.404354 
L 294.0775 158.071714 
L 296.8675 157.406434 
L 302.4475 156.741154 
L 304.6795 156.075874 
L 307.1905 155.077954 
L 310.957 154.080034 
L 314.1655 153.082114 
L 322.8145 150.587314 
L 330.0685 148.425154 
L 332.0215 148.092514 
L 335.9275 146.595634 
L 336.7645 146.429314 
L 337.8805 145.764034 
L 338.9965 145.431394 
L 338.9965 145.431394 
" style="fill:none;stroke:#e377c2;stroke-linecap:square;stroke-width:1.5;"/>
   </g>
   <g id="line2d_21">
    <path clip-path="url(#pe5d9980527)" d="M 126.1195 114.828514 
L 126.88675 115.161154 
L 129.95575 115.077994 
L 132.2575 114.579034 
L 136.1635 113.331634 
L 137.5585 112.832674 
L 141.11575 112.333714 
L 149.2765 110.670514 
L 157.3675 109.173634 
L 162.25 108.425194 
L 173.2705 107.510434 
L 181.84975 108.092554 
L 187.2205 108.508354 
L 192.5215 109.007314 
L 196.846 109.589434 
L 214.702 111.003154 
L 218.11975 111.169474 
L 232.90675 111.086314 
L 239.1145 110.504194 
L 242.1835 110.171554 
L 249.856 108.342034 
L 253.762 107.177794 
L 255.8545 106.512514 
L 263.6665 102.520834 
L 268.1305 100.524994 
L 272.0365 98.529154 
L 276.7795 96.533314 
L 281.5225 94.870114 
L 290.1715 92.208994 
L 305.2375 90.046834 
L 307.1905 89.880514 
L 312.7705 88.882594 
L 325.3255 87.385714 
L 326.1625 87.219394 
L 330.3475 87.219394 
L 338.299 86.387794 
L 338.9965 86.221474 
L 345.6925 85.223554 
L 347.6455 84.558274 
L 350.1565 84.225634 
L 352.528 83.394034 
L 353.2255 83.227714 
L 355.4575 81.897154 
L 357.4105 80.233954 
L 357.4105 80.233954 
" style="fill:none;stroke:#7f7f7f;stroke-linecap:square;stroke-width:1.5;"/>
   </g>
   <g id="line2d_22">
    <path clip-path="url(#pe5d9980527)" d="M 124.1665 109.838914 
L 123.6085 109.838914 
L 123.748 109.922074 
L 124.37575 110.171554 
L 125.49175 110.254714 
L 129.4675 110.836834 
L 132.04825 110.919994 
L 134.7685 111.169474 
L 137.977 110.836834 
L 140.767 110.753674 
L 150.6715 109.672594 
L 153.1825 109.339954 
L 156.5305 108.757834 
L 162.6685 108.175714 
L 170.2015 108.175714 
L 173.5495 107.843074 
L 177.7345 107.843074 
L 182.338 107.510434 
L 189.1735 107.510434 
L 194.4745 107.843074 
L 202.0075 109.173634 
L 205.9135 110.171554 
L 211.912 112.666354 
L 215.6785 114.329554 
L 219.3055 115.992754 
L 220.9795 116.824354 
L 233.5345 121.148674 
L 236.8825 121.813954 
L 247.7635 124.807714 
L 256.1335 126.470914 
L 270.3625 127.801474 
L 274.2685 127.801474 
L 284.173 128.300434 
L 287.3815 128.466754 
L 301.3315 128.466754 
L 306.0745 128.799394 
L 312.4915 128.799394 
L 317.653 128.300434 
L 321.1405 128.134114 
L 329.2315 128.134114 
L 331.1845 127.801474 
L 334.2535 127.801474 
L 335.3695 128.134114 
L 339.5545 128.134114 
L 339.973 128.466754 
L 340.9495 128.466754 
L 341.5075 128.134114 
L 341.5075 128.134114 
" style="fill:none;stroke:#bcbd22;stroke-linecap:square;stroke-width:1.5;"/>
   </g>
   <g id="line2d_23">
    <path clip-path="url(#pe5d9980527)" d="M 121.3765 115.161154 
L 121.3765 115.493794 
L 121.44625 115.493794 
L 122.28325 115.576954 
L 122.4925 115.826434 
L 125.35225 116.574874 
L 127.933 116.824354 
L 129.67675 116.907514 
L 134.071 117.156994 
L 138.74425 117.073834 
L 142.3015 116.824354 
L 144.8125 116.824354 
L 149.5555 116.159074 
L 155.06575 116.075914 
L 160.9945 115.826434 
L 177.10675 115.909594 
L 184.9885 116.491714 
L 190.5685 116.574874 
L 195.10225 116.824354 
L 220.7005 116.824354 
L 225.1645 116.491714 
L 229.0705 116.491714 
L 233.5345 115.826434 
L 239.254 115.327474 
L 240.2305 115.161154 
L 244.4155 114.828514 
L 248.6005 114.163234 
L 252.7855 113.830594 
L 259.2025 112.832674 
L 264.7825 112.167394 
L 268.828 111.834754 
L 269.8045 111.834754 
L 274.2685 111.502114 
L 277.8955 111.502114 
L 291.8455 110.504194 
L 296.3095 110.504194 
L 299.6575 110.836834 
L 303.0055 110.836834 
L 305.7955 111.169474 
L 319.7455 111.169474 
L 325.8835 110.337874 
L 326.4415 110.171554 
L 328.3945 110.171554 
L 328.813 109.838914 
L 329.7895 109.838914 
L 329.7895 109.838914 
" style="fill:none;stroke:#17becf;stroke-linecap:square;stroke-width:1.5;"/>
   </g>
   <g id="line2d_24">
    <path clip-path="url(#pe5d9980527)" d="M 107.4265 189.007234 
L 106.65925 189.589354 
L 106.5895 189.838834 
L 106.5895 190.005154 
L 106.5895 190.005154 
L 107.1475 190.670434 
L 109.519 191.335714 
L 110.4955 191.668354 
L 112.7275 192.000994 
L 123.8875 192.000994 
L 127.5145 191.668354 
L 130.8625 192.000994 
L 136.4425 192.000994 
L 138.1165 192.333634 
L 145.3705 192.998914 
L 149.2765 192.998914 
L 159.3205 193.996834 
L 166.2955 194.495794 
L 170.341 194.994754 
L 172.7125 195.327394 
L 174.6655 195.327394 
L 179.9665 195.992674 
L 182.1985 196.325314 
L 185.2675 196.325314 
L 187.7785 196.657954 
L 193.6375 196.657954 
L 196.7065 196.990594 
L 205.0765 196.990594 
L 215.9575 195.660034 
L 219.0265 195.660034 
L 221.8165 195.327394 
L 230.7445 195.327394 
L 233.8135 195.660034 
L 240.2305 196.990594 
L 243.0205 197.988514 
L 247.4845 198.986434 
L 251.53 200.316994 
L 255.2965 201.314914 
L 257.8075 201.647554 
L 260.5975 202.312834 
L 264.922 202.811794 
L 267.433 202.978114 
L 270.0835 202.978114 
L 279.2905 201.647554 
L 284.8705 200.982274 
L 285.9865 200.649634 
L 288.2185 200.316994 
L 290.4505 199.651714 
L 299.9365 198.321154 
L 302.4475 198.321154 
L 304.4005 197.988514 
L 306.6325 197.988514 
L 308.8645 197.655874 
L 311.9335 197.655874 
L 312.7705 197.323234 
L 322.2565 197.323234 
L 323.3725 197.655874 
L 325.6045 197.655874 
L 327.2785 197.156914 
L 327.5575 196.990594 
L 328.3945 195.992674 
L 328.3945 195.992674 
" style="fill:none;stroke:#1f77b4;stroke-linecap:square;stroke-width:1.5;"/>
   </g>
   <g id="line2d_25">
    <path clip-path="url(#pe5d9980527)" d="M 121.3765 171.377314 
L 121.516 171.543634 
L 121.6555 171.709954 
L 123.8875 173.040514 
L 125.2825 173.373154 
L 126.9565 174.371074 
L 131.1415 175.701634 
L 133.3735 176.699554 
L 135.8845 177.364834 
L 138.1165 178.362754 
L 142.72 179.859634 
L 143.4175 180.025954 
L 145.6495 181.023874 
L 152.9035 182.687074 
L 162.1105 185.348194 
L 164.9005 186.013474 
L 170.7595 186.678754 
L 176.0605 186.678754 
L 178.5715 186.346114 
L 181.0825 186.346114 
L 189.1735 185.348194 
L 191.9635 185.348194 
L 197.8225 184.849234 
L 199.2175 184.682914 
L 212.6095 184.682914 
L 216.5155 184.350274 
L 219.5845 184.350274 
L 222.3745 184.017634 
L 225.4435 184.017634 
L 233.116 183.019714 
L 249.7165 180.358594 
L 253.6225 179.526994 
L 256.9705 179.028034 
L 267.5725 179.028034 
L 270.9205 179.360674 
L 278.7325 179.360674 
L 283.057 179.028034 
L 284.0335 179.028034 
L 288.2185 178.196434 
L 289.3345 178.030114 
L 296.3095 175.202674 
L 297.844 174.371074 
L 298.5415 174.038434 
L 299.9365 173.040514 
L 301.3315 171.709954 
L 303.2845 170.213074 
L 305.377 168.217234 
L 306.214 167.385634 
L 308.8645 165.389794 
L 310.399 164.558194 
L 313.6075 163.393954 
L 313.8865 163.393954 
L 315.0025 163.061314 
L 316.1185 163.061314 
L 316.1185 163.061314 
L 316.1185 162.728674 
L 316.1185 162.728674 
" style="fill:none;stroke:#ff7f0e;stroke-linecap:square;stroke-width:1.5;"/>
   </g>
   <g id="line2d_26">
    <path clip-path="url(#pe5d9980527)" d="M 119.1445 168.050914 
L 118.8655 168.549874 
L 118.8655 169.048834 
L 119.7025 171.044674 
L 122.353 173.539474 
L 123.3295 174.371074 
L 125.8405 175.368994 
L 129.4675 176.034274 
L 137.07025 175.119514 
L 141.883 173.705794 
L 148.4395 171.709954 
L 155.4145 170.046754 
L 172.1545 167.718274 
L 180.106 167.385634 
L 184.7095 167.385634 
L 192.2425 168.134074 
L 196.4275 168.383554 
L 201.7285 169.381474 
L 210.16825 170.213074 
L 214.8415 170.795194 
L 223.42075 171.543634 
L 229.3495 172.042594 
L 244.34575 171.959434 
L 249.4375 171.543634 
L 258.43525 170.296234 
L 266.4565 169.714114 
L 271.82725 168.965674 
L 281.662 168.383554 
L 283.7545 168.383554 
L 301.6105 167.385634 
L 308.5855 166.720354 
L 318.6295 166.720354 
L 327.8365 165.722434 
L 332.8585 164.558194 
L 336.2065 163.726594 
L 339.8335 163.061314 
L 344.716 161.897074 
L 347.0875 161.564434 
L 351.8305 161.065474 
L 351.8305 161.065474 
" style="fill:none;stroke:#2ca02c;stroke-linecap:square;stroke-width:1.5;"/>
   </g>
   <g id="line2d_27">
    <path clip-path="url(#pe5d9980527)" d="M 120.2605 116.824354 
L 120.33025 117.739114 
L 120.5395 118.487554 
L 121.9345 120.816034 
L 124.585 123.809794 
L 128.00275 126.387754 
L 129.95575 127.302514 
L 131.4205 127.801474 
L 134.00125 127.718314 
L 136.4425 127.302514 
L 141.325 125.805634 
L 145.30075 123.809794 
L 147.0445 122.811874 
L 155.554 117.822274 
L 158.2045 116.325394 
L 161.134 114.662194 
L 162.6685 113.830594 
L 173.131 110.504194 
L 174.6655 110.171554 
L 177.7345 109.838914 
L 180.5245 109.838914 
L 186.1045 110.504194 
L 195.5905 114.329554 
L 200.0545 116.491714 
L 206.7505 119.485474 
L 211.633 121.980274 
L 213.1675 122.811874 
L 216.2365 123.809794 
L 227.6755 128.466754 
L 237.9985 133.290034 
L 244.9735 136.616434 
L 246.6475 137.448034 
L 251.1115 139.111234 
L 252.7855 139.776514 
L 258.9235 141.107074 
L 265.3405 141.938674 
L 267.0145 142.104994 
L 270.0835 142.104994 
L 279.43 140.774434 
L 280.9645 140.441794 
L 287.521 139.942834 
L 292.1245 139.443874 
L 298.5415 138.113314 
L 303.2845 136.782754 
L 304.6795 136.450114 
L 307.7485 135.119554 
L 310.5385 134.454274 
L 314.863 132.791074 
L 328.813 126.803554 
L 329.7895 126.470914 
L 331.4635 126.138274 
L 333.6955 125.472994 
L 333.9745 125.472994 
L 336.2065 125.140354 
L 339.2755 125.805634 
L 339.2755 125.805634 
" style="fill:none;stroke:#d62728;stroke-linecap:square;stroke-width:1.5;"/>
   </g>
   <g id="line2d_28">
    <path clip-path="url(#pe5d9980527)" d="M 109.6585 183.684994 
L 109.3795 184.017634 
L 109.6585 183.851314 
L 109.9375 183.684994 
L 111.3325 183.684994 
L 114.541 182.770234 
L 117.54025 181.772314 
L 121.16725 180.857554 
L 124.93375 180.109114 
L 128.0725 179.360674 
L 132.88525 178.861714 
L 137.76775 178.279594 
L 142.8595 178.030114 
L 157.786 177.946954 
L 162.87775 177.697474 
L 168.8065 177.780634 
L 177.1765 178.030114 
L 186.31375 177.946954 
L 191.545 177.697474 
L 195.3115 177.697474 
L 207.3085 176.699554 
L 209.8195 176.699554 
L 218.887 176.034274 
L 241.97425 176.117434 
L 246.6475 176.366914 
L 251.251 176.450074 
L 260.8765 177.032194 
L 299.6575 177.032194 
L 302.7265 176.699554 
L 304.9585 176.699554 
L 307.4695 176.366914 
L 311.6545 176.366914 
L 313.3285 176.034274 
L 315.5605 176.034274 
L 315.5605 176.034274 
" style="fill:none;stroke:#9467bd;stroke-linecap:square;stroke-width:1.5;"/>
   </g>
   <g id="line2d_29">
    <path clip-path="url(#pe5d9980527)" d="M 124.7245 167.718274 
L 124.7245 168.383554 
L 125.8405 171.377314 
L 126.9565 173.040514 
L 128.3515 174.703714 
L 130.3045 176.366914 
L 133.3735 178.030114 
L 139.5115 180.025954 
L 140.9065 180.025954 
L 146.7655 180.358594 
L 149.8345 180.358594 
L 152.6245 180.691234 
L 166.0165 180.691234 
L 169.6435 180.358594 
L 172.7125 180.358594 
L 176.6185 179.693314 
L 192.5215 178.030114 
L 204.379 176.366914 
L 205.9135 176.034274 
L 212.749 175.368994 
L 213.4465 175.368994 
L 225.7225 174.038434 
L 228.5125 174.038434 
L 234.9295 173.539474 
L 236.3245 173.373154 
L 260.0395 173.373154 
L 262.8295 173.040514 
L 265.8985 173.040514 
L 275.245 172.208914 
L 275.9425 172.042594 
L 280.1275 171.709954 
L 283.1965 171.044674 
L 285.9865 170.712034 
L 290.311 169.714114 
L 293.101 169.048834 
L 298.8205 167.884594 
L 300.2155 167.718274 
L 306.772 166.221394 
L 308.0275 166.055074 
L 310.8175 165.389794 
L 314.7235 164.724514 
L 318.3505 163.726594 
L 323.233 162.728674 
L 324.4885 162.396034 
L 336.2065 160.732834 
L 338.1595 160.732834 
L 338.7175 160.400194 
L 340.1125 160.400194 
L 341.2285 160.067554 
L 344.0185 160.067554 
L 345.1345 159.734914 
L 353.5045 159.734914 
L 353.5045 159.402274 
L 353.5045 159.402274 
" style="fill:none;stroke:#8c564b;stroke-linecap:square;stroke-width:1.5;"/>
   </g>
   <g id="line2d_30">
    <path clip-path="url(#pe5d9980527)" d="M 121.9345 182.021794 
L 128.491 184.516594 
L 129.1885 184.682914 
L 139.372 185.514514 
L 142.92925 185.680834 
L 152.83375 185.597674 
L 162.3895 185.015554 
L 176.13025 185.098714 
L 183.733 185.431354 
L 187.2205 185.763994 
L 198.86875 186.512434 
L 212.6095 188.341954 
L 225.4435 190.337794 
L 248.25175 193.082074 
L 257.87725 193.581034 
L 261.574 193.830514 
L 270.781 194.578954 
L 273.292 194.828434 
L 274.5475 194.994754 
L 282.499 195.410554 
L 283.7545 195.660034 
L 291.5665 195.161074 
L 299.3785 194.329474 
L 310.5385 193.331554 
L 320.5825 193.248394 
L 321.6985 192.998914 
L 322.8145 192.998914 
L 322.8145 192.998914 
" style="fill:none;stroke:#e377c2;stroke-linecap:square;stroke-width:1.5;"/>
   </g>
   <g id="line2d_31">
    <path clip-path="url(#pe5d9980527)" d="M 116.6335 151.751554 
L 121.44625 151.668394 
L 127.933 150.753634 
L 135.53575 149.007274 
L 136.4425 148.757794 
L 140.6275 148.425154 
L 148.1605 147.344074 
L 152.6245 147.094594 
L 159.46 147.011434 
L 164.3425 146.761954 
L 181.3615 146.761954 
L 188.0575 147.094594 
L 196.7065 148.092514 
L 198.9385 148.425154 
L 203.1235 148.757794 
L 211.4935 150.088354 
L 215.1205 151.086274 
L 219.0265 151.751554 
L 230.1865 154.745314 
L 239.3935 156.408514 
L 241.0675 156.741154 
L 260.0395 158.404354 
L 271.7575 158.404354 
L 275.6635 158.736994 
L 283.4755 158.736994 
L 291.0085 159.402274 
L 296.3095 159.402274 
L 299.3785 158.736994 
L 302.7265 158.404354 
L 310.678 156.408514 
L 311.9335 156.075874 
L 317.2345 154.080034 
L 320.0245 153.581074 
L 323.6515 152.416834 
L 324.4885 152.084194 
L 326.1625 151.751554 
L 327.5575 151.086274 
L 329.5105 150.753634 
L 329.7895 150.420994 
L 330.9055 150.420994 
L 332.8585 149.755714 
L 333.9745 149.755714 
L 334.5325 149.423074 
L 335.6485 149.423074 
L 335.6485 149.423074 
" style="fill:none;stroke:#7f7f7f;stroke-linecap:square;stroke-width:1.5;"/>
   </g>
   <g id="line2d_32">
    <path clip-path="url(#pe5d9980527)" d="M 113.2855 145.764034 
L 113.0065 146.262994 
L 113.07625 146.595634 
L 113.49475 147.344074 
L 113.8435 147.593554 
L 115.02925 148.175674 
L 117.7495 148.757794 
L 123.0505 148.757794 
L 128.9095 147.427234 
L 135.187 146.096674 
L 143.1385 144.100834 
L 145.51 143.601874 
L 149.416 142.853434 
L 155.6935 141.356554 
L 171.3175 137.946994 
L 184.1515 136.117474 
L 188.8945 135.784834 
L 195.5905 134.786914 
L 203.542 134.121634 
L 208.006 133.622674 
L 221.2585 131.460514 
L 227.536 130.462594 
L 231.5815 129.797314 
L 237.7195 128.799394 
L 243.8575 127.801474 
L 249.7165 127.136194 
L 255.5755 126.138274 
L 259.4815 125.140354 
L 265.0615 122.978194 
L 277.0585 117.822274 
L 282.6385 115.826434 
L 289.195 112.666354 
L 290.7295 111.834754 
L 296.8675 109.173634 
L 301.8895 107.843074 
L 304.6795 106.845154 
L 309.1435 106.179874 
L 311.9335 105.514594 
L 323.0935 105.514594 
L 327.8365 106.179874 
L 330.3475 106.845154 
L 332.3005 106.845154 
L 334.8115 107.510434 
L 335.0905 107.510434 
L 339.415 108.009394 
L 339.8335 108.175714 
L 342.3445 108.175714 
L 342.3445 108.175714 
" style="fill:none;stroke:#bcbd22;stroke-linecap:square;stroke-width:1.5;"/>
   </g>
   <g id="line2d_33">
    <path clip-path="url(#pe5d9980527)" d="M 265.3405 71.917954 
L 265.3405 71.585314 
L 265.3405 71.585314 
L 266.10775 70.421074 
L 267.0145 69.589474 
L 267.8515 68.591554 
L 269.87425 67.260994 
L 270.9205 66.263074 
L 275.9425 64.849354 
L 282.6385 63.934594 
L 283.54525 63.851434 
L 288.2185 63.269314 
L 300.42475 63.352474 
L 306.6325 63.934594 
L 312.4915 63.934594 
L 318.9085 64.599874 
L 332.5795 64.599874 
L 334.8115 64.267234 
L 339.2755 64.267234 
L 341.2285 63.934594 
L 343.4605 63.934594 
L 346.8085 63.601954 
L 347.3665 63.601954 
L 351.5515 63.269314 
L 352.3885 63.269314 
L 361.5955 61.606114 
L 370.5235 59.942914 
L 372.4765 59.942914 
L 374.4295 59.610274 
L 380.0095 59.610274 
L 380.8465 59.277634 
L 384.7525 59.277634 
L 385.171 58.944994 
L 386.1475 58.944994 
L 386.1475 58.944994 
L 386.4265 59.277634 
L 386.4265 59.111314 
L 386.4265 58.944994 
L 386.4265 58.944994 
L 386.4265 58.944994 
L 386.4265 59.277634 
L 386.4265 59.277634 
" style="fill:none;stroke:#17becf;stroke-linecap:square;stroke-width:1.5;"/>
   </g>
   <g id="line2d_34">
    <path clip-path="url(#pe5d9980527)" d="M 128.6305 164.059234 
L 128.70025 164.558194 
L 128.9095 165.057154 
L 130.37425 165.722434 
L 133.6525 167.385634 
L 140.6275 169.547794 
L 147.11425 170.795194 
L 150.60175 171.044674 
L 170.96875 170.961514 
L 174.59575 170.628874 
L 179.47825 170.379394 
L 183.454 170.296234 
L 193.6375 169.714114 
L 197.2645 170.046754 
L 207.0295 170.046754 
L 213.1675 170.545714 
L 216.655 170.712034 
L 217.6315 170.712034 
L 223.7695 171.044674 
L 224.8855 171.044674 
L 227.9545 171.377314 
L 231.3025 171.044674 
L 234.3715 171.377314 
L 239.6725 171.377314 
L 246.0895 172.375234 
L 247.7635 172.707874 
L 253.762 173.206834 
L 263.3875 173.705794 
L 275.3845 173.705794 
L 295.4725 171.377314 
L 307.1905 171.377314 
L 314.1655 172.042594 
L 325.8835 173.373154 
L 330.9055 173.373154 
L 332.3005 173.040514 
L 334.2535 173.040514 
L 334.2535 172.707874 
L 334.2535 172.707874 
" style="fill:none;stroke:#1f77b4;stroke-linecap:square;stroke-width:1.5;"/>
   </g>
   <g id="line2d_35">
    <path clip-path="url(#pe5d9980527)" d="M 121.9345 127.468834 
L 121.6555 127.967794 
L 121.6555 128.134114 
L 121.72525 128.134114 
L 122.074 128.217274 
L 122.7715 128.549914 
L 124.4455 128.965714 
L 127.933 129.547834 
L 133.58275 130.129954 
L 139.58125 130.046794 
L 153.88 128.633074 
L 158.83225 127.967794 
L 166.0165 127.385674 
L 171.8755 127.136194 
L 177.80425 126.387754 
L 182.54725 125.971954 
L 187.42975 125.389834 
L 197.5435 124.807714 
L 202.07725 124.724554 
L 206.82025 124.475074 
L 211.4935 124.391914 
L 224.8855 123.477154 
L 228.2335 123.393994 
L 234.44125 123.144514 
L 239.18425 123.061354 
L 243.92725 122.811874 
L 253.0645 122.728714 
L 269.107 121.481314 
L 274.5475 120.816034 
L 278.4535 120.150754 
L 287.3815 119.485474 
L 291.2875 119.485474 
L 295.4725 119.818114 
L 299.0995 120.483394 
L 305.935 121.148674 
L 309.562 121.647634 
L 310.2595 121.813954 
L 320.5825 121.813954 
L 330.3475 120.816034 
L 336.2065 120.150754 
L 339.694 119.319154 
L 340.6705 119.152834 
L 344.2975 118.154914 
L 345.6925 117.822274 
L 347.0875 117.156994 
L 348.2035 116.159074 
L 348.4825 115.493794 
L 348.4825 115.493794 
" style="fill:none;stroke:#ff7f0e;stroke-linecap:square;stroke-width:1.5;"/>
   </g>
   <g id="line2d_36">
    <path clip-path="url(#pe5d9980527)" d="M 116.0755 171.709954 
L 115.7965 172.042594 
L 115.7965 172.042594 
L 116.56375 172.791034 
L 117.61 173.123674 
L 119.35375 173.373154 
L 124.027 173.289994 
L 134.97775 171.876274 
L 140.209 170.961514 
L 151.7875 170.046754 
L 172.9915 169.963594 
L 176.3395 169.714114 
L 184.08175 168.633034 
L 194.335 167.718274 
L 196.7065 167.385634 
L 213.7255 166.055074 
L 221.2585 166.720354 
L 222.0955 166.720354 
L 240.37 169.547794 
L 244.9735 169.880434 
L 247.7635 170.046754 
L 253.3435 169.714114 
L 261.1555 169.714114 
L 264.5035 169.381474 
L 268.4095 169.381474 
L 271.7575 169.048834 
L 275.3845 169.048834 
L 282.6385 168.383554 
L 289.8925 168.383554 
L 293.5195 168.050914 
L 308.8645 168.050914 
L 315.421 167.718274 
L 316.9555 167.718274 
L 320.0245 167.385634 
L 325.8835 167.385634 
L 329.65 167.052994 
L 332.5795 167.052994 
L 337.741 166.720354 
L 338.9965 166.720354 
L 348.2035 165.057154 
L 351.8305 164.391874 
L 353.2255 164.391874 
L 354.3415 164.059234 
L 354.6205 164.059234 
L 356.2945 163.393954 
L 356.2945 163.393954 
" style="fill:none;stroke:#2ca02c;stroke-linecap:square;stroke-width:1.5;"/>
   </g>
   <g id="line2d_37">
    <path clip-path="url(#pe5d9980527)" d="M 125.0035 168.050914 
L 127.375 167.967754 
L 129.049 167.551954 
L 130.93225 166.886674 
L 137.0005 165.389794 
L 138.3955 165.057154 
L 143.20825 164.558194 
L 145.9285 164.059234 
L 151.7875 163.560274 
L 155.1355 163.061314 
L 162.6685 162.645514 
L 164.3425 162.396034 
L 180.73375 161.730754 
L 195.52075 161.813914 
L 200.68225 162.063394 
L 205.98325 161.980234 
L 220.1425 161.398114 
L 223.63 161.314954 
L 228.58225 161.065474 
L 238.34725 160.982314 
L 245.671 160.732834 
L 246.3685 160.732834 
L 257.11 159.901234 
L 273.1525 157.739074 
L 275.6635 157.073794 
L 281.45275 156.159034 
L 286.963 154.745314 
L 290.4505 153.830554 
L 295.333 152.832634 
L 301.8895 151.751554 
L 309.1435 151.418914 
L 318.3505 151.418914 
L 323.6515 152.084194 
L 325.6045 152.749474 
L 326.7205 152.749474 
L 331.4635 153.414754 
L 332.3005 153.414754 
L 333.6955 153.747394 
L 333.9745 153.747394 
L 333.9745 153.747394 
" style="fill:none;stroke:#d62728;stroke-linecap:square;stroke-width:1.5;"/>
   </g>
   <g id="line2d_38">
    <path clip-path="url(#pe5d9980527)" d="M 121.3765 103.518754 
L 121.9345 104.017714 
L 124.37575 105.348274 
L 125.07325 105.597754 
L 127.096 106.179874 
L 128.6305 106.595674 
L 135.25675 107.676754 
L 137.14 107.926234 
L 141.1855 108.175714 
L 166.0165 108.175714 
L 171.8755 108.508354 
L 177.7345 108.508354 
L 185.5465 108.840994 
L 225.1645 108.840994 
L 231.0235 109.339954 
L 235.2085 109.506274 
L 241.9045 109.506274 
L 245.5315 109.173634 
L 248.6005 109.173634 
L 261.4345 107.843074 
L 268.9675 106.845154 
L 279.2905 106.845154 
L 286.8235 107.510434 
L 296.3095 108.175714 
L 308.5855 108.175714 
L 312.2125 108.508354 
L 312.7705 108.508354 
L 317.374 108.840994 
L 329.7895 108.840994 
L 336.2065 107.843074 
L 338.4385 107.177794 
L 340.3915 106.845154 
L 343.6 105.680914 
L 346.948 104.516674 
L 354.481 101.023954 
L 355.4575 100.524994 
L 356.0155 100.192354 
L 357.1315 99.859714 
L 357.1315 99.859714 
" style="fill:none;stroke:#9467bd;stroke-linecap:square;stroke-width:1.5;"/>
   </g>
   <g id="line2d_39">
    <path clip-path="url(#pe5d9980527)" d="M 121.3765 131.793154 
L 120.74875 131.876314 
L 120.5395 132.125794 
L 120.5395 132.125794 
L 122.4925 132.957394 
L 123.67825 133.373194 
L 125.5615 134.121634 
L 131.9785 137.614354 
L 136.37275 139.693354 
L 139.7905 141.356554 
L 143.9755 143.435554 
L 148.4395 144.766114 
L 152.9035 146.429314 
L 158.4835 148.425154 
L 162.9475 150.420994 
L 170.4805 152.416834 
L 176.3395 153.082114 
L 184.50025 152.998954 
L 189.94075 152.749474 
L 194.12575 152.666314 
L 198.31075 152.250514 
L 205.6345 151.086274 
L 209.2615 150.753634 
L 217.6315 149.423074 
L 221.8165 149.090434 
L 234.0925 147.094594 
L 241.486 145.431394 
L 246.6475 144.433474 
L 253.483 143.768194 
L 254.4595 143.768194 
L 261.9925 143.102914 
L 270.9205 143.102914 
L 275.3845 142.770274 
L 276.2215 142.770274 
L 283.1965 143.102914 
L 287.9395 143.102914 
L 290.7295 143.435554 
L 296.5885 143.435554 
L 300.4945 143.102914 
L 306.3535 143.102914 
L 314.305 141.938674 
L 316.6765 141.107074 
L 320.0245 140.441794 
L 323.6515 139.111234 
L 325.3255 138.445954 
L 327.697 137.115394 
L 330.3475 135.784834 
L 330.9055 135.452194 
L 332.5795 134.786914 
L 333.9745 133.788994 
L 333.9745 133.788994 
" style="fill:none;stroke:#8c564b;stroke-linecap:square;stroke-width:1.5;"/>
   </g>
   <g id="line2d_40">
    <path clip-path="url(#pe5d9980527)" d="M 102.4045 122.146594 
L 102.1255 122.645554 
L 102.1255 122.811874 
L 102.05575 122.811874 
L 101.8465 122.811874 
L 101.986 122.811874 
L 101.986 122.811874 
L 102.265 122.895034 
L 102.6835 123.144514 
L 104.0785 123.227674 
L 104.9155 123.477154 
L 109.86775 123.560314 
L 112.1695 123.809794 
L 116.70325 123.477154 
L 138.814 123.560314 
L 156.5305 124.807714 
L 162.9475 125.472994 
L 174.3865 127.053034 
L 179.827 128.134114 
L 183.5935 129.132034 
L 195.172 131.211034 
L 196.4275 131.460514 
L 203.9605 132.458434 
L 227.1175 134.121634 
L 235.7665 134.121634 
L 244.834 133.123714 
L 251.6695 132.125794 
L 257.8075 130.462594 
L 261.7135 129.797314 
L 265.6195 128.466754 
L 282.6385 124.142434 
L 290.4505 122.811874 
L 294.0775 122.146594 
L 299.518 121.813954 
L 300.4945 121.813954 
L 306.3535 122.479234 
L 310.678 123.477154 
L 311.9335 123.809794 
L 316.816 124.641394 
L 318.0715 124.807714 
L 322.2565 124.807714 
L 327.2785 123.477154 
L 328.813 122.645554 
L 330.0685 122.146594 
L 330.9055 122.146594 
L 331.4635 121.813954 
L 332.5795 121.813954 
L 333.835 122.645554 
L 333.9745 122.811874 
L 333.9745 122.811874 
" style="fill:none;stroke:#e377c2;stroke-linecap:square;stroke-width:1.5;"/>
   </g>
   <g id="line2d_41">
    <path clip-path="url(#pe5d9980527)" d="M 123.8875 127.801474 
L 123.469 128.466754 
L 123.3295 128.965714 
L 123.3295 129.464674 
L 123.8875 129.963634 
L 124.7245 130.462594 
L 125.8405 130.795234 
L 127.5145 130.795234 
L 129.4675 131.127874 
L 142.5805 131.127874 
L 145.3705 130.795234 
L 148.7185 130.795234 
L 154.0195 130.462594 
L 162.9475 130.462594 
L 173.2705 129.464674 
L 178.2925 129.464674 
L 181.6405 129.797314 
L 188.3365 131.793154 
L 191.6845 132.458434 
L 194.7535 133.456354 
L 201.1705 134.786914 
L 206.1925 134.786914 
L 210.6565 135.119554 
L 215.1205 134.786914 
L 218.1895 134.786914 
L 229.6285 133.788994 
L 231.0235 133.456354 
L 241.3465 132.791074 
L 242.7415 132.791074 
L 245.5315 132.458434 
L 248.6005 132.458434 
L 254.1805 132.125794 
L 255.5755 132.125794 
L 263.1085 131.460514 
L 266.1775 131.127874 
L 269.2465 131.127874 
L 275.1055 130.462594 
L 279.5695 130.462594 
L 282.3595 130.129954 
L 286.5445 130.462594 
L 289.6135 130.462594 
L 299.9365 131.793154 
L 308.3065 133.123714 
L 312.7705 133.788994 
L 316.6765 134.620594 
L 323.9305 135.784834 
L 325.6045 136.117474 
L 328.9525 137.448034 
L 333.4165 138.445954 
L 334.8115 138.778594 
L 339.8335 138.778594 
L 341.7865 138.279634 
L 342.9025 137.946994 
L 343.1815 137.780674 
L 344.2975 137.780674 
L 346.111 137.281714 
L 349.3195 136.117474 
L 351.2725 135.452194 
L 352.9465 134.454274 
L 353.2255 134.454274 
L 353.5045 134.121634 
L 353.7835 134.121634 
L 354.0625 133.788994 
L 354.6205 133.788994 
L 354.6205 133.788994 
" style="fill:none;stroke:#7f7f7f;stroke-linecap:square;stroke-width:1.5;"/>
   </g>
   <g id="line2d_42">
    <path clip-path="url(#pe5d9980527)" d="M 119.4235 121.148674 
L 119.77225 121.231834 
L 119.9815 121.481314 
L 121.237 121.564474 
L 122.98075 121.813954 
L 127.72375 121.730794 
L 130.0255 121.481314 
L 135.8845 121.398154 
L 139.5115 121.148674 
L 148.09075 121.231834 
L 160.36675 122.312914 
L 164.6215 122.895034 
L 169.43425 123.310834 
L 176.0605 124.142434 
L 178.2925 124.475074 
L 190.2895 125.472994 
L 193.9165 126.138274 
L 205.6345 127.136194 
L 210.0985 127.801474 
L 217.9105 128.466754 
L 226.0015 128.466754 
L 236.8825 127.468834 
L 242.4625 126.138274 
L 244.1365 125.805634 
L 250.5535 123.809794 
L 259.063 120.317074 
L 264.2245 118.487554 
L 268.9675 117.655954 
L 273.9895 117.156994 
L 280.6855 117.156994 
L 283.4755 117.489634 
L 290.4505 118.820194 
L 294.0775 120.150754 
L 300.355 121.980274 
L 303.145 122.811874 
L 304.4005 123.144514 
L 309.9805 123.809794 
L 312.2125 123.809794 
L 316.816 123.310834 
L 317.7925 123.144514 
L 329.7895 118.487554 
L 334.393 117.489634 
L 335.0905 117.489634 
L 336.7645 117.156994 
L 339.2755 117.156994 
L 340.6705 116.824354 
L 345.4135 116.824354 
L 345.4135 116.824354 
" style="fill:none;stroke:#bcbd22;stroke-linecap:square;stroke-width:1.5;"/>
   </g>
   <g id="line2d_43">
    <path clip-path="url(#pe5d9980527)" d="M 103.7995 181.356514 
L 104.56675 181.938634 
L 105.1945 182.687074 
L 108.05425 184.682914 
L 112.03 186.678754 
L 113.49475 187.260874 
L 119.1445 189.007234 
L 123.67825 189.755674 
L 131.90875 190.420954 
L 138.04675 190.670434 
L 171.8755 190.587274 
L 191.9635 189.339874 
L 198.72925 188.591434 
L 224.6065 186.678754 
L 238.975 184.849234 
L 241.6255 184.682914 
L 248.461 183.518674 
L 253.41325 182.770234 
L 256.9705 182.021794 
L 265.68925 179.443834 
L 272.455 177.281674 
L 277.0585 176.034274 
L 283.7545 174.870034 
L 285.49825 174.620554 
L 288.98575 174.371074 
L 292.05475 174.454234 
L 302.7265 175.701634 
L 304.1215 176.034274 
L 306.9115 176.366914 
L 309.1435 176.366914 
L 311.3755 176.699554 
L 315.5605 176.699554 
L 317.2345 176.366914 
L 320.8615 176.366914 
L 321.9775 176.034274 
L 323.9305 176.034274 
L 323.9305 176.034274 
" style="fill:none;stroke:#17becf;stroke-linecap:square;stroke-width:1.5;"/>
   </g>
   <g id="line2d_44">
    <path clip-path="url(#pe5d9980527)" d="M 132.5365 143.102914 
L 136.7215 144.766114 
L 144.394 145.431394 
L 147.3235 145.348234 
L 151.5085 145.098754 
L 168.2485 141.938674 
L 168.8065 141.772354 
L 182.059 139.610194 
L 188.12725 138.861754 
L 189.592 138.695434 
L 193.498 138.445954 
L 197.33425 138.529114 
L 201.10075 138.944914 
L 214.8415 141.107074 
L 217.6315 141.439714 
L 220.9795 141.439714 
L 224.8855 141.772354 
L 233.8135 140.774434 
L 240.928 139.277554 
L 252.088 136.117474 
L 254.1805 135.452194 
L 261.574 133.622674 
L 263.3875 133.123714 
L 268.828 132.125794 
L 272.176 131.460514 
L 273.9895 131.127874 
L 280.4065 131.127874 
L 283.4755 131.460514 
L 290.869 133.123714 
L 294.9145 134.121634 
L 296.3095 134.121634 
L 300.7735 134.786914 
L 303.2845 134.786914 
L 305.5165 134.454274 
L 310.2595 133.123714 
L 315.2815 130.462594 
L 316.3975 129.797314 
L 321.4195 125.805634 
L 324.7675 123.809794 
L 325.8835 122.811874 
L 328.1155 121.980274 
L 328.3945 121.813954 
L 332.161 121.148674 
L 336.4855 121.148674 
L 339.2755 121.813954 
L 340.1125 122.479234 
L 340.1125 122.479234 
" style="fill:none;stroke:#1f77b4;stroke-linecap:square;stroke-width:1.5;"/>
   </g>
   <g id="line2d_45">
    <path clip-path="url(#pe5d9980527)" d="M 125.8405 161.398114 
L 126.817 161.481274 
L 130.23475 162.063394 
L 137.34925 161.980234 
L 140.0695 161.730754 
L 159.52975 161.647594 
L 163.645 161.398114 
L 167.6905 161.481274 
L 172.015 161.730754 
L 176.13025 161.813914 
L 193.0795 163.061314 
L 201.24025 164.142394 
L 209.61025 164.641354 
L 214.144 164.973994 
L 216.097 165.057154 
L 234.6505 165.057154 
L 239.6725 164.724514 
L 244.4155 164.724514 
L 246.0895 164.391874 
L 254.1805 164.391874 
L 259.621 163.560274 
L 264.2245 162.562354 
L 268.1305 161.730754 
L 270.9205 160.400194 
L 275.6635 158.903314 
L 278.7325 157.739074 
L 289.0555 153.747394 
L 292.543 153.248434 
L 293.2405 153.082114 
L 296.0305 152.749474 
L 300.2155 152.749474 
L 303.424 153.414754 
L 305.7955 153.913714 
L 307.7485 154.412674 
L 310.2595 155.077954 
L 311.3755 155.410594 
L 315.8395 157.073794 
L 317.7925 157.739074 
L 322.2565 159.402274 
L 323.9305 159.734914 
L 326.4415 160.732834 
L 327.2785 160.732834 
L 327.8365 161.065474 
L 329.7895 161.065474 
L 329.7895 161.065474 
" style="fill:none;stroke:#ff7f0e;stroke-linecap:square;stroke-width:1.5;"/>
   </g>
   <g id="line2d_46">
    <path clip-path="url(#pe5d9980527)" d="M 117.4705 161.398114 
L 117.4705 161.730754 
L 117.54025 161.730754 
L 118.09825 161.813914 
L 119.563 162.063394 
L 120.958 162.146554 
L 124.93375 162.396034 
L 126.1195 162.479194 
L 131.4205 162.894994 
L 136.93075 163.310794 
L 137.8375 163.393954 
L 146.69575 163.477114 
L 155.1355 164.059234 
L 160.22725 164.142394 
L 167.1325 164.558194 
L 172.1545 165.057154 
L 178.153 165.140314 
L 187.56925 165.722434 
L 200.0545 165.722434 
L 209.5405 165.223474 
L 211.7725 165.057154 
L 235.2085 165.057154 
L 243.16 164.558194 
L 244.9735 164.391874 
L 253.3435 163.061314 
L 261.4345 161.730754 
L 269.5255 161.065474 
L 277.477 160.566514 
L 280.267 160.233874 
L 281.2435 160.067554 
L 284.8705 159.734914 
L 290.7295 158.736994 
L 306.3535 155.743234 
L 312.4915 155.244274 
L 316.6765 155.077954 
L 321.1405 155.077954 
L 328.1155 155.743234 
L 329.5105 155.743234 
L 334.5325 156.574834 
L 335.3695 156.741154 
L 338.4385 156.741154 
L 339.5545 157.073794 
L 342.0655 157.073794 
L 342.0655 157.073794 
L 342.484 156.741154 
L 342.6235 156.741154 
L 342.6235 156.741154 
L 342.6235 156.741154 
L 342.3445 156.741154 
L 342.3445 156.741154 
" style="fill:none;stroke:#2ca02c;stroke-linecap:square;stroke-width:1.5;"/>
   </g>
   <g id="line2d_47">
    <path clip-path="url(#pe5d9980527)" d="M 131.4205 123.144514 
L 131.9785 123.643474 
L 132.60625 124.142434 
L 133.6525 125.140354 
L 135.8845 126.470914 
L 141.604 128.633074 
L 143.9755 129.298354 
L 148.579 130.129954 
L 157.01875 131.377354 
L 158.97175 131.460514 
L 163.087 131.543674 
L 167.1325 131.959474 
L 178.2925 133.539514 
L 183.38425 134.287954 
L 185.407 134.537434 
L 189.4525 134.953234 
L 199.915 136.616434 
L 200.8915 136.782754 
L 208.006 138.612274 
L 219.3055 140.441794 
L 228.5125 141.855514 
L 235.4875 142.437634 
L 243.439 142.104994 
L 246.787 142.021834 
L 254.32 141.522874 
L 260.10925 141.107074 
L 271.68775 141.023914 
L 275.6635 140.608114 
L 279.151 140.025994 
L 284.8705 139.443874 
L 291.2875 138.778594 
L 296.8675 138.778594 
L 298.5415 138.445954 
L 316.3975 138.445954 
L 317.5135 138.113314 
L 322.675 137.614354 
L 328.534 136.949074 
L 331.045 136.616434 
L 332.0215 136.450114 
L 332.5795 136.782754 
L 332.5795 136.782754 
" style="fill:none;stroke:#d62728;stroke-linecap:square;stroke-width:1.5;"/>
   </g>
   <g id="line2d_48">
    <path clip-path="url(#pe5d9980527)" d="M 124.1665 100.192354 
L 123.8875 100.192354 
L 123.8875 100.275514 
L 123.8875 100.524994 
L 123.8875 100.524994 
L 125.8405 101.190274 
L 126.9565 101.522914 
L 131.35075 102.021874 
L 135.53575 102.603994 
L 139.93 102.853474 
L 145.51 102.770314 
L 152.206 102.354514 
L 153.4615 102.188194 
L 162.9475 101.689234 
L 164.3425 101.522914 
L 178.432 101.190274 
L 189.80125 101.107114 
L 199.2175 100.691314 
L 210.517 99.859714 
L 215.1205 99.443914 
L 223.63 98.861794 
L 228.72175 98.529154 
L 232.34875 98.445994 
L 250.693 97.198594 
L 255.36625 96.699634 
L 271.12975 95.452234 
L 282.3595 94.870114 
L 288.56725 94.537474 
L 298.89025 94.454314 
L 305.7955 93.955354 
L 307.39975 93.872194 
L 313.25875 93.789034 
L 319.4665 93.206914 
L 321.6985 93.123754 
L 323.9305 92.874274 
L 327.8365 92.874274 
L 327.8365 92.874274 
" style="fill:none;stroke:#9467bd;stroke-linecap:square;stroke-width:1.5;"/>
   </g>
   <g id="line2d_49">
    <path clip-path="url(#pe5d9980527)" d="M 120.2605 181.023874 
L 120.5395 181.023874 
L 120.5395 181.107034 
L 120.5395 181.356514 
L 122.2135 181.772314 
L 124.4455 182.021794 
L 125.8405 182.104954 
L 128.97925 182.354434 
L 134.00125 182.271274 
L 136.51225 182.021794 
L 139.093 181.938634 
L 141.883 181.522834 
L 149.137 179.859634 
L 152.9035 179.360674 
L 156.8095 179.360674 
L 159.3205 179.028034 
L 165.7375 179.028034 
L 171.0385 178.362754 
L 181.6405 177.364834 
L 191.6845 176.366914 
L 219.0265 176.366914 
L 222.0955 176.034274 
L 225.7225 176.034274 
L 229.9075 175.701634 
L 230.7445 175.701634 
L 244.1365 174.703714 
L 245.8105 174.371074 
L 248.8795 174.038434 
L 261.7135 171.377314 
L 265.6195 170.545714 
L 272.8735 169.215154 
L 285.568 168.050914 
L 287.6605 168.050914 
L 289.0555 167.718274 
L 297.1465 167.718274 
L 299.9365 168.050914 
L 307.7485 168.050914 
L 310.2595 168.383554 
L 317.2345 168.383554 
L 321.9775 168.050914 
L 323.0935 168.050914 
L 326.7205 167.551954 
L 332.998 166.221394 
L 334.2535 165.722434 
L 335.0905 165.722434 
L 335.788 165.223474 
L 336.067 165.057154 
L 336.2065 165.057154 
L 336.2065 165.057154 
L 336.2065 164.724514 
L 336.2065 164.724514 
" style="fill:none;stroke:#8c564b;stroke-linecap:square;stroke-width:1.5;"/>
   </g>
   <g id="line2d_50">
    <path clip-path="url(#pe5d9980527)" d="M 116.3545 157.739074 
L 116.0755 158.238034 
L 116.0755 158.404354 
L 116.0755 158.404354 
L 118.168 159.568594 
L 121.9345 161.065474 
L 128.0725 162.396034 
L 131.1415 162.728674 
L 134.7685 163.393954 
L 138.1165 163.726594 
L 142.0225 164.391874 
L 145.3705 164.391874 
L 150.1135 164.724514 
L 150.9505 164.724514 
L 158.2045 165.057154 
L 164.0635 165.057154 
L 167.6905 165.389794 
L 171.3175 166.055074 
L 174.9445 166.387714 
L 184.291 167.884594 
L 185.8255 168.050914 
L 191.1265 168.383554 
L 192.8005 168.716194 
L 199.636 169.215154 
L 202.0075 169.381474 
L 202.8445 169.381474 
L 209.2615 170.046754 
L 224.3275 170.046754 
L 229.21 169.381474 
L 232 169.048834 
L 232.6975 169.048834 
L 238.8355 168.050914 
L 241.6255 168.050914 
L 249.019 167.219314 
L 253.3435 166.720354 
L 256.1335 166.720354 
L 261.7135 166.387714 
L 265.3405 166.387714 
L 268.1305 166.720354 
L 270.9205 166.387714 
L 274.2685 166.387714 
L 278.314 165.888754 
L 279.0115 165.722434 
L 284.3125 164.724514 
L 288.637 163.393954 
L 292.6825 162.396034 
L 301.6105 160.400194 
L 304.1215 159.734914 
L 306.6325 159.402274 
L 309.4225 158.736994 
L 315.142 157.905394 
L 315.8395 157.739074 
L 317.7925 157.739074 
L 321.4195 157.073794 
L 325.8835 157.073794 
L 326.9995 156.741154 
L 330.6265 156.741154 
L 331.324 156.408514 
L 331.7425 156.408514 
L 331.7425 156.075874 
L 332.0215 155.743234 
L 332.0215 155.743234 
" style="fill:none;stroke:#e377c2;stroke-linecap:square;stroke-width:1.5;"/>
   </g>
   <g id="line2d_51">
    <path clip-path="url(#pe5d9980527)" d="M 102.1255 151.418914 
L 102.9625 151.418914 
L 104.3575 151.751554 
L 109.3795 151.751554 
L 112.1695 151.418914 
L 121.6555 149.423074 
L 136.303 146.761954 
L 137.0005 146.761954 
L 140.0695 146.429314 
L 143.4175 146.429314 
L 147.3235 146.761954 
L 149.8345 147.427234 
L 152.3455 148.425154 
L 153.7405 149.423074 
L 156.5305 152.084194 
L 157.3675 153.747394 
L 158.7625 155.743234 
L 161.2735 160.067554 
L 164.3425 164.225554 
L 165.7375 166.055074 
L 169.0855 169.048834 
L 173.131 171.543634 
L 174.3865 172.375234 
L 182.896 175.701634 
L 184.9885 176.366914 
L 188.3365 177.697474 
L 193.9165 179.360674 
L 199.2175 181.689154 
L 202.8445 182.687074 
L 206.1925 184.017634 
L 209.5405 185.015554 
L 212.8885 185.680834 
L 215.9575 186.678754 
L 219.5845 187.344034 
L 226.0015 188.009314 
L 232.4185 188.009314 
L 238.696 187.510354 
L 240.928 187.344034 
L 241.6255 187.344034 
L 244.6945 187.011394 
L 247.4845 186.346114 
L 250.2745 186.013474 
L 254.7385 185.015554 
L 257.2495 184.682914 
L 265.3405 182.687074 
L 267.5725 182.021794 
L 269.8045 181.689154 
L 272.3155 180.691234 
L 278.1745 179.028034 
L 282.6385 177.863794 
L 295.7515 175.368994 
L 299.0995 174.870034 
L 301.0525 174.537394 
L 302.4475 174.204754 
L 303.2845 174.038434 
L 305.2375 173.373154 
L 306.9115 173.040514 
L 311.9335 171.377314 
L 317.932 170.046754 
L 319.7455 170.046754 
L 320.3035 169.547794 
L 320.722 169.381474 
L 320.8615 169.381474 
L 320.8615 169.381474 
" style="fill:none;stroke:#7f7f7f;stroke-linecap:square;stroke-width:1.5;"/>
   </g>
   <g id="line2d_52">
    <path clip-path="url(#pe5d9980527)" d="M 112.1695 118.154914 
L 111.8905 118.154914 
L 111.8905 118.238074 
L 111.8905 118.487554 
L 111.8905 118.487554 
L 113.07625 119.319154 
L 114.6805 119.984434 
L 116.14525 120.317074 
L 119.284 120.816034 
L 120.5395 120.816034 
L 126.9565 121.481314 
L 130.3045 121.481314 
L 134.4895 121.813954 
L 144.2545 123.477154 
L 148.4395 123.809794 
L 156.5305 125.140354 
L 159.8785 125.472994 
L 163.7845 126.138274 
L 171.3175 126.803554 
L 197.2645 131.460514 
L 200.6125 131.793154 
L 204.5185 131.793154 
L 214.8415 132.791074 
L 217.6315 133.123714 
L 226.5595 133.123714 
L 236.8825 132.125794 
L 240.2305 131.460514 
L 246.0895 130.961554 
L 248.6005 130.795234 
L 256.1335 129.797314 
L 257.8075 129.797314 
L 265.48 129.132034 
L 267.0145 129.132034 
L 269.8045 128.799394 
L 272.5945 128.799394 
L 276.361 128.466754 
L 293.7985 128.466754 
L 296.3095 128.799394 
L 301.8895 128.799394 
L 304.4005 129.132034 
L 314.1655 129.132034 
L 316.3975 128.799394 
L 326.7205 128.799394 
L 328.1155 128.466754 
L 330.6265 128.466754 
L 330.6265 128.466754 
L 330.208 128.134114 
L 330.0685 128.134114 
L 330.0685 128.134114 
" style="fill:none;stroke:#bcbd22;stroke-linecap:square;stroke-width:1.5;"/>
   </g>
   <g id="line2d_53">
    <path clip-path="url(#pe5d9980527)" d="M 108.5425 124.142434 
L 109.44925 124.059274 
L 110.914 123.809794 
L 111.68125 123.726634 
L 117.7495 122.811874 
L 131.35075 119.651794 
L 132.8155 119.319154 
L 135.53575 118.570714 
L 138.6745 117.822274 
L 160.576 114.994834 
L 179.827 113.830594 
L 198.72925 113.913754 
L 203.542 114.163234 
L 208.7035 114.246394 
L 219.37525 114.828514 
L 224.188 114.911674 
L 234.72025 115.660114 
L 241.3465 116.491714 
L 250.693 117.822274 
L 262.34125 120.067594 
L 267.8515 121.148674 
L 270.9205 121.730794 
L 274.2685 122.479234 
L 277.8955 122.811874 
L 286.8235 124.142434 
L 290.7295 124.475074 
L 294.9145 124.475074 
L 298.2625 124.807714 
L 308.5855 124.807714 
L 319.606 126.304594 
L 320.3035 126.470914 
L 320.5825 126.470914 
L 321.6985 126.803554 
L 321.6985 126.803554 
" style="fill:none;stroke:#17becf;stroke-linecap:square;stroke-width:1.5;"/>
   </g>
   <g id="line2d_54">
    <path clip-path="url(#pe5d9980527)" d="M 113.0065 121.481314 
L 113.0065 121.813954 
L 113.0065 121.813954 
L 115.378 123.144514 
L 118.168 124.391914 
L 121.9345 125.639314 
L 124.51525 126.304594 
L 131.839 127.551994 
L 147.53275 128.799394 
L 156.112 128.882554 
L 164.0635 129.464674 
L 173.5495 130.129954 
L 178.5715 130.795234 
L 185.686 130.878394 
L 202.426 131.460514 
L 206.4715 131.543674 
L 212.12125 131.793154 
L 223.2115 131.709994 
L 234.02275 130.961554 
L 240.091 130.296274 
L 254.041 129.298354 
L 256.6915 129.132034 
L 269.8045 129.797314 
L 279.5695 130.462594 
L 283.7545 131.127874 
L 287.9395 131.460514 
L 291.8455 131.460514 
L 301.0525 132.292114 
L 310.8175 133.290034 
L 311.3755 133.456354 
L 313.8865 133.456354 
L 316.1185 133.788994 
L 323.0935 133.788994 
L 326.4415 133.123714 
L 326.4415 133.123714 
" style="fill:none;stroke:#1f77b4;stroke-linecap:square;stroke-width:1.5;"/>
   </g>
   <g id="line2d_55">
    <path clip-path="url(#pe5d9980527)" d="M 110.7745 159.402274 
L 110.4955 159.402274 
L 110.4955 159.485434 
L 110.56525 159.818074 
L 111.751 161.065474 
L 112.1695 161.398114 
L 118.23775 162.645514 
L 121.9345 163.061314 
L 125.63125 163.144474 
L 137.34925 164.142394 
L 143.34775 164.391874 
L 158.83225 164.308714 
L 173.2705 163.726594 
L 181.43125 163.809754 
L 186.17425 164.059234 
L 190.8475 164.142394 
L 194.1955 164.391874 
L 199.2175 164.391874 
L 205.9135 164.724514 
L 212.6095 164.724514 
L 220.7005 164.391874 
L 222.6535 164.391874 
L 230.4655 163.726594 
L 237.9985 163.726594 
L 245.8105 163.061314 
L 252.7855 163.061314 
L 256.6915 162.728674 
L 257.5285 162.728674 
L 261.1555 162.396034 
L 267.5725 161.564434 
L 269.944 161.398114 
L 270.6415 161.398114 
L 274.2685 160.732834 
L 284.0335 160.732834 
L 290.311 161.231794 
L 295.612 161.897074 
L 296.3095 162.063394 
L 306.9115 163.393954 
L 310.5385 163.393954 
L 311.6545 163.061314 
L 315.2815 162.728674 
L 318.3505 162.063394 
L 322.8145 160.400194 
L 324.7675 159.568594 
L 325.3255 159.402274 
L 326.7205 158.404354 
L 327.418 157.905394 
L 328.6735 156.408514 
L 328.6735 156.408514 
" style="fill:none;stroke:#ff7f0e;stroke-linecap:square;stroke-width:1.5;"/>
   </g>
   <g id="line2d_56">
    <path clip-path="url(#pe5d9980527)" d="M 79.2475 94.537474 
L 79.31725 95.285914 
L 79.666 95.535394 
L 80.6425 95.618554 
L 81.82825 95.868034 
L 86.01325 95.784874 
L 88.4545 95.535394 
L 90.826 95.452234 
L 93.616 95.202754 
L 105.4735 95.119594 
L 108.682 94.870114 
L 111.68125 94.786954 
L 115.16875 94.537474 
L 128.3515 94.620634 
L 133.234 95.202754 
L 136.303 95.535394 
L 143.48725 95.618554 
L 145.3705 95.868034 
L 148.78825 95.535394 
L 151.71775 95.618554 
L 156.2515 95.868034 
L 158.2045 95.784874 
L 159.8785 95.535394 
L 170.4805 95.535394 
L 172.9915 95.868034 
L 175.7815 95.868034 
L 178.0135 95.535394 
L 179.6875 95.535394 
L 181.3615 95.202754 
L 184.7095 95.202754 
L 185.8255 94.870114 
L 186.9415 94.870114 
L 187.7785 94.537474 
L 188.6155 94.537474 
L 189.7315 94.204834 
L 190.0105 94.204834 
L 190.5685 93.872194 
L 191.1265 93.872194 
L 192.2425 93.539554 
L 192.8005 93.539554 
L 193.3585 93.206914 
L 195.8695 93.206914 
L 196.4275 93.539554 
L 196.4275 93.539554 
" style="fill:none;stroke:#2ca02c;stroke-linecap:square;stroke-width:1.5;"/>
   </g>
   <g id="line2d_57">
    <path clip-path="url(#pe5d9980527)" d="M 116.3545 103.851394 
L 117.4705 104.433514 
L 120.8185 106.013554 
L 122.4925 106.845154 
L 133.6525 109.838914 
L 137.07025 110.587354 
L 147.0445 111.834754 
L 158.344 112.998994 
L 166.2955 113.497954 
L 185.407 113.414794 
L 191.61475 113.165314 
L 209.68 113.248474 
L 215.74825 113.497954 
L 228.30325 113.414794 
L 239.9515 112.832674 
L 249.50725 112.084234 
L 256.1335 111.751594 
L 257.8075 111.502114 
L 262.8295 111.502114 
L 268.75825 110.753674 
L 282.84775 109.672594 
L 287.1025 109.090474 
L 291.427 108.674674 
L 293.5195 108.425194 
L 308.8645 107.177794 
L 312.56125 106.761994 
L 316.1185 106.512514 
L 318.9085 105.847234 
L 323.512 105.348274 
L 327.418 104.599834 
L 327.697 104.516674 
L 328.3945 104.516674 
L 328.3945 104.516674 
" style="fill:none;stroke:#d62728;stroke-linecap:square;stroke-width:1.5;"/>
   </g>
   <g id="line2d_58">
    <path clip-path="url(#pe5d9980527)" d="M 113.2855 169.714114 
L 112.4485 170.878354 
L 112.51825 171.210994 
L 112.7275 171.709954 
L 114.19225 172.791034 
L 116.0755 174.038434 
L 119.91175 175.452154 
L 120.5395 175.701634 
L 130.51375 176.782714 
L 133.792 177.032194 
L 143.62675 176.949034 
L 160.4365 175.701634 
L 163.645 175.784794 
L 167.62075 176.034274 
L 171.66625 176.117434 
L 174.3865 176.366914 
L 178.0135 176.366914 
L 188.3365 177.364834 
L 191.9635 178.030114 
L 195.3115 178.362754 
L 198.6595 179.028034 
L 201.7285 179.360674 
L 205.0765 180.025954 
L 212.6095 180.691234 
L 218.329 181.522834 
L 219.8635 181.689154 
L 222.3745 181.689154 
L 229.489 182.354434 
L 231.0235 182.354434 
L 233.8135 182.687074 
L 236.3245 182.687074 
L 245.8105 183.352354 
L 249.9955 183.352354 
L 252.7855 183.684994 
L 263.6665 183.684994 
L 266.1775 183.352354 
L 274.5475 183.352354 
L 277.0585 183.019714 
L 289.0555 183.019714 
L 291.2875 183.352354 
L 304.4005 183.352354 
L 306.0745 183.684994 
L 311.6545 183.684994 
L 311.6545 183.684994 
" style="fill:none;stroke:#9467bd;stroke-linecap:square;stroke-width:1.5;"/>
   </g>
   <g id="line2d_59">
    <path clip-path="url(#pe5d9980527)" d="M 100.4515 136.782754 
L 108.8215 136.782754 
L 113.704 136.283794 
L 118.8655 135.784834 
L 121.9345 135.452194 
L 133.0945 133.123714 
L 137.419 132.624754 
L 143.6965 131.460514 
L 148.1605 130.462594 
L 152.6245 129.464674 
L 161.2735 127.801474 
L 166.0165 127.468834 
L 169.3645 127.468834 
L 176.6185 128.799394 
L 179.9665 129.797314 
L 185.2675 131.626834 
L 188.8945 132.624754 
L 192.382 133.456354 
L 197.2645 134.454274 
L 206.053 135.618514 
L 214.2835 136.283794 
L 215.6785 136.450114 
L 219.0265 136.450114 
L 223.4905 136.782754 
L 229.489 137.614354 
L 234.0925 138.113314 
L 237.1615 138.778594 
L 243.8575 139.610194 
L 246.0895 139.942834 
L 248.3215 140.109154 
L 249.1585 140.109154 
L 254.599 140.940754 
L 255.2965 141.107074 
L 258.9235 141.439714 
L 262.2715 141.439714 
L 272.5945 142.770274 
L 275.1055 142.770274 
L 277.6165 143.102914 
L 282.6385 143.102914 
L 284.8705 143.435554 
L 289.6135 143.102914 
L 290.7295 143.102914 
L 298.8205 142.271314 
L 299.9365 142.104994 
L 302.4475 141.439714 
L 306.3535 140.940754 
L 310.2595 140.441794 
L 321.4195 138.778594 
L 323.6515 138.113314 
L 331.4635 136.782754 
L 333.4165 136.782754 
L 336.7645 136.283794 
L 338.9965 136.117474 
L 340.9495 136.117474 
L 343.1815 135.784834 
L 343.7395 135.784834 
L 344.5765 135.452194 
L 345.9715 135.452194 
L 345.9715 135.452194 
" style="fill:none;stroke:#8c564b;stroke-linecap:square;stroke-width:1.5;"/>
   </g>
   <g id="line2d_60">
    <path clip-path="url(#pe5d9980527)" d="M 117.1915 161.398114 
L 117.12175 161.813914 
L 116.98225 162.146554 
L 118.0285 163.393954 
L 120.88825 164.142394 
L 123.39925 164.391874 
L 126.1195 164.475034 
L 128.6305 164.724514 
L 131.6995 164.391874 
L 152.97325 164.475034 
L 165.4585 165.389794 
L 169.9225 166.055074 
L 174.9445 166.138234 
L 181.3615 166.720354 
L 184.4305 167.052994 
L 194.1955 168.716194 
L 204.5185 171.709954 
L 206.4715 172.375234 
L 210.3775 173.373154 
L 218.7475 177.032194 
L 222.6535 179.028034 
L 228.931 182.687074 
L 232.6975 184.682914 
L 234.6505 185.680834 
L 238.8355 187.344034 
L 246.0895 189.339874 
L 251.3905 190.005154 
L 255.0175 190.005154 
L 258.6445 189.672514 
L 261.9925 189.007234 
L 265.3405 188.674594 
L 280.9645 185.680834 
L 289.3345 184.350274 
L 290.7295 184.017634 
L 297.4255 183.019714 
L 299.9365 182.354434 
L 307.7485 181.023874 
L 313.0495 179.360674 
L 316.258 178.196434 
L 318.9085 177.032194 
L 320.0245 176.366914 
L 321.1405 176.034274 
L 322.675 175.036354 
L 323.0935 174.703714 
L 323.9305 174.371074 
L 324.7675 173.705794 
L 327.139 172.707874 
L 327.5575 172.375234 
L 328.6735 172.042594 
L 329.7895 171.377314 
L 331.4635 171.044674 
L 331.7425 171.044674 
L 331.7425 171.044674 
" style="fill:none;stroke:#e377c2;stroke-linecap:square;stroke-width:1.5;"/>
   </g>
   <g id="line2d_61">
    <path clip-path="url(#pe5d9980527)" d="M 109.6585 152.084194 
L 109.1005 152.084194 
L 109.1005 152.167354 
L 109.1005 152.416834 
L 109.1005 152.416834 
L 110.914 153.248434 
L 111.8905 153.747394 
L 117.67975 154.911634 
L 118.5865 155.077954 
L 124.864 155.410594 
L 130.444 155.327434 
L 138.32575 154.578994 
L 147.0445 153.082114 
L 150.6715 152.416834 
L 155.1355 151.252594 
L 159.5995 150.254674 
L 171.0385 147.427234 
L 176.8975 146.096674 
L 178.5715 146.096674 
L 186.1045 144.766114 
L 193.219 144.100834 
L 194.1955 144.100834 
L 198.6595 143.768194 
L 234.9295 143.768194 
L 241.6255 144.267154 
L 249.4375 144.766114 
L 253.0645 145.431394 
L 256.6915 145.764034 
L 268.828 147.926194 
L 275.9425 148.591474 
L 281.5225 149.090434 
L 290.7295 149.090434 
L 294.0775 148.757794 
L 297.1465 148.757794 
L 301.6105 148.425154 
L 316.1185 148.425154 
L 318.9085 148.092514 
L 328.3945 148.092514 
L 328.3945 148.092514 
" style="fill:none;stroke:#7f7f7f;stroke-linecap:square;stroke-width:1.5;"/>
   </g>
   <g id="line2d_62">
    <path clip-path="url(#pe5d9980527)" d="M 121.6555 117.156994 
L 121.0975 117.156994 
L 121.0975 117.240154 
L 121.0975 117.489634 
L 121.16725 117.489634 
L 122.7715 117.572794 
L 124.864 117.822274 
L 130.3045 117.822274 
L 132.2575 118.154914 
L 137.2795 118.154914 
L 154.717 120.150754 
L 155.4145 120.150754 
L 163.2265 120.982354 
L 164.0635 121.148674 
L 170.341 121.647634 
L 180.8035 123.477154 
L 187.081 124.974034 
L 188.8945 125.472994 
L 191.1265 125.805634 
L 196.7065 127.136194 
L 200.6125 127.801474 
L 206.1925 129.132034 
L 213.7255 130.462594 
L 217.6315 131.460514 
L 221.2585 132.125794 
L 225.1645 132.458434 
L 232 133.290034 
L 234.6505 133.456354 
L 275.9425 133.456354 
L 286.5445 132.458434 
L 297.1465 130.462594 
L 306.9115 127.801474 
L 309.9805 126.803554 
L 314.4445 125.805634 
L 315.8395 125.140354 
L 318.6295 124.807714 
L 325.186 123.310834 
L 333.1375 122.146594 
L 335.3695 121.481314 
L 341.5075 120.483394 
L 344.5765 119.818114 
L 346.2505 119.152834 
L 350.4355 116.824354 
L 354.8995 113.165314 
L 356.713 110.836834 
L 356.8525 110.504194 
L 357.4105 109.838914 
L 357.4105 108.508354 
L 357.4105 108.508354 
" style="fill:none;stroke:#bcbd22;stroke-linecap:square;stroke-width:1.5;"/>
   </g>
   <g id="line2d_63">
    <path clip-path="url(#pe5d9980527)" d="M 119.4235 104.516674 
L 117.61 105.514594 
L 117.12175 105.597754 
L 116.9125 105.847234 
L 116.9125 105.847234 
L 117.4705 106.512514 
L 119.77225 107.344114 
L 123.8875 108.342034 
L 128.0725 109.173634 
L 135.81475 109.090474 
L 139.5115 108.757834 
L 145.3705 108.508354 
L 150.532 108.591514 
L 162.1105 109.506274 
L 170.2015 109.838914 
L 185.8255 109.922074 
L 203.6815 111.169474 
L 216.5155 111.169474 
L 225.025 110.836834 
L 227.1175 110.836834 
L 234.79 110.504194 
L 236.6035 110.504194 
L 241.0675 110.836834 
L 260.5975 110.836834 
L 263.9455 110.504194 
L 276.7795 110.504194 
L 280.6855 110.005234 
L 285.7075 109.506274 
L 293.7985 107.843074 
L 295.7515 107.177794 
L 301.75 105.680914 
L 307.4695 103.851394 
L 311.6545 102.853474 
L 314.4445 102.520834 
L 316.9555 102.520834 
L 320.5825 102.853474 
L 326.7205 105.348274 
L 328.534 106.346194 
L 331.324 107.676754 
L 331.7425 107.843074 
L 333.6955 109.173634 
L 339.2755 111.834754 
L 339.2755 111.834754 
" style="fill:none;stroke:#17becf;stroke-linecap:square;stroke-width:1.5;"/>
   </g>
   
  </g>
 </g>
 <defs>
  <clipPath id="pe5d9980527">
   <rect height="266.112" width="357.12" x="48.5575" y="14.038594"/>
  </clipPath>
 </defs>
</svg>
